0
SECTION
2
HEADER
9
$ACADVER
1
AC1009
9
$INSUNITS
70
4
9
$EXTMIN
10
-5480.0000
20
-8740.0000
30
0.0
9
$EXTMAX
10
26882.0000
20
9130.0000
30
0.0
9
$LTSCALE
40
1.0
9
$TEXTSTYLE
7
STANDARD
0
ENDSEC
0
SECTION
2
TABLES
0
TABLE
2
LTYPE
70
4
0
LTYPE
2
CONTINUOUS
70
0
3
Solida
72
65
73
0
40
0.0
0
LTYPE
2
CENTER
70
0
3
Linha de centro ____ _ ____ _ ____
72
65
73
4
40
31.7500
49
0.5000
49
-6.3500
49
3.1750
49
-6.3500
0
LTYPE
2
HIDDEN
70
0
3
Tracejada __ __ __ __ __ __
72
65
73
3
40
9.5250
49
0.5000
49
-6.3500
49
3.1750
0
LTYPE
2
DASHED
70
0
3
Tracejada longa ___ ___ ___
72
65
73
3
40
12.7000
49
0.5000
49
-6.3500
49
6.3500
0
ENDTAB
0
TABLE
2
LAYER
70
14
0
LAYER
2
0
70
0
62
7
6
CONTINUOUS
0
LAYER
2
ACO
70
0
62
7
6
CONTINUOUS
0
LAYER
2
ACO-FINO
70
0
62
8
6
CONTINUOUS
0
LAYER
2
EIXO
70
0
62
1
6
CENTER
0
LAYER
2
OCULTA
70
0
62
8
6
HIDDEN
0
LAYER
2
COTA
70
0
62
3
6
CONTINUOUS
0
LAYER
2
TEXTO
70
0
62
7
6
CONTINUOUS
0
LAYER
2
FURO
70
0
62
5
6
CONTINUOUS
0
LAYER
2
SOLDA
70
0
62
2
6
CONTINUOUS
0
LAYER
2
PARAFUSO
70
0
62
5
6
CONTINUOUS
0
LAYER
2
CONCRETO
70
0
62
9
6
CONTINUOUS
0
LAYER
2
HACHURA
70
0
62
8
6
CONTINUOUS
0
LAYER
2
CARIMBO
70
0
62
7
6
CONTINUOUS
0
LAYER
2
AUXILIAR
70
0
62
8
6
DASHED
0
ENDTAB
0
TABLE
2
STYLE
70
1
0
STYLE
2
STANDARD
70
0
40
0.0
41
0.85
50
0.0
71
0
42
2.5
3
txt
4

0
ENDTAB
0
ENDSEC
0
SECTION
2
ENTITIES
0
POLYLINE
8
ACO
66
1
10
0.0
20
0.0
30
0.0
70
1
0
VERTEX
8
ACO
10
-199.5000
20
0.0000
30
0.0
0
VERTEX
8
ACO
10
199.5000
20
0.0000
30
0.0
0
VERTEX
8
ACO
10
199.5000
20
6000.0000
30
0.0
0
VERTEX
8
ACO
10
-199.5000
20
6000.0000
30
0.0
0
SEQEND
8
ACO
0
LINE
8
ACO-FINO
10
-190.7000
20
0.0000
30
0.0
11
-190.7000
21
6000.0000
31
0.0
0
LINE
8
ACO-FINO
10
190.7000
20
0.0000
30
0.0
11
190.7000
21
6000.0000
31
0.0
0
LINE
8
EIXO
10
0.0000
20
-1000.0000
30
0.0
11
0.0000
21
1400.0000
31
0.0
0
POLYLINE
8
ACO
66
1
10
0.0
20
0.0
30
0.0
70
1
0
VERTEX
8
ACO
10
19800.5000
20
0.0000
30
0.0
0
VERTEX
8
ACO
10
20199.5000
20
0.0000
30
0.0
0
VERTEX
8
ACO
10
20199.5000
20
6000.0000
30
0.0
0
VERTEX
8
ACO
10
19800.5000
20
6000.0000
30
0.0
0
SEQEND
8
ACO
0
LINE
8
ACO-FINO
10
19809.3000
20
0.0000
30
0.0
11
19809.3000
21
6000.0000
31
0.0
0
LINE
8
ACO-FINO
10
20190.7000
20
0.0000
30
0.0
11
20190.7000
21
6000.0000
31
0.0
0
LINE
8
EIXO
10
20000.0000
20
-1000.0000
30
0.0
11
20000.0000
21
1400.0000
31
0.0
0
POLYLINE
8
ACO
66
1
10
0.0
20
0.0
30
0.0
70
1
0
VERTEX
8
ACO
10
0.0000
20
6000.0000
30
0.0
0
VERTEX
8
ACO
10
10000.0000
20
7000.0000
30
0.0
0
VERTEX
8
ACO
10
9974.3280
20
7256.7196
30
0.0
0
VERTEX
8
ACO
10
-25.6720
20
6256.7196
30
0.0
0
SEQEND
8
ACO
0
LINE
8
ACO-FINO
10
-0.9055
20
6009.0548
30
0.0
11
9999.0945
21
7009.0548
31
0.0
0
LINE
8
ACO-FINO
10
-24.7665
20
6247.6648
30
0.0
11
9975.2335
21
7247.6648
31
0.0
0
POLYLINE
8
ACO
66
1
10
0.0
20
0.0
30
0.0
70
1
0
VERTEX
8
ACO
10
20000.0000
20
6000.0000
30
0.0
0
VERTEX
8
ACO
10
10000.0000
20
7000.0000
30
0.0
0
VERTEX
8
ACO
10
10025.6720
20
7256.7196
30
0.0
0
VERTEX
8
ACO
10
20025.6720
20
6256.7196
30
0.0
0
SEQEND
8
ACO
0
LINE
8
ACO-FINO
10
20000.9055
20
6009.0548
30
0.0
11
10000.9055
21
7009.0548
31
0.0
0
LINE
8
ACO-FINO
10
20024.7665
20
6247.6648
30
0.0
11
10024.7665
21
7247.6648
31
0.0
0
POLYLINE
8
ACO
66
1
10
0.0
20
0.0
30
0.0
70
1
0
VERTEX
8
ACO
10
0.0000
20
6000.0000
30
0.0
0
VERTEX
8
ACO
10
1791.0669
20
6179.1067
30
0.0
0
VERTEX
8
ACO
10
20.4978
20
5795.0223
30
0.0
0
SEQEND
8
ACO
0
LINE
8
ACO-FINO
10
18.5686
20
5803.9155
30
0.0
11
1789.1378
21
6187.9999
31
0.0
0
LINE
8
ACO
10
1788.6072
20
6203.7040
30
0.0
11
1793.5267
21
6154.5094
31
0.0
0
POLYLINE
8
ACO
66
1
10
0.0
20
0.0
30
0.0
70
1
0
VERTEX
8
ACO
10
20000.0000
20
6000.0000
30
0.0
0
VERTEX
8
ACO
10
18208.9331
20
6179.1067
30
0.0
0
VERTEX
8
ACO
10
19979.5022
20
5795.0223
30
0.0
0
SEQEND
8
ACO
0
LINE
8
ACO-FINO
10
19981.4314
20
5803.9155
30
0.0
11
18210.8622
21
6187.9999
31
0.0
0
LINE
8
ACO
10
18211.3928
20
6203.7040
30
0.0
11
18206.4733
21
6154.5094
31
0.0
0
POLYLINE
8
CONCRETO
66
1
10
0.0
20
0.0
30
0.0
70
1
0
VERTEX
8
CONCRETO
10
-299.5000
20
-600.0000
30
0.0
0
VERTEX
8
CONCRETO
10
299.5000
20
-600.0000
30
0.0
0
VERTEX
8
CONCRETO
10
299.5000
20
0.0000
30
0.0
0
VERTEX
8
CONCRETO
10
-299.5000
20
0.0000
30
0.0
0
SEQEND
8
CONCRETO
0
LINE
8
HACHURA
10
172.2208
20
-600.0000
30
0.0
11
299.5000
21
-472.7208
31
0.0
0
LINE
8
HACHURA
10
44.9416
20
-600.0000
30
0.0
11
299.5000
21
-345.4416
31
0.0
0
LINE
8
HACHURA
10
-82.3377
20
-600.0000
30
0.0
11
299.5000
21
-218.1623
31
0.0
0
LINE
8
HACHURA
10
-209.6169
20
-600.0000
30
0.0
11
299.5000
21
-90.8831
31
0.0
0
LINE
8
HACHURA
10
-299.5000
20
-562.6039
30
0.0
11
263.1039
21
0.0000
31
0.0
0
LINE
8
HACHURA
10
-299.5000
20
-435.3247
30
0.0
11
135.8247
21
0.0000
31
0.0
0
LINE
8
HACHURA
10
-299.5000
20
-308.0455
30
0.0
11
8.5455
21
0.0000
31
0.0
0
LINE
8
HACHURA
10
-299.5000
20
-180.7662
30
0.0
11
-118.7338
21
0.0000
31
0.0
0
LINE
8
HACHURA
10
-299.5000
20
-53.4870
30
0.0
11
-246.0130
21
0.0000
31
0.0
0
POLYLINE
8
ACO
66
1
10
0.0
20
0.0
30
0.0
70
1
0
VERTEX
8
ACO
10
-200.0000
20
0.0000
30
0.0
0
VERTEX
8
ACO
10
200.0000
20
0.0000
30
0.0
0
VERTEX
8
ACO
10
200.0000
20
57.0000
30
0.0
0
VERTEX
8
ACO
10
-200.0000
20
57.0000
30
0.0
0
SEQEND
8
ACO
0
POLYLINE
8
CONCRETO
66
1
10
0.0
20
0.0
30
0.0
70
1
0
VERTEX
8
CONCRETO
10
19700.5000
20
-600.0000
30
0.0
0
VERTEX
8
CONCRETO
10
20299.5000
20
-600.0000
30
0.0
0
VERTEX
8
CONCRETO
10
20299.5000
20
0.0000
30
0.0
0
VERTEX
8
CONCRETO
10
19700.5000
20
0.0000
30
0.0
0
SEQEND
8
CONCRETO
0
LINE
8
HACHURA
10
20172.2208
20
-600.0000
30
0.0
11
20299.5000
21
-472.7208
31
0.0
0
LINE
8
HACHURA
10
20044.9416
20
-600.0000
30
0.0
11
20299.5000
21
-345.4416
31
0.0
0
LINE
8
HACHURA
10
19917.6623
20
-600.0000
30
0.0
11
20299.5000
21
-218.1623
31
0.0
0
LINE
8
HACHURA
10
19790.3831
20
-600.0000
30
0.0
11
20299.5000
21
-90.8831
31
0.0
0
LINE
8
HACHURA
10
19700.5000
20
-562.6039
30
0.0
11
20263.1039
21
0.0000
31
0.0
0
LINE
8
HACHURA
10
19700.5000
20
-435.3247
30
0.0
11
20135.8247
21
0.0000
31
0.0
0
LINE
8
HACHURA
10
19700.5000
20
-308.0455
30
0.0
11
20008.5455
21
0.0000
31
0.0
0
LINE
8
HACHURA
10
19700.5000
20
-180.7662
30
0.0
11
19881.2662
21
0.0000
31
0.0
0
LINE
8
HACHURA
10
19700.5000
20
-53.4870
30
0.0
11
19753.9870
21
0.0000
31
0.0
0
POLYLINE
8
ACO
66
1
10
0.0
20
0.0
30
0.0
70
1
0
VERTEX
8
ACO
10
19800.0000
20
0.0000
30
0.0
0
VERTEX
8
ACO
10
20200.0000
20
0.0000
30
0.0
0
VERTEX
8
ACO
10
20200.0000
20
57.0000
30
0.0
0
VERTEX
8
ACO
10
19800.0000
20
57.0000
30
0.0
0
SEQEND
8
ACO
0
LINE
8
CONCRETO
10
-1600.0000
20
0.0000
30
0.0
11
21600.0000
21
0.0000
31
0.0
0
LINE
8
CONCRETO
10
-1600.0000
20
0.0000
30
0.0
11
-1782.0000
21
-260.0000
31
0.0
0
LINE
8
CONCRETO
10
-1200.0000
20
0.0000
30
0.0
11
-1382.0000
21
-260.0000
31
0.0
0
LINE
8
CONCRETO
10
-800.0000
20
0.0000
30
0.0
11
-982.0000
21
-260.0000
31
0.0
0
LINE
8
CONCRETO
10
-400.0000
20
0.0000
30
0.0
11
-582.0000
21
-260.0000
31
0.0
0
LINE
8
CONCRETO
10
0.0000
20
0.0000
30
0.0
11
-182.0000
21
-260.0000
31
0.0
0
LINE
8
CONCRETO
10
400.0000
20
0.0000
30
0.0
11
218.0000
21
-260.0000
31
0.0
0
LINE
8
CONCRETO
10
800.0000
20
0.0000
30
0.0
11
618.0000
21
-260.0000
31
0.0
0
LINE
8
CONCRETO
10
1200.0000
20
0.0000
30
0.0
11
1018.0000
21
-260.0000
31
0.0
0
LINE
8
CONCRETO
10
1600.0000
20
0.0000
30
0.0
11
1418.0000
21
-260.0000
31
0.0
0
LINE
8
CONCRETO
10
2000.0000
20
0.0000
30
0.0
11
1818.0000
21
-260.0000
31
0.0
0
LINE
8
CONCRETO
10
2400.0000
20
0.0000
30
0.0
11
2218.0000
21
-260.0000
31
0.0
0
LINE
8
CONCRETO
10
2800.0000
20
0.0000
30
0.0
11
2618.0000
21
-260.0000
31
0.0
0
LINE
8
CONCRETO
10
3200.0000
20
0.0000
30
0.0
11
3018.0000
21
-260.0000
31
0.0
0
LINE
8
CONCRETO
10
3600.0000
20
0.0000
30
0.0
11
3418.0000
21
-260.0000
31
0.0
0
LINE
8
CONCRETO
10
4000.0000
20
0.0000
30
0.0
11
3818.0000
21
-260.0000
31
0.0
0
LINE
8
CONCRETO
10
4400.0000
20
0.0000
30
0.0
11
4218.0000
21
-260.0000
31
0.0
0
LINE
8
CONCRETO
10
4800.0000
20
0.0000
30
0.0
11
4618.0000
21
-260.0000
31
0.0
0
LINE
8
CONCRETO
10
5200.0000
20
0.0000
30
0.0
11
5018.0000
21
-260.0000
31
0.0
0
LINE
8
CONCRETO
10
5600.0000
20
0.0000
30
0.0
11
5418.0000
21
-260.0000
31
0.0
0
LINE
8
CONCRETO
10
6000.0000
20
0.0000
30
0.0
11
5818.0000
21
-260.0000
31
0.0
0
LINE
8
CONCRETO
10
6400.0000
20
0.0000
30
0.0
11
6218.0000
21
-260.0000
31
0.0
0
LINE
8
CONCRETO
10
6800.0000
20
0.0000
30
0.0
11
6618.0000
21
-260.0000
31
0.0
0
LINE
8
CONCRETO
10
7200.0000
20
0.0000
30
0.0
11
7018.0000
21
-260.0000
31
0.0
0
LINE
8
CONCRETO
10
7600.0000
20
0.0000
30
0.0
11
7418.0000
21
-260.0000
31
0.0
0
LINE
8
CONCRETO
10
8000.0000
20
0.0000
30
0.0
11
7818.0000
21
-260.0000
31
0.0
0
LINE
8
CONCRETO
10
8400.0000
20
0.0000
30
0.0
11
8218.0000
21
-260.0000
31
0.0
0
LINE
8
CONCRETO
10
8800.0000
20
0.0000
30
0.0
11
8618.0000
21
-260.0000
31
0.0
0
LINE
8
CONCRETO
10
9200.0000
20
0.0000
30
0.0
11
9018.0000
21
-260.0000
31
0.0
0
LINE
8
CONCRETO
10
9600.0000
20
0.0000
30
0.0
11
9418.0000
21
-260.0000
31
0.0
0
LINE
8
CONCRETO
10
10000.0000
20
0.0000
30
0.0
11
9818.0000
21
-260.0000
31
0.0
0
LINE
8
CONCRETO
10
10400.0000
20
0.0000
30
0.0
11
10218.0000
21
-260.0000
31
0.0
0
LINE
8
CONCRETO
10
10800.0000
20
0.0000
30
0.0
11
10618.0000
21
-260.0000
31
0.0
0
LINE
8
CONCRETO
10
11200.0000
20
0.0000
30
0.0
11
11018.0000
21
-260.0000
31
0.0
0
LINE
8
CONCRETO
10
11600.0000
20
0.0000
30
0.0
11
11418.0000
21
-260.0000
31
0.0
0
LINE
8
CONCRETO
10
12000.0000
20
0.0000
30
0.0
11
11818.0000
21
-260.0000
31
0.0
0
LINE
8
CONCRETO
10
12400.0000
20
0.0000
30
0.0
11
12218.0000
21
-260.0000
31
0.0
0
LINE
8
CONCRETO
10
12800.0000
20
0.0000
30
0.0
11
12618.0000
21
-260.0000
31
0.0
0
LINE
8
CONCRETO
10
13200.0000
20
0.0000
30
0.0
11
13018.0000
21
-260.0000
31
0.0
0
LINE
8
CONCRETO
10
13600.0000
20
0.0000
30
0.0
11
13418.0000
21
-260.0000
31
0.0
0
LINE
8
CONCRETO
10
14000.0000
20
0.0000
30
0.0
11
13818.0000
21
-260.0000
31
0.0
0
LINE
8
CONCRETO
10
14400.0000
20
0.0000
30
0.0
11
14218.0000
21
-260.0000
31
0.0
0
LINE
8
CONCRETO
10
14800.0000
20
0.0000
30
0.0
11
14618.0000
21
-260.0000
31
0.0
0
LINE
8
CONCRETO
10
15200.0000
20
0.0000
30
0.0
11
15018.0000
21
-260.0000
31
0.0
0
LINE
8
CONCRETO
10
15600.0000
20
0.0000
30
0.0
11
15418.0000
21
-260.0000
31
0.0
0
LINE
8
CONCRETO
10
16000.0000
20
0.0000
30
0.0
11
15818.0000
21
-260.0000
31
0.0
0
LINE
8
CONCRETO
10
16400.0000
20
0.0000
30
0.0
11
16218.0000
21
-260.0000
31
0.0
0
LINE
8
CONCRETO
10
16800.0000
20
0.0000
30
0.0
11
16618.0000
21
-260.0000
31
0.0
0
LINE
8
CONCRETO
10
17200.0000
20
0.0000
30
0.0
11
17018.0000
21
-260.0000
31
0.0
0
LINE
8
CONCRETO
10
17600.0000
20
0.0000
30
0.0
11
17418.0000
21
-260.0000
31
0.0
0
LINE
8
CONCRETO
10
18000.0000
20
0.0000
30
0.0
11
17818.0000
21
-260.0000
31
0.0
0
LINE
8
CONCRETO
10
18400.0000
20
0.0000
30
0.0
11
18218.0000
21
-260.0000
31
0.0
0
LINE
8
CONCRETO
10
18800.0000
20
0.0000
30
0.0
11
18618.0000
21
-260.0000
31
0.0
0
LINE
8
CONCRETO
10
19200.0000
20
0.0000
30
0.0
11
19018.0000
21
-260.0000
31
0.0
0
LINE
8
CONCRETO
10
19600.0000
20
0.0000
30
0.0
11
19418.0000
21
-260.0000
31
0.0
0
LINE
8
CONCRETO
10
20000.0000
20
0.0000
30
0.0
11
19818.0000
21
-260.0000
31
0.0
0
LINE
8
CONCRETO
10
20400.0000
20
0.0000
30
0.0
11
20218.0000
21
-260.0000
31
0.0
0
LINE
8
CONCRETO
10
20800.0000
20
0.0000
30
0.0
11
20618.0000
21
-260.0000
31
0.0
0
LINE
8
CONCRETO
10
21200.0000
20
0.0000
30
0.0
11
21018.0000
21
-260.0000
31
0.0
0
CIRCLE
8
EIXO
10
0.0000
20
0.0000
30
0.0
40
160.0000
0
TEXT
8
TEXTO
10
240.0000
20
120.0000
30
0.0
40
200.0000
1
N1
50
0.0000
0
CIRCLE
8
EIXO
10
0.0000
20
6000.0000
30
0.0
40
160.0000
0
TEXT
8
TEXTO
10
240.0000
20
6120.0000
30
0.0
40
200.0000
1
N2
50
0.0000
0
CIRCLE
8
EIXO
10
10000.0000
20
7000.0000
30
0.0
40
160.0000
0
TEXT
8
TEXTO
10
10240.0000
20
7120.0000
30
0.0
40
200.0000
1
N3
50
0.0000
0
CIRCLE
8
EIXO
10
20000.0000
20
6000.0000
30
0.0
40
160.0000
0
TEXT
8
TEXTO
10
20240.0000
20
6120.0000
30
0.0
40
200.0000
1
N4
50
0.0000
0
CIRCLE
8
EIXO
10
20000.0000
20
0.0000
30
0.0
40
160.0000
0
TEXT
8
TEXTO
10
20240.0000
20
120.0000
30
0.0
40
200.0000
1
N5
50
0.0000
0
CIRCLE
8
AUXILIAR
10
0.0000
20
6000.0000
30
0.0
40
1100.0000
0
CIRCLE
8
AUXILIAR
10
20000.0000
20
6000.0000
30
0.0
40
1100.0000
0
CIRCLE
8
AUXILIAR
10
10000.0000
20
7000.0000
30
0.0
40
1100.0000
0
CIRCLE
8
AUXILIAR
10
0.0000
20
0.0000
30
0.0
40
770.0000
0
CIRCLE
8
AUXILIAR
10
20000.0000
20
0.0000
30
0.0
40
770.0000
0
LINE
8
TEXTO
10
770.0000
20
6770.0000
30
0.0
11
4000.0000
21
4800.0000
31
0.0
0
SOLID
8
TEXTO
10
770.0000
20
6770.0000
30
0.0
11
944.3821
21
6575.7942
31
0.0
12
1022.4873
22
6703.8551
32
0.0
13
1022.4873
23
6703.8551
33
0.0
0
LINE
8
TEXTO
10
4000.0000
20
4800.0000
30
0.0
11
4400.0000
21
4800.0000
31
0.0
0
TEXT
8
TEXTO
10
4460.0000
20
4890.0000
30
0.0
40
200.0000
1
LIGACAO DE JOELHO - CHAPA DE TOPO
50
0.0000
0
TEXT
8
TEXTO
10
4460.0000
20
4620.0000
30
0.0
40
200.0000
1
VER DET. 04
50
0.0000
0
LINE
8
TEXTO
10
10770.0000
20
7550.0000
30
0.0
11
13200.0000
21
8820.0000
31
0.0
0
SOLID
8
TEXTO
10
10770.0000
20
7550.0000
30
0.0
11
11026.3041
21
7599.3278
31
0.0
12
10956.8257
22
7732.2667
32
0.0
13
10956.8257
23
7732.2667
33
0.0
0
LINE
8
TEXTO
10
13200.0000
20
8820.0000
30
0.0
11
13600.0000
21
8820.0000
31
0.0
0
TEXT
8
TEXTO
10
13660.0000
20
8910.0000
30
0.0
40
200.0000
1
LIGACAO DE CUMEEIRA - VER DET. 05
50
0.0000
0
LINE
8
TEXTO
10
20550.0000
20
-440.0000
30
0.0
11
16400.0000
21
-3800.0000
31
0.0
0
SOLID
8
TEXTO
10
20550.0000
20
-440.0000
30
0.0
11
20308.5058
21
-539.0229
31
0.0
12
20402.8936
22
-655.6031
32
0.0
13
20402.8936
23
-655.6031
33
0.0
0
LINE
8
TEXTO
10
16400.0000
20
-3800.0000
30
0.0
11
16000.0000
21
-3800.0000
31
0.0
0
TEXT
8
TEXTO
10
15940.0000
20
-3710.0000
30
0.0
40
200.0000
1
BASE ROTULADA - VER DET. 06
50
0.0000
72
2
73
0
11
15940.0000
21
-3710.0000
31
0.0
0
LINE
8
TEXTO
10
-199.5000
20
2520.0000
30
0.0
11
-5000.0000
21
1800.0000
31
0.0
0
SOLID
8
TEXTO
10
-199.5000
20
2520.0000
30
0.0
11
-457.8591
21
2557.0891
31
0.0
12
-435.6103
22
2408.7483
32
0.0
13
-435.6103
23
2408.7483
33
0.0
0
LINE
8
TEXTO
10
-5000.0000
20
1800.0000
30
0.0
11
-5400.0000
21
1800.0000
31
0.0
0
TEXT
8
TEXTO
10
-5460.0000
20
1890.0000
30
0.0
40
200.0000
1
PILAR P1  W 410x38,8
50
0.0000
72
2
73
0
11
-5460.0000
21
1890.0000
31
0.0
0
TEXT
8
TEXTO
10
-5460.0000
20
1620.0000
30
0.0
40
200.0000
1
38,8 kg/m
50
0.0000
72
2
73
0
11
-5460.0000
21
1620.0000
31
0.0
0
TEXT
8
TEXTO
10
-5460.0000
20
1350.0000
30
0.0
40
200.0000
1
L = 6000 mm
50
0.0000
72
2
73
0
11
-5460.0000
21
1350.0000
31
0.0
0
LINE
8
TEXTO
10
6000.0000
20
6858.0000
30
0.0
11
4800.0000
21
8820.0000
31
0.0
0
SOLID
8
TEXTO
10
6000.0000
20
6858.0000
30
0.0
11
5933.5400
21
7110.4046
31
0.0
12
5805.5767
22
7032.1396
32
0.0
13
5805.5767
23
7032.1396
33
0.0
0
LINE
8
TEXTO
10
4800.0000
20
8820.0000
30
0.0
11
4400.0000
21
8820.0000
31
0.0
0
TEXT
8
TEXTO
10
4340.0000
20
8910.0000
30
0.0
40
200.0000
1
VIGA V1  W 250x32,7  (32.7 kg/m)
50
0.0000
72
2
73
0
11
4340.0000
21
8910.0000
31
0.0
0
LINE
8
TEXTO
10
985.0868
20
6026.4087
30
0.0
11
4000.0000
21
3300.0000
31
0.0
0
SOLID
8
TEXTO
10
985.0868
20
6026.4087
30
0.0
11
1120.2081
21
5803.0989
31
0.0
12
1220.8173
22
5914.3544
32
0.0
13
1220.8173
23
5914.3544
33
0.0
0
LINE
8
TEXTO
10
4000.0000
20
3300.0000
30
0.0
11
4400.0000
21
3300.0000
31
0.0
0
TEXT
8
TEXTO
10
4460.0000
20
3390.0000
30
0.0
40
200.0000
1
MISULA M1  W 250x32,7 CORTADO
50
0.0000
0
TEXT
8
TEXTO
10
4460.0000
20
3120.0000
30
0.0
40
200.0000
1
Lm = 1800   hm = 206
50
0.0000
0
LINE
8
COTA
10
0.0000
20
-1750.0000
30
0.0
11
0.0000
21
-2800.0000
31
0.0
0
LINE
8
COTA
10
10000.0000
20
-1750.0000
30
0.0
11
10000.0000
21
-2800.0000
31
0.0
0
LINE
8
COTA
10
0.0000
20
-2600.0000
30
0.0
11
10000.0000
21
-2600.0000
31
0.0
0
SOLID
8
COTA
10
0.0000
20
-2600.0000
30
0.0
11
250.0000
21
-2675.0000
31
0.0
12
250.0000
22
-2525.0000
32
0.0
13
250.0000
23
-2525.0000
33
0.0
0
SOLID
8
COTA
10
10000.0000
20
-2600.0000
30
0.0
11
9750.0000
21
-2525.0000
31
0.0
12
9750.0000
22
-2675.0000
32
0.0
13
9750.0000
23
-2675.0000
33
0.0
0
TEXT
8
COTA
10
5000.0000
20
-2462.5000
30
0.0
40
250.0000
1
10000
50
0.0000
72
1
73
0
11
5000.0000
21
-2462.5000
31
0.0
0
LINE
8
COTA
10
10000.0000
20
-1750.0000
30
0.0
11
10000.0000
21
-2800.0000
31
0.0
0
LINE
8
COTA
10
20000.0000
20
-1750.0000
30
0.0
11
20000.0000
21
-2800.0000
31
0.0
0
LINE
8
COTA
10
10000.0000
20
-2600.0000
30
0.0
11
20000.0000
21
-2600.0000
31
0.0
0
SOLID
8
COTA
10
10000.0000
20
-2600.0000
30
0.0
11
10250.0000
21
-2675.0000
31
0.0
12
10250.0000
22
-2525.0000
32
0.0
13
10250.0000
23
-2525.0000
33
0.0
0
SOLID
8
COTA
10
20000.0000
20
-2600.0000
30
0.0
11
19750.0000
21
-2525.0000
31
0.0
12
19750.0000
22
-2675.0000
32
0.0
13
19750.0000
23
-2675.0000
33
0.0
0
TEXT
8
COTA
10
15000.0000
20
-2462.5000
30
0.0
40
250.0000
1
10000
50
0.0000
72
1
73
0
11
15000.0000
21
-2462.5000
31
0.0
0
LINE
8
COTA
10
0.0000
20
-1750.0000
30
0.0
11
0.0000
21
-4800.0000
31
0.0
0
LINE
8
COTA
10
20000.0000
20
-1750.0000
30
0.0
11
20000.0000
21
-4800.0000
31
0.0
0
LINE
8
COTA
10
0.0000
20
-4600.0000
30
0.0
11
20000.0000
21
-4600.0000
31
0.0
0
SOLID
8
COTA
10
0.0000
20
-4600.0000
30
0.0
11
250.0000
21
-4675.0000
31
0.0
12
250.0000
22
-4525.0000
32
0.0
13
250.0000
23
-4525.0000
33
0.0
0
SOLID
8
COTA
10
20000.0000
20
-4600.0000
30
0.0
11
19750.0000
21
-4525.0000
31
0.0
12
19750.0000
22
-4675.0000
32
0.0
13
19750.0000
23
-4675.0000
33
0.0
0
TEXT
8
COTA
10
10000.0000
20
-4462.5000
30
0.0
40
250.0000
1
20000
50
0.0000
72
1
73
0
11
10000.0000
21
-4462.5000
31
0.0
0
TEXT
8
TEXTO
10
10000.0000
20
-5000.0000
30
0.0
40
200.0000
1
VAO ENTRE EIXOS DE PILARES
50
0.0000
72
1
73
0
11
10000.0000
21
-5000.0000
31
0.0
0
LINE
8
COTA
10
-1349.5000
20
0.0000
30
0.0
11
-2399.5000
21
0.0000
31
0.0
0
LINE
8
COTA
10
-1349.5000
20
6000.0000
30
0.0
11
-2399.5000
21
6000.0000
31
0.0
0
LINE
8
COTA
10
-2199.5000
20
0.0000
30
0.0
11
-2199.5000
21
6000.0000
31
0.0
0
SOLID
8
COTA
10
-2199.5000
20
0.0000
30
0.0
11
-2124.5000
21
250.0000
31
0.0
12
-2274.5000
22
250.0000
32
0.0
13
-2274.5000
23
250.0000
33
0.0
0
SOLID
8
COTA
10
-2199.5000
20
6000.0000
30
0.0
11
-2274.5000
21
5750.0000
31
0.0
12
-2124.5000
22
5750.0000
32
0.0
13
-2124.5000
23
5750.0000
33
0.0
0
TEXT
8
COTA
10
-2337.0000
20
3000.0000
30
0.0
40
250.0000
1
6000  (PE-DIREITO)
50
90.0000
72
1
73
0
11
-2337.0000
21
3000.0000
31
0.0
0
LINE
8
COTA
10
21349.5000
20
6000.0000
30
0.0
11
22399.5000
21
6000.0000
31
0.0
0
LINE
8
COTA
10
21349.5000
20
7000.0000
30
0.0
11
22399.5000
21
7000.0000
31
0.0
0
LINE
8
COTA
10
22199.5000
20
6000.0000
30
0.0
11
22199.5000
21
7000.0000
31
0.0
0
SOLID
8
COTA
10
22199.5000
20
6000.0000
30
0.0
11
22274.5000
21
6250.0000
31
0.0
12
22124.5000
22
6250.0000
32
0.0
13
22124.5000
23
6250.0000
33
0.0
0
SOLID
8
COTA
10
22199.5000
20
7000.0000
30
0.0
11
22124.5000
21
6750.0000
31
0.0
12
22274.5000
22
6750.0000
32
0.0
13
22274.5000
23
6750.0000
33
0.0
0
TEXT
8
COTA
10
22062.0000
20
6500.0000
30
0.0
40
250.0000
1
1000
50
90.0000
72
1
73
0
11
22062.0000
21
6500.0000
31
0.0
0
LINE
8
COTA
10
21349.5000
20
0.0000
30
0.0
11
24399.5000
21
0.0000
31
0.0
0
LINE
8
COTA
10
21349.5000
20
7000.0000
30
0.0
11
24399.5000
21
7000.0000
31
0.0
0
LINE
8
COTA
10
24199.5000
20
0.0000
30
0.0
11
24199.5000
21
7000.0000
31
0.0
0
SOLID
8
COTA
10
24199.5000
20
0.0000
30
0.0
11
24274.5000
21
250.0000
31
0.0
12
24124.5000
22
250.0000
32
0.0
13
24124.5000
23
250.0000
33
0.0
0
SOLID
8
COTA
10
24199.5000
20
7000.0000
30
0.0
11
24124.5000
21
6750.0000
31
0.0
12
24274.5000
22
6750.0000
32
0.0
13
24274.5000
23
6750.0000
33
0.0
0
TEXT
8
COTA
10
24062.0000
20
3500.0000
30
0.0
40
250.0000
1
7000  (CUMEEIRA)
50
90.0000
72
1
73
0
11
24062.0000
21
3500.0000
31
0.0
0
LINE
8
COTA
10
6000.0000
20
8058.0000
30
0.0
11
7600.0000
21
8218.0000
31
0.0
0
LINE
8
COTA
10
6000.0000
20
8058.0000
30
0.0
11
7600.0000
21
8058.0000
31
0.0
0
LINE
8
COTA
10
7600.0000
20
8058.0000
30
0.0
11
7600.0000
21
8218.0000
31
0.0
0
TEXT
8
COTA
10
6800.0000
20
7783.0000
30
0.0
40
200.0000
1
100
50
0.0000
72
1
73
0
11
6800.0000
21
7783.0000
31
0.0
0
TEXT
8
COTA
10
7840.0000
20
8138.0000
30
0.0
40
200.0000
1
10
50
0.0000
0
LINE
8
COTA
10
-14.9256
20
6149.2556
30
0.0
11
-105.2749
21
7052.7493
31
0.0
0
LINE
8
COTA
10
1776.1414
20
6328.3623
30
0.0
11
1685.7920
21
7231.8560
31
0.0
0
LINE
8
COTA
10
-85.3742
20
6853.7419
30
0.0
11
1705.6928
21
7032.8486
31
0.0
0
SOLID
8
COTA
10
-85.3742
20
6853.7419
30
0.0
11
170.8479
21
6803.9900
31
0.0
12
155.9223
22
6953.2456
32
0.0
13
155.9223
23
6953.2456
33
0.0
0
SOLID
8
COTA
10
1705.6928
20
7032.8486
30
0.0
11
1449.4707
21
7082.6005
31
0.0
12
1464.3962
22
6933.3449
32
0.0
13
1464.3962
23
6933.3449
33
0.0
0
TEXT
8
COTA
10
796.4775
20
7080.1129
30
0.0
40
250.0000
1
MISULA 1800
50
5.7106
72
1
73
0
11
796.4775
21
7080.1129
31
0.0
0
TEXT
8
TEXTO
10
10000.0000
20
-5880.0000
30
0.0
40
400.0000
1
PORTICO TIPICO - ELEVACAO
50
0.0000
72
1
73
0
11
10000.0000
21
-5880.0000
31
0.0
0
LINE
8
TEXTO
10
6900.0000
20
-6060.0000
30
0.0
11
13100.0000
21
-6060.0000
31
0.0
0
TEXT
8
TEXTO
10
10000.0000
20
-6480.0000
30
0.0
40
200.0000
1
ESCALA 1:100
50
0.0000
72
1
73
0
11
10000.0000
21
-6480.0000
31
0.0
0
TEXT
8
TEXTO
10
-1199.5000
20
-6680.0000
30
0.0
40
250.0000
1
NOTAS
50
0.0000
0
TEXT
8
TEXTO
10
-1199.5000
20
-7020.0000
30
0.0
40
200.0000
1
1. Cotas em milimetros. Desenho em escala 1:1 no modelo.
50
0.0000
0
TEXT
8
TEXTO
10
-1199.5000
20
-7360.0000
30
0.0
40
200.0000
1
2. Aco dos perfis: ASTM A572 Gr.50; chapas: ASTM A36.
50
0.0000
0
TEXT
8
TEXTO
10
-1199.5000
20
-7700.0000
30
0.0
40
200.0000
1
3. Parafusos ASTM A325; eletrodo E70XX.
50
0.0000
0
TEXT
8
TEXTO
10
-1199.5000
20
-8040.0000
30
0.0
40
200.0000
1
4. Inclinacao 10 %%% (5,7%%d),
50
0.0000
0
TEXT
8
TEXTO
10
-1199.5000
20
-8380.0000
30
0.0
40
200.0000
1
5. 9 porticos a cada 5000 mm.
50
0.0000
0
TEXT
8
TEXTO
10
-1199.5000
20
-8720.0000
30
0.0
40
200.0000
1
6. Bases rotuladas - ver DET. 06.
50
0.0000
0
ENDSEC
0
EOF
