0
SECTION
2
HEADER
9
$ACADVER
1
AC1009
9
$INSUNITS
70
4
9
$EXTMIN
10
-6420.0000
20
-15940.0000
30
0.0
9
$EXTMAX
10
51660.0000
20
27800.0000
30
0.0
9
$LTSCALE
40
1.0
9
$TEXTSTYLE
7
STANDARD
0
ENDSEC
0
SECTION
2
TABLES
0
TABLE
2
LTYPE
70
4
0
LTYPE
2
CONTINUOUS
70
0
3
Solida
72
65
73
0
40
0.0
0
LTYPE
2
CENTER
70
0
3
Linha de centro ____ _ ____ _ ____
72
65
73
4
40
31.7500
49
0.5000
49
-6.3500
49
3.1750
49
-6.3500
0
LTYPE
2
HIDDEN
70
0
3
Tracejada __ __ __ __ __ __
72
65
73
3
40
9.5250
49
0.5000
49
-6.3500
49
3.1750
0
LTYPE
2
DASHED
70
0
3
Tracejada longa ___ ___ ___
72
65
73
3
40
12.7000
49
0.5000
49
-6.3500
49
6.3500
0
ENDTAB
0
TABLE
2
LAYER
70
14
0
LAYER
2
0
70
0
62
7
6
CONTINUOUS
0
LAYER
2
ACO
70
0
62
7
6
CONTINUOUS
0
LAYER
2
ACO-FINO
70
0
62
8
6
CONTINUOUS
0
LAYER
2
EIXO
70
0
62
1
6
CENTER
0
LAYER
2
OCULTA
70
0
62
8
6
HIDDEN
0
LAYER
2
COTA
70
0
62
3
6
CONTINUOUS
0
LAYER
2
TEXTO
70
0
62
7
6
CONTINUOUS
0
LAYER
2
FURO
70
0
62
5
6
CONTINUOUS
0
LAYER
2
SOLDA
70
0
62
2
6
CONTINUOUS
0
LAYER
2
PARAFUSO
70
0
62
5
6
CONTINUOUS
0
LAYER
2
CONCRETO
70
0
62
9
6
CONTINUOUS
0
LAYER
2
HACHURA
70
0
62
8
6
CONTINUOUS
0
LAYER
2
CARIMBO
70
0
62
7
6
CONTINUOUS
0
LAYER
2
AUXILIAR
70
0
62
8
6
DASHED
0
ENDTAB
0
TABLE
2
STYLE
70
1
0
STYLE
2
STANDARD
70
0
40
0.0
41
0.85
50
0.0
71
0
42
2.5
3
txt
4

0
ENDTAB
0
ENDSEC
0
SECTION
2
ENTITIES
0
POLYLINE
8
ACO
66
1
10
0.0
20
0.0
30
0.0
70
1
0
VERTEX
8
ACO
10
-73.0000
20
0.0000
30
0.0
0
VERTEX
8
ACO
10
73.0000
20
0.0000
30
0.0
0
VERTEX
8
ACO
10
73.0000
20
20000.0000
30
0.0
0
VERTEX
8
ACO
10
-73.0000
20
20000.0000
30
0.0
0
SEQEND
8
ACO
0
LINE
8
EIXO
10
0.0000
20
-1600.0000
30
0.0
11
0.0000
21
21600.0000
31
0.0
0
TEXT
8
TEXTO
10
0.0000
20
22800.0000
30
0.0
40
500.0000
1
P1
50
0.0000
72
1
73
0
11
0.0000
21
22800.0000
31
0.0
0
POLYLINE
8
ACO
66
1
10
0.0
20
0.0
30
0.0
70
1
0
VERTEX
8
ACO
10
4927.0000
20
0.0000
30
0.0
0
VERTEX
8
ACO
10
5073.0000
20
0.0000
30
0.0
0
VERTEX
8
ACO
10
5073.0000
20
20000.0000
30
0.0
0
VERTEX
8
ACO
10
4927.0000
20
20000.0000
30
0.0
0
SEQEND
8
ACO
0
LINE
8
EIXO
10
5000.0000
20
-1600.0000
30
0.0
11
5000.0000
21
21600.0000
31
0.0
0
TEXT
8
TEXTO
10
5000.0000
20
22800.0000
30
0.0
40
500.0000
1
P2
50
0.0000
72
1
73
0
11
5000.0000
21
22800.0000
31
0.0
0
POLYLINE
8
ACO
66
1
10
0.0
20
0.0
30
0.0
70
1
0
VERTEX
8
ACO
10
9927.0000
20
0.0000
30
0.0
0
VERTEX
8
ACO
10
10073.0000
20
0.0000
30
0.0
0
VERTEX
8
ACO
10
10073.0000
20
20000.0000
30
0.0
0
VERTEX
8
ACO
10
9927.0000
20
20000.0000
30
0.0
0
SEQEND
8
ACO
0
LINE
8
EIXO
10
10000.0000
20
-1600.0000
30
0.0
11
10000.0000
21
21600.0000
31
0.0
0
TEXT
8
TEXTO
10
10000.0000
20
22800.0000
30
0.0
40
500.0000
1
P3
50
0.0000
72
1
73
0
11
10000.0000
21
22800.0000
31
0.0
0
POLYLINE
8
ACO
66
1
10
0.0
20
0.0
30
0.0
70
1
0
VERTEX
8
ACO
10
14927.0000
20
0.0000
30
0.0
0
VERTEX
8
ACO
10
15073.0000
20
0.0000
30
0.0
0
VERTEX
8
ACO
10
15073.0000
20
20000.0000
30
0.0
0
VERTEX
8
ACO
10
14927.0000
20
20000.0000
30
0.0
0
SEQEND
8
ACO
0
LINE
8
EIXO
10
15000.0000
20
-1600.0000
30
0.0
11
15000.0000
21
21600.0000
31
0.0
0
TEXT
8
TEXTO
10
15000.0000
20
22800.0000
30
0.0
40
500.0000
1
P4
50
0.0000
72
1
73
0
11
15000.0000
21
22800.0000
31
0.0
0
POLYLINE
8
ACO
66
1
10
0.0
20
0.0
30
0.0
70
1
0
VERTEX
8
ACO
10
19927.0000
20
0.0000
30
0.0
0
VERTEX
8
ACO
10
20073.0000
20
0.0000
30
0.0
0
VERTEX
8
ACO
10
20073.0000
20
20000.0000
30
0.0
0
VERTEX
8
ACO
10
19927.0000
20
20000.0000
30
0.0
0
SEQEND
8
ACO
0
LINE
8
EIXO
10
20000.0000
20
-1600.0000
30
0.0
11
20000.0000
21
21600.0000
31
0.0
0
TEXT
8
TEXTO
10
20000.0000
20
22800.0000
30
0.0
40
500.0000
1
P5
50
0.0000
72
1
73
0
11
20000.0000
21
22800.0000
31
0.0
0
POLYLINE
8
ACO
66
1
10
0.0
20
0.0
30
0.0
70
1
0
VERTEX
8
ACO
10
24927.0000
20
0.0000
30
0.0
0
VERTEX
8
ACO
10
25073.0000
20
0.0000
30
0.0
0
VERTEX
8
ACO
10
25073.0000
20
20000.0000
30
0.0
0
VERTEX
8
ACO
10
24927.0000
20
20000.0000
30
0.0
0
SEQEND
8
ACO
0
LINE
8
EIXO
10
25000.0000
20
-1600.0000
30
0.0
11
25000.0000
21
21600.0000
31
0.0
0
TEXT
8
TEXTO
10
25000.0000
20
22800.0000
30
0.0
40
500.0000
1
P6
50
0.0000
72
1
73
0
11
25000.0000
21
22800.0000
31
0.0
0
POLYLINE
8
ACO
66
1
10
0.0
20
0.0
30
0.0
70
1
0
VERTEX
8
ACO
10
29927.0000
20
0.0000
30
0.0
0
VERTEX
8
ACO
10
30073.0000
20
0.0000
30
0.0
0
VERTEX
8
ACO
10
30073.0000
20
20000.0000
30
0.0
0
VERTEX
8
ACO
10
29927.0000
20
20000.0000
30
0.0
0
SEQEND
8
ACO
0
LINE
8
EIXO
10
30000.0000
20
-1600.0000
30
0.0
11
30000.0000
21
21600.0000
31
0.0
0
TEXT
8
TEXTO
10
30000.0000
20
22800.0000
30
0.0
40
500.0000
1
P7
50
0.0000
72
1
73
0
11
30000.0000
21
22800.0000
31
0.0
0
POLYLINE
8
ACO
66
1
10
0.0
20
0.0
30
0.0
70
1
0
VERTEX
8
ACO
10
34927.0000
20
0.0000
30
0.0
0
VERTEX
8
ACO
10
35073.0000
20
0.0000
30
0.0
0
VERTEX
8
ACO
10
35073.0000
20
20000.0000
30
0.0
0
VERTEX
8
ACO
10
34927.0000
20
20000.0000
30
0.0
0
SEQEND
8
ACO
0
LINE
8
EIXO
10
35000.0000
20
-1600.0000
30
0.0
11
35000.0000
21
21600.0000
31
0.0
0
TEXT
8
TEXTO
10
35000.0000
20
22800.0000
30
0.0
40
500.0000
1
P8
50
0.0000
72
1
73
0
11
35000.0000
21
22800.0000
31
0.0
0
POLYLINE
8
ACO
66
1
10
0.0
20
0.0
30
0.0
70
1
0
VERTEX
8
ACO
10
39927.0000
20
0.0000
30
0.0
0
VERTEX
8
ACO
10
40073.0000
20
0.0000
30
0.0
0
VERTEX
8
ACO
10
40073.0000
20
20000.0000
30
0.0
0
VERTEX
8
ACO
10
39927.0000
20
20000.0000
30
0.0
0
SEQEND
8
ACO
0
LINE
8
EIXO
10
40000.0000
20
-1600.0000
30
0.0
11
40000.0000
21
21600.0000
31
0.0
0
TEXT
8
TEXTO
10
40000.0000
20
22800.0000
30
0.0
40
500.0000
1
P9
50
0.0000
72
1
73
0
11
40000.0000
21
22800.0000
31
0.0
0
LINE
8
ACO-FINO
10
0.0000
20
199.0074
30
0.0
11
40000.0000
21
199.0074
31
0.0
0
LINE
8
ACO-FINO
10
0.0000
20
274.0074
30
0.0
11
40000.0000
21
274.0074
31
0.0
0
LINE
8
ACO-FINO
10
0.0000
20
1791.0669
30
0.0
11
40000.0000
21
1791.0669
31
0.0
0
LINE
8
ACO-FINO
10
0.0000
20
1866.0669
30
0.0
11
40000.0000
21
1866.0669
31
0.0
0
LINE
8
ACO-FINO
10
0.0000
20
3383.1264
30
0.0
11
40000.0000
21
3383.1264
31
0.0
0
LINE
8
ACO-FINO
10
0.0000
20
3458.1264
30
0.0
11
40000.0000
21
3458.1264
31
0.0
0
LINE
8
ACO-FINO
10
0.0000
20
4975.1860
30
0.0
11
40000.0000
21
4975.1860
31
0.0
0
LINE
8
ACO-FINO
10
0.0000
20
5050.1860
30
0.0
11
40000.0000
21
5050.1860
31
0.0
0
LINE
8
ACO-FINO
10
0.0000
20
6567.2455
30
0.0
11
40000.0000
21
6567.2455
31
0.0
0
LINE
8
ACO-FINO
10
0.0000
20
6642.2455
30
0.0
11
40000.0000
21
6642.2455
31
0.0
0
LINE
8
ACO-FINO
10
0.0000
20
8159.3050
30
0.0
11
40000.0000
21
8159.3050
31
0.0
0
LINE
8
ACO-FINO
10
0.0000
20
8234.3050
30
0.0
11
40000.0000
21
8234.3050
31
0.0
0
LINE
8
ACO-FINO
10
0.0000
20
9751.3645
30
0.0
11
40000.0000
21
9751.3645
31
0.0
0
LINE
8
ACO-FINO
10
0.0000
20
9826.3645
30
0.0
11
40000.0000
21
9826.3645
31
0.0
0
LINE
8
ACO-FINO
10
0.0000
20
19800.9926
30
0.0
11
40000.0000
21
19800.9926
31
0.0
0
LINE
8
ACO-FINO
10
0.0000
20
19725.9926
30
0.0
11
40000.0000
21
19725.9926
31
0.0
0
LINE
8
ACO-FINO
10
0.0000
20
18208.9331
30
0.0
11
40000.0000
21
18208.9331
31
0.0
0
LINE
8
ACO-FINO
10
0.0000
20
18133.9331
30
0.0
11
40000.0000
21
18133.9331
31
0.0
0
LINE
8
ACO-FINO
10
0.0000
20
16616.8736
30
0.0
11
40000.0000
21
16616.8736
31
0.0
0
LINE
8
ACO-FINO
10
0.0000
20
16541.8736
30
0.0
11
40000.0000
21
16541.8736
31
0.0
0
LINE
8
ACO-FINO
10
0.0000
20
15024.8140
30
0.0
11
40000.0000
21
15024.8140
31
0.0
0
LINE
8
ACO-FINO
10
0.0000
20
14949.8140
30
0.0
11
40000.0000
21
14949.8140
31
0.0
0
LINE
8
ACO-FINO
10
0.0000
20
13432.7545
30
0.0
11
40000.0000
21
13432.7545
31
0.0
0
LINE
8
ACO-FINO
10
0.0000
20
13357.7545
30
0.0
11
40000.0000
21
13357.7545
31
0.0
0
LINE
8
ACO-FINO
10
0.0000
20
11840.6950
30
0.0
11
40000.0000
21
11840.6950
31
0.0
0
LINE
8
ACO-FINO
10
0.0000
20
11765.6950
30
0.0
11
40000.0000
21
11765.6950
31
0.0
0
LINE
8
ACO-FINO
10
0.0000
20
10248.6355
30
0.0
11
40000.0000
21
10248.6355
31
0.0
0
LINE
8
ACO-FINO
10
0.0000
20
10173.6355
30
0.0
11
40000.0000
21
10173.6355
31
0.0
0
LINE
8
EIXO
10
-1000.0000
20
10000.0000
30
0.0
11
41000.0000
21
10000.0000
31
0.0
0
TEXT
8
TEXTO
10
40700.0000
20
10000.0000
30
0.0
40
500.0000
1
CUMEEIRA
50
0.0000
72
0
73
2
11
40700.0000
21
10000.0000
31
0.0
0
LINE
8
ACO
10
0.0000
20
0.0000
30
0.0
11
40000.0000
21
0.0000
31
0.0
0
LINE
8
ACO
10
0.0000
20
20000.0000
30
0.0
11
40000.0000
21
20000.0000
31
0.0
0
LINE
8
AUXILIAR
10
2500.0000
20
274.0074
30
0.0
11
2500.0000
21
9751.3645
31
0.0
0
LINE
8
AUXILIAR
10
2500.0000
20
10248.6355
30
0.0
11
2500.0000
21
19725.9926
31
0.0
0
LINE
8
AUXILIAR
10
2500.0000
20
9751.3645
30
0.0
11
2800.0000
21
10000.0000
31
0.0
0
LINE
8
AUXILIAR
10
2500.0000
20
10248.6355
30
0.0
11
2800.0000
21
10000.0000
31
0.0
0
LINE
8
AUXILIAR
10
7500.0000
20
274.0074
30
0.0
11
7500.0000
21
9751.3645
31
0.0
0
LINE
8
AUXILIAR
10
7500.0000
20
10248.6355
30
0.0
11
7500.0000
21
19725.9926
31
0.0
0
LINE
8
AUXILIAR
10
7500.0000
20
9751.3645
30
0.0
11
7800.0000
21
10000.0000
31
0.0
0
LINE
8
AUXILIAR
10
7500.0000
20
10248.6355
30
0.0
11
7800.0000
21
10000.0000
31
0.0
0
LINE
8
AUXILIAR
10
12500.0000
20
274.0074
30
0.0
11
12500.0000
21
9751.3645
31
0.0
0
LINE
8
AUXILIAR
10
12500.0000
20
10248.6355
30
0.0
11
12500.0000
21
19725.9926
31
0.0
0
LINE
8
AUXILIAR
10
12500.0000
20
9751.3645
30
0.0
11
12800.0000
21
10000.0000
31
0.0
0
LINE
8
AUXILIAR
10
12500.0000
20
10248.6355
30
0.0
11
12800.0000
21
10000.0000
31
0.0
0
LINE
8
AUXILIAR
10
17500.0000
20
274.0074
30
0.0
11
17500.0000
21
9751.3645
31
0.0
0
LINE
8
AUXILIAR
10
17500.0000
20
10248.6355
30
0.0
11
17500.0000
21
19725.9926
31
0.0
0
LINE
8
AUXILIAR
10
17500.0000
20
9751.3645
30
0.0
11
17800.0000
21
10000.0000
31
0.0
0
LINE
8
AUXILIAR
10
17500.0000
20
10248.6355
30
0.0
11
17800.0000
21
10000.0000
31
0.0
0
LINE
8
AUXILIAR
10
22500.0000
20
274.0074
30
0.0
11
22500.0000
21
9751.3645
31
0.0
0
LINE
8
AUXILIAR
10
22500.0000
20
10248.6355
30
0.0
11
22500.0000
21
19725.9926
31
0.0
0
LINE
8
AUXILIAR
10
22500.0000
20
9751.3645
30
0.0
11
22800.0000
21
10000.0000
31
0.0
0
LINE
8
AUXILIAR
10
22500.0000
20
10248.6355
30
0.0
11
22800.0000
21
10000.0000
31
0.0
0
LINE
8
AUXILIAR
10
27500.0000
20
274.0074
30
0.0
11
27500.0000
21
9751.3645
31
0.0
0
LINE
8
AUXILIAR
10
27500.0000
20
10248.6355
30
0.0
11
27500.0000
21
19725.9926
31
0.0
0
LINE
8
AUXILIAR
10
27500.0000
20
9751.3645
30
0.0
11
27800.0000
21
10000.0000
31
0.0
0
LINE
8
AUXILIAR
10
27500.0000
20
10248.6355
30
0.0
11
27800.0000
21
10000.0000
31
0.0
0
LINE
8
AUXILIAR
10
32500.0000
20
274.0074
30
0.0
11
32500.0000
21
9751.3645
31
0.0
0
LINE
8
AUXILIAR
10
32500.0000
20
10248.6355
30
0.0
11
32500.0000
21
19725.9926
31
0.0
0
LINE
8
AUXILIAR
10
32500.0000
20
9751.3645
30
0.0
11
32800.0000
21
10000.0000
31
0.0
0
LINE
8
AUXILIAR
10
32500.0000
20
10248.6355
30
0.0
11
32800.0000
21
10000.0000
31
0.0
0
LINE
8
AUXILIAR
10
37500.0000
20
274.0074
30
0.0
11
37500.0000
21
9751.3645
31
0.0
0
LINE
8
AUXILIAR
10
37500.0000
20
10248.6355
30
0.0
11
37500.0000
21
19725.9926
31
0.0
0
LINE
8
AUXILIAR
10
37500.0000
20
9751.3645
30
0.0
11
37800.0000
21
10000.0000
31
0.0
0
LINE
8
AUXILIAR
10
37500.0000
20
10248.6355
30
0.0
11
37800.0000
21
10000.0000
31
0.0
0
LINE
8
ACO
10
0.0000
20
0.0000
30
0.0
11
5000.0000
21
5000.0000
31
0.0
0
LINE
8
ACO
10
0.0000
20
5000.0000
30
0.0
11
5000.0000
21
0.0000
31
0.0
0
LINE
8
ACO
10
0.0000
20
5000.0000
30
0.0
11
5000.0000
21
10000.0000
31
0.0
0
LINE
8
ACO
10
0.0000
20
10000.0000
30
0.0
11
5000.0000
21
5000.0000
31
0.0
0
LINE
8
ACO
10
0.0000
20
10000.0000
30
0.0
11
5000.0000
21
15000.0000
31
0.0
0
LINE
8
ACO
10
0.0000
20
15000.0000
30
0.0
11
5000.0000
21
10000.0000
31
0.0
0
LINE
8
ACO
10
0.0000
20
15000.0000
30
0.0
11
5000.0000
21
20000.0000
31
0.0
0
LINE
8
ACO
10
0.0000
20
20000.0000
30
0.0
11
5000.0000
21
15000.0000
31
0.0
0
LINE
8
ACO
10
0.0000
20
5000.0000
30
0.0
11
5000.0000
21
5000.0000
31
0.0
0
LINE
8
ACO
10
0.0000
20
10000.0000
30
0.0
11
5000.0000
21
10000.0000
31
0.0
0
LINE
8
ACO
10
0.0000
20
15000.0000
30
0.0
11
5000.0000
21
15000.0000
31
0.0
0
TEXT
8
TEXTO
10
2500.0000
20
20900.0000
30
0.0
40
500.0000
1
CC-1
50
0.0000
72
1
73
0
11
2500.0000
21
20900.0000
31
0.0
0
LINE
8
ACO
10
15000.0000
20
0.0000
30
0.0
11
20000.0000
21
5000.0000
31
0.0
0
LINE
8
ACO
10
15000.0000
20
5000.0000
30
0.0
11
20000.0000
21
0.0000
31
0.0
0
LINE
8
ACO
10
15000.0000
20
5000.0000
30
0.0
11
20000.0000
21
10000.0000
31
0.0
0
LINE
8
ACO
10
15000.0000
20
10000.0000
30
0.0
11
20000.0000
21
5000.0000
31
0.0
0
LINE
8
ACO
10
15000.0000
20
10000.0000
30
0.0
11
20000.0000
21
15000.0000
31
0.0
0
LINE
8
ACO
10
15000.0000
20
15000.0000
30
0.0
11
20000.0000
21
10000.0000
31
0.0
0
LINE
8
ACO
10
15000.0000
20
15000.0000
30
0.0
11
20000.0000
21
20000.0000
31
0.0
0
LINE
8
ACO
10
15000.0000
20
20000.0000
30
0.0
11
20000.0000
21
15000.0000
31
0.0
0
LINE
8
ACO
10
15000.0000
20
5000.0000
30
0.0
11
20000.0000
21
5000.0000
31
0.0
0
LINE
8
ACO
10
15000.0000
20
10000.0000
30
0.0
11
20000.0000
21
10000.0000
31
0.0
0
LINE
8
ACO
10
15000.0000
20
15000.0000
30
0.0
11
20000.0000
21
15000.0000
31
0.0
0
TEXT
8
TEXTO
10
17500.0000
20
20900.0000
30
0.0
40
500.0000
1
CC-4
50
0.0000
72
1
73
0
11
17500.0000
21
20900.0000
31
0.0
0
LINE
8
ACO
10
35000.0000
20
0.0000
30
0.0
11
40000.0000
21
5000.0000
31
0.0
0
LINE
8
ACO
10
35000.0000
20
5000.0000
30
0.0
11
40000.0000
21
0.0000
31
0.0
0
LINE
8
ACO
10
35000.0000
20
5000.0000
30
0.0
11
40000.0000
21
10000.0000
31
0.0
0
LINE
8
ACO
10
35000.0000
20
10000.0000
30
0.0
11
40000.0000
21
5000.0000
31
0.0
0
LINE
8
ACO
10
35000.0000
20
10000.0000
30
0.0
11
40000.0000
21
15000.0000
31
0.0
0
LINE
8
ACO
10
35000.0000
20
15000.0000
30
0.0
11
40000.0000
21
10000.0000
31
0.0
0
LINE
8
ACO
10
35000.0000
20
15000.0000
30
0.0
11
40000.0000
21
20000.0000
31
0.0
0
LINE
8
ACO
10
35000.0000
20
20000.0000
30
0.0
11
40000.0000
21
15000.0000
31
0.0
0
LINE
8
ACO
10
35000.0000
20
5000.0000
30
0.0
11
40000.0000
21
5000.0000
31
0.0
0
LINE
8
ACO
10
35000.0000
20
10000.0000
30
0.0
11
40000.0000
21
10000.0000
31
0.0
0
LINE
8
ACO
10
35000.0000
20
15000.0000
30
0.0
11
40000.0000
21
15000.0000
31
0.0
0
TEXT
8
TEXTO
10
37500.0000
20
20900.0000
30
0.0
40
500.0000
1
CC-8
50
0.0000
72
1
73
0
11
37500.0000
21
20900.0000
31
0.0
0
LINE
8
TEXTO
10
2500.0000
20
2500.0000
30
0.0
11
-4000.0000
21
27200.0000
31
0.0
0
SOLID
8
TEXTO
10
2500.0000
20
2500.0000
30
0.0
11
2517.8145
21
3021.7113
31
0.0
12
2227.6922
22
2945.3633
32
0.0
13
2227.6922
23
2945.3633
33
0.0
0
LINE
8
TEXTO
10
-4000.0000
20
27200.0000
30
0.0
11
-4800.0000
21
27200.0000
31
0.0
0
TEXT
8
TEXTO
10
-4920.0000
20
27380.0000
30
0.0
40
400.0000
1
CONTRAVENTAMENTO DE COBERTURA (CC)
50
0.0000
72
2
73
0
11
-4920.0000
21
27380.0000
31
0.0
0
TEXT
8
TEXTO
10
-4920.0000
20
26840.0000
30
0.0
40
400.0000
1
tirante %%c20 mm com esticador
50
0.0000
72
2
73
0
11
-4920.0000
21
26840.0000
31
0.0
0
TEXT
8
TEXTO
10
-4920.0000
20
26300.0000
30
0.0
40
400.0000
1
4 paineis por vao - ver DET. 08
50
0.0000
72
2
73
0
11
-4920.0000
21
26300.0000
31
0.0
0
LINE
8
TEXTO
10
22000.0000
20
18133.9331
30
0.0
11
23200.0000
21
27200.0000
31
0.0
0
SOLID
8
TEXTO
10
22000.0000
20
18133.9331
30
0.0
11
22214.3117
21
18609.9273
31
0.0
12
21916.9056
22
18649.2925
32
0.0
13
21916.9056
23
18649.2925
33
0.0
0
LINE
8
TEXTO
10
23200.0000
20
27200.0000
30
0.0
11
24000.0000
21
27200.0000
31
0.0
0
TEXT
8
TEXTO
10
24120.0000
20
27380.0000
30
0.0
40
400.0000
1
TERCA T1  Ue 200x75x20x2,00
50
0.0000
0
TEXT
8
TEXTO
10
24120.0000
20
26840.0000
30
0.0
40
400.0000
1
14 linhas a cada 1600 mm
50
0.0000
0
TEXT
8
TEXTO
10
24120.0000
20
26300.0000
30
0.0
40
400.0000
1
(na inclinacao) - ver DET. 07
50
0.0000
0
LINE
8
TEXTO
10
22500.0000
20
6000.0000
30
0.0
11
12000.0000
21
-7800.0000
31
0.0
0
SOLID
8
TEXTO
10
22500.0000
20
6000.0000
30
0.0
11
22077.8648
21
5692.9139
31
0.0
12
22316.6134
22
5511.2574
32
0.0
13
22316.6134
23
5511.2574
33
0.0
0
LINE
8
TEXTO
10
12000.0000
20
-7800.0000
30
0.0
11
11200.0000
21
-7800.0000
31
0.0
0
TEXT
8
TEXTO
10
11080.0000
20
-7620.0000
30
0.0
40
400.0000
1
CORRENTE %%c16 COM ESTICADOR
50
0.0000
72
2
73
0
11
11080.0000
21
-7620.0000
31
0.0
0
TEXT
8
TEXTO
10
11080.0000
20
-8160.0000
30
0.0
40
400.0000
1
1 linha(s) por vao, nas duas aguas
50
0.0000
72
2
73
0
11
11080.0000
21
-8160.0000
31
0.0
0
TEXT
8
TEXTO
10
11080.0000
20
-8700.0000
30
0.0
40
400.0000
1
com tirante de cumeeira em V
50
0.0000
72
2
73
0
11
11080.0000
21
-8700.0000
31
0.0
0
LINE
8
TEXTO
10
37500.0000
20
5000.0000
30
0.0
11
44000.0000
21
27200.0000
31
0.0
0
SOLID
8
TEXTO
10
37500.0000
20
5000.0000
30
0.0
11
37784.4543
21
5437.7051
31
0.0
12
37496.5416
22
5522.0039
32
0.0
13
37496.5416
23
5522.0039
33
0.0
0
LINE
8
TEXTO
10
44000.0000
20
27200.0000
30
0.0
11
44800.0000
21
27200.0000
31
0.0
0
TEXT
8
TEXTO
10
44920.0000
20
27380.0000
30
0.0
40
400.0000
1
ESCORA  TC 88,9x3,2 (3")
50
0.0000
0
TEXT
8
TEXTO
10
44920.0000
20
26840.0000
30
0.0
40
400.0000
1
nos nos do X
50
0.0000
0
LINE
8
TEXTO
10
32000.0000
20
0.0000
30
0.0
11
29600.0000
21
-7800.0000
31
0.0
0
SOLID
8
TEXTO
10
32000.0000
20
0.0000
30
0.0
11
31709.5902
21
-433.7766
31
0.0
12
31996.3239
22
-522.0024
32
0.0
13
31996.3239
23
-522.0024
33
0.0
0
LINE
8
TEXTO
10
29600.0000
20
-7800.0000
30
0.0
11
28800.0000
21
-7800.0000
31
0.0
0
TEXT
8
TEXTO
10
28680.0000
20
-7620.0000
30
0.0
40
400.0000
1
BEIRAL / CALHA
50
0.0000
72
2
73
0
11
28680.0000
21
-7620.0000
31
0.0
0
LINE
8
COTA
10
0.0000
20
-300.0000
30
0.0
11
0.0000
21
-2400.0000
31
0.0
0
LINE
8
COTA
10
5000.0000
20
-300.0000
30
0.0
11
5000.0000
21
-2400.0000
31
0.0
0
LINE
8
COTA
10
0.0000
20
-2000.0000
30
0.0
11
5000.0000
21
-2000.0000
31
0.0
0
SOLID
8
COTA
10
0.0000
20
-2000.0000
30
0.0
11
500.0000
21
-2150.0000
31
0.0
12
500.0000
22
-1850.0000
32
0.0
13
500.0000
23
-1850.0000
33
0.0
0
SOLID
8
COTA
10
5000.0000
20
-2000.0000
30
0.0
11
4500.0000
21
-1850.0000
31
0.0
12
4500.0000
22
-2150.0000
32
0.0
13
4500.0000
23
-2150.0000
33
0.0
0
TEXT
8
COTA
10
2500.0000
20
-1725.0000
30
0.0
40
500.0000
1
5000
50
0.0000
72
1
73
0
11
2500.0000
21
-1725.0000
31
0.0
0
LINE
8
COTA
10
5000.0000
20
-300.0000
30
0.0
11
5000.0000
21
-2400.0000
31
0.0
0
LINE
8
COTA
10
10000.0000
20
-300.0000
30
0.0
11
10000.0000
21
-2400.0000
31
0.0
0
LINE
8
COTA
10
5000.0000
20
-2000.0000
30
0.0
11
10000.0000
21
-2000.0000
31
0.0
0
SOLID
8
COTA
10
5000.0000
20
-2000.0000
30
0.0
11
5500.0000
21
-2150.0000
31
0.0
12
5500.0000
22
-1850.0000
32
0.0
13
5500.0000
23
-1850.0000
33
0.0
0
SOLID
8
COTA
10
10000.0000
20
-2000.0000
30
0.0
11
9500.0000
21
-1850.0000
31
0.0
12
9500.0000
22
-2150.0000
32
0.0
13
9500.0000
23
-2150.0000
33
0.0
0
TEXT
8
COTA
10
7500.0000
20
-1725.0000
30
0.0
40
500.0000
1
5000
50
0.0000
72
1
73
0
11
7500.0000
21
-1725.0000
31
0.0
0
LINE
8
COTA
10
10000.0000
20
-300.0000
30
0.0
11
10000.0000
21
-2400.0000
31
0.0
0
LINE
8
COTA
10
15000.0000
20
-300.0000
30
0.0
11
15000.0000
21
-2400.0000
31
0.0
0
LINE
8
COTA
10
10000.0000
20
-2000.0000
30
0.0
11
15000.0000
21
-2000.0000
31
0.0
0
SOLID
8
COTA
10
10000.0000
20
-2000.0000
30
0.0
11
10500.0000
21
-2150.0000
31
0.0
12
10500.0000
22
-1850.0000
32
0.0
13
10500.0000
23
-1850.0000
33
0.0
0
SOLID
8
COTA
10
15000.0000
20
-2000.0000
30
0.0
11
14500.0000
21
-1850.0000
31
0.0
12
14500.0000
22
-2150.0000
32
0.0
13
14500.0000
23
-2150.0000
33
0.0
0
TEXT
8
COTA
10
12500.0000
20
-1725.0000
30
0.0
40
500.0000
1
5000
50
0.0000
72
1
73
0
11
12500.0000
21
-1725.0000
31
0.0
0
LINE
8
COTA
10
15000.0000
20
-300.0000
30
0.0
11
15000.0000
21
-2400.0000
31
0.0
0
LINE
8
COTA
10
20000.0000
20
-300.0000
30
0.0
11
20000.0000
21
-2400.0000
31
0.0
0
LINE
8
COTA
10
15000.0000
20
-2000.0000
30
0.0
11
20000.0000
21
-2000.0000
31
0.0
0
SOLID
8
COTA
10
15000.0000
20
-2000.0000
30
0.0
11
15500.0000
21
-2150.0000
31
0.0
12
15500.0000
22
-1850.0000
32
0.0
13
15500.0000
23
-1850.0000
33
0.0
0
SOLID
8
COTA
10
20000.0000
20
-2000.0000
30
0.0
11
19500.0000
21
-1850.0000
31
0.0
12
19500.0000
22
-2150.0000
32
0.0
13
19500.0000
23
-2150.0000
33
0.0
0
TEXT
8
COTA
10
17500.0000
20
-1725.0000
30
0.0
40
500.0000
1
5000
50
0.0000
72
1
73
0
11
17500.0000
21
-1725.0000
31
0.0
0
LINE
8
COTA
10
20000.0000
20
-300.0000
30
0.0
11
20000.0000
21
-2400.0000
31
0.0
0
LINE
8
COTA
10
25000.0000
20
-300.0000
30
0.0
11
25000.0000
21
-2400.0000
31
0.0
0
LINE
8
COTA
10
20000.0000
20
-2000.0000
30
0.0
11
25000.0000
21
-2000.0000
31
0.0
0
SOLID
8
COTA
10
20000.0000
20
-2000.0000
30
0.0
11
20500.0000
21
-2150.0000
31
0.0
12
20500.0000
22
-1850.0000
32
0.0
13
20500.0000
23
-1850.0000
33
0.0
0
SOLID
8
COTA
10
25000.0000
20
-2000.0000
30
0.0
11
24500.0000
21
-1850.0000
31
0.0
12
24500.0000
22
-2150.0000
32
0.0
13
24500.0000
23
-2150.0000
33
0.0
0
TEXT
8
COTA
10
22500.0000
20
-1725.0000
30
0.0
40
500.0000
1
5000
50
0.0000
72
1
73
0
11
22500.0000
21
-1725.0000
31
0.0
0
LINE
8
COTA
10
25000.0000
20
-300.0000
30
0.0
11
25000.0000
21
-2400.0000
31
0.0
0
LINE
8
COTA
10
30000.0000
20
-300.0000
30
0.0
11
30000.0000
21
-2400.0000
31
0.0
0
LINE
8
COTA
10
25000.0000
20
-2000.0000
30
0.0
11
30000.0000
21
-2000.0000
31
0.0
0
SOLID
8
COTA
10
25000.0000
20
-2000.0000
30
0.0
11
25500.0000
21
-2150.0000
31
0.0
12
25500.0000
22
-1850.0000
32
0.0
13
25500.0000
23
-1850.0000
33
0.0
0
SOLID
8
COTA
10
30000.0000
20
-2000.0000
30
0.0
11
29500.0000
21
-1850.0000
31
0.0
12
29500.0000
22
-2150.0000
32
0.0
13
29500.0000
23
-2150.0000
33
0.0
0
TEXT
8
COTA
10
27500.0000
20
-1725.0000
30
0.0
40
500.0000
1
5000
50
0.0000
72
1
73
0
11
27500.0000
21
-1725.0000
31
0.0
0
LINE
8
COTA
10
30000.0000
20
-300.0000
30
0.0
11
30000.0000
21
-2400.0000
31
0.0
0
LINE
8
COTA
10
35000.0000
20
-300.0000
30
0.0
11
35000.0000
21
-2400.0000
31
0.0
0
LINE
8
COTA
10
30000.0000
20
-2000.0000
30
0.0
11
35000.0000
21
-2000.0000
31
0.0
0
SOLID
8
COTA
10
30000.0000
20
-2000.0000
30
0.0
11
30500.0000
21
-2150.0000
31
0.0
12
30500.0000
22
-1850.0000
32
0.0
13
30500.0000
23
-1850.0000
33
0.0
0
SOLID
8
COTA
10
35000.0000
20
-2000.0000
30
0.0
11
34500.0000
21
-1850.0000
31
0.0
12
34500.0000
22
-2150.0000
32
0.0
13
34500.0000
23
-2150.0000
33
0.0
0
TEXT
8
COTA
10
32500.0000
20
-1725.0000
30
0.0
40
500.0000
1
5000
50
0.0000
72
1
73
0
11
32500.0000
21
-1725.0000
31
0.0
0
LINE
8
COTA
10
35000.0000
20
-300.0000
30
0.0
11
35000.0000
21
-2400.0000
31
0.0
0
LINE
8
COTA
10
40000.0000
20
-300.0000
30
0.0
11
40000.0000
21
-2400.0000
31
0.0
0
LINE
8
COTA
10
35000.0000
20
-2000.0000
30
0.0
11
40000.0000
21
-2000.0000
31
0.0
0
SOLID
8
COTA
10
35000.0000
20
-2000.0000
30
0.0
11
35500.0000
21
-2150.0000
31
0.0
12
35500.0000
22
-1850.0000
32
0.0
13
35500.0000
23
-1850.0000
33
0.0
0
SOLID
8
COTA
10
40000.0000
20
-2000.0000
30
0.0
11
39500.0000
21
-1850.0000
31
0.0
12
39500.0000
22
-2150.0000
32
0.0
13
39500.0000
23
-2150.0000
33
0.0
0
TEXT
8
COTA
10
37500.0000
20
-1725.0000
30
0.0
40
500.0000
1
5000
50
0.0000
72
1
73
0
11
37500.0000
21
-1725.0000
31
0.0
0
LINE
8
COTA
10
0.0000
20
-300.0000
30
0.0
11
0.0000
21
-6400.0000
31
0.0
0
LINE
8
COTA
10
40000.0000
20
-300.0000
30
0.0
11
40000.0000
21
-6400.0000
31
0.0
0
LINE
8
COTA
10
0.0000
20
-6000.0000
30
0.0
11
40000.0000
21
-6000.0000
31
0.0
0
SOLID
8
COTA
10
0.0000
20
-6000.0000
30
0.0
11
500.0000
21
-6150.0000
31
0.0
12
500.0000
22
-5850.0000
32
0.0
13
500.0000
23
-5850.0000
33
0.0
0
SOLID
8
COTA
10
40000.0000
20
-6000.0000
30
0.0
11
39500.0000
21
-5850.0000
31
0.0
12
39500.0000
22
-6150.0000
32
0.0
13
39500.0000
23
-6150.0000
33
0.0
0
TEXT
8
COTA
10
20000.0000
20
-5725.0000
30
0.0
40
500.0000
1
40000
50
0.0000
72
1
73
0
11
20000.0000
21
-5725.0000
31
0.0
0
LINE
8
COTA
10
-300.0000
20
0.0000
30
0.0
11
-2400.0000
21
0.0000
31
0.0
0
LINE
8
COTA
10
-300.0000
20
199.0074
30
0.0
11
-2400.0000
21
199.0074
31
0.0
0
LINE
8
COTA
10
-2000.0000
20
0.0000
30
0.0
11
-2000.0000
21
199.0074
31
0.0
0
SOLID
8
COTA
10
-2000.0000
20
0.0000
30
0.0
11
-2060.0000
21
-200.0000
31
0.0
12
-1940.0000
22
-200.0000
32
0.0
13
-1940.0000
23
-200.0000
33
0.0
0
SOLID
8
COTA
10
-2000.0000
20
199.0074
30
0.0
11
-1940.0000
21
399.0074
31
0.0
12
-2060.0000
22
399.0074
32
0.0
13
-2060.0000
23
399.0074
33
0.0
0
LINE
8
COTA
10
-2000.0000
20
-400.0000
30
0.0
11
-2000.0000
21
0.0000
31
0.0
0
LINE
8
COTA
10
-2000.0000
20
599.0074
30
0.0
11
-2000.0000
21
199.0074
31
0.0
0
TEXT
8
COTA
10
-2220.0000
20
1059.5037
30
0.0
40
400.0000
1
199
50
90.0000
72
1
73
0
11
-2220.0000
21
1059.5037
31
0.0
0
LINE
8
COTA
10
-300.0000
20
199.0074
30
0.0
11
-2400.0000
21
199.0074
31
0.0
0
LINE
8
COTA
10
-300.0000
20
9751.3645
30
0.0
11
-2400.0000
21
9751.3645
31
0.0
0
LINE
8
COTA
10
-2000.0000
20
199.0074
30
0.0
11
-2000.0000
21
9751.3645
31
0.0
0
SOLID
8
COTA
10
-2000.0000
20
199.0074
30
0.0
11
-1850.0000
21
699.0074
31
0.0
12
-2150.0000
22
699.0074
32
0.0
13
-2150.0000
23
699.0074
33
0.0
0
SOLID
8
COTA
10
-2000.0000
20
9751.3645
30
0.0
11
-2150.0000
21
9251.3645
31
0.0
12
-1850.0000
22
9251.3645
32
0.0
13
-1850.0000
23
9251.3645
33
0.0
0
TEXT
8
COTA
10
-2275.0000
20
4975.1860
30
0.0
40
500.0000
1
6 x 1592 = 9552
50
90.0000
72
1
73
0
11
-2275.0000
21
4975.1860
31
0.0
0
LINE
8
COTA
10
-300.0000
20
9751.3645
30
0.0
11
-2400.0000
21
9751.3645
31
0.0
0
LINE
8
COTA
10
-300.0000
20
10000.0000
30
0.0
11
-2400.0000
21
10000.0000
31
0.0
0
LINE
8
COTA
10
-2000.0000
20
9751.3645
30
0.0
11
-2000.0000
21
10000.0000
31
0.0
0
SOLID
8
COTA
10
-2000.0000
20
9751.3645
30
0.0
11
-2060.0000
21
9551.3645
31
0.0
12
-1940.0000
22
9551.3645
32
0.0
13
-1940.0000
23
9551.3645
33
0.0
0
SOLID
8
COTA
10
-2000.0000
20
10000.0000
30
0.0
11
-1940.0000
21
10200.0000
31
0.0
12
-2060.0000
22
10200.0000
32
0.0
13
-2060.0000
23
10200.0000
33
0.0
0
LINE
8
COTA
10
-2000.0000
20
9351.3645
30
0.0
11
-2000.0000
21
9751.3645
31
0.0
0
LINE
8
COTA
10
-2000.0000
20
10400.0000
30
0.0
11
-2000.0000
21
10000.0000
31
0.0
0
TEXT
8
COTA
10
-2220.0000
20
10835.6822
30
0.0
40
400.0000
1
249
50
90.0000
72
1
73
0
11
-2220.0000
21
10835.6822
31
0.0
0
LINE
8
COTA
10
-300.0000
20
0.0000
30
0.0
11
-6400.0000
21
0.0000
31
0.0
0
LINE
8
COTA
10
-300.0000
20
20000.0000
30
0.0
11
-6400.0000
21
20000.0000
31
0.0
0
LINE
8
COTA
10
-6000.0000
20
0.0000
30
0.0
11
-6000.0000
21
20000.0000
31
0.0
0
SOLID
8
COTA
10
-6000.0000
20
0.0000
30
0.0
11
-5850.0000
21
500.0000
31
0.0
12
-6150.0000
22
500.0000
32
0.0
13
-6150.0000
23
500.0000
33
0.0
0
SOLID
8
COTA
10
-6000.0000
20
20000.0000
30
0.0
11
-6150.0000
21
19500.0000
31
0.0
12
-5850.0000
22
19500.0000
32
0.0
13
-5850.0000
23
19500.0000
33
0.0
0
TEXT
8
COTA
10
-6275.0000
20
10000.0000
30
0.0
40
500.0000
1
20000  (VAO)
50
90.0000
72
1
73
0
11
-6275.0000
21
10000.0000
31
0.0
0
TEXT
8
TEXTO
10
20000.0000
20
-10080.0000
30
0.0
40
800.0000
1
PLANTA DE COBERTURA
50
0.0000
72
1
73
0
11
20000.0000
21
-10080.0000
31
0.0
0
LINE
8
TEXTO
10
15288.0000
20
-10440.0000
30
0.0
11
24712.0000
21
-10440.0000
31
0.0
0
TEXT
8
TEXTO
10
20000.0000
20
-11280.0000
30
0.0
40
400.0000
1
ESCALA 1:200
50
0.0000
72
1
73
0
11
20000.0000
21
-11280.0000
31
0.0
0
TEXT
8
TEXTO
10
0.0000
20
-11840.0000
30
0.0
40
500.0000
1
NOTAS
50
0.0000
0
TEXT
8
TEXTO
10
0.0000
20
-12520.0000
30
0.0
40
400.0000
1
1. Cotas em milimetros.
50
0.0000
0
TEXT
8
TEXTO
10
0.0000
20
-13200.0000
30
0.0
40
400.0000
1
2. 9 porticos (P1 a P9) a cada 5000 mm.
50
0.0000
0
TEXT
8
TEXTO
10
0.0000
20
-13880.0000
30
0.0
40
400.0000
1
3. 14 linhas de terca Ue 200x75x20x2,00 a cada 1600 mm (na inclinacao).
50
0.0000
0
TEXT
8
TEXTO
10
0.0000
20
-14560.0000
30
0.0
40
400.0000
1
4. Contraventamento de cobertura em X nos vaos 1, 4 e 8 (CC).
50
0.0000
0
TEXT
8
TEXTO
10
0.0000
20
-15240.0000
30
0.0
40
400.0000
1
5. 1 linha(s) de corrente por vao, com tirante de cumeeira em V.
50
0.0000
0
TEXT
8
TEXTO
10
0.0000
20
-15920.0000
30
0.0
40
400.0000
1
6. Escoras TC 88,9x3,2 (3") adotadas no detalhamento; nao constam do calculo.
50
0.0000
0
ENDSEC
0
EOF
