0
SECTION
2
HEADER
9
$ACADVER
1
AC1009
9
$INSUNITS
70
4
9
$EXTMIN
10
-6940.0000
20
-14080.0000
30
0.0
9
$EXTMAX
10
43145.0000
20
12800.0000
30
0.0
9
$LTSCALE
40
1.0
9
$TEXTSTYLE
7
STANDARD
0
ENDSEC
0
SECTION
2
TABLES
0
TABLE
2
LTYPE
70
4
0
LTYPE
2
CONTINUOUS
70
0
3
Solida
72
65
73
0
40
0.0
0
LTYPE
2
CENTER
70
0
3
Linha de centro ____ _ ____ _ ____
72
65
73
4
40
31.7500
49
0.5000
49
-6.3500
49
3.1750
49
-6.3500
0
LTYPE
2
HIDDEN
70
0
3
Tracejada __ __ __ __ __ __
72
65
73
3
40
9.5250
49
0.5000
49
-6.3500
49
3.1750
0
LTYPE
2
DASHED
70
0
3
Tracejada longa ___ ___ ___
72
65
73
3
40
12.7000
49
0.5000
49
-6.3500
49
6.3500
0
ENDTAB
0
TABLE
2
LAYER
70
14
0
LAYER
2
0
70
0
62
7
6
CONTINUOUS
0
LAYER
2
ACO
70
0
62
7
6
CONTINUOUS
0
LAYER
2
ACO-FINO
70
0
62
8
6
CONTINUOUS
0
LAYER
2
EIXO
70
0
62
1
6
CENTER
0
LAYER
2
OCULTA
70
0
62
8
6
HIDDEN
0
LAYER
2
COTA
70
0
62
3
6
CONTINUOUS
0
LAYER
2
TEXTO
70
0
62
7
6
CONTINUOUS
0
LAYER
2
FURO
70
0
62
5
6
CONTINUOUS
0
LAYER
2
SOLDA
70
0
62
2
6
CONTINUOUS
0
LAYER
2
PARAFUSO
70
0
62
5
6
CONTINUOUS
0
LAYER
2
CONCRETO
70
0
62
9
6
CONTINUOUS
0
LAYER
2
HACHURA
70
0
62
8
6
CONTINUOUS
0
LAYER
2
CARIMBO
70
0
62
7
6
CONTINUOUS
0
LAYER
2
AUXILIAR
70
0
62
8
6
DASHED
0
ENDTAB
0
TABLE
2
STYLE
70
1
0
STYLE
2
STANDARD
70
0
40
0.0
41
0.85
50
0.0
71
0
42
2.5
3
txt
4

0
ENDTAB
0
ENDSEC
0
SECTION
2
ENTITIES
0
POLYLINE
8
ACO
66
1
10
0.0
20
0.0
30
0.0
70
1
0
VERTEX
8
ACO
10
-70.0000
20
0.0000
30
0.0
0
VERTEX
8
ACO
10
70.0000
20
0.0000
30
0.0
0
VERTEX
8
ACO
10
70.0000
20
6000.0000
30
0.0
0
VERTEX
8
ACO
10
-70.0000
20
6000.0000
30
0.0
0
SEQEND
8
ACO
0
LINE
8
EIXO
10
0.0000
20
-2000.0000
30
0.0
11
0.0000
21
8400.0000
31
0.0
0
TEXT
8
TEXTO
10
0.0000
20
9600.0000
30
0.0
40
500.0000
1
P1
50
0.0000
72
1
73
0
11
0.0000
21
9600.0000
31
0.0
0
POLYLINE
8
ACO
66
1
10
0.0
20
0.0
30
0.0
70
1
0
VERTEX
8
ACO
10
4930.0000
20
0.0000
30
0.0
0
VERTEX
8
ACO
10
5070.0000
20
0.0000
30
0.0
0
VERTEX
8
ACO
10
5070.0000
20
6000.0000
30
0.0
0
VERTEX
8
ACO
10
4930.0000
20
6000.0000
30
0.0
0
SEQEND
8
ACO
0
LINE
8
EIXO
10
5000.0000
20
-2000.0000
30
0.0
11
5000.0000
21
8400.0000
31
0.0
0
TEXT
8
TEXTO
10
5000.0000
20
9600.0000
30
0.0
40
500.0000
1
P2
50
0.0000
72
1
73
0
11
5000.0000
21
9600.0000
31
0.0
0
POLYLINE
8
ACO
66
1
10
0.0
20
0.0
30
0.0
70
1
0
VERTEX
8
ACO
10
9930.0000
20
0.0000
30
0.0
0
VERTEX
8
ACO
10
10070.0000
20
0.0000
30
0.0
0
VERTEX
8
ACO
10
10070.0000
20
6000.0000
30
0.0
0
VERTEX
8
ACO
10
9930.0000
20
6000.0000
30
0.0
0
SEQEND
8
ACO
0
LINE
8
EIXO
10
10000.0000
20
-2000.0000
30
0.0
11
10000.0000
21
8400.0000
31
0.0
0
TEXT
8
TEXTO
10
10000.0000
20
9600.0000
30
0.0
40
500.0000
1
P3
50
0.0000
72
1
73
0
11
10000.0000
21
9600.0000
31
0.0
0
POLYLINE
8
ACO
66
1
10
0.0
20
0.0
30
0.0
70
1
0
VERTEX
8
ACO
10
14930.0000
20
0.0000
30
0.0
0
VERTEX
8
ACO
10
15070.0000
20
0.0000
30
0.0
0
VERTEX
8
ACO
10
15070.0000
20
6000.0000
30
0.0
0
VERTEX
8
ACO
10
14930.0000
20
6000.0000
30
0.0
0
SEQEND
8
ACO
0
LINE
8
EIXO
10
15000.0000
20
-2000.0000
30
0.0
11
15000.0000
21
8400.0000
31
0.0
0
TEXT
8
TEXTO
10
15000.0000
20
9600.0000
30
0.0
40
500.0000
1
P4
50
0.0000
72
1
73
0
11
15000.0000
21
9600.0000
31
0.0
0
POLYLINE
8
ACO
66
1
10
0.0
20
0.0
30
0.0
70
1
0
VERTEX
8
ACO
10
19930.0000
20
0.0000
30
0.0
0
VERTEX
8
ACO
10
20070.0000
20
0.0000
30
0.0
0
VERTEX
8
ACO
10
20070.0000
20
6000.0000
30
0.0
0
VERTEX
8
ACO
10
19930.0000
20
6000.0000
30
0.0
0
SEQEND
8
ACO
0
LINE
8
EIXO
10
20000.0000
20
-2000.0000
30
0.0
11
20000.0000
21
8400.0000
31
0.0
0
TEXT
8
TEXTO
10
20000.0000
20
9600.0000
30
0.0
40
500.0000
1
P5
50
0.0000
72
1
73
0
11
20000.0000
21
9600.0000
31
0.0
0
POLYLINE
8
ACO
66
1
10
0.0
20
0.0
30
0.0
70
1
0
VERTEX
8
ACO
10
24930.0000
20
0.0000
30
0.0
0
VERTEX
8
ACO
10
25070.0000
20
0.0000
30
0.0
0
VERTEX
8
ACO
10
25070.0000
20
6000.0000
30
0.0
0
VERTEX
8
ACO
10
24930.0000
20
6000.0000
30
0.0
0
SEQEND
8
ACO
0
LINE
8
EIXO
10
25000.0000
20
-2000.0000
30
0.0
11
25000.0000
21
8400.0000
31
0.0
0
TEXT
8
TEXTO
10
25000.0000
20
9600.0000
30
0.0
40
500.0000
1
P6
50
0.0000
72
1
73
0
11
25000.0000
21
9600.0000
31
0.0
0
POLYLINE
8
ACO
66
1
10
0.0
20
0.0
30
0.0
70
1
0
VERTEX
8
ACO
10
29930.0000
20
0.0000
30
0.0
0
VERTEX
8
ACO
10
30070.0000
20
0.0000
30
0.0
0
VERTEX
8
ACO
10
30070.0000
20
6000.0000
30
0.0
0
VERTEX
8
ACO
10
29930.0000
20
6000.0000
30
0.0
0
SEQEND
8
ACO
0
LINE
8
EIXO
10
30000.0000
20
-2000.0000
30
0.0
11
30000.0000
21
8400.0000
31
0.0
0
TEXT
8
TEXTO
10
30000.0000
20
9600.0000
30
0.0
40
500.0000
1
P7
50
0.0000
72
1
73
0
11
30000.0000
21
9600.0000
31
0.0
0
POLYLINE
8
ACO
66
1
10
0.0
20
0.0
30
0.0
70
1
0
VERTEX
8
ACO
10
34930.0000
20
0.0000
30
0.0
0
VERTEX
8
ACO
10
35070.0000
20
0.0000
30
0.0
0
VERTEX
8
ACO
10
35070.0000
20
6000.0000
30
0.0
0
VERTEX
8
ACO
10
34930.0000
20
6000.0000
30
0.0
0
SEQEND
8
ACO
0
LINE
8
EIXO
10
35000.0000
20
-2000.0000
30
0.0
11
35000.0000
21
8400.0000
31
0.0
0
TEXT
8
TEXTO
10
35000.0000
20
9600.0000
30
0.0
40
500.0000
1
P8
50
0.0000
72
1
73
0
11
35000.0000
21
9600.0000
31
0.0
0
POLYLINE
8
ACO
66
1
10
0.0
20
0.0
30
0.0
70
1
0
VERTEX
8
ACO
10
39930.0000
20
0.0000
30
0.0
0
VERTEX
8
ACO
10
40070.0000
20
0.0000
30
0.0
0
VERTEX
8
ACO
10
40070.0000
20
6000.0000
30
0.0
0
VERTEX
8
ACO
10
39930.0000
20
6000.0000
30
0.0
0
SEQEND
8
ACO
0
LINE
8
EIXO
10
40000.0000
20
-2000.0000
30
0.0
11
40000.0000
21
8400.0000
31
0.0
0
TEXT
8
TEXTO
10
40000.0000
20
9600.0000
30
0.0
40
500.0000
1
P9
50
0.0000
72
1
73
0
11
40000.0000
21
9600.0000
31
0.0
0
LINE
8
ACO
10
0.0000
20
6000.0000
30
0.0
11
40000.0000
21
6000.0000
31
0.0
0
POLYLINE
8
ACO-FINO
66
1
10
0.0
20
0.0
30
0.0
70
1
0
VERTEX
8
ACO-FINO
10
0.0000
20
6000.0000
30
0.0
0
VERTEX
8
ACO-FINO
10
40000.0000
20
6000.0000
30
0.0
0
VERTEX
8
ACO-FINO
10
40000.0000
20
6200.0000
30
0.0
0
VERTEX
8
ACO-FINO
10
0.0000
20
6200.0000
30
0.0
0
SEQEND
8
ACO-FINO
0
LINE
8
OCULTA
10
0.0000
20
7000.0000
30
0.0
11
40000.0000
21
7000.0000
31
0.0
0
TEXT
8
TEXTO
10
20000.0000
20
7240.0000
30
0.0
40
400.0000
1
CUMEEIRA (ALEM)
50
0.0000
72
1
73
0
11
20000.0000
21
7240.0000
31
0.0
0
LINE
8
ACO-FINO
10
0.0000
20
1000.0000
30
0.0
11
40000.0000
21
1000.0000
31
0.0
0
LINE
8
ACO-FINO
10
0.0000
20
1200.0000
30
0.0
11
40000.0000
21
1200.0000
31
0.0
0
LINE
8
ACO-FINO
10
0.0000
20
3000.0000
30
0.0
11
40000.0000
21
3000.0000
31
0.0
0
LINE
8
ACO-FINO
10
0.0000
20
3200.0000
30
0.0
11
40000.0000
21
3200.0000
31
0.0
0
LINE
8
ACO-FINO
10
0.0000
20
5000.0000
30
0.0
11
40000.0000
21
5000.0000
31
0.0
0
LINE
8
ACO-FINO
10
0.0000
20
5200.0000
30
0.0
11
40000.0000
21
5200.0000
31
0.0
0
LINE
8
ACO
10
70.0000
20
0.0000
30
0.0
11
4930.0000
21
6000.0000
31
0.0
0
LINE
8
ACO
10
70.0000
20
6000.0000
30
0.0
11
4930.0000
21
0.0000
31
0.0
0
TEXT
8
TEXTO
10
2500.0000
20
-1600.0000
30
0.0
40
500.0000
1
CV-1
50
0.0000
72
1
73
0
11
2500.0000
21
-1600.0000
31
0.0
0
LINE
8
ACO
10
15070.0000
20
0.0000
30
0.0
11
19930.0000
21
6000.0000
31
0.0
0
LINE
8
ACO
10
15070.0000
20
6000.0000
30
0.0
11
19930.0000
21
0.0000
31
0.0
0
TEXT
8
TEXTO
10
17500.0000
20
-1600.0000
30
0.0
40
500.0000
1
CV-4
50
0.0000
72
1
73
0
11
17500.0000
21
-1600.0000
31
0.0
0
LINE
8
ACO
10
35070.0000
20
0.0000
30
0.0
11
39930.0000
21
6000.0000
31
0.0
0
LINE
8
ACO
10
35070.0000
20
6000.0000
30
0.0
11
39930.0000
21
0.0000
31
0.0
0
TEXT
8
TEXTO
10
37500.0000
20
-1600.0000
30
0.0
40
500.0000
1
CV-8
50
0.0000
72
1
73
0
11
37500.0000
21
-1600.0000
31
0.0
0
POLYLINE
8
CONCRETO
66
1
10
0.0
20
0.0
30
0.0
70
1
0
VERTEX
8
CONCRETO
10
-170.0000
20
-500.0000
30
0.0
0
VERTEX
8
CONCRETO
10
170.0000
20
-500.0000
30
0.0
0
VERTEX
8
CONCRETO
10
170.0000
20
0.0000
30
0.0
0
VERTEX
8
CONCRETO
10
-170.0000
20
0.0000
30
0.0
0
SEQEND
8
CONCRETO
0
LINE
8
HACHURA
10
14.4365
20
-500.0000
30
0.0
11
170.0000
21
-344.4365
31
0.0
0
LINE
8
HACHURA
10
-141.1270
20
-500.0000
30
0.0
11
170.0000
21
-188.8730
31
0.0
0
LINE
8
HACHURA
10
-170.0000
20
-373.3095
30
0.0
11
170.0000
21
-33.3095
31
0.0
0
LINE
8
HACHURA
10
-170.0000
20
-217.7460
30
0.0
11
47.7460
21
0.0000
31
0.0
0
LINE
8
HACHURA
10
-170.0000
20
-62.1825
30
0.0
11
-107.8175
21
0.0000
31
0.0
0
POLYLINE
8
CONCRETO
66
1
10
0.0
20
0.0
30
0.0
70
1
0
VERTEX
8
CONCRETO
10
4830.0000
20
-500.0000
30
0.0
0
VERTEX
8
CONCRETO
10
5170.0000
20
-500.0000
30
0.0
0
VERTEX
8
CONCRETO
10
5170.0000
20
0.0000
30
0.0
0
VERTEX
8
CONCRETO
10
4830.0000
20
0.0000
30
0.0
0
SEQEND
8
CONCRETO
0
LINE
8
HACHURA
10
5014.4365
20
-500.0000
30
0.0
11
5170.0000
21
-344.4365
31
0.0
0
LINE
8
HACHURA
10
4858.8730
20
-500.0000
30
0.0
11
5170.0000
21
-188.8730
31
0.0
0
LINE
8
HACHURA
10
4830.0000
20
-373.3095
30
0.0
11
5170.0000
21
-33.3095
31
0.0
0
LINE
8
HACHURA
10
4830.0000
20
-217.7460
30
0.0
11
5047.7460
21
0.0000
31
0.0
0
LINE
8
HACHURA
10
4830.0000
20
-62.1825
30
0.0
11
4892.1825
21
0.0000
31
0.0
0
POLYLINE
8
CONCRETO
66
1
10
0.0
20
0.0
30
0.0
70
1
0
VERTEX
8
CONCRETO
10
9830.0000
20
-500.0000
30
0.0
0
VERTEX
8
CONCRETO
10
10170.0000
20
-500.0000
30
0.0
0
VERTEX
8
CONCRETO
10
10170.0000
20
0.0000
30
0.0
0
VERTEX
8
CONCRETO
10
9830.0000
20
0.0000
30
0.0
0
SEQEND
8
CONCRETO
0
LINE
8
HACHURA
10
10014.4365
20
-500.0000
30
0.0
11
10170.0000
21
-344.4365
31
0.0
0
LINE
8
HACHURA
10
9858.8730
20
-500.0000
30
0.0
11
10170.0000
21
-188.8730
31
0.0
0
LINE
8
HACHURA
10
9830.0000
20
-373.3095
30
0.0
11
10170.0000
21
-33.3095
31
0.0
0
LINE
8
HACHURA
10
9830.0000
20
-217.7460
30
0.0
11
10047.7460
21
0.0000
31
0.0
0
LINE
8
HACHURA
10
9830.0000
20
-62.1825
30
0.0
11
9892.1825
21
0.0000
31
0.0
0
POLYLINE
8
CONCRETO
66
1
10
0.0
20
0.0
30
0.0
70
1
0
VERTEX
8
CONCRETO
10
14830.0000
20
-500.0000
30
0.0
0
VERTEX
8
CONCRETO
10
15170.0000
20
-500.0000
30
0.0
0
VERTEX
8
CONCRETO
10
15170.0000
20
0.0000
30
0.0
0
VERTEX
8
CONCRETO
10
14830.0000
20
0.0000
30
0.0
0
SEQEND
8
CONCRETO
0
LINE
8
HACHURA
10
15014.4365
20
-500.0000
30
0.0
11
15170.0000
21
-344.4365
31
0.0
0
LINE
8
HACHURA
10
14858.8730
20
-500.0000
30
0.0
11
15170.0000
21
-188.8730
31
0.0
0
LINE
8
HACHURA
10
14830.0000
20
-373.3095
30
0.0
11
15170.0000
21
-33.3095
31
0.0
0
LINE
8
HACHURA
10
14830.0000
20
-217.7460
30
0.0
11
15047.7460
21
0.0000
31
0.0
0
LINE
8
HACHURA
10
14830.0000
20
-62.1825
30
0.0
11
14892.1825
21
0.0000
31
0.0
0
POLYLINE
8
CONCRETO
66
1
10
0.0
20
0.0
30
0.0
70
1
0
VERTEX
8
CONCRETO
10
19830.0000
20
-500.0000
30
0.0
0
VERTEX
8
CONCRETO
10
20170.0000
20
-500.0000
30
0.0
0
VERTEX
8
CONCRETO
10
20170.0000
20
0.0000
30
0.0
0
VERTEX
8
CONCRETO
10
19830.0000
20
0.0000
30
0.0
0
SEQEND
8
CONCRETO
0
LINE
8
HACHURA
10
20014.4365
20
-500.0000
30
0.0
11
20170.0000
21
-344.4365
31
0.0
0
LINE
8
HACHURA
10
19858.8730
20
-500.0000
30
0.0
11
20170.0000
21
-188.8730
31
0.0
0
LINE
8
HACHURA
10
19830.0000
20
-373.3095
30
0.0
11
20170.0000
21
-33.3095
31
0.0
0
LINE
8
HACHURA
10
19830.0000
20
-217.7460
30
0.0
11
20047.7460
21
0.0000
31
0.0
0
LINE
8
HACHURA
10
19830.0000
20
-62.1825
30
0.0
11
19892.1825
21
0.0000
31
0.0
0
POLYLINE
8
CONCRETO
66
1
10
0.0
20
0.0
30
0.0
70
1
0
VERTEX
8
CONCRETO
10
24830.0000
20
-500.0000
30
0.0
0
VERTEX
8
CONCRETO
10
25170.0000
20
-500.0000
30
0.0
0
VERTEX
8
CONCRETO
10
25170.0000
20
0.0000
30
0.0
0
VERTEX
8
CONCRETO
10
24830.0000
20
0.0000
30
0.0
0
SEQEND
8
CONCRETO
0
LINE
8
HACHURA
10
25014.4365
20
-500.0000
30
0.0
11
25170.0000
21
-344.4365
31
0.0
0
LINE
8
HACHURA
10
24858.8730
20
-500.0000
30
0.0
11
25170.0000
21
-188.8730
31
0.0
0
LINE
8
HACHURA
10
24830.0000
20
-373.3095
30
0.0
11
25170.0000
21
-33.3095
31
0.0
0
LINE
8
HACHURA
10
24830.0000
20
-217.7460
30
0.0
11
25047.7460
21
0.0000
31
0.0
0
LINE
8
HACHURA
10
24830.0000
20
-62.1825
30
0.0
11
24892.1825
21
0.0000
31
0.0
0
POLYLINE
8
CONCRETO
66
1
10
0.0
20
0.0
30
0.0
70
1
0
VERTEX
8
CONCRETO
10
29830.0000
20
-500.0000
30
0.0
0
VERTEX
8
CONCRETO
10
30170.0000
20
-500.0000
30
0.0
0
VERTEX
8
CONCRETO
10
30170.0000
20
0.0000
30
0.0
0
VERTEX
8
CONCRETO
10
29830.0000
20
0.0000
30
0.0
0
SEQEND
8
CONCRETO
0
LINE
8
HACHURA
10
30014.4365
20
-500.0000
30
0.0
11
30170.0000
21
-344.4365
31
0.0
0
LINE
8
HACHURA
10
29858.8730
20
-500.0000
30
0.0
11
30170.0000
21
-188.8730
31
0.0
0
LINE
8
HACHURA
10
29830.0000
20
-373.3095
30
0.0
11
30170.0000
21
-33.3095
31
0.0
0
LINE
8
HACHURA
10
29830.0000
20
-217.7460
30
0.0
11
30047.7460
21
0.0000
31
0.0
0
LINE
8
HACHURA
10
29830.0000
20
-62.1825
30
0.0
11
29892.1825
21
0.0000
31
0.0
0
POLYLINE
8
CONCRETO
66
1
10
0.0
20
0.0
30
0.0
70
1
0
VERTEX
8
CONCRETO
10
34830.0000
20
-500.0000
30
0.0
0
VERTEX
8
CONCRETO
10
35170.0000
20
-500.0000
30
0.0
0
VERTEX
8
CONCRETO
10
35170.0000
20
0.0000
30
0.0
0
VERTEX
8
CONCRETO
10
34830.0000
20
0.0000
30
0.0
0
SEQEND
8
CONCRETO
0
LINE
8
HACHURA
10
35014.4365
20
-500.0000
30
0.0
11
35170.0000
21
-344.4365
31
0.0
0
LINE
8
HACHURA
10
34858.8730
20
-500.0000
30
0.0
11
35170.0000
21
-188.8730
31
0.0
0
LINE
8
HACHURA
10
34830.0000
20
-373.3095
30
0.0
11
35170.0000
21
-33.3095
31
0.0
0
LINE
8
HACHURA
10
34830.0000
20
-217.7460
30
0.0
11
35047.7460
21
0.0000
31
0.0
0
LINE
8
HACHURA
10
34830.0000
20
-62.1825
30
0.0
11
34892.1825
21
0.0000
31
0.0
0
POLYLINE
8
CONCRETO
66
1
10
0.0
20
0.0
30
0.0
70
1
0
VERTEX
8
CONCRETO
10
39830.0000
20
-500.0000
30
0.0
0
VERTEX
8
CONCRETO
10
40170.0000
20
-500.0000
30
0.0
0
VERTEX
8
CONCRETO
10
40170.0000
20
0.0000
30
0.0
0
VERTEX
8
CONCRETO
10
39830.0000
20
0.0000
30
0.0
0
SEQEND
8
CONCRETO
0
LINE
8
HACHURA
10
40014.4365
20
-500.0000
30
0.0
11
40170.0000
21
-344.4365
31
0.0
0
LINE
8
HACHURA
10
39858.8730
20
-500.0000
30
0.0
11
40170.0000
21
-188.8730
31
0.0
0
LINE
8
HACHURA
10
39830.0000
20
-373.3095
30
0.0
11
40170.0000
21
-33.3095
31
0.0
0
LINE
8
HACHURA
10
39830.0000
20
-217.7460
30
0.0
11
40047.7460
21
0.0000
31
0.0
0
LINE
8
HACHURA
10
39830.0000
20
-62.1825
30
0.0
11
39892.1825
21
0.0000
31
0.0
0
LINE
8
CONCRETO
10
-1200.0000
20
0.0000
30
0.0
11
41200.0000
21
0.0000
31
0.0
0
LINE
8
CONCRETO
10
-1200.0000
20
0.0000
30
0.0
11
-1564.0000
21
-520.0000
31
0.0
0
LINE
8
CONCRETO
10
-400.0000
20
0.0000
30
0.0
11
-764.0000
21
-520.0000
31
0.0
0
LINE
8
CONCRETO
10
400.0000
20
0.0000
30
0.0
11
36.0000
21
-520.0000
31
0.0
0
LINE
8
CONCRETO
10
1200.0000
20
0.0000
30
0.0
11
836.0000
21
-520.0000
31
0.0
0
LINE
8
CONCRETO
10
2000.0000
20
0.0000
30
0.0
11
1636.0000
21
-520.0000
31
0.0
0
LINE
8
CONCRETO
10
2800.0000
20
0.0000
30
0.0
11
2436.0000
21
-520.0000
31
0.0
0
LINE
8
CONCRETO
10
3600.0000
20
0.0000
30
0.0
11
3236.0000
21
-520.0000
31
0.0
0
LINE
8
CONCRETO
10
4400.0000
20
0.0000
30
0.0
11
4036.0000
21
-520.0000
31
0.0
0
LINE
8
CONCRETO
10
5200.0000
20
0.0000
30
0.0
11
4836.0000
21
-520.0000
31
0.0
0
LINE
8
CONCRETO
10
6000.0000
20
0.0000
30
0.0
11
5636.0000
21
-520.0000
31
0.0
0
LINE
8
CONCRETO
10
6800.0000
20
0.0000
30
0.0
11
6436.0000
21
-520.0000
31
0.0
0
LINE
8
CONCRETO
10
7600.0000
20
0.0000
30
0.0
11
7236.0000
21
-520.0000
31
0.0
0
LINE
8
CONCRETO
10
8400.0000
20
0.0000
30
0.0
11
8036.0000
21
-520.0000
31
0.0
0
LINE
8
CONCRETO
10
9200.0000
20
0.0000
30
0.0
11
8836.0000
21
-520.0000
31
0.0
0
LINE
8
CONCRETO
10
10000.0000
20
0.0000
30
0.0
11
9636.0000
21
-520.0000
31
0.0
0
LINE
8
CONCRETO
10
10800.0000
20
0.0000
30
0.0
11
10436.0000
21
-520.0000
31
0.0
0
LINE
8
CONCRETO
10
11600.0000
20
0.0000
30
0.0
11
11236.0000
21
-520.0000
31
0.0
0
LINE
8
CONCRETO
10
12400.0000
20
0.0000
30
0.0
11
12036.0000
21
-520.0000
31
0.0
0
LINE
8
CONCRETO
10
13200.0000
20
0.0000
30
0.0
11
12836.0000
21
-520.0000
31
0.0
0
LINE
8
CONCRETO
10
14000.0000
20
0.0000
30
0.0
11
13636.0000
21
-520.0000
31
0.0
0
LINE
8
CONCRETO
10
14800.0000
20
0.0000
30
0.0
11
14436.0000
21
-520.0000
31
0.0
0
LINE
8
CONCRETO
10
15600.0000
20
0.0000
30
0.0
11
15236.0000
21
-520.0000
31
0.0
0
LINE
8
CONCRETO
10
16400.0000
20
0.0000
30
0.0
11
16036.0000
21
-520.0000
31
0.0
0
LINE
8
CONCRETO
10
17200.0000
20
0.0000
30
0.0
11
16836.0000
21
-520.0000
31
0.0
0
LINE
8
CONCRETO
10
18000.0000
20
0.0000
30
0.0
11
17636.0000
21
-520.0000
31
0.0
0
LINE
8
CONCRETO
10
18800.0000
20
0.0000
30
0.0
11
18436.0000
21
-520.0000
31
0.0
0
LINE
8
CONCRETO
10
19600.0000
20
0.0000
30
0.0
11
19236.0000
21
-520.0000
31
0.0
0
LINE
8
CONCRETO
10
20400.0000
20
0.0000
30
0.0
11
20036.0000
21
-520.0000
31
0.0
0
LINE
8
CONCRETO
10
21200.0000
20
0.0000
30
0.0
11
20836.0000
21
-520.0000
31
0.0
0
LINE
8
CONCRETO
10
22000.0000
20
0.0000
30
0.0
11
21636.0000
21
-520.0000
31
0.0
0
LINE
8
CONCRETO
10
22800.0000
20
0.0000
30
0.0
11
22436.0000
21
-520.0000
31
0.0
0
LINE
8
CONCRETO
10
23600.0000
20
0.0000
30
0.0
11
23236.0000
21
-520.0000
31
0.0
0
LINE
8
CONCRETO
10
24400.0000
20
0.0000
30
0.0
11
24036.0000
21
-520.0000
31
0.0
0
LINE
8
CONCRETO
10
25200.0000
20
0.0000
30
0.0
11
24836.0000
21
-520.0000
31
0.0
0
LINE
8
CONCRETO
10
26000.0000
20
0.0000
30
0.0
11
25636.0000
21
-520.0000
31
0.0
0
LINE
8
CONCRETO
10
26800.0000
20
0.0000
30
0.0
11
26436.0000
21
-520.0000
31
0.0
0
LINE
8
CONCRETO
10
27600.0000
20
0.0000
30
0.0
11
27236.0000
21
-520.0000
31
0.0
0
LINE
8
CONCRETO
10
28400.0000
20
0.0000
30
0.0
11
28036.0000
21
-520.0000
31
0.0
0
LINE
8
CONCRETO
10
29200.0000
20
0.0000
30
0.0
11
28836.0000
21
-520.0000
31
0.0
0
LINE
8
CONCRETO
10
30000.0000
20
0.0000
30
0.0
11
29636.0000
21
-520.0000
31
0.0
0
LINE
8
CONCRETO
10
30800.0000
20
0.0000
30
0.0
11
30436.0000
21
-520.0000
31
0.0
0
LINE
8
CONCRETO
10
31600.0000
20
0.0000
30
0.0
11
31236.0000
21
-520.0000
31
0.0
0
LINE
8
CONCRETO
10
32400.0000
20
0.0000
30
0.0
11
32036.0000
21
-520.0000
31
0.0
0
LINE
8
CONCRETO
10
33200.0000
20
0.0000
30
0.0
11
32836.0000
21
-520.0000
31
0.0
0
LINE
8
CONCRETO
10
34000.0000
20
0.0000
30
0.0
11
33636.0000
21
-520.0000
31
0.0
0
LINE
8
CONCRETO
10
34800.0000
20
0.0000
30
0.0
11
34436.0000
21
-520.0000
31
0.0
0
LINE
8
CONCRETO
10
35600.0000
20
0.0000
30
0.0
11
35236.0000
21
-520.0000
31
0.0
0
LINE
8
CONCRETO
10
36400.0000
20
0.0000
30
0.0
11
36036.0000
21
-520.0000
31
0.0
0
LINE
8
CONCRETO
10
37200.0000
20
0.0000
30
0.0
11
36836.0000
21
-520.0000
31
0.0
0
LINE
8
CONCRETO
10
38000.0000
20
0.0000
30
0.0
11
37636.0000
21
-520.0000
31
0.0
0
LINE
8
CONCRETO
10
38800.0000
20
0.0000
30
0.0
11
38436.0000
21
-520.0000
31
0.0
0
LINE
8
CONCRETO
10
39600.0000
20
0.0000
30
0.0
11
39236.0000
21
-520.0000
31
0.0
0
LINE
8
CONCRETO
10
40400.0000
20
0.0000
30
0.0
11
40036.0000
21
-520.0000
31
0.0
0
LINE
8
TEXTO
10
1500.0000
20
1920.0000
30
0.0
11
5600.0000
21
-6500.0000
31
0.0
0
SOLID
8
TEXTO
10
1500.0000
20
1920.0000
30
0.0
11
1584.0348
21
1404.7931
31
0.0
12
1853.7576
22
1536.1308
32
0.0
13
1853.7576
23
1536.1308
33
0.0
0
LINE
8
TEXTO
10
5600.0000
20
-6500.0000
30
0.0
11
6400.0000
21
-6500.0000
31
0.0
0
TEXT
8
TEXTO
10
6520.0000
20
-6320.0000
30
0.0
40
400.0000
1
CONTRAVENTAMENTO VERTICAL EM X (CV)
50
0.0000
0
TEXT
8
TEXTO
10
6520.0000
20
-6860.0000
30
0.0
40
400.0000
1
TIRANTE %%c20 mm com esticador
50
0.0000
0
TEXT
8
TEXTO
10
6520.0000
20
-7400.0000
30
0.0
40
400.0000
1
pontas e esticador: DET. 08
50
0.0000
0
LINE
8
TEXTO
10
24800.0000
20
3000.0000
30
0.0
11
26400.0000
21
12200.0000
31
0.0
0
SOLID
8
TEXTO
10
24800.0000
20
3000.0000
30
0.0
11
25033.4524
21
3466.9047
31
0.0
12
24737.8888
22
3518.3071
32
0.0
13
24737.8888
23
3518.3071
33
0.0
0
LINE
8
TEXTO
10
26400.0000
20
12200.0000
30
0.0
11
27200.0000
21
12200.0000
31
0.0
0
TEXT
8
TEXTO
10
27320.0000
20
12380.0000
30
0.0
40
400.0000
1
LONGARINA L1  Ue 200x75x20x2,00
50
0.0000
0
TEXT
8
TEXTO
10
27320.0000
20
11840.0000
30
0.0
40
400.0000
1
3 fiadas a cada 2000 mm
50
0.0000
0
LINE
8
TEXTO
10
12000.0000
20
6100.0000
30
0.0
11
8800.0000
21
12200.0000
31
0.0
0
SOLID
8
TEXTO
10
12000.0000
20
6100.0000
30
0.0
11
11900.5574
21
6612.4560
31
0.0
12
11634.8932
22
6473.0912
32
0.0
13
11634.8932
23
6473.0912
33
0.0
0
LINE
8
TEXTO
10
8800.0000
20
12200.0000
30
0.0
11
8000.0000
21
12200.0000
31
0.0
0
TEXT
8
TEXTO
10
7880.0000
20
12380.0000
30
0.0
40
400.0000
1
VIGA DE BEIRAL / ESCORA
50
0.0000
72
2
73
0
11
7880.0000
21
12380.0000
31
0.0
0
LINE
8
TEXTO
10
10000.0000
20
3300.0000
30
0.0
11
-6000.0000
21
-1300.0000
31
0.0
0
SOLID
8
TEXTO
10
10000.0000
20
3300.0000
30
0.0
11
9478.0192
21
3306.0067
31
0.0
12
9560.9115
22
3017.6859
32
0.0
13
9560.9115
23
3017.6859
33
0.0
0
LINE
8
TEXTO
10
-6000.0000
20
-1300.0000
30
0.0
11
-6800.0000
21
-1300.0000
31
0.0
0
TEXT
8
TEXTO
10
-6920.0000
20
-1120.0000
30
0.0
40
400.0000
1
PILAR  W 410x38,8
50
0.0000
72
2
73
0
11
-6920.0000
21
-1120.0000
31
0.0
0
TEXT
8
TEXTO
10
-6920.0000
20
-1660.0000
30
0.0
40
400.0000
1
38,8 kg/m
50
0.0000
72
2
73
0
11
-6920.0000
21
-1660.0000
31
0.0
0
LINE
8
COTA
10
0.0000
20
-800.0000
30
0.0
11
0.0000
21
-2900.0000
31
0.0
0
LINE
8
COTA
10
5000.0000
20
-800.0000
30
0.0
11
5000.0000
21
-2900.0000
31
0.0
0
LINE
8
COTA
10
0.0000
20
-2500.0000
30
0.0
11
5000.0000
21
-2500.0000
31
0.0
0
SOLID
8
COTA
10
0.0000
20
-2500.0000
30
0.0
11
500.0000
21
-2650.0000
31
0.0
12
500.0000
22
-2350.0000
32
0.0
13
500.0000
23
-2350.0000
33
0.0
0
SOLID
8
COTA
10
5000.0000
20
-2500.0000
30
0.0
11
4500.0000
21
-2350.0000
31
0.0
12
4500.0000
22
-2650.0000
32
0.0
13
4500.0000
23
-2650.0000
33
0.0
0
TEXT
8
COTA
10
2500.0000
20
-2225.0000
30
0.0
40
500.0000
1
5000
50
0.0000
72
1
73
0
11
2500.0000
21
-2225.0000
31
0.0
0
LINE
8
COTA
10
5000.0000
20
-800.0000
30
0.0
11
5000.0000
21
-2900.0000
31
0.0
0
LINE
8
COTA
10
10000.0000
20
-800.0000
30
0.0
11
10000.0000
21
-2900.0000
31
0.0
0
LINE
8
COTA
10
5000.0000
20
-2500.0000
30
0.0
11
10000.0000
21
-2500.0000
31
0.0
0
SOLID
8
COTA
10
5000.0000
20
-2500.0000
30
0.0
11
5500.0000
21
-2650.0000
31
0.0
12
5500.0000
22
-2350.0000
32
0.0
13
5500.0000
23
-2350.0000
33
0.0
0
SOLID
8
COTA
10
10000.0000
20
-2500.0000
30
0.0
11
9500.0000
21
-2350.0000
31
0.0
12
9500.0000
22
-2650.0000
32
0.0
13
9500.0000
23
-2650.0000
33
0.0
0
TEXT
8
COTA
10
7500.0000
20
-2225.0000
30
0.0
40
500.0000
1
5000
50
0.0000
72
1
73
0
11
7500.0000
21
-2225.0000
31
0.0
0
LINE
8
COTA
10
10000.0000
20
-800.0000
30
0.0
11
10000.0000
21
-2900.0000
31
0.0
0
LINE
8
COTA
10
15000.0000
20
-800.0000
30
0.0
11
15000.0000
21
-2900.0000
31
0.0
0
LINE
8
COTA
10
10000.0000
20
-2500.0000
30
0.0
11
15000.0000
21
-2500.0000
31
0.0
0
SOLID
8
COTA
10
10000.0000
20
-2500.0000
30
0.0
11
10500.0000
21
-2650.0000
31
0.0
12
10500.0000
22
-2350.0000
32
0.0
13
10500.0000
23
-2350.0000
33
0.0
0
SOLID
8
COTA
10
15000.0000
20
-2500.0000
30
0.0
11
14500.0000
21
-2350.0000
31
0.0
12
14500.0000
22
-2650.0000
32
0.0
13
14500.0000
23
-2650.0000
33
0.0
0
TEXT
8
COTA
10
12500.0000
20
-2225.0000
30
0.0
40
500.0000
1
5000
50
0.0000
72
1
73
0
11
12500.0000
21
-2225.0000
31
0.0
0
LINE
8
COTA
10
15000.0000
20
-800.0000
30
0.0
11
15000.0000
21
-2900.0000
31
0.0
0
LINE
8
COTA
10
20000.0000
20
-800.0000
30
0.0
11
20000.0000
21
-2900.0000
31
0.0
0
LINE
8
COTA
10
15000.0000
20
-2500.0000
30
0.0
11
20000.0000
21
-2500.0000
31
0.0
0
SOLID
8
COTA
10
15000.0000
20
-2500.0000
30
0.0
11
15500.0000
21
-2650.0000
31
0.0
12
15500.0000
22
-2350.0000
32
0.0
13
15500.0000
23
-2350.0000
33
0.0
0
SOLID
8
COTA
10
20000.0000
20
-2500.0000
30
0.0
11
19500.0000
21
-2350.0000
31
0.0
12
19500.0000
22
-2650.0000
32
0.0
13
19500.0000
23
-2650.0000
33
0.0
0
TEXT
8
COTA
10
17500.0000
20
-2225.0000
30
0.0
40
500.0000
1
5000
50
0.0000
72
1
73
0
11
17500.0000
21
-2225.0000
31
0.0
0
LINE
8
COTA
10
20000.0000
20
-800.0000
30
0.0
11
20000.0000
21
-2900.0000
31
0.0
0
LINE
8
COTA
10
25000.0000
20
-800.0000
30
0.0
11
25000.0000
21
-2900.0000
31
0.0
0
LINE
8
COTA
10
20000.0000
20
-2500.0000
30
0.0
11
25000.0000
21
-2500.0000
31
0.0
0
SOLID
8
COTA
10
20000.0000
20
-2500.0000
30
0.0
11
20500.0000
21
-2650.0000
31
0.0
12
20500.0000
22
-2350.0000
32
0.0
13
20500.0000
23
-2350.0000
33
0.0
0
SOLID
8
COTA
10
25000.0000
20
-2500.0000
30
0.0
11
24500.0000
21
-2350.0000
31
0.0
12
24500.0000
22
-2650.0000
32
0.0
13
24500.0000
23
-2650.0000
33
0.0
0
TEXT
8
COTA
10
22500.0000
20
-2225.0000
30
0.0
40
500.0000
1
5000
50
0.0000
72
1
73
0
11
22500.0000
21
-2225.0000
31
0.0
0
LINE
8
COTA
10
25000.0000
20
-800.0000
30
0.0
11
25000.0000
21
-2900.0000
31
0.0
0
LINE
8
COTA
10
30000.0000
20
-800.0000
30
0.0
11
30000.0000
21
-2900.0000
31
0.0
0
LINE
8
COTA
10
25000.0000
20
-2500.0000
30
0.0
11
30000.0000
21
-2500.0000
31
0.0
0
SOLID
8
COTA
10
25000.0000
20
-2500.0000
30
0.0
11
25500.0000
21
-2650.0000
31
0.0
12
25500.0000
22
-2350.0000
32
0.0
13
25500.0000
23
-2350.0000
33
0.0
0
SOLID
8
COTA
10
30000.0000
20
-2500.0000
30
0.0
11
29500.0000
21
-2350.0000
31
0.0
12
29500.0000
22
-2650.0000
32
0.0
13
29500.0000
23
-2650.0000
33
0.0
0
TEXT
8
COTA
10
27500.0000
20
-2225.0000
30
0.0
40
500.0000
1
5000
50
0.0000
72
1
73
0
11
27500.0000
21
-2225.0000
31
0.0
0
LINE
8
COTA
10
30000.0000
20
-800.0000
30
0.0
11
30000.0000
21
-2900.0000
31
0.0
0
LINE
8
COTA
10
35000.0000
20
-800.0000
30
0.0
11
35000.0000
21
-2900.0000
31
0.0
0
LINE
8
COTA
10
30000.0000
20
-2500.0000
30
0.0
11
35000.0000
21
-2500.0000
31
0.0
0
SOLID
8
COTA
10
30000.0000
20
-2500.0000
30
0.0
11
30500.0000
21
-2650.0000
31
0.0
12
30500.0000
22
-2350.0000
32
0.0
13
30500.0000
23
-2350.0000
33
0.0
0
SOLID
8
COTA
10
35000.0000
20
-2500.0000
30
0.0
11
34500.0000
21
-2350.0000
31
0.0
12
34500.0000
22
-2650.0000
32
0.0
13
34500.0000
23
-2650.0000
33
0.0
0
TEXT
8
COTA
10
32500.0000
20
-2225.0000
30
0.0
40
500.0000
1
5000
50
0.0000
72
1
73
0
11
32500.0000
21
-2225.0000
31
0.0
0
LINE
8
COTA
10
35000.0000
20
-800.0000
30
0.0
11
35000.0000
21
-2900.0000
31
0.0
0
LINE
8
COTA
10
40000.0000
20
-800.0000
30
0.0
11
40000.0000
21
-2900.0000
31
0.0
0
LINE
8
COTA
10
35000.0000
20
-2500.0000
30
0.0
11
40000.0000
21
-2500.0000
31
0.0
0
SOLID
8
COTA
10
35000.0000
20
-2500.0000
30
0.0
11
35500.0000
21
-2650.0000
31
0.0
12
35500.0000
22
-2350.0000
32
0.0
13
35500.0000
23
-2350.0000
33
0.0
0
SOLID
8
COTA
10
40000.0000
20
-2500.0000
30
0.0
11
39500.0000
21
-2350.0000
31
0.0
12
39500.0000
22
-2650.0000
32
0.0
13
39500.0000
23
-2650.0000
33
0.0
0
TEXT
8
COTA
10
37500.0000
20
-2225.0000
30
0.0
40
500.0000
1
5000
50
0.0000
72
1
73
0
11
37500.0000
21
-2225.0000
31
0.0
0
LINE
8
COTA
10
0.0000
20
-800.0000
30
0.0
11
0.0000
21
-6900.0000
31
0.0
0
LINE
8
COTA
10
40000.0000
20
-800.0000
30
0.0
11
40000.0000
21
-6900.0000
31
0.0
0
LINE
8
COTA
10
0.0000
20
-6500.0000
30
0.0
11
40000.0000
21
-6500.0000
31
0.0
0
SOLID
8
COTA
10
0.0000
20
-6500.0000
30
0.0
11
500.0000
21
-6650.0000
31
0.0
12
500.0000
22
-6350.0000
32
0.0
13
500.0000
23
-6350.0000
33
0.0
0
SOLID
8
COTA
10
40000.0000
20
-6500.0000
30
0.0
11
39500.0000
21
-6350.0000
31
0.0
12
39500.0000
22
-6650.0000
32
0.0
13
39500.0000
23
-6650.0000
33
0.0
0
TEXT
8
COTA
10
20000.0000
20
-6225.0000
30
0.0
40
500.0000
1
40000
50
0.0000
72
1
73
0
11
20000.0000
21
-6225.0000
31
0.0
0
LINE
8
COTA
10
-300.0000
20
0.0000
30
0.0
11
-2400.0000
21
0.0000
31
0.0
0
LINE
8
COTA
10
-300.0000
20
1000.0000
30
0.0
11
-2400.0000
21
1000.0000
31
0.0
0
LINE
8
COTA
10
-2000.0000
20
0.0000
30
0.0
11
-2000.0000
21
1000.0000
31
0.0
0
SOLID
8
COTA
10
-2000.0000
20
0.0000
30
0.0
11
-1925.0000
21
250.0000
31
0.0
12
-2075.0000
22
250.0000
32
0.0
13
-2075.0000
23
250.0000
33
0.0
0
SOLID
8
COTA
10
-2000.0000
20
1000.0000
30
0.0
11
-2075.0000
21
750.0000
31
0.0
12
-1925.0000
22
750.0000
32
0.0
13
-1925.0000
23
750.0000
33
0.0
0
TEXT
8
COTA
10
-2220.0000
20
500.0000
30
0.0
40
400.0000
1
1000
50
90.0000
72
1
73
0
11
-2220.0000
21
500.0000
31
0.0
0
LINE
8
COTA
10
-300.0000
20
1000.0000
30
0.0
11
-2400.0000
21
1000.0000
31
0.0
0
LINE
8
COTA
10
-300.0000
20
3000.0000
30
0.0
11
-2400.0000
21
3000.0000
31
0.0
0
LINE
8
COTA
10
-2000.0000
20
1000.0000
30
0.0
11
-2000.0000
21
3000.0000
31
0.0
0
SOLID
8
COTA
10
-2000.0000
20
1000.0000
30
0.0
11
-1850.0000
21
1500.0000
31
0.0
12
-2150.0000
22
1500.0000
32
0.0
13
-2150.0000
23
1500.0000
33
0.0
0
SOLID
8
COTA
10
-2000.0000
20
3000.0000
30
0.0
11
-2150.0000
21
2500.0000
31
0.0
12
-1850.0000
22
2500.0000
32
0.0
13
-1850.0000
23
2500.0000
33
0.0
0
TEXT
8
COTA
10
-2220.0000
20
2000.0000
30
0.0
40
400.0000
1
2000
50
90.0000
72
1
73
0
11
-2220.0000
21
2000.0000
31
0.0
0
LINE
8
COTA
10
-300.0000
20
3000.0000
30
0.0
11
-2400.0000
21
3000.0000
31
0.0
0
LINE
8
COTA
10
-300.0000
20
5000.0000
30
0.0
11
-2400.0000
21
5000.0000
31
0.0
0
LINE
8
COTA
10
-2000.0000
20
3000.0000
30
0.0
11
-2000.0000
21
5000.0000
31
0.0
0
SOLID
8
COTA
10
-2000.0000
20
3000.0000
30
0.0
11
-1850.0000
21
3500.0000
31
0.0
12
-2150.0000
22
3500.0000
32
0.0
13
-2150.0000
23
3500.0000
33
0.0
0
SOLID
8
COTA
10
-2000.0000
20
5000.0000
30
0.0
11
-2150.0000
21
4500.0000
31
0.0
12
-1850.0000
22
4500.0000
32
0.0
13
-1850.0000
23
4500.0000
33
0.0
0
TEXT
8
COTA
10
-2220.0000
20
4000.0000
30
0.0
40
400.0000
1
2000
50
90.0000
72
1
73
0
11
-2220.0000
21
4000.0000
31
0.0
0
LINE
8
COTA
10
-300.0000
20
5000.0000
30
0.0
11
-2400.0000
21
5000.0000
31
0.0
0
LINE
8
COTA
10
-300.0000
20
6000.0000
30
0.0
11
-2400.0000
21
6000.0000
31
0.0
0
LINE
8
COTA
10
-2000.0000
20
5000.0000
30
0.0
11
-2000.0000
21
6000.0000
31
0.0
0
SOLID
8
COTA
10
-2000.0000
20
5000.0000
30
0.0
11
-1925.0000
21
5250.0000
31
0.0
12
-2075.0000
22
5250.0000
32
0.0
13
-2075.0000
23
5250.0000
33
0.0
0
SOLID
8
COTA
10
-2000.0000
20
6000.0000
30
0.0
11
-2075.0000
21
5750.0000
31
0.0
12
-1925.0000
22
5750.0000
32
0.0
13
-1925.0000
23
5750.0000
33
0.0
0
TEXT
8
COTA
10
-2220.0000
20
5500.0000
30
0.0
40
400.0000
1
1000
50
90.0000
72
1
73
0
11
-2220.0000
21
5500.0000
31
0.0
0
LINE
8
COTA
10
-300.0000
20
0.0000
30
0.0
11
-6400.0000
21
0.0000
31
0.0
0
LINE
8
COTA
10
-300.0000
20
6000.0000
30
0.0
11
-6400.0000
21
6000.0000
31
0.0
0
LINE
8
COTA
10
-6000.0000
20
0.0000
30
0.0
11
-6000.0000
21
6000.0000
31
0.0
0
SOLID
8
COTA
10
-6000.0000
20
0.0000
30
0.0
11
-5850.0000
21
500.0000
31
0.0
12
-6150.0000
22
500.0000
32
0.0
13
-6150.0000
23
500.0000
33
0.0
0
SOLID
8
COTA
10
-6000.0000
20
6000.0000
30
0.0
11
-6150.0000
21
5500.0000
31
0.0
12
-5850.0000
22
5500.0000
32
0.0
13
-5850.0000
23
5500.0000
33
0.0
0
TEXT
8
COTA
10
-6275.0000
20
3000.0000
30
0.0
40
500.0000
1
6000
50
90.0000
72
1
73
0
11
-6275.0000
21
3000.0000
31
0.0
0
LINE
8
COTA
10
40300.0000
20
0.0000
30
0.0
11
42400.0000
21
0.0000
31
0.0
0
LINE
8
COTA
10
40300.0000
20
7000.0000
30
0.0
11
42400.0000
21
7000.0000
31
0.0
0
LINE
8
COTA
10
42000.0000
20
0.0000
30
0.0
11
42000.0000
21
7000.0000
31
0.0
0
SOLID
8
COTA
10
42000.0000
20
0.0000
30
0.0
11
42150.0000
21
500.0000
31
0.0
12
41850.0000
22
500.0000
32
0.0
13
41850.0000
23
500.0000
33
0.0
0
SOLID
8
COTA
10
42000.0000
20
7000.0000
30
0.0
11
41850.0000
21
6500.0000
31
0.0
12
42150.0000
22
6500.0000
32
0.0
13
42150.0000
23
6500.0000
33
0.0
0
TEXT
8
COTA
10
41725.0000
20
3500.0000
30
0.0
40
500.0000
1
7000
50
90.0000
72
1
73
0
11
41725.0000
21
3500.0000
31
0.0
0
TEXT
8
TEXTO
10
20000.0000
20
-8900.0000
30
0.0
40
800.0000
1
ELEVACAO LONGITUDINAL - PAREDE LATERAL
50
0.0000
72
1
73
0
11
20000.0000
21
-8900.0000
31
0.0
0
LINE
8
TEXTO
10
10576.0000
20
-9260.0000
30
0.0
11
29424.0000
21
-9260.0000
31
0.0
0
TEXT
8
TEXTO
10
20000.0000
20
-10100.0000
30
0.0
40
400.0000
1
ESCALA 1:200
50
0.0000
72
1
73
0
11
20000.0000
21
-10100.0000
31
0.0
0
TEXT
8
TEXTO
10
0.0000
20
-10660.0000
30
0.0
40
500.0000
1
NOTAS
50
0.0000
0
TEXT
8
TEXTO
10
0.0000
20
-11340.0000
30
0.0
40
400.0000
1
1. Cotas em milimetros.
50
0.0000
0
TEXT
8
TEXTO
10
0.0000
20
-12020.0000
30
0.0
40
400.0000
1
2. Longarinas Ue 200x75x20x2,00 em 3 fiadas.
50
0.0000
0
TEXT
8
TEXTO
10
0.0000
20
-12700.0000
30
0.0
40
400.0000
1
3. Contraventamento vertical em X nos vaos 1, 4 e 8 (CV).
50
0.0000
0
TEXT
8
TEXTO
10
0.0000
20
-13380.0000
30
0.0
40
400.0000
1
4. Tirantes trabalham so a tracao: em cada X atua a diagonal tracionada.
50
0.0000
0
TEXT
8
TEXTO
10
0.0000
20
-14060.0000
30
0.0
40
400.0000
1
5. Pre-tracionar pelo esticador apos o prumo; os tirantes nao se ligam no cruzamento.
50
0.0000
0
ENDSEC
0
EOF
