0
SECTION
2
HEADER
9
$ACADVER
1
AC1009
9
$INSUNITS
70
4
9
$EXTMIN
10
-1035.0000
20
-1528.0000
30
0.0
9
$EXTMAX
10
3552.3800
20
438.7500
30
0.0
9
$LTSCALE
40
1.0
9
$TEXTSTYLE
7
STANDARD
0
ENDSEC
0
SECTION
2
TABLES
0
TABLE
2
LTYPE
70
4
0
LTYPE
2
CONTINUOUS
70
0
3
Solida
72
65
73
0
40
0.0
0
LTYPE
2
CENTER
70
0
3
Linha de centro ____ _ ____ _ ____
72
65
73
4
40
31.7500
49
0.5000
49
-6.3500
49
3.1750
49
-6.3500
0
LTYPE
2
HIDDEN
70
0
3
Tracejada __ __ __ __ __ __
72
65
73
3
40
9.5250
49
0.5000
49
-6.3500
49
3.1750
0
LTYPE
2
DASHED
70
0
3
Tracejada longa ___ ___ ___
72
65
73
3
40
12.7000
49
0.5000
49
-6.3500
49
6.3500
0
ENDTAB
0
TABLE
2
LAYER
70
14
0
LAYER
2
0
70
0
62
7
6
CONTINUOUS
0
LAYER
2
ACO
70
0
62
7
6
CONTINUOUS
0
LAYER
2
ACO-FINO
70
0
62
8
6
CONTINUOUS
0
LAYER
2
EIXO
70
0
62
1
6
CENTER
0
LAYER
2
OCULTA
70
0
62
8
6
HIDDEN
0
LAYER
2
COTA
70
0
62
3
6
CONTINUOUS
0
LAYER
2
TEXTO
70
0
62
7
6
CONTINUOUS
0
LAYER
2
FURO
70
0
62
5
6
CONTINUOUS
0
LAYER
2
SOLDA
70
0
62
2
6
CONTINUOUS
0
LAYER
2
PARAFUSO
70
0
62
5
6
CONTINUOUS
0
LAYER
2
CONCRETO
70
0
62
9
6
CONTINUOUS
0
LAYER
2
HACHURA
70
0
62
8
6
CONTINUOUS
0
LAYER
2
CARIMBO
70
0
62
7
6
CONTINUOUS
0
LAYER
2
AUXILIAR
70
0
62
8
6
DASHED
0
ENDTAB
0
TABLE
2
STYLE
70
1
0
STYLE
2
STANDARD
70
0
40
0.0
41
0.85
50
0.0
71
0
42
2.5
3
txt
4

0
ENDTAB
0
ENDSEC
0
SECTION
2
ENTITIES
0
POLYLINE
8
ACO
66
1
10
0.0
20
0.0
30
0.0
70
1
0
VERTEX
8
ACO
10
-399.0000
20
-824.0000
30
0.0
0
VERTEX
8
ACO
10
0.0000
20
-824.0000
30
0.0
0
VERTEX
8
ACO
10
0.0000
20
260.0000
30
0.0
0
VERTEX
8
ACO
10
-399.0000
20
260.0000
30
0.0
0
SEQEND
8
ACO
0
LINE
8
ACO
10
-8.8000
20
-824.0000
30
0.0
11
-8.8000
21
260.0000
31
0.0
0
LINE
8
ACO
10
-390.2000
20
-824.0000
30
0.0
11
-390.2000
21
260.0000
31
0.0
0
LINE
8
EIXO
10
-199.5000
20
-924.0000
30
0.0
11
-199.5000
21
360.0000
31
0.0
0
POLYLINE
8
ACO
66
1
10
0.0
20
0.0
30
0.0
70
1
0
VERTEX
8
ACO
10
0.0000
20
-544.0000
30
0.0
0
VERTEX
8
ACO
10
19.0000
20
-544.0000
30
0.0
0
VERTEX
8
ACO
10
19.0000
20
80.0000
30
0.0
0
VERTEX
8
ACO
10
0.0000
20
80.0000
30
0.0
0
SEQEND
8
ACO
0
LINE
8
HACHURA
10
6.2721
20
-544.0000
30
0.0
11
19.0000
21
-531.2721
31
0.0
0
LINE
8
HACHURA
10
0.0000
20
-537.5442
30
0.0
11
19.0000
21
-518.5442
31
0.0
0
LINE
8
HACHURA
10
0.0000
20
-524.8162
30
0.0
11
19.0000
21
-505.8162
31
0.0
0
LINE
8
HACHURA
10
0.0000
20
-512.0883
30
0.0
11
19.0000
21
-493.0883
31
0.0
0
LINE
8
HACHURA
10
0.0000
20
-499.3604
30
0.0
11
19.0000
21
-480.3604
31
0.0
0
LINE
8
HACHURA
10
0.0000
20
-486.6325
30
0.0
11
19.0000
21
-467.6325
31
0.0
0
LINE
8
HACHURA
10
0.0000
20
-473.9045
30
0.0
11
19.0000
21
-454.9045
31
0.0
0
LINE
8
HACHURA
10
0.0000
20
-461.1766
30
0.0
11
19.0000
21
-442.1766
31
0.0
0
LINE
8
HACHURA
10
0.0000
20
-448.4487
30
0.0
11
19.0000
21
-429.4487
31
0.0
0
LINE
8
HACHURA
10
0.0000
20
-435.7208
30
0.0
11
19.0000
21
-416.7208
31
0.0
0
LINE
8
HACHURA
10
0.0000
20
-422.9929
30
0.0
11
19.0000
21
-403.9929
31
0.0
0
LINE
8
HACHURA
10
0.0000
20
-410.2649
30
0.0
11
19.0000
21
-391.2649
31
0.0
0
LINE
8
HACHURA
10
0.0000
20
-397.5370
30
0.0
11
19.0000
21
-378.5370
31
0.0
0
LINE
8
HACHURA
10
0.0000
20
-384.8091
30
0.0
11
19.0000
21
-365.8091
31
0.0
0
LINE
8
HACHURA
10
0.0000
20
-372.0812
30
0.0
11
19.0000
21
-353.0812
31
0.0
0
LINE
8
HACHURA
10
0.0000
20
-359.3532
30
0.0
11
19.0000
21
-340.3532
31
0.0
0
LINE
8
HACHURA
10
0.0000
20
-346.6253
30
0.0
11
19.0000
21
-327.6253
31
0.0
0
LINE
8
HACHURA
10
0.0000
20
-333.8974
30
0.0
11
19.0000
21
-314.8974
31
0.0
0
LINE
8
HACHURA
10
0.0000
20
-321.1695
30
0.0
11
19.0000
21
-302.1695
31
0.0
0
LINE
8
HACHURA
10
0.0000
20
-308.4416
30
0.0
11
19.0000
21
-289.4416
31
0.0
0
LINE
8
HACHURA
10
0.0000
20
-295.7136
30
0.0
11
19.0000
21
-276.7136
31
0.0
0
LINE
8
HACHURA
10
0.0000
20
-282.9857
30
0.0
11
19.0000
21
-263.9857
31
0.0
0
LINE
8
HACHURA
10
0.0000
20
-270.2578
30
0.0
11
19.0000
21
-251.2578
31
0.0
0
LINE
8
HACHURA
10
0.0000
20
-257.5299
30
0.0
11
19.0000
21
-238.5299
31
0.0
0
LINE
8
HACHURA
10
0.0000
20
-244.8019
30
0.0
11
19.0000
21
-225.8019
31
0.0
0
LINE
8
HACHURA
10
0.0000
20
-232.0740
30
0.0
11
19.0000
21
-213.0740
31
0.0
0
LINE
8
HACHURA
10
0.0000
20
-219.3461
30
0.0
11
19.0000
21
-200.3461
31
0.0
0
LINE
8
HACHURA
10
0.0000
20
-206.6182
30
0.0
11
19.0000
21
-187.6182
31
0.0
0
LINE
8
HACHURA
10
0.0000
20
-193.8903
30
0.0
11
19.0000
21
-174.8903
31
0.0
0
LINE
8
HACHURA
10
0.0000
20
-181.1623
30
0.0
11
19.0000
21
-162.1623
31
0.0
0
LINE
8
HACHURA
10
0.0000
20
-168.4344
30
0.0
11
19.0000
21
-149.4344
31
0.0
0
LINE
8
HACHURA
10
0.0000
20
-155.7065
30
0.0
11
19.0000
21
-136.7065
31
0.0
0
LINE
8
HACHURA
10
0.0000
20
-142.9786
30
0.0
11
19.0000
21
-123.9786
31
0.0
0
LINE
8
HACHURA
10
0.0000
20
-130.2506
30
0.0
11
19.0000
21
-111.2506
31
0.0
0
LINE
8
HACHURA
10
0.0000
20
-117.5227
30
0.0
11
19.0000
21
-98.5227
31
0.0
0
LINE
8
HACHURA
10
0.0000
20
-104.7948
30
0.0
11
19.0000
21
-85.7948
31
0.0
0
LINE
8
HACHURA
10
0.0000
20
-92.0669
30
0.0
11
19.0000
21
-73.0669
31
0.0
0
LINE
8
HACHURA
10
0.0000
20
-79.3390
30
0.0
11
19.0000
21
-60.3390
31
0.0
0
LINE
8
HACHURA
10
0.0000
20
-66.6110
30
0.0
11
19.0000
21
-47.6110
31
0.0
0
LINE
8
HACHURA
10
0.0000
20
-53.8831
30
0.0
11
19.0000
21
-34.8831
31
0.0
0
LINE
8
HACHURA
10
0.0000
20
-41.1552
30
0.0
11
19.0000
21
-22.1552
31
0.0
0
LINE
8
HACHURA
10
0.0000
20
-28.4273
30
0.0
11
19.0000
21
-9.4273
31
0.0
0
LINE
8
HACHURA
10
0.0000
20
-15.6994
30
0.0
11
19.0000
21
3.3006
31
0.0
0
LINE
8
HACHURA
10
0.0000
20
-2.9714
30
0.0
11
19.0000
21
16.0286
31
0.0
0
LINE
8
HACHURA
10
0.0000
20
9.7565
30
0.0
11
19.0000
21
28.7565
31
0.0
0
LINE
8
HACHURA
10
0.0000
20
22.4844
30
0.0
11
19.0000
21
41.4844
31
0.0
0
LINE
8
HACHURA
10
0.0000
20
35.2123
30
0.0
11
19.0000
21
54.2123
31
0.0
0
LINE
8
HACHURA
10
0.0000
20
47.9403
30
0.0
11
19.0000
21
66.9403
31
0.0
0
LINE
8
HACHURA
10
0.0000
20
60.6682
30
0.0
11
19.0000
21
79.6682
31
0.0
0
LINE
8
HACHURA
10
0.0000
20
73.3961
30
0.0
11
6.6039
21
80.0000
31
0.0
0
LINE
8
ACO
10
19.0000
20
0.0000
30
0.0
11
2139.0000
21
212.0000
31
0.0
0
LINE
8
ACO
10
19.0000
20
-9.1000
30
0.0
11
2139.0000
21
202.9000
31
0.0
0
LINE
8
ACO
10
19.0000
20
-258.0000
30
0.0
11
2139.0000
21
-46.0000
31
0.0
0
LINE
8
ACO
10
19.0000
20
-248.9000
30
0.0
11
2139.0000
21
-36.9000
31
0.0
0
LINE
8
ACO-FINO
10
2139.0000
20
242.0000
30
0.0
11
2139.0000
21
-282.0000
31
0.0
0
POLYLINE
8
ACO
66
1
10
0.0
20
0.0
30
0.0
70
1
0
VERTEX
8
ACO
10
19.0000
20
-258.0000
30
0.0
0
VERTEX
8
ACO
10
1810.0669
20
-78.0000
30
0.0
0
VERTEX
8
ACO
10
19.0000
20
-464.0000
30
0.0
0
SEQEND
8
ACO
0
LINE
8
ACO-FINO
10
17.0828
20
-455.1042
30
0.0
11
1808.1498
21
-69.1042
31
0.0
0
LINE
8
ACO
10
1810.0669
20
-78.0000
30
0.0
11
1810.0669
21
-78.0000
31
0.0
0
LINE
8
TEXTO
10
1810.0669
20
-78.0000
30
0.0
11
1930.0669
21
-584.0000
31
0.0
0
SOLID
8
TEXTO
10
1810.0669
20
-78.0000
30
0.0
11
1808.5382
21
-104.0560
31
0.0
12
1823.1334
22
-100.5946
32
0.0
13
1823.1334
23
-100.5946
33
0.0
0
LINE
8
TEXTO
10
1930.0669
20
-584.0000
30
0.0
11
1970.0669
21
-584.0000
31
0.0
0
TEXT
8
TEXTO
10
1976.0669
20
-575.0000
30
0.0
40
20.0000
1
ENRIJECEDOR 8 mm NO FIM DA MISULA
50
0.0000
0
TEXT
8
TEXTO
10
1976.0669
20
-602.0000
30
0.0
40
20.0000
1
(forca de desvio da mesa inferior)
50
0.0000
0
POLYLINE
8
ACO
66
1
10
0.0
20
0.0
30
0.0
70
1
0
VERTEX
8
ACO
10
-390.2000
20
-9.5500
30
0.0
0
VERTEX
8
ACO
10
-8.8000
20
-9.5500
30
0.0
0
VERTEX
8
ACO
10
-8.8000
20
0.4500
30
0.0
0
VERTEX
8
ACO
10
-390.2000
20
0.4500
30
0.0
0
SEQEND
8
ACO
0
LINE
8
HACHURA
10
-18.6995
20
-9.5500
30
0.0
11
-8.8000
21
0.3495
31
0.0
0
LINE
8
HACHURA
10
-28.5990
20
-9.5500
30
0.0
11
-18.5990
21
0.4500
31
0.0
0
LINE
8
HACHURA
10
-38.4985
20
-9.5500
30
0.0
11
-28.4985
21
0.4500
31
0.0
0
LINE
8
HACHURA
10
-48.3980
20
-9.5500
30
0.0
11
-38.3980
21
0.4500
31
0.0
0
LINE
8
HACHURA
10
-58.2975
20
-9.5500
30
0.0
11
-48.2975
21
0.4500
31
0.0
0
LINE
8
HACHURA
10
-68.1970
20
-9.5500
30
0.0
11
-58.1970
21
0.4500
31
0.0
0
LINE
8
HACHURA
10
-78.0965
20
-9.5500
30
0.0
11
-68.0965
21
0.4500
31
0.0
0
LINE
8
HACHURA
10
-87.9960
20
-9.5500
30
0.0
11
-77.9960
21
0.4500
31
0.0
0
LINE
8
HACHURA
10
-97.8955
20
-9.5500
30
0.0
11
-87.8955
21
0.4500
31
0.0
0
LINE
8
HACHURA
10
-107.7949
20
-9.5500
30
0.0
11
-97.7949
21
0.4500
31
0.0
0
LINE
8
HACHURA
10
-117.6944
20
-9.5500
30
0.0
11
-107.6944
21
0.4500
31
0.0
0
LINE
8
HACHURA
10
-127.5939
20
-9.5500
30
0.0
11
-117.5939
21
0.4500
31
0.0
0
LINE
8
HACHURA
10
-137.4934
20
-9.5500
30
0.0
11
-127.4934
21
0.4500
31
0.0
0
LINE
8
HACHURA
10
-147.3929
20
-9.5500
30
0.0
11
-137.3929
21
0.4500
31
0.0
0
LINE
8
HACHURA
10
-157.2924
20
-9.5500
30
0.0
11
-147.2924
21
0.4500
31
0.0
0
LINE
8
HACHURA
10
-167.1919
20
-9.5500
30
0.0
11
-157.1919
21
0.4500
31
0.0
0
LINE
8
HACHURA
10
-177.0914
20
-9.5500
30
0.0
11
-167.0914
21
0.4500
31
0.0
0
LINE
8
HACHURA
10
-186.9909
20
-9.5500
30
0.0
11
-176.9909
21
0.4500
31
0.0
0
LINE
8
HACHURA
10
-196.8904
20
-9.5500
30
0.0
11
-186.8904
21
0.4500
31
0.0
0
LINE
8
HACHURA
10
-206.7899
20
-9.5500
30
0.0
11
-196.7899
21
0.4500
31
0.0
0
LINE
8
HACHURA
10
-216.6894
20
-9.5500
30
0.0
11
-206.6894
21
0.4500
31
0.0
0
LINE
8
HACHURA
10
-226.5889
20
-9.5500
30
0.0
11
-216.5889
21
0.4500
31
0.0
0
LINE
8
HACHURA
10
-236.4884
20
-9.5500
30
0.0
11
-226.4884
21
0.4500
31
0.0
0
LINE
8
HACHURA
10
-246.3879
20
-9.5500
30
0.0
11
-236.3879
21
0.4500
31
0.0
0
LINE
8
HACHURA
10
-256.2874
20
-9.5500
30
0.0
11
-246.2874
21
0.4500
31
0.0
0
LINE
8
HACHURA
10
-266.1869
20
-9.5500
30
0.0
11
-256.1869
21
0.4500
31
0.0
0
LINE
8
HACHURA
10
-276.0864
20
-9.5500
30
0.0
11
-266.0864
21
0.4500
31
0.0
0
LINE
8
HACHURA
10
-285.9859
20
-9.5500
30
0.0
11
-275.9859
21
0.4500
31
0.0
0
LINE
8
HACHURA
10
-295.8854
20
-9.5500
30
0.0
11
-285.8854
21
0.4500
31
0.0
0
LINE
8
HACHURA
10
-305.7848
20
-9.5500
30
0.0
11
-295.7848
21
0.4500
31
0.0
0
LINE
8
HACHURA
10
-315.6843
20
-9.5500
30
0.0
11
-305.6843
21
0.4500
31
0.0
0
LINE
8
HACHURA
10
-325.5838
20
-9.5500
30
0.0
11
-315.5838
21
0.4500
31
0.0
0
LINE
8
HACHURA
10
-335.4833
20
-9.5500
30
0.0
11
-325.4833
21
0.4500
31
0.0
0
LINE
8
HACHURA
10
-345.3828
20
-9.5500
30
0.0
11
-335.3828
21
0.4500
31
0.0
0
LINE
8
HACHURA
10
-355.2823
20
-9.5500
30
0.0
11
-345.2823
21
0.4500
31
0.0
0
LINE
8
HACHURA
10
-365.1818
20
-9.5500
30
0.0
11
-355.1818
21
0.4500
31
0.0
0
LINE
8
HACHURA
10
-375.0813
20
-9.5500
30
0.0
11
-365.0813
21
0.4500
31
0.0
0
LINE
8
HACHURA
10
-384.9808
20
-9.5500
30
0.0
11
-374.9808
21
0.4500
31
0.0
0
LINE
8
HACHURA
10
-390.2000
20
-4.8697
30
0.0
11
-384.8803
21
0.4500
31
0.0
0
POLYLINE
8
ACO
66
1
10
0.0
20
0.0
30
0.0
70
1
0
VERTEX
8
ACO
10
-390.2000
20
-464.4500
30
0.0
0
VERTEX
8
ACO
10
-8.8000
20
-464.4500
30
0.0
0
VERTEX
8
ACO
10
-8.8000
20
-454.4500
30
0.0
0
VERTEX
8
ACO
10
-390.2000
20
-454.4500
30
0.0
0
SEQEND
8
ACO
0
LINE
8
HACHURA
10
-18.6995
20
-464.4500
30
0.0
11
-8.8000
21
-454.5505
31
0.0
0
LINE
8
HACHURA
10
-28.5990
20
-464.4500
30
0.0
11
-18.5990
21
-454.4500
31
0.0
0
LINE
8
HACHURA
10
-38.4985
20
-464.4500
30
0.0
11
-28.4985
21
-454.4500
31
0.0
0
LINE
8
HACHURA
10
-48.3980
20
-464.4500
30
0.0
11
-38.3980
21
-454.4500
31
0.0
0
LINE
8
HACHURA
10
-58.2975
20
-464.4500
30
0.0
11
-48.2975
21
-454.4500
31
0.0
0
LINE
8
HACHURA
10
-68.1970
20
-464.4500
30
0.0
11
-58.1970
21
-454.4500
31
0.0
0
LINE
8
HACHURA
10
-78.0965
20
-464.4500
30
0.0
11
-68.0965
21
-454.4500
31
0.0
0
LINE
8
HACHURA
10
-87.9960
20
-464.4500
30
0.0
11
-77.9960
21
-454.4500
31
0.0
0
LINE
8
HACHURA
10
-97.8955
20
-464.4500
30
0.0
11
-87.8955
21
-454.4500
31
0.0
0
LINE
8
HACHURA
10
-107.7949
20
-464.4500
30
0.0
11
-97.7949
21
-454.4500
31
0.0
0
LINE
8
HACHURA
10
-117.6944
20
-464.4500
30
0.0
11
-107.6944
21
-454.4500
31
0.0
0
LINE
8
HACHURA
10
-127.5939
20
-464.4500
30
0.0
11
-117.5939
21
-454.4500
31
0.0
0
LINE
8
HACHURA
10
-137.4934
20
-464.4500
30
0.0
11
-127.4934
21
-454.4500
31
0.0
0
LINE
8
HACHURA
10
-147.3929
20
-464.4500
30
0.0
11
-137.3929
21
-454.4500
31
0.0
0
LINE
8
HACHURA
10
-157.2924
20
-464.4500
30
0.0
11
-147.2924
21
-454.4500
31
0.0
0
LINE
8
HACHURA
10
-167.1919
20
-464.4500
30
0.0
11
-157.1919
21
-454.4500
31
0.0
0
LINE
8
HACHURA
10
-177.0914
20
-464.4500
30
0.0
11
-167.0914
21
-454.4500
31
0.0
0
LINE
8
HACHURA
10
-186.9909
20
-464.4500
30
0.0
11
-176.9909
21
-454.4500
31
0.0
0
LINE
8
HACHURA
10
-196.8904
20
-464.4500
30
0.0
11
-186.8904
21
-454.4500
31
0.0
0
LINE
8
HACHURA
10
-206.7899
20
-464.4500
30
0.0
11
-196.7899
21
-454.4500
31
0.0
0
LINE
8
HACHURA
10
-216.6894
20
-464.4500
30
0.0
11
-206.6894
21
-454.4500
31
0.0
0
LINE
8
HACHURA
10
-226.5889
20
-464.4500
30
0.0
11
-216.5889
21
-454.4500
31
0.0
0
LINE
8
HACHURA
10
-236.4884
20
-464.4500
30
0.0
11
-226.4884
21
-454.4500
31
0.0
0
LINE
8
HACHURA
10
-246.3879
20
-464.4500
30
0.0
11
-236.3879
21
-454.4500
31
0.0
0
LINE
8
HACHURA
10
-256.2874
20
-464.4500
30
0.0
11
-246.2874
21
-454.4500
31
0.0
0
LINE
8
HACHURA
10
-266.1869
20
-464.4500
30
0.0
11
-256.1869
21
-454.4500
31
0.0
0
LINE
8
HACHURA
10
-276.0864
20
-464.4500
30
0.0
11
-266.0864
21
-454.4500
31
0.0
0
LINE
8
HACHURA
10
-285.9859
20
-464.4500
30
0.0
11
-275.9859
21
-454.4500
31
0.0
0
LINE
8
HACHURA
10
-295.8854
20
-464.4500
30
0.0
11
-285.8854
21
-454.4500
31
0.0
0
LINE
8
HACHURA
10
-305.7848
20
-464.4500
30
0.0
11
-295.7848
21
-454.4500
31
0.0
0
LINE
8
HACHURA
10
-315.6843
20
-464.4500
30
0.0
11
-305.6843
21
-454.4500
31
0.0
0
LINE
8
HACHURA
10
-325.5838
20
-464.4500
30
0.0
11
-315.5838
21
-454.4500
31
0.0
0
LINE
8
HACHURA
10
-335.4833
20
-464.4500
30
0.0
11
-325.4833
21
-454.4500
31
0.0
0
LINE
8
HACHURA
10
-345.3828
20
-464.4500
30
0.0
11
-335.3828
21
-454.4500
31
0.0
0
LINE
8
HACHURA
10
-355.2823
20
-464.4500
30
0.0
11
-345.2823
21
-454.4500
31
0.0
0
LINE
8
HACHURA
10
-365.1818
20
-464.4500
30
0.0
11
-355.1818
21
-454.4500
31
0.0
0
LINE
8
HACHURA
10
-375.0813
20
-464.4500
30
0.0
11
-365.0813
21
-454.4500
31
0.0
0
LINE
8
HACHURA
10
-384.9808
20
-464.4500
30
0.0
11
-374.9808
21
-454.4500
31
0.0
0
LINE
8
HACHURA
10
-390.2000
20
-459.7697
30
0.0
11
-384.8803
21
-454.4500
31
0.0
0
CIRCLE
8
PARAFUSO
10
9.5000
20
40.0000
30
0.0
40
11.1150
0
LINE
8
PARAFUSO
10
-1.0592
20
29.4408
30
0.0
11
20.0592
21
50.5592
31
0.0
0
LINE
8
PARAFUSO
10
-1.0592
20
50.5592
30
0.0
11
20.0592
21
29.4408
31
0.0
0
LINE
8
EIXO
10
-48.9060
20
40.0000
30
0.0
11
67.9060
21
40.0000
31
0.0
0
CIRCLE
8
PARAFUSO
10
9.5000
20
-49.1000
30
0.0
40
11.1150
0
LINE
8
PARAFUSO
10
-1.0592
20
-59.6593
30
0.0
11
20.0592
21
-38.5408
31
0.0
0
LINE
8
PARAFUSO
10
-1.0592
20
-38.5408
30
0.0
11
20.0592
21
-59.6593
31
0.0
0
LINE
8
EIXO
10
-48.9060
20
-49.1000
30
0.0
11
67.9060
21
-49.1000
31
0.0
0
CIRCLE
8
PARAFUSO
10
9.5000
20
-414.9000
30
0.0
40
11.1150
0
LINE
8
PARAFUSO
10
-1.0592
20
-425.4592
30
0.0
11
20.0592
21
-404.3407
31
0.0
0
LINE
8
PARAFUSO
10
-1.0592
20
-404.3407
30
0.0
11
20.0592
21
-425.4592
31
0.0
0
LINE
8
EIXO
10
-48.9060
20
-414.9000
30
0.0
11
67.9060
21
-414.9000
31
0.0
0
CIRCLE
8
PARAFUSO
10
9.5000
20
-504.0000
30
0.0
40
11.1150
0
LINE
8
PARAFUSO
10
-1.0592
20
-514.5593
30
0.0
11
20.0592
21
-493.4407
31
0.0
0
LINE
8
PARAFUSO
10
-1.0592
20
-493.4407
30
0.0
11
20.0592
21
-514.5593
31
0.0
0
LINE
8
EIXO
10
-48.9060
20
-504.0000
30
0.0
11
67.9060
21
-504.0000
31
0.0
0
LINE
8
SOLDA
10
31.0000
20
-4.5500
30
0.0
11
655.0000
21
240.0000
31
0.0
0
SOLID
8
SOLDA
10
31.0000
20
-4.5500
30
0.0
11
57.0130
21
-2.4107
31
0.0
12
51.5397
22
11.5550
32
0.0
13
51.5397
23
11.5550
33
0.0
0
LINE
8
SOLDA
10
655.0000
20
240.0000
30
0.0
11
875.0000
21
240.0000
31
0.0
0
LINE
8
SOLDA
10
747.4000
20
240.0000
30
0.0
11
765.0000
21
272.0000
31
0.0
0
LINE
8
SOLDA
10
782.6000
20
240.0000
30
0.0
11
765.0000
21
272.0000
31
0.0
0
LINE
8
SOLDA
10
747.4000
20
240.0000
30
0.0
11
782.6000
21
240.0000
31
0.0
0
TEXT
8
SOLDA
10
883.0000
20
245.0000
30
0.0
40
20.0000
1
PENETRACAO TOTAL (mesas)
50
0.0000
0
LINE
8
SOLDA
10
29.0000
20
-141.9000
30
0.0
11
697.4000
21
-270.9000
31
0.0
0
SOLID
8
SOLDA
10
29.0000
20
-141.9000
30
0.0
11
52.1258
21
-154.0016
31
0.0
12
54.9683
22
-139.2734
32
0.0
13
54.9683
23
-139.2734
33
0.0
0
LINE
8
SOLDA
10
697.4000
20
-270.9000
30
0.0
11
917.4000
21
-270.9000
31
0.0
0
SOLID
8
SOLDA
10
789.8000
20
-270.9000
30
0.0
11
838.2000
21
-270.9000
31
0.0
12
789.8000
22
-238.9000
32
0.0
13
789.8000
23
-238.9000
33
0.0
0
TEXT
8
SOLDA
10
781.8000
20
-264.9000
30
0.0
40
20.0000
1
5
50
0.0000
72
2
73
0
11
781.8000
21
-264.9000
31
0.0
0
TEXT
8
SOLDA
10
925.4000
20
-265.9000
30
0.0
40
20.0000
1
alma, 2 lados
50
0.0000
0
LINE
8
SOLDA
10
775.0000
20
-188.4000
30
0.0
11
829.0000
21
-844.0000
31
0.0
0
SOLID
8
SOLDA
10
775.0000
20
-188.4000
30
0.0
11
769.5775
21
-213.9313
31
0.0
12
784.5269
22
-212.7000
32
0.0
13
784.5269
23
-212.7000
33
0.0
0
LINE
8
SOLDA
10
829.0000
20
-844.0000
30
0.0
11
1049.0000
21
-844.0000
31
0.0
0
SOLID
8
SOLDA
10
921.4000
20
-844.0000
30
0.0
11
969.8000
21
-844.0000
31
0.0
12
921.4000
22
-812.0000
32
0.0
13
921.4000
23
-812.0000
33
0.0
0
TEXT
8
SOLDA
10
913.4000
20
-838.0000
30
0.0
40
20.0000
1
6
50
0.0000
72
2
73
0
11
913.4000
21
-838.0000
31
0.0
0
TEXT
8
SOLDA
10
1057.0000
20
-839.0000
30
0.0
40
20.0000
1
misula-viga, continuo
50
0.0000
0
LINE
8
COTA
10
-414.0000
20
-544.0000
30
0.0
11
-519.0000
21
-544.0000
31
0.0
0
LINE
8
COTA
10
-414.0000
20
80.0000
30
0.0
11
-519.0000
21
80.0000
31
0.0
0
LINE
8
COTA
10
-499.0000
20
-544.0000
30
0.0
11
-499.0000
21
80.0000
31
0.0
0
SOLID
8
COTA
10
-499.0000
20
-544.0000
30
0.0
11
-491.5000
21
-519.0000
31
0.0
12
-506.5000
22
-519.0000
32
0.0
13
-506.5000
23
-519.0000
33
0.0
0
SOLID
8
COTA
10
-499.0000
20
80.0000
30
0.0
11
-506.5000
21
55.0000
31
0.0
12
-491.5000
22
55.0000
32
0.0
13
-491.5000
23
55.0000
33
0.0
0
TEXT
8
COTA
10
-512.7500
20
-232.0000
30
0.0
40
25.0000
1
624
50
90.0000
72
1
73
0
11
-512.7500
21
-232.0000
31
0.0
0
LINE
8
COTA
10
-414.0000
20
-459.4500
30
0.0
11
-719.0000
21
-459.4500
31
0.0
0
LINE
8
COTA
10
-414.0000
20
-4.5500
30
0.0
11
-719.0000
21
-4.5500
31
0.0
0
LINE
8
COTA
10
-699.0000
20
-459.4500
30
0.0
11
-699.0000
21
-4.5500
31
0.0
0
SOLID
8
COTA
10
-699.0000
20
-459.4500
30
0.0
11
-691.5000
21
-434.4500
31
0.0
12
-706.5000
22
-434.4500
32
0.0
13
-706.5000
23
-434.4500
33
0.0
0
SOLID
8
COTA
10
-699.0000
20
-4.5500
30
0.0
11
-706.5000
21
-29.5500
31
0.0
12
-691.5000
22
-29.5500
32
0.0
13
-691.5000
23
-29.5500
33
0.0
0
TEXT
8
COTA
10
-712.7500
20
-232.0000
30
0.0
40
25.0000
1
hb = 455
50
90.0000
72
1
73
0
11
-712.7500
21
-232.0000
31
0.0
0
LINE
8
COTA
10
0.0000
20
95.0000
30
0.0
11
0.0000
21
200.0000
31
0.0
0
LINE
8
COTA
10
19.0000
20
95.0000
30
0.0
11
19.0000
21
200.0000
31
0.0
0
LINE
8
COTA
10
0.0000
20
180.0000
30
0.0
11
19.0000
21
180.0000
31
0.0
0
SOLID
8
COTA
10
0.0000
20
180.0000
30
0.0
11
-10.0000
21
183.0000
31
0.0
12
-10.0000
22
177.0000
32
0.0
13
-10.0000
23
177.0000
33
0.0
0
SOLID
8
COTA
10
19.0000
20
180.0000
30
0.0
11
29.0000
21
177.0000
31
0.0
12
29.0000
22
183.0000
32
0.0
13
29.0000
23
183.0000
33
0.0
0
LINE
8
COTA
10
-20.0000
20
180.0000
30
0.0
11
0.0000
21
180.0000
31
0.0
0
LINE
8
COTA
10
39.0000
20
180.0000
30
0.0
11
19.0000
21
180.0000
31
0.0
0
TEXT
8
COTA
10
53.5000
20
193.7500
30
0.0
40
25.0000
1
19
50
0.0000
72
1
73
0
11
53.5000
21
193.7500
31
0.0
0
LINE
8
COTA
10
-399.0000
20
-839.0000
30
0.0
11
-399.0000
21
-944.0000
31
0.0
0
LINE
8
COTA
10
0.0000
20
-839.0000
30
0.0
11
0.0000
21
-944.0000
31
0.0
0
LINE
8
COTA
10
-399.0000
20
-924.0000
30
0.0
11
0.0000
21
-924.0000
31
0.0
0
SOLID
8
COTA
10
-399.0000
20
-924.0000
30
0.0
11
-374.0000
21
-931.5000
31
0.0
12
-374.0000
22
-916.5000
32
0.0
13
-374.0000
23
-916.5000
33
0.0
0
SOLID
8
COTA
10
0.0000
20
-924.0000
30
0.0
11
-25.0000
21
-916.5000
31
0.0
12
-25.0000
22
-931.5000
32
0.0
13
-25.0000
23
-931.5000
33
0.0
0
TEXT
8
COTA
10
-199.5000
20
-910.2500
30
0.0
40
25.0000
1
399
50
0.0000
72
1
73
0
11
-199.5000
21
-910.2500
31
0.0
0
LINE
8
COTA
10
19.0000
20
-479.0000
30
0.0
11
19.0000
21
-684.0000
31
0.0
0
LINE
8
COTA
10
1810.0669
20
-479.0000
30
0.0
11
1810.0669
21
-684.0000
31
0.0
0
LINE
8
COTA
10
19.0000
20
-664.0000
30
0.0
11
1810.0669
21
-664.0000
31
0.0
0
SOLID
8
COTA
10
19.0000
20
-664.0000
30
0.0
11
44.0000
21
-671.5000
31
0.0
12
44.0000
22
-656.5000
32
0.0
13
44.0000
23
-656.5000
33
0.0
0
SOLID
8
COTA
10
1810.0669
20
-664.0000
30
0.0
11
1785.0669
21
-656.5000
31
0.0
12
1785.0669
22
-671.5000
32
0.0
13
1785.0669
23
-671.5000
33
0.0
0
TEXT
8
COTA
10
914.5335
20
-650.2500
30
0.0
40
25.0000
1
MISULA 1800
50
0.0000
72
1
73
0
11
914.5335
21
-650.2500
31
0.0
0
LINE
8
COTA
10
-414.0000
20
-464.0000
30
0.0
11
-819.0000
21
-464.0000
31
0.0
0
LINE
8
COTA
10
-414.0000
20
-258.0000
30
0.0
11
-819.0000
21
-258.0000
31
0.0
0
LINE
8
COTA
10
-799.0000
20
-464.0000
30
0.0
11
-799.0000
21
-258.0000
31
0.0
0
SOLID
8
COTA
10
-799.0000
20
-464.0000
30
0.0
11
-791.5000
21
-439.0000
31
0.0
12
-806.5000
22
-439.0000
32
0.0
13
-806.5000
23
-439.0000
33
0.0
0
SOLID
8
COTA
10
-799.0000
20
-258.0000
30
0.0
11
-806.5000
21
-283.0000
31
0.0
12
-791.5000
22
-283.0000
32
0.0
13
-791.5000
23
-283.0000
33
0.0
0
TEXT
8
COTA
10
-812.7500
20
-361.0000
30
0.0
40
25.0000
1
hm = 206
50
90.0000
72
1
73
0
11
-812.7500
21
-361.0000
31
0.0
0
LINE
8
TEXTO
10
-199.5000
20
160.0000
30
0.0
11
-599.0000
21
240.0000
31
0.0
0
SOLID
8
TEXTO
10
-199.5000
20
160.0000
30
0.0
11
-222.5407
21
172.2628
31
0.0
12
-225.4860
22
157.5548
32
0.0
13
-225.4860
23
157.5548
33
0.0
0
LINE
8
TEXTO
10
-599.0000
20
240.0000
30
0.0
11
-639.0000
21
240.0000
31
0.0
0
TEXT
8
TEXTO
10
-645.0000
20
249.0000
30
0.0
40
20.0000
1
PILAR  W 410x38,8
50
0.0000
72
2
73
0
11
-645.0000
21
249.0000
31
0.0
0
LINE
8
TEXTO
10
1609.0000
20
149.9000
30
0.0
11
1185.0000
21
300.0000
31
0.0
0
SOLID
8
TEXTO
10
1609.0000
20
149.9000
30
0.0
11
1587.9360
21
165.3129
31
0.0
12
1582.9303
22
151.1728
32
0.0
13
1582.9303
23
151.1728
33
0.0
0
LINE
8
TEXTO
10
1185.0000
20
300.0000
30
0.0
11
1145.0000
21
300.0000
31
0.0
0
TEXT
8
TEXTO
10
1139.0000
20
309.0000
30
0.0
40
20.0000
1
VIGA  W 250x32,7
50
0.0000
72
2
73
0
11
1139.0000
21
309.0000
31
0.0
0
LINE
8
TEXTO
10
-219.4500
20
-459.4500
30
0.0
11
-969.0000
21
-533.6000
31
0.0
0
SOLID
8
TEXTO
10
-219.4500
20
-459.4500
30
0.0
11
-245.0669
21
-454.4476
31
0.0
12
-243.5902
22
-469.3747
32
0.0
13
-243.5902
23
-469.3747
33
0.0
0
LINE
8
TEXTO
10
-969.0000
20
-533.6000
30
0.0
11
-1009.0000
21
-533.6000
31
0.0
0
TEXT
8
TEXTO
10
-1015.0000
20
-524.6000
30
0.0
40
20.0000
1
ENRIJECEDORES 10 mm
50
0.0000
72
2
73
0
11
-1015.0000
21
-524.6000
31
0.0
0
TEXT
8
TEXTO
10
-1015.0000
20
-551.6000
30
0.0
40
20.0000
1
nos dois niveis (o momento inverte)
50
0.0000
72
2
73
0
11
-1015.0000
21
-551.6000
31
0.0
0
TEXT
8
TEXTO
10
436.5000
20
-1024.0000
30
0.0
40
40.0000
1
ELEVACAO
50
0.0000
72
1
73
0
11
436.5000
21
-1024.0000
31
0.0
0
LINE
8
TEXTO
10
337.3000
20
-1042.0000
30
0.0
11
535.7000
21
-1042.0000
31
0.0
0
TEXT
8
TEXTO
10
436.5000
20
-1084.0000
30
0.0
40
20.0000
1
ESCALA 1:10
50
0.0000
72
1
73
0
11
436.5000
21
-1084.0000
31
0.0
0
POLYLINE
8
ACO
66
1
10
0.0
20
0.0
30
0.0
70
1
0
VERTEX
8
ACO
10
2619.0000
20
-544.0000
30
0.0
0
VERTEX
8
ACO
10
2852.3800
20
-544.0000
30
0.0
0
VERTEX
8
ACO
10
2852.3800
20
80.0000
30
0.0
0
VERTEX
8
ACO
10
2619.0000
20
80.0000
30
0.0
0
SEQEND
8
ACO
0
LINE
8
EIXO
10
2735.6900
20
-644.0000
30
0.0
11
2735.6900
21
180.0000
31
0.0
0
LINE
8
OCULTA
10
2662.6900
20
-544.0000
30
0.0
11
2662.6900
21
80.0000
31
0.0
0
LINE
8
OCULTA
10
2808.6900
20
-544.0000
30
0.0
11
2808.6900
21
80.0000
31
0.0
0
LINE
8
OCULTA
10
2662.6900
20
0.0000
30
0.0
11
2808.6900
21
0.0000
31
0.0
0
LINE
8
OCULTA
10
2662.6900
20
-9.1000
30
0.0
11
2808.6900
21
-9.1000
31
0.0
0
LINE
8
OCULTA
10
2662.6900
20
-464.0000
30
0.0
11
2808.6900
21
-464.0000
31
0.0
0
LINE
8
OCULTA
10
2662.6900
20
-454.9000
30
0.0
11
2808.6900
21
-454.9000
31
0.0
0
LINE
8
OCULTA
10
2732.6400
20
-544.0000
30
0.0
11
2732.6400
21
80.0000
31
0.0
0
LINE
8
OCULTA
10
2738.7400
20
-544.0000
30
0.0
11
2738.7400
21
80.0000
31
0.0
0
CIRCLE
8
FURO
10
2685.6900
20
40.0000
30
0.0
40
11.8650
0
LINE
8
EIXO
10
2657.8250
20
40.0000
30
0.0
11
2713.5550
21
40.0000
31
0.0
0
LINE
8
EIXO
10
2685.6900
20
12.1350
30
0.0
11
2685.6900
21
67.8650
31
0.0
0
CIRCLE
8
FURO
10
2785.6900
20
40.0000
30
0.0
40
11.8650
0
LINE
8
EIXO
10
2757.8250
20
40.0000
30
0.0
11
2813.5550
21
40.0000
31
0.0
0
LINE
8
EIXO
10
2785.6900
20
12.1350
30
0.0
11
2785.6900
21
67.8650
31
0.0
0
CIRCLE
8
FURO
10
2685.6900
20
-49.1000
30
0.0
40
11.8650
0
LINE
8
EIXO
10
2657.8250
20
-49.1000
30
0.0
11
2713.5550
21
-49.1000
31
0.0
0
LINE
8
EIXO
10
2685.6900
20
-76.9650
30
0.0
11
2685.6900
21
-21.2350
31
0.0
0
CIRCLE
8
FURO
10
2785.6900
20
-49.1000
30
0.0
40
11.8650
0
LINE
8
EIXO
10
2757.8250
20
-49.1000
30
0.0
11
2813.5550
21
-49.1000
31
0.0
0
LINE
8
EIXO
10
2785.6900
20
-76.9650
30
0.0
11
2785.6900
21
-21.2350
31
0.0
0
CIRCLE
8
FURO
10
2685.6900
20
-414.9000
30
0.0
40
11.8650
0
LINE
8
EIXO
10
2657.8250
20
-414.9000
30
0.0
11
2713.5550
21
-414.9000
31
0.0
0
LINE
8
EIXO
10
2685.6900
20
-442.7650
30
0.0
11
2685.6900
21
-387.0350
31
0.0
0
CIRCLE
8
FURO
10
2785.6900
20
-414.9000
30
0.0
40
11.8650
0
LINE
8
EIXO
10
2757.8250
20
-414.9000
30
0.0
11
2813.5550
21
-414.9000
31
0.0
0
LINE
8
EIXO
10
2785.6900
20
-442.7650
30
0.0
11
2785.6900
21
-387.0350
31
0.0
0
CIRCLE
8
FURO
10
2685.6900
20
-504.0000
30
0.0
40
11.8650
0
LINE
8
EIXO
10
2657.8250
20
-504.0000
30
0.0
11
2713.5550
21
-504.0000
31
0.0
0
LINE
8
EIXO
10
2685.6900
20
-531.8650
30
0.0
11
2685.6900
21
-476.1350
31
0.0
0
CIRCLE
8
FURO
10
2785.6900
20
-504.0000
30
0.0
40
11.8650
0
LINE
8
EIXO
10
2757.8250
20
-504.0000
30
0.0
11
2813.5550
21
-504.0000
31
0.0
0
LINE
8
EIXO
10
2785.6900
20
-531.8650
30
0.0
11
2785.6900
21
-476.1350
31
0.0
0
LINE
8
COTA
10
2685.6900
20
95.0000
30
0.0
11
2685.6900
21
200.0000
31
0.0
0
LINE
8
COTA
10
2785.6900
20
95.0000
30
0.0
11
2785.6900
21
200.0000
31
0.0
0
LINE
8
COTA
10
2685.6900
20
180.0000
30
0.0
11
2785.6900
21
180.0000
31
0.0
0
SOLID
8
COTA
10
2685.6900
20
180.0000
30
0.0
11
2710.6900
21
172.5000
31
0.0
12
2710.6900
22
187.5000
32
0.0
13
2710.6900
23
187.5000
33
0.0
0
SOLID
8
COTA
10
2785.6900
20
180.0000
30
0.0
11
2760.6900
21
187.5000
31
0.0
12
2760.6900
22
172.5000
32
0.0
13
2760.6900
23
172.5000
33
0.0
0
TEXT
8
COTA
10
2735.6900
20
193.7500
30
0.0
40
25.0000
1
g = 100
50
0.0000
72
1
73
0
11
2735.6900
21
193.7500
31
0.0
0
LINE
8
COTA
10
2619.0000
20
95.0000
30
0.0
11
2619.0000
21
400.0000
31
0.0
0
LINE
8
COTA
10
2852.3800
20
95.0000
30
0.0
11
2852.3800
21
400.0000
31
0.0
0
LINE
8
COTA
10
2619.0000
20
380.0000
30
0.0
11
2852.3800
21
380.0000
31
0.0
0
SOLID
8
COTA
10
2619.0000
20
380.0000
30
0.0
11
2644.0000
21
372.5000
31
0.0
12
2644.0000
22
387.5000
32
0.0
13
2644.0000
23
387.5000
33
0.0
0
SOLID
8
COTA
10
2852.3800
20
380.0000
30
0.0
11
2827.3800
21
387.5000
31
0.0
12
2827.3800
22
372.5000
32
0.0
13
2827.3800
23
372.5000
33
0.0
0
TEXT
8
COTA
10
2735.6900
20
393.7500
30
0.0
40
25.0000
1
233
50
0.0000
72
1
73
0
11
2735.6900
21
393.7500
31
0.0
0
LINE
8
COTA
10
2867.3800
20
-544.0000
30
0.0
11
2972.3800
21
-544.0000
31
0.0
0
LINE
8
COTA
10
2867.3800
20
-504.0000
30
0.0
11
2972.3800
21
-504.0000
31
0.0
0
LINE
8
COTA
10
2952.3800
20
-544.0000
30
0.0
11
2952.3800
21
-504.0000
31
0.0
0
SOLID
8
COTA
10
2952.3800
20
-544.0000
30
0.0
11
2955.3800
21
-534.0000
31
0.0
12
2949.3800
22
-534.0000
32
0.0
13
2949.3800
23
-534.0000
33
0.0
0
SOLID
8
COTA
10
2952.3800
20
-504.0000
30
0.0
11
2949.3800
21
-514.0000
31
0.0
12
2955.3800
22
-514.0000
32
0.0
13
2955.3800
23
-514.0000
33
0.0
0
TEXT
8
COTA
10
2941.3800
20
-524.0000
30
0.0
40
20.0000
1
40
50
90.0000
72
1
73
0
11
2941.3800
21
-524.0000
31
0.0
0
LINE
8
COTA
10
2867.3800
20
-504.0000
30
0.0
11
2972.3800
21
-504.0000
31
0.0
0
LINE
8
COTA
10
2867.3800
20
-414.9000
30
0.0
11
2972.3800
21
-414.9000
31
0.0
0
LINE
8
COTA
10
2952.3800
20
-504.0000
30
0.0
11
2952.3800
21
-414.9000
31
0.0
0
SOLID
8
COTA
10
2952.3800
20
-504.0000
30
0.0
11
2959.0625
21
-481.7250
31
0.0
12
2945.6975
22
-481.7250
32
0.0
13
2945.6975
23
-481.7250
33
0.0
0
SOLID
8
COTA
10
2952.3800
20
-414.9000
30
0.0
11
2945.6975
21
-437.1750
31
0.0
12
2959.0625
22
-437.1750
32
0.0
13
2959.0625
23
-437.1750
33
0.0
0
TEXT
8
COTA
10
2941.3800
20
-459.4500
30
0.0
40
20.0000
1
89
50
90.0000
72
1
73
0
11
2941.3800
21
-459.4500
31
0.0
0
LINE
8
COTA
10
2867.3800
20
-414.9000
30
0.0
11
2972.3800
21
-414.9000
31
0.0
0
LINE
8
COTA
10
2867.3800
20
-49.1000
30
0.0
11
2972.3800
21
-49.1000
31
0.0
0
LINE
8
COTA
10
2952.3800
20
-414.9000
30
0.0
11
2952.3800
21
-49.1000
31
0.0
0
SOLID
8
COTA
10
2952.3800
20
-414.9000
30
0.0
11
2959.8800
21
-389.9000
31
0.0
12
2944.8800
22
-389.9000
32
0.0
13
2944.8800
23
-389.9000
33
0.0
0
SOLID
8
COTA
10
2952.3800
20
-49.1000
30
0.0
11
2944.8800
21
-74.1000
31
0.0
12
2959.8800
22
-74.1000
32
0.0
13
2959.8800
23
-74.1000
33
0.0
0
TEXT
8
COTA
10
2941.3800
20
-232.0000
30
0.0
40
20.0000
1
366
50
90.0000
72
1
73
0
11
2941.3800
21
-232.0000
31
0.0
0
LINE
8
COTA
10
2867.3800
20
-49.1000
30
0.0
11
2972.3800
21
-49.1000
31
0.0
0
LINE
8
COTA
10
2867.3800
20
40.0000
30
0.0
11
2972.3800
21
40.0000
31
0.0
0
LINE
8
COTA
10
2952.3800
20
-49.1000
30
0.0
11
2952.3800
21
40.0000
31
0.0
0
SOLID
8
COTA
10
2952.3800
20
-49.1000
30
0.0
11
2959.0625
21
-26.8250
31
0.0
12
2945.6975
22
-26.8250
32
0.0
13
2945.6975
23
-26.8250
33
0.0
0
SOLID
8
COTA
10
2952.3800
20
40.0000
30
0.0
11
2945.6975
21
17.7250
31
0.0
12
2959.0625
22
17.7250
32
0.0
13
2959.0625
23
17.7250
33
0.0
0
TEXT
8
COTA
10
2941.3800
20
-4.5500
30
0.0
40
20.0000
1
89
50
90.0000
72
1
73
0
11
2941.3800
21
-4.5500
31
0.0
0
LINE
8
COTA
10
2867.3800
20
40.0000
30
0.0
11
2972.3800
21
40.0000
31
0.0
0
LINE
8
COTA
10
2867.3800
20
80.0000
30
0.0
11
2972.3800
21
80.0000
31
0.0
0
LINE
8
COTA
10
2952.3800
20
40.0000
30
0.0
11
2952.3800
21
80.0000
31
0.0
0
SOLID
8
COTA
10
2952.3800
20
40.0000
30
0.0
11
2955.3800
21
50.0000
31
0.0
12
2949.3800
22
50.0000
32
0.0
13
2949.3800
23
50.0000
33
0.0
0
SOLID
8
COTA
10
2952.3800
20
80.0000
30
0.0
11
2949.3800
21
70.0000
31
0.0
12
2955.3800
22
70.0000
32
0.0
13
2955.3800
23
70.0000
33
0.0
0
TEXT
8
COTA
10
2941.3800
20
60.0000
30
0.0
40
20.0000
1
40
50
90.0000
72
1
73
0
11
2941.3800
21
60.0000
31
0.0
0
LINE
8
COTA
10
2867.3800
20
-544.0000
30
0.0
11
3172.3800
21
-544.0000
31
0.0
0
LINE
8
COTA
10
2867.3800
20
80.0000
30
0.0
11
3172.3800
21
80.0000
31
0.0
0
LINE
8
COTA
10
3152.3800
20
-544.0000
30
0.0
11
3152.3800
21
80.0000
31
0.0
0
SOLID
8
COTA
10
3152.3800
20
-544.0000
30
0.0
11
3159.8800
21
-519.0000
31
0.0
12
3144.8800
22
-519.0000
32
0.0
13
3144.8800
23
-519.0000
33
0.0
0
SOLID
8
COTA
10
3152.3800
20
80.0000
30
0.0
11
3144.8800
21
55.0000
31
0.0
12
3159.8800
22
55.0000
32
0.0
13
3159.8800
23
55.0000
33
0.0
0
TEXT
8
COTA
10
3138.6300
20
-232.0000
30
0.0
40
25.0000
1
624
50
90.0000
72
1
73
0
11
3138.6300
21
-232.0000
31
0.0
0
LINE
8
COTA
10
2619.0000
20
-559.0000
30
0.0
11
2619.0000
21
-664.0000
31
0.0
0
LINE
8
COTA
10
2685.6900
20
-559.0000
30
0.0
11
2685.6900
21
-664.0000
31
0.0
0
LINE
8
COTA
10
2619.0000
20
-644.0000
30
0.0
11
2685.6900
21
-644.0000
31
0.0
0
SOLID
8
COTA
10
2619.0000
20
-644.0000
30
0.0
11
2635.6725
21
-649.0018
31
0.0
12
2635.6725
22
-638.9982
32
0.0
13
2635.6725
23
-638.9982
33
0.0
0
SOLID
8
COTA
10
2685.6900
20
-644.0000
30
0.0
11
2669.0175
21
-638.9982
31
0.0
12
2669.0175
22
-649.0018
32
0.0
13
2669.0175
23
-649.0018
33
0.0
0
TEXT
8
COTA
10
2652.3450
20
-633.0000
30
0.0
40
20.0000
1
67
50
0.0000
72
1
73
0
11
2652.3450
21
-633.0000
31
0.0
0
LINE
8
TEXTO
10
2785.6900
20
40.0000
30
0.0
11
3052.3800
21
320.0000
31
0.0
0
SOLID
8
TEXTO
10
2785.6900
20
40.0000
30
0.0
11
2808.3630
21
52.9300
31
0.0
12
2797.5014
22
63.2753
32
0.0
13
2797.5014
23
63.2753
33
0.0
0
LINE
8
TEXTO
10
3052.3800
20
320.0000
30
0.0
11
3092.3800
21
320.0000
31
0.0
0
TEXT
8
TEXTO
10
3098.3800
20
329.0000
30
0.0
40
20.0000
1
8 PARAFUSOS %%c22,2 A325
50
0.0000
0
TEXT
8
TEXTO
10
3098.3800
20
302.0000
30
0.0
40
20.0000
1
furos %%c24 na chapa e no pilar
50
0.0000
0
TEXT
8
TEXTO
10
2735.6900
20
-1024.0000
30
0.0
40
40.0000
1
CHAPA DE TOPO - VISTA
50
0.0000
72
1
73
0
11
2735.6900
21
-1024.0000
31
0.0
0
LINE
8
TEXTO
10
2475.2900
20
-1042.0000
30
0.0
11
2996.0900
21
-1042.0000
31
0.0
0
TEXT
8
TEXTO
10
2735.6900
20
-1084.0000
30
0.0
40
20.0000
1
ESCALA 1:10
50
0.0000
72
1
73
0
11
2735.6900
21
-1084.0000
31
0.0
0
TEXT
8
TEXTO
10
2735.6900
20
-769.0000
30
0.0
40
25.0000
1
CH 233 x 624 x 19
50
0.0000
72
1
73
0
11
2735.6900
21
-769.0000
31
0.0
0
TEXT
8
TEXTO
10
-399.0000
20
-1304.0000
30
0.0
40
25.0000
1
NOTAS
50
0.0000
0
TEXT
8
TEXTO
10
-399.0000
20
-1338.0000
30
0.0
40
20.0000
1
1. Cotas em milimetros.
50
0.0000
0
TEXT
8
TEXTO
10
-399.0000
20
-1372.0000
30
0.0
40
20.0000
1
2. Chapa de topo estendida 233 x 624 x 19 mm.
50
0.0000
0
TEXT
8
TEXTO
10
-399.0000
20
-1406.0000
30
0.0
40
20.0000
1
3. 8 parafusos %%c22,2 A325, furos %%c24 mm.
50
0.0000
0
TEXT
8
TEXTO
10
-399.0000
20
-1440.0000
30
0.0
40
20.0000
1
4. Soldas das mesas com penetracao total; alma com filete 5 mm nos dois lados.
50
0.0000
0
TEXT
8
TEXTO
10
-399.0000
20
-1474.0000
30
0.0
40
20.0000
1
5. Enrijecedores do pilar no nivel das duas mesas (o momento inverte de sinal).
50
0.0000
0
TEXT
8
TEXTO
10
-399.0000
20
-1508.0000
30
0.0
40
20.0000
1
6. Faces de contato sem pintura; parafusos protendidos.
50
0.0000
0
ENDSEC
0
EOF
