0
SECTION
2
HEADER
9
$ACADVER
1
AC1009
9
$INSUNITS
70
4
9
$EXTMIN
10
-886.0000
20
-1215.2868
30
0.0
9
$EXTMAX
10
2045.1500
20
469.0000
30
0.0
9
$LTSCALE
40
1.0
9
$TEXTSTYLE
7
STANDARD
0
ENDSEC
0
SECTION
2
TABLES
0
TABLE
2
LTYPE
70
4
0
LTYPE
2
CONTINUOUS
70
0
3
Solida
72
65
73
0
40
0.0
0
LTYPE
2
CENTER
70
0
3
Linha de centro ____ _ ____ _ ____
72
65
73
4
40
31.7500
49
0.5000
49
-6.3500
49
3.1750
49
-6.3500
0
LTYPE
2
HIDDEN
70
0
3
Tracejada __ __ __ __ __ __
72
65
73
3
40
9.5250
49
0.5000
49
-6.3500
49
3.1750
0
LTYPE
2
DASHED
70
0
3
Tracejada longa ___ ___ ___
72
65
73
3
40
12.7000
49
0.5000
49
-6.3500
49
6.3500
0
ENDTAB
0
TABLE
2
LAYER
70
14
0
LAYER
2
0
70
0
62
7
6
CONTINUOUS
0
LAYER
2
ACO
70
0
62
7
6
CONTINUOUS
0
LAYER
2
ACO-FINO
70
0
62
8
6
CONTINUOUS
0
LAYER
2
EIXO
70
0
62
1
6
CENTER
0
LAYER
2
OCULTA
70
0
62
8
6
HIDDEN
0
LAYER
2
COTA
70
0
62
3
6
CONTINUOUS
0
LAYER
2
TEXTO
70
0
62
7
6
CONTINUOUS
0
LAYER
2
FURO
70
0
62
5
6
CONTINUOUS
0
LAYER
2
SOLDA
70
0
62
2
6
CONTINUOUS
0
LAYER
2
PARAFUSO
70
0
62
5
6
CONTINUOUS
0
LAYER
2
CONCRETO
70
0
62
9
6
CONTINUOUS
0
LAYER
2
HACHURA
70
0
62
8
6
CONTINUOUS
0
LAYER
2
CARIMBO
70
0
62
7
6
CONTINUOUS
0
LAYER
2
AUXILIAR
70
0
62
8
6
DASHED
0
ENDTAB
0
TABLE
2
STYLE
70
1
0
STYLE
2
STANDARD
70
0
40
0.0
41
0.85
50
0.0
71
0
42
2.5
3
txt
4

0
ENDTAB
0
ENDSEC
0
SECTION
2
ENTITIES
0
LINE
8
ACO
10
-16.0000
20
0.0000
30
0.0
11
-866.0000
21
-85.0000
31
0.0
0
LINE
8
ACO
10
-16.0000
20
-9.1454
30
0.0
11
-866.0000
21
-94.1454
31
0.0
0
LINE
8
ACO
10
-16.0000
20
-250.1414
30
0.0
11
-866.0000
21
-335.1414
31
0.0
0
LINE
8
ACO
10
-16.0000
20
-259.2868
30
0.0
11
-866.0000
21
-344.2868
31
0.0
0
LINE
8
ACO
10
-16.0000
20
0.0000
30
0.0
11
-16.0000
21
-259.2868
31
0.0
0
LINE
8
ACO-FINO
10
-866.0000
20
-85.0000
30
0.0
11
-866.0000
21
-344.2868
31
0.0
0
POLYLINE
8
ACO
66
1
10
0.0
20
0.0
30
0.0
70
1
0
VERTEX
8
ACO
10
-16.0000
20
-339.2868
30
0.0
0
VERTEX
8
ACO
10
0.0000
20
-339.2868
30
0.0
0
VERTEX
8
ACO
10
0.0000
20
80.0000
30
0.0
0
VERTEX
8
ACO
10
-16.0000
20
80.0000
30
0.0
0
SEQEND
8
ACO
0
LINE
8
HACHURA
10
-16.0000
20
-327.9731
30
0.0
11
-4.6863
21
-339.2868
31
0.0
0
LINE
8
HACHURA
10
-16.0000
20
-316.6594
30
0.0
11
0.0000
21
-332.6594
31
0.0
0
LINE
8
HACHURA
10
-16.0000
20
-305.3457
30
0.0
11
0.0000
21
-321.3457
31
0.0
0
LINE
8
HACHURA
10
-16.0000
20
-294.0320
30
0.0
11
0.0000
21
-310.0320
31
0.0
0
LINE
8
HACHURA
10
-16.0000
20
-282.7182
30
0.0
11
0.0000
21
-298.7182
31
0.0
0
LINE
8
HACHURA
10
-16.0000
20
-271.4045
30
0.0
11
0.0000
21
-287.4045
31
0.0
0
LINE
8
HACHURA
10
-16.0000
20
-260.0908
30
0.0
11
0.0000
21
-276.0908
31
0.0
0
LINE
8
HACHURA
10
-16.0000
20
-248.7771
30
0.0
11
0.0000
21
-264.7771
31
0.0
0
LINE
8
HACHURA
10
-16.0000
20
-237.4634
30
0.0
11
0.0000
21
-253.4634
31
0.0
0
LINE
8
HACHURA
10
-16.0000
20
-226.1497
30
0.0
11
0.0000
21
-242.1497
31
0.0
0
LINE
8
HACHURA
10
-16.0000
20
-214.8360
30
0.0
11
0.0000
21
-230.8360
31
0.0
0
LINE
8
HACHURA
10
-16.0000
20
-203.5223
30
0.0
11
0.0000
21
-219.5223
31
0.0
0
LINE
8
HACHURA
10
-16.0000
20
-192.2086
30
0.0
11
0.0000
21
-208.2086
31
0.0
0
LINE
8
HACHURA
10
-16.0000
20
-180.8949
30
0.0
11
0.0000
21
-196.8949
31
0.0
0
LINE
8
HACHURA
10
-16.0000
20
-169.5812
30
0.0
11
0.0000
21
-185.5812
31
0.0
0
LINE
8
HACHURA
10
-16.0000
20
-158.2675
30
0.0
11
0.0000
21
-174.2675
31
0.0
0
LINE
8
HACHURA
10
-16.0000
20
-146.9537
30
0.0
11
0.0000
21
-162.9537
31
0.0
0
LINE
8
HACHURA
10
-16.0000
20
-135.6400
30
0.0
11
0.0000
21
-151.6400
31
0.0
0
LINE
8
HACHURA
10
-16.0000
20
-124.3263
30
0.0
11
0.0000
21
-140.3263
31
0.0
0
LINE
8
HACHURA
10
-16.0000
20
-113.0126
30
0.0
11
0.0000
21
-129.0126
31
0.0
0
LINE
8
HACHURA
10
-16.0000
20
-101.6989
30
0.0
11
0.0000
21
-117.6989
31
0.0
0
LINE
8
HACHURA
10
-16.0000
20
-90.3852
30
0.0
11
0.0000
21
-106.3852
31
0.0
0
LINE
8
HACHURA
10
-16.0000
20
-79.0715
30
0.0
11
0.0000
21
-95.0715
31
0.0
0
LINE
8
HACHURA
10
-16.0000
20
-67.7578
30
0.0
11
0.0000
21
-83.7578
31
0.0
0
LINE
8
HACHURA
10
-16.0000
20
-56.4441
30
0.0
11
0.0000
21
-72.4441
31
0.0
0
LINE
8
HACHURA
10
-16.0000
20
-45.1304
30
0.0
11
0.0000
21
-61.1304
31
0.0
0
LINE
8
HACHURA
10
-16.0000
20
-33.8167
30
0.0
11
0.0000
21
-49.8167
31
0.0
0
LINE
8
HACHURA
10
-16.0000
20
-22.5030
30
0.0
11
0.0000
21
-38.5030
31
0.0
0
LINE
8
HACHURA
10
-16.0000
20
-11.1892
30
0.0
11
0.0000
21
-27.1892
31
0.0
0
LINE
8
HACHURA
10
-16.0000
20
0.1245
30
0.0
11
0.0000
21
-15.8755
31
0.0
0
LINE
8
HACHURA
10
-16.0000
20
11.4382
30
0.0
11
0.0000
21
-4.5618
31
0.0
0
LINE
8
HACHURA
10
-16.0000
20
22.7519
30
0.0
11
0.0000
21
6.7519
31
0.0
0
LINE
8
HACHURA
10
-16.0000
20
34.0656
30
0.0
11
0.0000
21
18.0656
31
0.0
0
LINE
8
HACHURA
10
-16.0000
20
45.3793
30
0.0
11
0.0000
21
29.3793
31
0.0
0
LINE
8
HACHURA
10
-16.0000
20
56.6930
30
0.0
11
0.0000
21
40.6930
31
0.0
0
LINE
8
HACHURA
10
-16.0000
20
68.0067
30
0.0
11
0.0000
21
52.0067
31
0.0
0
LINE
8
HACHURA
10
-16.0000
20
79.3204
30
0.0
11
0.0000
21
63.3204
31
0.0
0
LINE
8
HACHURA
10
-5.3659
20
80.0000
30
0.0
11
0.0000
21
74.6341
31
0.0
0
LINE
8
ACO
10
16.0000
20
0.0000
30
0.0
11
866.0000
21
-85.0000
31
0.0
0
LINE
8
ACO
10
16.0000
20
-9.1454
30
0.0
11
866.0000
21
-94.1454
31
0.0
0
LINE
8
ACO
10
16.0000
20
-250.1414
30
0.0
11
866.0000
21
-335.1414
31
0.0
0
LINE
8
ACO
10
16.0000
20
-259.2868
30
0.0
11
866.0000
21
-344.2868
31
0.0
0
LINE
8
ACO
10
16.0000
20
0.0000
30
0.0
11
16.0000
21
-259.2868
31
0.0
0
LINE
8
ACO-FINO
10
866.0000
20
-85.0000
30
0.0
11
866.0000
21
-344.2868
31
0.0
0
POLYLINE
8
ACO
66
1
10
0.0
20
0.0
30
0.0
70
1
0
VERTEX
8
ACO
10
0.0000
20
-339.2868
30
0.0
0
VERTEX
8
ACO
10
16.0000
20
-339.2868
30
0.0
0
VERTEX
8
ACO
10
16.0000
20
80.0000
30
0.0
0
VERTEX
8
ACO
10
0.0000
20
80.0000
30
0.0
0
SEQEND
8
ACO
0
LINE
8
HACHURA
10
4.6863
20
-339.2868
30
0.0
11
16.0000
21
-327.9731
31
0.0
0
LINE
8
HACHURA
10
0.0000
20
-332.6594
30
0.0
11
16.0000
21
-316.6594
31
0.0
0
LINE
8
HACHURA
10
0.0000
20
-321.3457
30
0.0
11
16.0000
21
-305.3457
31
0.0
0
LINE
8
HACHURA
10
0.0000
20
-310.0320
30
0.0
11
16.0000
21
-294.0320
31
0.0
0
LINE
8
HACHURA
10
0.0000
20
-298.7182
30
0.0
11
16.0000
21
-282.7182
31
0.0
0
LINE
8
HACHURA
10
0.0000
20
-287.4045
30
0.0
11
16.0000
21
-271.4045
31
0.0
0
LINE
8
HACHURA
10
0.0000
20
-276.0908
30
0.0
11
16.0000
21
-260.0908
31
0.0
0
LINE
8
HACHURA
10
0.0000
20
-264.7771
30
0.0
11
16.0000
21
-248.7771
31
0.0
0
LINE
8
HACHURA
10
0.0000
20
-253.4634
30
0.0
11
16.0000
21
-237.4634
31
0.0
0
LINE
8
HACHURA
10
0.0000
20
-242.1497
30
0.0
11
16.0000
21
-226.1497
31
0.0
0
LINE
8
HACHURA
10
0.0000
20
-230.8360
30
0.0
11
16.0000
21
-214.8360
31
0.0
0
LINE
8
HACHURA
10
0.0000
20
-219.5223
30
0.0
11
16.0000
21
-203.5223
31
0.0
0
LINE
8
HACHURA
10
0.0000
20
-208.2086
30
0.0
11
16.0000
21
-192.2086
31
0.0
0
LINE
8
HACHURA
10
0.0000
20
-196.8949
30
0.0
11
16.0000
21
-180.8949
31
0.0
0
LINE
8
HACHURA
10
0.0000
20
-185.5812
30
0.0
11
16.0000
21
-169.5812
31
0.0
0
LINE
8
HACHURA
10
0.0000
20
-174.2675
30
0.0
11
16.0000
21
-158.2675
31
0.0
0
LINE
8
HACHURA
10
0.0000
20
-162.9537
30
0.0
11
16.0000
21
-146.9537
31
0.0
0
LINE
8
HACHURA
10
0.0000
20
-151.6400
30
0.0
11
16.0000
21
-135.6400
31
0.0
0
LINE
8
HACHURA
10
0.0000
20
-140.3263
30
0.0
11
16.0000
21
-124.3263
31
0.0
0
LINE
8
HACHURA
10
0.0000
20
-129.0126
30
0.0
11
16.0000
21
-113.0126
31
0.0
0
LINE
8
HACHURA
10
0.0000
20
-117.6989
30
0.0
11
16.0000
21
-101.6989
31
0.0
0
LINE
8
HACHURA
10
0.0000
20
-106.3852
30
0.0
11
16.0000
21
-90.3852
31
0.0
0
LINE
8
HACHURA
10
0.0000
20
-95.0715
30
0.0
11
16.0000
21
-79.0715
31
0.0
0
LINE
8
HACHURA
10
0.0000
20
-83.7578
30
0.0
11
16.0000
21
-67.7578
31
0.0
0
LINE
8
HACHURA
10
0.0000
20
-72.4441
30
0.0
11
16.0000
21
-56.4441
31
0.0
0
LINE
8
HACHURA
10
0.0000
20
-61.1304
30
0.0
11
16.0000
21
-45.1304
31
0.0
0
LINE
8
HACHURA
10
0.0000
20
-49.8167
30
0.0
11
16.0000
21
-33.8167
31
0.0
0
LINE
8
HACHURA
10
0.0000
20
-38.5030
30
0.0
11
16.0000
21
-22.5030
31
0.0
0
LINE
8
HACHURA
10
0.0000
20
-27.1892
30
0.0
11
16.0000
21
-11.1892
31
0.0
0
LINE
8
HACHURA
10
0.0000
20
-15.8755
30
0.0
11
16.0000
21
0.1245
31
0.0
0
LINE
8
HACHURA
10
0.0000
20
-4.5618
30
0.0
11
16.0000
21
11.4382
31
0.0
0
LINE
8
HACHURA
10
0.0000
20
6.7519
30
0.0
11
16.0000
21
22.7519
31
0.0
0
LINE
8
HACHURA
10
0.0000
20
18.0656
30
0.0
11
16.0000
21
34.0656
31
0.0
0
LINE
8
HACHURA
10
0.0000
20
29.3793
30
0.0
11
16.0000
21
45.3793
31
0.0
0
LINE
8
HACHURA
10
0.0000
20
40.6930
30
0.0
11
16.0000
21
56.6930
31
0.0
0
LINE
8
HACHURA
10
0.0000
20
52.0067
30
0.0
11
16.0000
21
68.0067
31
0.0
0
LINE
8
HACHURA
10
0.0000
20
63.3204
30
0.0
11
16.0000
21
79.3204
31
0.0
0
LINE
8
HACHURA
10
0.0000
20
74.6341
30
0.0
11
5.3659
21
80.0000
31
0.0
0
LINE
8
EIXO
10
0.0000
20
-439.2868
30
0.0
11
0.0000
21
180.0000
31
0.0
0
CIRCLE
8
PARAFUSO
10
0.0000
20
40.0000
30
0.0
40
9.5250
0
LINE
8
PARAFUSO
10
-9.0488
20
30.9513
30
0.0
11
9.0488
21
49.0487
31
0.0
0
LINE
8
PARAFUSO
10
-9.0488
20
49.0487
30
0.0
11
9.0488
21
30.9513
31
0.0
0
LINE
8
EIXO
10
-65.5300
20
40.0000
30
0.0
11
65.5300
21
40.0000
31
0.0
0
CIRCLE
8
PARAFUSO
10
0.0000
20
-49.1454
30
0.0
40
9.5250
0
LINE
8
PARAFUSO
10
-9.0488
20
-58.1941
30
0.0
11
9.0488
21
-40.0966
31
0.0
0
LINE
8
PARAFUSO
10
-9.0488
20
-40.0966
30
0.0
11
9.0488
21
-58.1941
31
0.0
0
LINE
8
EIXO
10
-65.5300
20
-49.1454
30
0.0
11
65.5300
21
-49.1454
31
0.0
0
CIRCLE
8
PARAFUSO
10
0.0000
20
-210.1414
30
0.0
40
9.5250
0
LINE
8
PARAFUSO
10
-9.0488
20
-219.1902
30
0.0
11
9.0488
21
-201.0927
31
0.0
0
LINE
8
PARAFUSO
10
-9.0488
20
-201.0927
30
0.0
11
9.0488
21
-219.1902
31
0.0
0
LINE
8
EIXO
10
-65.5300
20
-210.1414
30
0.0
11
65.5300
21
-210.1414
31
0.0
0
CIRCLE
8
PARAFUSO
10
0.0000
20
-299.2868
30
0.0
40
9.5250
0
LINE
8
PARAFUSO
10
-9.0488
20
-308.3355
30
0.0
11
9.0488
21
-290.2380
31
0.0
0
LINE
8
PARAFUSO
10
-9.0488
20
-290.2380
30
0.0
11
9.0488
21
-308.3355
31
0.0
0
LINE
8
EIXO
10
-65.5300
20
-299.2868
30
0.0
11
65.5300
21
-299.2868
31
0.0
0
LINE
8
SOLDA
10
30.0000
20
-4.5727
30
0.0
11
289.0000
21
180.0000
31
0.0
0
SOLID
8
SOLDA
10
30.0000
20
-4.5727
30
0.0
11
54.7118
21
3.8282
31
0.0
12
46.0066
22
16.0438
32
0.0
13
46.0066
23
16.0438
33
0.0
0
LINE
8
SOLDA
10
289.0000
20
180.0000
30
0.0
11
509.0000
21
180.0000
31
0.0
0
LINE
8
SOLDA
10
381.4000
20
180.0000
30
0.0
11
399.0000
21
212.0000
31
0.0
0
LINE
8
SOLDA
10
416.6000
20
180.0000
30
0.0
11
399.0000
21
212.0000
31
0.0
0
LINE
8
SOLDA
10
381.4000
20
180.0000
30
0.0
11
416.6000
21
180.0000
31
0.0
0
TEXT
8
SOLDA
10
517.0000
20
185.0000
30
0.0
40
20.0000
1
PENETRACAO TOTAL (mesas)
50
0.0000
0
LINE
8
SOLDA
10
-28.0000
20
-129.6434
30
0.0
11
-467.5000
21
-419.2868
31
0.0
0
SOLID
8
SOLDA
10
-28.0000
20
-129.6434
30
0.0
11
-53.0016
21
-137.1380
31
0.0
12
-44.7475
22
-149.6627
32
0.0
13
-44.7475
23
-149.6627
33
0.0
0
LINE
8
SOLDA
10
-467.5000
20
-419.2868
30
0.0
11
-687.5000
21
-419.2868
31
0.0
0
SOLID
8
SOLDA
10
-559.9000
20
-419.2868
30
0.0
11
-511.5000
21
-419.2868
31
0.0
12
-559.9000
22
-387.2868
32
0.0
13
-559.9000
23
-387.2868
33
0.0
0
TEXT
8
SOLDA
10
-567.9000
20
-413.2868
30
0.0
40
20.0000
1
5
50
0.0000
72
2
73
0
11
-567.9000
21
-413.2868
31
0.0
0
TEXT
8
SOLDA
10
-695.5000
20
-414.2868
30
0.0
40
20.0000
1
alma, 2 lados
50
0.0000
72
2
73
0
11
-695.5000
21
-414.2868
31
0.0
0
LINE
8
COTA
10
-31.0000
20
-339.2868
30
0.0
11
-236.0000
21
-339.2868
31
0.0
0
LINE
8
COTA
10
-31.0000
20
80.0000
30
0.0
11
-236.0000
21
80.0000
31
0.0
0
LINE
8
COTA
10
-216.0000
20
-339.2868
30
0.0
11
-216.0000
21
80.0000
31
0.0
0
SOLID
8
COTA
10
-216.0000
20
-339.2868
30
0.0
11
-208.5000
21
-314.2868
31
0.0
12
-223.5000
22
-314.2868
32
0.0
13
-223.5000
23
-314.2868
33
0.0
0
SOLID
8
COTA
10
-216.0000
20
80.0000
30
0.0
11
-223.5000
21
55.0000
31
0.0
12
-208.5000
22
55.0000
32
0.0
13
-208.5000
23
55.0000
33
0.0
0
TEXT
8
COTA
10
-229.7500
20
-129.6434
30
0.0
40
25.0000
1
419
50
90.0000
72
1
73
0
11
-229.7500
21
-129.6434
31
0.0
0
LINE
8
COTA
10
-31.0000
20
-254.7141
30
0.0
11
-436.0000
21
-254.7141
31
0.0
0
LINE
8
COTA
10
-31.0000
20
-4.5727
30
0.0
11
-436.0000
21
-4.5727
31
0.0
0
LINE
8
COTA
10
-416.0000
20
-254.7141
30
0.0
11
-416.0000
21
-4.5727
31
0.0
0
SOLID
8
COTA
10
-416.0000
20
-254.7141
30
0.0
11
-408.5000
21
-229.7141
31
0.0
12
-423.5000
22
-229.7141
32
0.0
13
-423.5000
23
-229.7141
33
0.0
0
SOLID
8
COTA
10
-416.0000
20
-4.5727
30
0.0
11
-423.5000
21
-29.5727
31
0.0
12
-408.5000
22
-29.5727
32
0.0
13
-408.5000
23
-29.5727
33
0.0
0
TEXT
8
COTA
10
-429.7500
20
-129.6434
30
0.0
40
25.0000
1
hb = 250
50
90.0000
72
1
73
0
11
-429.7500
21
-129.6434
31
0.0
0
LINE
8
COTA
10
31.0000
20
-339.2868
30
0.0
11
136.0000
21
-339.2868
31
0.0
0
LINE
8
COTA
10
31.0000
20
-299.2868
30
0.0
11
136.0000
21
-299.2868
31
0.0
0
LINE
8
COTA
10
116.0000
20
-339.2868
30
0.0
11
116.0000
21
-299.2868
31
0.0
0
SOLID
8
COTA
10
116.0000
20
-339.2868
30
0.0
11
119.0000
21
-329.2868
31
0.0
12
113.0000
22
-329.2868
32
0.0
13
113.0000
23
-329.2868
33
0.0
0
SOLID
8
COTA
10
116.0000
20
-299.2868
30
0.0
11
113.0000
21
-309.2868
31
0.0
12
119.0000
22
-309.2868
32
0.0
13
119.0000
23
-309.2868
33
0.0
0
TEXT
8
COTA
10
105.0000
20
-319.2868
30
0.0
40
20.0000
1
40
50
90.0000
72
1
73
0
11
105.0000
21
-319.2868
31
0.0
0
LINE
8
COTA
10
31.0000
20
-299.2868
30
0.0
11
136.0000
21
-299.2868
31
0.0
0
LINE
8
COTA
10
31.0000
20
-210.1414
30
0.0
11
136.0000
21
-210.1414
31
0.0
0
LINE
8
COTA
10
116.0000
20
-299.2868
30
0.0
11
116.0000
21
-210.1414
31
0.0
0
SOLID
8
COTA
10
116.0000
20
-299.2868
30
0.0
11
122.6859
21
-277.0004
31
0.0
12
109.3141
22
-277.0004
32
0.0
13
109.3141
23
-277.0004
33
0.0
0
SOLID
8
COTA
10
116.0000
20
-210.1414
30
0.0
11
109.3141
21
-232.4278
31
0.0
12
122.6859
22
-232.4278
32
0.0
13
122.6859
23
-232.4278
33
0.0
0
TEXT
8
COTA
10
105.0000
20
-254.7141
30
0.0
40
20.0000
1
89
50
90.0000
72
1
73
0
11
105.0000
21
-254.7141
31
0.0
0
LINE
8
COTA
10
31.0000
20
-210.1414
30
0.0
11
136.0000
21
-210.1414
31
0.0
0
LINE
8
COTA
10
31.0000
20
-49.1454
30
0.0
11
136.0000
21
-49.1454
31
0.0
0
LINE
8
COTA
10
116.0000
20
-210.1414
30
0.0
11
116.0000
21
-49.1454
31
0.0
0
SOLID
8
COTA
10
116.0000
20
-210.1414
30
0.0
11
123.5000
21
-185.1414
31
0.0
12
108.5000
22
-185.1414
32
0.0
13
108.5000
23
-185.1414
33
0.0
0
SOLID
8
COTA
10
116.0000
20
-49.1454
30
0.0
11
108.5000
21
-74.1454
31
0.0
12
123.5000
22
-74.1454
32
0.0
13
123.5000
23
-74.1454
33
0.0
0
TEXT
8
COTA
10
105.0000
20
-129.6434
30
0.0
40
20.0000
1
161
50
90.0000
72
1
73
0
11
105.0000
21
-129.6434
31
0.0
0
LINE
8
COTA
10
31.0000
20
-49.1454
30
0.0
11
136.0000
21
-49.1454
31
0.0
0
LINE
8
COTA
10
31.0000
20
40.0000
30
0.0
11
136.0000
21
40.0000
31
0.0
0
LINE
8
COTA
10
116.0000
20
-49.1454
30
0.0
11
116.0000
21
40.0000
31
0.0
0
SOLID
8
COTA
10
116.0000
20
-49.1454
30
0.0
11
122.6859
21
-26.8590
31
0.0
12
109.3141
22
-26.8590
32
0.0
13
109.3141
23
-26.8590
33
0.0
0
SOLID
8
COTA
10
116.0000
20
40.0000
30
0.0
11
109.3141
21
17.7137
31
0.0
12
122.6859
22
17.7137
32
0.0
13
122.6859
23
17.7137
33
0.0
0
TEXT
8
COTA
10
105.0000
20
-4.5727
30
0.0
40
20.0000
1
89
50
90.0000
72
1
73
0
11
105.0000
21
-4.5727
31
0.0
0
LINE
8
COTA
10
31.0000
20
40.0000
30
0.0
11
136.0000
21
40.0000
31
0.0
0
LINE
8
COTA
10
31.0000
20
80.0000
30
0.0
11
136.0000
21
80.0000
31
0.0
0
LINE
8
COTA
10
116.0000
20
40.0000
30
0.0
11
116.0000
21
80.0000
31
0.0
0
SOLID
8
COTA
10
116.0000
20
40.0000
30
0.0
11
119.0000
21
50.0000
31
0.0
12
113.0000
22
50.0000
32
0.0
13
113.0000
23
50.0000
33
0.0
0
SOLID
8
COTA
10
116.0000
20
80.0000
30
0.0
11
113.0000
21
70.0000
31
0.0
12
119.0000
22
70.0000
32
0.0
13
119.0000
23
70.0000
33
0.0
0
TEXT
8
COTA
10
105.0000
20
60.0000
30
0.0
40
20.0000
1
40
50
90.0000
72
1
73
0
11
105.0000
21
60.0000
31
0.0
0
LINE
8
COTA
10
-16.0000
20
95.0000
30
0.0
11
-16.0000
21
200.0000
31
0.0
0
LINE
8
COTA
10
16.0000
20
95.0000
30
0.0
11
16.0000
21
200.0000
31
0.0
0
LINE
8
COTA
10
-16.0000
20
180.0000
30
0.0
11
16.0000
21
180.0000
31
0.0
0
SOLID
8
COTA
10
-16.0000
20
180.0000
30
0.0
11
-6.0000
21
177.0000
31
0.0
12
-6.0000
22
183.0000
32
0.0
13
-6.0000
23
183.0000
33
0.0
0
SOLID
8
COTA
10
16.0000
20
180.0000
30
0.0
11
6.0000
21
183.0000
31
0.0
12
6.0000
22
177.0000
32
0.0
13
6.0000
23
177.0000
33
0.0
0
TEXT
8
COTA
10
0.0000
20
193.7500
30
0.0
40
25.0000
1
2 x 16
50
0.0000
72
1
73
0
11
0.0000
21
193.7500
31
0.0
0
LINE
8
COTA
10
527.0000
20
-52.7000
30
0.0
11
787.0000
21
-52.7000
31
0.0
0
TEXT
8
COTA
10
567.0000
20
-42.7000
30
0.0
40
20.0000
1
10 %%% (5,7%%d)
50
0.0000
0
LINE
8
TEXTO
10
-467.5000
20
37.6046
30
0.0
11
-637.5000
21
420.0000
31
0.0
0
SOLID
8
TEXTO
10
-467.5000
20
37.6046
30
0.0
11
-470.8025
21
63.4956
31
0.0
12
-484.5091
22
57.4021
32
0.0
13
-484.5091
23
57.4021
33
0.0
0
LINE
8
TEXTO
10
-637.5000
20
420.0000
30
0.0
11
-677.5000
21
420.0000
31
0.0
0
TEXT
8
TEXTO
10
-683.5000
20
429.0000
30
0.0
40
20.0000
1
VIGA  W 250x32,7
50
0.0000
72
2
73
0
11
-683.5000
21
429.0000
31
0.0
0
LINE
8
TEXTO
10
0.0000
20
-299.2868
30
0.0
11
382.5000
21
-419.2868
31
0.0
0
SOLID
8
TEXTO
10
0.0000
20
-299.2868
30
0.0
11
21.6086
21
-313.9264
31
0.0
12
26.0987
22
-299.6142
32
0.0
13
26.0987
23
-299.6142
33
0.0
0
LINE
8
TEXTO
10
382.5000
20
-419.2868
30
0.0
11
422.5000
21
-419.2868
31
0.0
0
TEXT
8
TEXTO
10
428.5000
20
-410.2868
30
0.0
40
20.0000
1
8 PARAFUSOS %%c19,1 A325
50
0.0000
0
TEXT
8
TEXTO
10
428.5000
20
-437.2868
30
0.0
40
20.0000
1
furos %%c21
50
0.0000
0
TEXT
8
TEXTO
10
0.0000
20
-679.2868
30
0.0
40
40.0000
1
CUMEEIRA - ELEVACAO
50
0.0000
72
1
73
0
11
0.0000
21
-679.2868
31
0.0
0
LINE
8
TEXTO
10
-235.6000
20
-697.2868
30
0.0
11
235.6000
21
-697.2868
31
0.0
0
TEXT
8
TEXTO
10
0.0000
20
-739.2868
30
0.0
40
20.0000
1
ESCALA 1:10
50
0.0000
72
1
73
0
11
0.0000
21
-739.2868
31
0.0
0
POLYLINE
8
ACO
66
1
10
0.0
20
0.0
30
0.0
70
1
0
VERTEX
8
ACO
10
1330.0000
20
-339.2868
30
0.0
0
VERTEX
8
ACO
10
1544.3000
20
-339.2868
30
0.0
0
VERTEX
8
ACO
10
1544.3000
20
80.0000
30
0.0
0
VERTEX
8
ACO
10
1330.0000
20
80.0000
30
0.0
0
SEQEND
8
ACO
0
LINE
8
EIXO
10
1437.1500
20
-439.2868
30
0.0
11
1437.1500
21
180.0000
31
0.0
0
LINE
8
OCULTA
10
1364.1500
20
0.0000
30
0.0
11
1510.1500
21
0.0000
31
0.0
0
LINE
8
OCULTA
10
1364.1500
20
-9.1454
30
0.0
11
1510.1500
21
-9.1454
31
0.0
0
LINE
8
OCULTA
10
1364.1500
20
-250.1414
30
0.0
11
1510.1500
21
-250.1414
31
0.0
0
LINE
8
OCULTA
10
1364.1500
20
-259.2868
30
0.0
11
1510.1500
21
-259.2868
31
0.0
0
LINE
8
OCULTA
10
1364.1500
20
-339.2868
30
0.0
11
1364.1500
21
80.0000
31
0.0
0
LINE
8
OCULTA
10
1434.1000
20
-339.2868
30
0.0
11
1434.1000
21
80.0000
31
0.0
0
LINE
8
OCULTA
10
1510.1500
20
-339.2868
30
0.0
11
1510.1500
21
80.0000
31
0.0
0
LINE
8
OCULTA
10
1440.2000
20
-339.2868
30
0.0
11
1440.2000
21
80.0000
31
0.0
0
CIRCLE
8
FURO
10
1387.1500
20
40.0000
30
0.0
40
10.2750
0
LINE
8
EIXO
10
1360.8750
20
40.0000
30
0.0
11
1413.4250
21
40.0000
31
0.0
0
LINE
8
EIXO
10
1387.1500
20
13.7250
30
0.0
11
1387.1500
21
66.2750
31
0.0
0
CIRCLE
8
FURO
10
1487.1500
20
40.0000
30
0.0
40
10.2750
0
LINE
8
EIXO
10
1460.8750
20
40.0000
30
0.0
11
1513.4250
21
40.0000
31
0.0
0
LINE
8
EIXO
10
1487.1500
20
13.7250
30
0.0
11
1487.1500
21
66.2750
31
0.0
0
CIRCLE
8
FURO
10
1387.1500
20
-49.1454
30
0.0
40
10.2750
0
LINE
8
EIXO
10
1360.8750
20
-49.1454
30
0.0
11
1413.4250
21
-49.1454
31
0.0
0
LINE
8
EIXO
10
1387.1500
20
-75.4204
30
0.0
11
1387.1500
21
-22.8704
31
0.0
0
CIRCLE
8
FURO
10
1487.1500
20
-49.1454
30
0.0
40
10.2750
0
LINE
8
EIXO
10
1460.8750
20
-49.1454
30
0.0
11
1513.4250
21
-49.1454
31
0.0
0
LINE
8
EIXO
10
1487.1500
20
-75.4204
30
0.0
11
1487.1500
21
-22.8704
31
0.0
0
CIRCLE
8
FURO
10
1387.1500
20
-210.1414
30
0.0
40
10.2750
0
LINE
8
EIXO
10
1360.8750
20
-210.1414
30
0.0
11
1413.4250
21
-210.1414
31
0.0
0
LINE
8
EIXO
10
1387.1500
20
-236.4164
30
0.0
11
1387.1500
21
-183.8664
31
0.0
0
CIRCLE
8
FURO
10
1487.1500
20
-210.1414
30
0.0
40
10.2750
0
LINE
8
EIXO
10
1460.8750
20
-210.1414
30
0.0
11
1513.4250
21
-210.1414
31
0.0
0
LINE
8
EIXO
10
1487.1500
20
-236.4164
30
0.0
11
1487.1500
21
-183.8664
31
0.0
0
CIRCLE
8
FURO
10
1387.1500
20
-299.2868
30
0.0
40
10.2750
0
LINE
8
EIXO
10
1360.8750
20
-299.2868
30
0.0
11
1413.4250
21
-299.2868
31
0.0
0
LINE
8
EIXO
10
1387.1500
20
-325.5618
30
0.0
11
1387.1500
21
-273.0118
31
0.0
0
CIRCLE
8
FURO
10
1487.1500
20
-299.2868
30
0.0
40
10.2750
0
LINE
8
EIXO
10
1460.8750
20
-299.2868
30
0.0
11
1513.4250
21
-299.2868
31
0.0
0
LINE
8
EIXO
10
1487.1500
20
-325.5618
30
0.0
11
1487.1500
21
-273.0118
31
0.0
0
LINE
8
COTA
10
1387.1500
20
95.0000
30
0.0
11
1387.1500
21
200.0000
31
0.0
0
LINE
8
COTA
10
1487.1500
20
95.0000
30
0.0
11
1487.1500
21
200.0000
31
0.0
0
LINE
8
COTA
10
1387.1500
20
180.0000
30
0.0
11
1487.1500
21
180.0000
31
0.0
0
SOLID
8
COTA
10
1387.1500
20
180.0000
30
0.0
11
1412.1500
21
172.5000
31
0.0
12
1412.1500
22
187.5000
32
0.0
13
1412.1500
23
187.5000
33
0.0
0
SOLID
8
COTA
10
1487.1500
20
180.0000
30
0.0
11
1462.1500
21
187.5000
31
0.0
12
1462.1500
22
172.5000
32
0.0
13
1462.1500
23
172.5000
33
0.0
0
TEXT
8
COTA
10
1437.1500
20
193.7500
30
0.0
40
25.0000
1
g = 100
50
0.0000
72
1
73
0
11
1437.1500
21
193.7500
31
0.0
0
LINE
8
COTA
10
1330.0000
20
95.0000
30
0.0
11
1330.0000
21
400.0000
31
0.0
0
LINE
8
COTA
10
1544.3000
20
95.0000
30
0.0
11
1544.3000
21
400.0000
31
0.0
0
LINE
8
COTA
10
1330.0000
20
380.0000
30
0.0
11
1544.3000
21
380.0000
31
0.0
0
SOLID
8
COTA
10
1330.0000
20
380.0000
30
0.0
11
1355.0000
21
372.5000
31
0.0
12
1355.0000
22
387.5000
32
0.0
13
1355.0000
23
387.5000
33
0.0
0
SOLID
8
COTA
10
1544.3000
20
380.0000
30
0.0
11
1519.3000
21
387.5000
31
0.0
12
1519.3000
22
372.5000
32
0.0
13
1519.3000
23
372.5000
33
0.0
0
TEXT
8
COTA
10
1437.1500
20
393.7500
30
0.0
40
25.0000
1
214
50
0.0000
72
1
73
0
11
1437.1500
21
393.7500
31
0.0
0
LINE
8
COTA
10
1559.3000
20
-339.2868
30
0.0
11
1664.3000
21
-339.2868
31
0.0
0
LINE
8
COTA
10
1559.3000
20
-299.2868
30
0.0
11
1664.3000
21
-299.2868
31
0.0
0
LINE
8
COTA
10
1644.3000
20
-339.2868
30
0.0
11
1644.3000
21
-299.2868
31
0.0
0
SOLID
8
COTA
10
1644.3000
20
-339.2868
30
0.0
11
1647.3000
21
-329.2868
31
0.0
12
1641.3000
22
-329.2868
32
0.0
13
1641.3000
23
-329.2868
33
0.0
0
SOLID
8
COTA
10
1644.3000
20
-299.2868
30
0.0
11
1641.3000
21
-309.2868
31
0.0
12
1647.3000
22
-309.2868
32
0.0
13
1647.3000
23
-309.2868
33
0.0
0
TEXT
8
COTA
10
1633.3000
20
-319.2868
30
0.0
40
20.0000
1
40
50
90.0000
72
1
73
0
11
1633.3000
21
-319.2868
31
0.0
0
LINE
8
COTA
10
1559.3000
20
-299.2868
30
0.0
11
1664.3000
21
-299.2868
31
0.0
0
LINE
8
COTA
10
1559.3000
20
-210.1414
30
0.0
11
1664.3000
21
-210.1414
31
0.0
0
LINE
8
COTA
10
1644.3000
20
-299.2868
30
0.0
11
1644.3000
21
-210.1414
31
0.0
0
SOLID
8
COTA
10
1644.3000
20
-299.2868
30
0.0
11
1650.9859
21
-277.0004
31
0.0
12
1637.6141
22
-277.0004
32
0.0
13
1637.6141
23
-277.0004
33
0.0
0
SOLID
8
COTA
10
1644.3000
20
-210.1414
30
0.0
11
1637.6141
21
-232.4278
31
0.0
12
1650.9859
22
-232.4278
32
0.0
13
1650.9859
23
-232.4278
33
0.0
0
TEXT
8
COTA
10
1633.3000
20
-254.7141
30
0.0
40
20.0000
1
89
50
90.0000
72
1
73
0
11
1633.3000
21
-254.7141
31
0.0
0
LINE
8
COTA
10
1559.3000
20
-210.1414
30
0.0
11
1664.3000
21
-210.1414
31
0.0
0
LINE
8
COTA
10
1559.3000
20
-49.1454
30
0.0
11
1664.3000
21
-49.1454
31
0.0
0
LINE
8
COTA
10
1644.3000
20
-210.1414
30
0.0
11
1644.3000
21
-49.1454
31
0.0
0
SOLID
8
COTA
10
1644.3000
20
-210.1414
30
0.0
11
1651.8000
21
-185.1414
31
0.0
12
1636.8000
22
-185.1414
32
0.0
13
1636.8000
23
-185.1414
33
0.0
0
SOLID
8
COTA
10
1644.3000
20
-49.1454
30
0.0
11
1636.8000
21
-74.1454
31
0.0
12
1651.8000
22
-74.1454
32
0.0
13
1651.8000
23
-74.1454
33
0.0
0
TEXT
8
COTA
10
1633.3000
20
-129.6434
30
0.0
40
20.0000
1
161
50
90.0000
72
1
73
0
11
1633.3000
21
-129.6434
31
0.0
0
LINE
8
COTA
10
1559.3000
20
-49.1454
30
0.0
11
1664.3000
21
-49.1454
31
0.0
0
LINE
8
COTA
10
1559.3000
20
40.0000
30
0.0
11
1664.3000
21
40.0000
31
0.0
0
LINE
8
COTA
10
1644.3000
20
-49.1454
30
0.0
11
1644.3000
21
40.0000
31
0.0
0
SOLID
8
COTA
10
1644.3000
20
-49.1454
30
0.0
11
1650.9859
21
-26.8590
31
0.0
12
1637.6141
22
-26.8590
32
0.0
13
1637.6141
23
-26.8590
33
0.0
0
SOLID
8
COTA
10
1644.3000
20
40.0000
30
0.0
11
1637.6141
21
17.7137
31
0.0
12
1650.9859
22
17.7137
32
0.0
13
1650.9859
23
17.7137
33
0.0
0
TEXT
8
COTA
10
1633.3000
20
-4.5727
30
0.0
40
20.0000
1
89
50
90.0000
72
1
73
0
11
1633.3000
21
-4.5727
31
0.0
0
LINE
8
COTA
10
1559.3000
20
40.0000
30
0.0
11
1664.3000
21
40.0000
31
0.0
0
LINE
8
COTA
10
1559.3000
20
80.0000
30
0.0
11
1664.3000
21
80.0000
31
0.0
0
LINE
8
COTA
10
1644.3000
20
40.0000
30
0.0
11
1644.3000
21
80.0000
31
0.0
0
SOLID
8
COTA
10
1644.3000
20
40.0000
30
0.0
11
1647.3000
21
50.0000
31
0.0
12
1641.3000
22
50.0000
32
0.0
13
1641.3000
23
50.0000
33
0.0
0
SOLID
8
COTA
10
1644.3000
20
80.0000
30
0.0
11
1641.3000
21
70.0000
31
0.0
12
1647.3000
22
70.0000
32
0.0
13
1647.3000
23
70.0000
33
0.0
0
TEXT
8
COTA
10
1633.3000
20
60.0000
30
0.0
40
20.0000
1
40
50
90.0000
72
1
73
0
11
1633.3000
21
60.0000
31
0.0
0
TEXT
8
TEXTO
10
1437.1500
20
-564.2868
30
0.0
40
25.0000
1
2 CH 214 x 419 x 16
50
0.0000
72
1
73
0
11
1437.1500
21
-564.2868
31
0.0
0
TEXT
8
TEXTO
10
1437.1500
20
-679.2868
30
0.0
40
40.0000
1
CHAPA DE TOPO - VISTA
50
0.0000
72
1
73
0
11
1437.1500
21
-679.2868
31
0.0
0
LINE
8
TEXTO
10
1176.7500
20
-697.2868
30
0.0
11
1697.5500
21
-697.2868
31
0.0
0
TEXT
8
TEXTO
10
1437.1500
20
-739.2868
30
0.0
40
20.0000
1
ESCALA 1:10
50
0.0000
72
1
73
0
11
1437.1500
21
-739.2868
31
0.0
0
TEXT
8
TEXTO
10
-850.0000
20
-1059.2868
30
0.0
40
25.0000
1
NOTAS
50
0.0000
0
TEXT
8
TEXTO
10
-850.0000
20
-1093.2868
30
0.0
40
20.0000
1
1. Cotas em milimetros.
50
0.0000
0
TEXT
8
TEXTO
10
-850.0000
20
-1127.2868
30
0.0
40
20.0000
1
2. Chapas cortadas no angulo do telhado; faces de contato planas.
50
0.0000
0
TEXT
8
TEXTO
10
-850.0000
20
-1161.2868
30
0.0
40
20.0000
1
3. 8 parafusos %%c19,1 A325.
50
0.0000
0
TEXT
8
TEXTO
10
-850.0000
20
-1195.2868
30
0.0
40
20.0000
1
4. Mao-francesa obrigatoria na terca de cumeeira, dos dois lados (Cap. 14.1.4).
50
0.0000
0
ENDSEC
0
EOF
