0
SECTION
2
HEADER
9
$ACADVER
1
AC1009
9
$INSUNITS
70
4
9
$EXTMIN
10
-995.5000
20
-1284.0000
30
0.0
9
$EXTMAX
10
3032.5000
20
1001.4500
30
0.0
9
$LTSCALE
40
1.0
9
$TEXTSTYLE
7
STANDARD
0
ENDSEC
0
SECTION
2
TABLES
0
TABLE
2
LTYPE
70
4
0
LTYPE
2
CONTINUOUS
70
0
3
Solida
72
65
73
0
40
0.0
0
LTYPE
2
CENTER
70
0
3
Linha de centro ____ _ ____ _ ____
72
65
73
4
40
31.7500
49
0.5000
49
-6.3500
49
3.1750
49
-6.3500
0
LTYPE
2
HIDDEN
70
0
3
Tracejada __ __ __ __ __ __
72
65
73
3
40
9.5250
49
0.5000
49
-6.3500
49
3.1750
0
LTYPE
2
DASHED
70
0
3
Tracejada longa ___ ___ ___
72
65
73
3
40
12.7000
49
0.5000
49
-6.3500
49
6.3500
0
ENDTAB
0
TABLE
2
LAYER
70
14
0
LAYER
2
0
70
0
62
7
6
CONTINUOUS
0
LAYER
2
ACO
70
0
62
7
6
CONTINUOUS
0
LAYER
2
ACO-FINO
70
0
62
8
6
CONTINUOUS
0
LAYER
2
EIXO
70
0
62
1
6
CENTER
0
LAYER
2
OCULTA
70
0
62
8
6
HIDDEN
0
LAYER
2
COTA
70
0
62
3
6
CONTINUOUS
0
LAYER
2
TEXTO
70
0
62
7
6
CONTINUOUS
0
LAYER
2
FURO
70
0
62
5
6
CONTINUOUS
0
LAYER
2
SOLDA
70
0
62
2
6
CONTINUOUS
0
LAYER
2
PARAFUSO
70
0
62
5
6
CONTINUOUS
0
LAYER
2
CONCRETO
70
0
62
9
6
CONTINUOUS
0
LAYER
2
HACHURA
70
0
62
8
6
CONTINUOUS
0
LAYER
2
CARIMBO
70
0
62
7
6
CONTINUOUS
0
LAYER
2
AUXILIAR
70
0
62
8
6
DASHED
0
ENDTAB
0
TABLE
2
STYLE
70
1
0
STYLE
2
STANDARD
70
0
40
0.0
41
0.85
50
0.0
71
0
42
2.5
3
txt
4

0
ENDTAB
0
ENDSEC
0
SECTION
2
ENTITIES
0
POLYLINE
8
CONCRETO
66
1
10
0.0
20
0.0
30
0.0
70
1
0
VERTEX
8
CONCRETO
10
-599.5000
20
-400.0000
30
0.0
0
VERTEX
8
CONCRETO
10
599.5000
20
-400.0000
30
0.0
0
VERTEX
8
CONCRETO
10
599.5000
20
150.0000
30
0.0
0
VERTEX
8
CONCRETO
10
-599.5000
20
150.0000
30
0.0
0
SEQEND
8
CONCRETO
0
LINE
8
HACHURA
10
562.7304
20
-400.0000
30
0.0
11
599.5000
21
-363.2304
31
0.0
0
LINE
8
HACHURA
10
525.9609
20
-400.0000
30
0.0
11
599.5000
21
-326.4609
31
0.0
0
LINE
8
HACHURA
10
489.1913
20
-400.0000
30
0.0
11
599.5000
21
-289.6913
31
0.0
0
LINE
8
HACHURA
10
452.4218
20
-400.0000
30
0.0
11
599.5000
21
-252.9218
31
0.0
0
LINE
8
HACHURA
10
415.6522
20
-400.0000
30
0.0
11
599.5000
21
-216.1522
31
0.0
0
LINE
8
HACHURA
10
378.8827
20
-400.0000
30
0.0
11
599.5000
21
-179.3827
31
0.0
0
LINE
8
HACHURA
10
342.1131
20
-400.0000
30
0.0
11
599.5000
21
-142.6131
31
0.0
0
LINE
8
HACHURA
10
305.3436
20
-400.0000
30
0.0
11
599.5000
21
-105.8436
31
0.0
0
LINE
8
HACHURA
10
268.5740
20
-400.0000
30
0.0
11
599.5000
21
-69.0740
31
0.0
0
LINE
8
HACHURA
10
231.8045
20
-400.0000
30
0.0
11
599.5000
21
-32.3045
31
0.0
0
LINE
8
HACHURA
10
195.0349
20
-400.0000
30
0.0
11
599.5000
21
4.4651
31
0.0
0
LINE
8
HACHURA
10
158.2654
20
-400.0000
30
0.0
11
599.5000
21
41.2346
31
0.0
0
LINE
8
HACHURA
10
121.4958
20
-400.0000
30
0.0
11
599.5000
21
78.0042
31
0.0
0
LINE
8
HACHURA
10
84.7263
20
-400.0000
30
0.0
11
599.5000
21
114.7737
31
0.0
0
LINE
8
HACHURA
10
47.9567
20
-400.0000
30
0.0
11
597.9567
21
150.0000
31
0.0
0
LINE
8
HACHURA
10
11.1872
20
-400.0000
30
0.0
11
561.1872
21
150.0000
31
0.0
0
LINE
8
HACHURA
10
-25.5824
20
-400.0000
30
0.0
11
524.4176
21
150.0000
31
0.0
0
LINE
8
HACHURA
10
-62.3519
20
-400.0000
30
0.0
11
487.6481
21
150.0000
31
0.0
0
LINE
8
HACHURA
10
-99.1215
20
-400.0000
30
0.0
11
450.8785
21
150.0000
31
0.0
0
LINE
8
HACHURA
10
-135.8911
20
-400.0000
30
0.0
11
414.1089
21
150.0000
31
0.0
0
LINE
8
HACHURA
10
-172.6606
20
-400.0000
30
0.0
11
377.3394
21
150.0000
31
0.0
0
LINE
8
HACHURA
10
-209.4302
20
-400.0000
30
0.0
11
340.5698
21
150.0000
31
0.0
0
LINE
8
HACHURA
10
-246.1997
20
-400.0000
30
0.0
11
303.8003
21
150.0000
31
0.0
0
LINE
8
HACHURA
10
-282.9693
20
-400.0000
30
0.0
11
267.0307
21
150.0000
31
0.0
0
LINE
8
HACHURA
10
-319.7388
20
-400.0000
30
0.0
11
230.2612
21
150.0000
31
0.0
0
LINE
8
HACHURA
10
-356.5084
20
-400.0000
30
0.0
11
193.4916
21
150.0000
31
0.0
0
LINE
8
HACHURA
10
-393.2779
20
-400.0000
30
0.0
11
156.7221
21
150.0000
31
0.0
0
LINE
8
HACHURA
10
-430.0475
20
-400.0000
30
0.0
11
119.9525
21
150.0000
31
0.0
0
LINE
8
HACHURA
10
-466.8170
20
-400.0000
30
0.0
11
83.1830
21
150.0000
31
0.0
0
LINE
8
HACHURA
10
-503.5866
20
-400.0000
30
0.0
11
46.4134
21
150.0000
31
0.0
0
LINE
8
HACHURA
10
-540.3561
20
-400.0000
30
0.0
11
9.6439
21
150.0000
31
0.0
0
LINE
8
HACHURA
10
-577.1257
20
-400.0000
30
0.0
11
-27.1257
21
150.0000
31
0.0
0
LINE
8
HACHURA
10
-599.5000
20
-385.6048
30
0.0
11
-63.8952
21
150.0000
31
0.0
0
LINE
8
HACHURA
10
-599.5000
20
-348.8352
30
0.0
11
-100.6648
21
150.0000
31
0.0
0
LINE
8
HACHURA
10
-599.5000
20
-312.0657
30
0.0
11
-137.4343
21
150.0000
31
0.0
0
LINE
8
HACHURA
10
-599.5000
20
-275.2961
30
0.0
11
-174.2039
21
150.0000
31
0.0
0
LINE
8
HACHURA
10
-599.5000
20
-238.5266
30
0.0
11
-210.9734
21
150.0000
31
0.0
0
LINE
8
HACHURA
10
-599.5000
20
-201.7570
30
0.0
11
-247.7430
21
150.0000
31
0.0
0
LINE
8
HACHURA
10
-599.5000
20
-164.9874
30
0.0
11
-284.5126
21
150.0000
31
0.0
0
LINE
8
HACHURA
10
-599.5000
20
-128.2179
30
0.0
11
-321.2821
21
150.0000
31
0.0
0
LINE
8
HACHURA
10
-599.5000
20
-91.4483
30
0.0
11
-358.0517
21
150.0000
31
0.0
0
LINE
8
HACHURA
10
-599.5000
20
-54.6788
30
0.0
11
-394.8212
21
150.0000
31
0.0
0
LINE
8
HACHURA
10
-599.5000
20
-17.9092
30
0.0
11
-431.5908
21
150.0000
31
0.0
0
LINE
8
HACHURA
10
-599.5000
20
18.8603
30
0.0
11
-468.3603
21
150.0000
31
0.0
0
LINE
8
HACHURA
10
-599.5000
20
55.6299
30
0.0
11
-505.1299
21
150.0000
31
0.0
0
LINE
8
HACHURA
10
-599.5000
20
92.3994
30
0.0
11
-541.8994
21
150.0000
31
0.0
0
LINE
8
HACHURA
10
-599.5000
20
129.1690
30
0.0
11
-578.6690
21
150.0000
31
0.0
0
LINE
8
HACHURA
10
599.5000
20
76.4609
30
0.0
11
525.9609
21
150.0000
31
0.0
0
LINE
8
HACHURA
10
599.5000
20
2.9218
30
0.0
11
452.4218
21
150.0000
31
0.0
0
LINE
8
HACHURA
10
599.5000
20
-70.6173
30
0.0
11
378.8827
21
150.0000
31
0.0
0
LINE
8
HACHURA
10
599.5000
20
-144.1564
30
0.0
11
305.3436
21
150.0000
31
0.0
0
LINE
8
HACHURA
10
599.5000
20
-217.6955
30
0.0
11
231.8045
21
150.0000
31
0.0
0
LINE
8
HACHURA
10
599.5000
20
-291.2346
30
0.0
11
158.2654
21
150.0000
31
0.0
0
LINE
8
HACHURA
10
599.5000
20
-364.7737
30
0.0
11
84.7263
21
150.0000
31
0.0
0
LINE
8
HACHURA
10
561.1872
20
-400.0000
30
0.0
11
11.1872
21
150.0000
31
0.0
0
LINE
8
HACHURA
10
487.6481
20
-400.0000
30
0.0
11
-62.3519
21
150.0000
31
0.0
0
LINE
8
HACHURA
10
414.1089
20
-400.0000
30
0.0
11
-135.8911
21
150.0000
31
0.0
0
LINE
8
HACHURA
10
340.5698
20
-400.0000
30
0.0
11
-209.4302
21
150.0000
31
0.0
0
LINE
8
HACHURA
10
267.0307
20
-400.0000
30
0.0
11
-282.9693
21
150.0000
31
0.0
0
LINE
8
HACHURA
10
193.4916
20
-400.0000
30
0.0
11
-356.5084
21
150.0000
31
0.0
0
LINE
8
HACHURA
10
119.9525
20
-400.0000
30
0.0
11
-430.0475
21
150.0000
31
0.0
0
LINE
8
HACHURA
10
46.4134
20
-400.0000
30
0.0
11
-503.5866
21
150.0000
31
0.0
0
LINE
8
HACHURA
10
-27.1257
20
-400.0000
30
0.0
11
-577.1257
21
150.0000
31
0.0
0
LINE
8
HACHURA
10
-100.6648
20
-400.0000
30
0.0
11
-599.5000
21
98.8352
31
0.0
0
LINE
8
HACHURA
10
-174.2039
20
-400.0000
30
0.0
11
-599.5000
21
25.2961
31
0.0
0
LINE
8
HACHURA
10
-247.7430
20
-400.0000
30
0.0
11
-599.5000
21
-48.2430
31
0.0
0
LINE
8
HACHURA
10
-321.2821
20
-400.0000
30
0.0
11
-599.5000
21
-121.7821
31
0.0
0
LINE
8
HACHURA
10
-394.8212
20
-400.0000
30
0.0
11
-599.5000
21
-195.3212
31
0.0
0
LINE
8
HACHURA
10
-468.3603
20
-400.0000
30
0.0
11
-599.5000
21
-268.8603
31
0.0
0
LINE
8
HACHURA
10
-541.8994
20
-400.0000
30
0.0
11
-599.5000
21
-342.3994
31
0.0
0
LINE
8
CONCRETO
10
-859.5000
20
0.0000
30
0.0
11
-599.5000
21
0.0000
31
0.0
0
LINE
8
CONCRETO
10
-859.5000
20
0.0000
30
0.0
11
-877.7000
21
-26.0000
31
0.0
0
LINE
8
CONCRETO
10
-816.1667
20
0.0000
30
0.0
11
-834.3667
21
-26.0000
31
0.0
0
LINE
8
CONCRETO
10
-772.8333
20
0.0000
30
0.0
11
-791.0333
21
-26.0000
31
0.0
0
LINE
8
CONCRETO
10
-729.5000
20
0.0000
30
0.0
11
-747.7000
21
-26.0000
31
0.0
0
LINE
8
CONCRETO
10
-686.1667
20
0.0000
30
0.0
11
-704.3667
21
-26.0000
31
0.0
0
LINE
8
CONCRETO
10
-642.8333
20
0.0000
30
0.0
11
-661.0333
21
-26.0000
31
0.0
0
LINE
8
CONCRETO
10
599.5000
20
0.0000
30
0.0
11
859.5000
21
0.0000
31
0.0
0
LINE
8
CONCRETO
10
599.5000
20
0.0000
30
0.0
11
581.3000
21
-26.0000
31
0.0
0
LINE
8
CONCRETO
10
642.8333
20
0.0000
30
0.0
11
624.6333
21
-26.0000
31
0.0
0
LINE
8
CONCRETO
10
686.1667
20
0.0000
30
0.0
11
667.9667
21
-26.0000
31
0.0
0
LINE
8
CONCRETO
10
729.5000
20
0.0000
30
0.0
11
711.3000
21
-26.0000
31
0.0
0
LINE
8
CONCRETO
10
772.8333
20
0.0000
30
0.0
11
754.6333
21
-26.0000
31
0.0
0
LINE
8
CONCRETO
10
816.1667
20
0.0000
30
0.0
11
797.9667
21
-26.0000
31
0.0
0
POLYLINE
8
CONCRETO
66
1
10
0.0
20
0.0
30
0.0
70
1
0
VERTEX
8
CONCRETO
10
-399.5000
20
150.0000
30
0.0
0
VERTEX
8
CONCRETO
10
399.5000
20
150.0000
30
0.0
0
VERTEX
8
CONCRETO
10
399.5000
20
180.0000
30
0.0
0
VERTEX
8
CONCRETO
10
-399.5000
20
180.0000
30
0.0
0
SEQEND
8
CONCRETO
0
LINE
8
HACHURA
10
399.5000
20
171.5147
30
0.0
11
391.0147
21
180.0000
31
0.0
0
LINE
8
HACHURA
10
399.5000
20
163.0294
30
0.0
11
382.5294
21
180.0000
31
0.0
0
LINE
8
HACHURA
10
399.5000
20
154.5442
30
0.0
11
374.0442
21
180.0000
31
0.0
0
LINE
8
HACHURA
10
395.5589
20
150.0000
30
0.0
11
365.5589
21
180.0000
31
0.0
0
LINE
8
HACHURA
10
387.0736
20
150.0000
30
0.0
11
357.0736
21
180.0000
31
0.0
0
LINE
8
HACHURA
10
378.5883
20
150.0000
30
0.0
11
348.5883
21
180.0000
31
0.0
0
LINE
8
HACHURA
10
370.1030
20
150.0000
30
0.0
11
340.1030
21
180.0000
31
0.0
0
LINE
8
HACHURA
10
361.6177
20
150.0000
30
0.0
11
331.6177
21
180.0000
31
0.0
0
LINE
8
HACHURA
10
353.1325
20
150.0000
30
0.0
11
323.1325
21
180.0000
31
0.0
0
LINE
8
HACHURA
10
344.6472
20
150.0000
30
0.0
11
314.6472
21
180.0000
31
0.0
0
LINE
8
HACHURA
10
336.1619
20
150.0000
30
0.0
11
306.1619
21
180.0000
31
0.0
0
LINE
8
HACHURA
10
327.6766
20
150.0000
30
0.0
11
297.6766
21
180.0000
31
0.0
0
LINE
8
HACHURA
10
319.1913
20
150.0000
30
0.0
11
289.1913
21
180.0000
31
0.0
0
LINE
8
HACHURA
10
310.7061
20
150.0000
30
0.0
11
280.7061
21
180.0000
31
0.0
0
LINE
8
HACHURA
10
302.2208
20
150.0000
30
0.0
11
272.2208
21
180.0000
31
0.0
0
LINE
8
HACHURA
10
293.7355
20
150.0000
30
0.0
11
263.7355
21
180.0000
31
0.0
0
LINE
8
HACHURA
10
285.2502
20
150.0000
30
0.0
11
255.2502
21
180.0000
31
0.0
0
LINE
8
HACHURA
10
276.7649
20
150.0000
30
0.0
11
246.7649
21
180.0000
31
0.0
0
LINE
8
HACHURA
10
268.2797
20
150.0000
30
0.0
11
238.2797
21
180.0000
31
0.0
0
LINE
8
HACHURA
10
259.7944
20
150.0000
30
0.0
11
229.7944
21
180.0000
31
0.0
0
LINE
8
HACHURA
10
251.3091
20
150.0000
30
0.0
11
221.3091
21
180.0000
31
0.0
0
LINE
8
HACHURA
10
242.8238
20
150.0000
30
0.0
11
212.8238
21
180.0000
31
0.0
0
LINE
8
HACHURA
10
234.3385
20
150.0000
30
0.0
11
204.3385
21
180.0000
31
0.0
0
LINE
8
HACHURA
10
225.8532
20
150.0000
30
0.0
11
195.8532
21
180.0000
31
0.0
0
LINE
8
HACHURA
10
217.3680
20
150.0000
30
0.0
11
187.3680
21
180.0000
31
0.0
0
LINE
8
HACHURA
10
208.8827
20
150.0000
30
0.0
11
178.8827
21
180.0000
31
0.0
0
LINE
8
HACHURA
10
200.3974
20
150.0000
30
0.0
11
170.3974
21
180.0000
31
0.0
0
LINE
8
HACHURA
10
191.9121
20
150.0000
30
0.0
11
161.9121
21
180.0000
31
0.0
0
LINE
8
HACHURA
10
183.4268
20
150.0000
30
0.0
11
153.4268
21
180.0000
31
0.0
0
LINE
8
HACHURA
10
174.9416
20
150.0000
30
0.0
11
144.9416
21
180.0000
31
0.0
0
LINE
8
HACHURA
10
166.4563
20
150.0000
30
0.0
11
136.4563
21
180.0000
31
0.0
0
LINE
8
HACHURA
10
157.9710
20
150.0000
30
0.0
11
127.9710
21
180.0000
31
0.0
0
LINE
8
HACHURA
10
149.4857
20
150.0000
30
0.0
11
119.4857
21
180.0000
31
0.0
0
LINE
8
HACHURA
10
141.0004
20
150.0000
30
0.0
11
111.0004
21
180.0000
31
0.0
0
LINE
8
HACHURA
10
132.5152
20
150.0000
30
0.0
11
102.5152
21
180.0000
31
0.0
0
LINE
8
HACHURA
10
124.0299
20
150.0000
30
0.0
11
94.0299
21
180.0000
31
0.0
0
LINE
8
HACHURA
10
115.5446
20
150.0000
30
0.0
11
85.5446
21
180.0000
31
0.0
0
LINE
8
HACHURA
10
107.0593
20
150.0000
30
0.0
11
77.0593
21
180.0000
31
0.0
0
LINE
8
HACHURA
10
98.5740
20
150.0000
30
0.0
11
68.5740
21
180.0000
31
0.0
0
LINE
8
HACHURA
10
90.0887
20
150.0000
30
0.0
11
60.0887
21
180.0000
31
0.0
0
LINE
8
HACHURA
10
81.6035
20
150.0000
30
0.0
11
51.6035
21
180.0000
31
0.0
0
LINE
8
HACHURA
10
73.1182
20
150.0000
30
0.0
11
43.1182
21
180.0000
31
0.0
0
LINE
8
HACHURA
10
64.6329
20
150.0000
30
0.0
11
34.6329
21
180.0000
31
0.0
0
LINE
8
HACHURA
10
56.1476
20
150.0000
30
0.0
11
26.1476
21
180.0000
31
0.0
0
LINE
8
HACHURA
10
47.6623
20
150.0000
30
0.0
11
17.6623
21
180.0000
31
0.0
0
LINE
8
HACHURA
10
39.1771
20
150.0000
30
0.0
11
9.1771
21
180.0000
31
0.0
0
LINE
8
HACHURA
10
30.6918
20
150.0000
30
0.0
11
0.6918
21
180.0000
31
0.0
0
LINE
8
HACHURA
10
22.2065
20
150.0000
30
0.0
11
-7.7935
21
180.0000
31
0.0
0
LINE
8
HACHURA
10
13.7212
20
150.0000
30
0.0
11
-16.2788
21
180.0000
31
0.0
0
LINE
8
HACHURA
10
5.2359
20
150.0000
30
0.0
11
-24.7641
21
180.0000
31
0.0
0
LINE
8
HACHURA
10
-3.2494
20
150.0000
30
0.0
11
-33.2494
21
180.0000
31
0.0
0
LINE
8
HACHURA
10
-11.7346
20
150.0000
30
0.0
11
-41.7346
21
180.0000
31
0.0
0
LINE
8
HACHURA
10
-20.2199
20
150.0000
30
0.0
11
-50.2199
21
180.0000
31
0.0
0
LINE
8
HACHURA
10
-28.7052
20
150.0000
30
0.0
11
-58.7052
21
180.0000
31
0.0
0
LINE
8
HACHURA
10
-37.1905
20
150.0000
30
0.0
11
-67.1905
21
180.0000
31
0.0
0
LINE
8
HACHURA
10
-45.6758
20
150.0000
30
0.0
11
-75.6758
21
180.0000
31
0.0
0
LINE
8
HACHURA
10
-54.1610
20
150.0000
30
0.0
11
-84.1610
21
180.0000
31
0.0
0
LINE
8
HACHURA
10
-62.6463
20
150.0000
30
0.0
11
-92.6463
21
180.0000
31
0.0
0
LINE
8
HACHURA
10
-71.1316
20
150.0000
30
0.0
11
-101.1316
21
180.0000
31
0.0
0
LINE
8
HACHURA
10
-79.6169
20
150.0000
30
0.0
11
-109.6169
21
180.0000
31
0.0
0
LINE
8
HACHURA
10
-88.1022
20
150.0000
30
0.0
11
-118.1022
21
180.0000
31
0.0
0
LINE
8
HACHURA
10
-96.5874
20
150.0000
30
0.0
11
-126.5874
21
180.0000
31
0.0
0
LINE
8
HACHURA
10
-105.0727
20
150.0000
30
0.0
11
-135.0727
21
180.0000
31
0.0
0
LINE
8
HACHURA
10
-113.5580
20
150.0000
30
0.0
11
-143.5580
21
180.0000
31
0.0
0
LINE
8
HACHURA
10
-122.0433
20
150.0000
30
0.0
11
-152.0433
21
180.0000
31
0.0
0
LINE
8
HACHURA
10
-130.5286
20
150.0000
30
0.0
11
-160.5286
21
180.0000
31
0.0
0
LINE
8
HACHURA
10
-139.0139
20
150.0000
30
0.0
11
-169.0139
21
180.0000
31
0.0
0
LINE
8
HACHURA
10
-147.4991
20
150.0000
30
0.0
11
-177.4991
21
180.0000
31
0.0
0
LINE
8
HACHURA
10
-155.9844
20
150.0000
30
0.0
11
-185.9844
21
180.0000
31
0.0
0
LINE
8
HACHURA
10
-164.4697
20
150.0000
30
0.0
11
-194.4697
21
180.0000
31
0.0
0
LINE
8
HACHURA
10
-172.9550
20
150.0000
30
0.0
11
-202.9550
21
180.0000
31
0.0
0
LINE
8
HACHURA
10
-181.4403
20
150.0000
30
0.0
11
-211.4403
21
180.0000
31
0.0
0
LINE
8
HACHURA
10
-189.9255
20
150.0000
30
0.0
11
-219.9255
21
180.0000
31
0.0
0
LINE
8
HACHURA
10
-198.4108
20
150.0000
30
0.0
11
-228.4108
21
180.0000
31
0.0
0
LINE
8
HACHURA
10
-206.8961
20
150.0000
30
0.0
11
-236.8961
21
180.0000
31
0.0
0
LINE
8
HACHURA
10
-215.3814
20
150.0000
30
0.0
11
-245.3814
21
180.0000
31
0.0
0
LINE
8
HACHURA
10
-223.8667
20
150.0000
30
0.0
11
-253.8667
21
180.0000
31
0.0
0
LINE
8
HACHURA
10
-232.3519
20
150.0000
30
0.0
11
-262.3519
21
180.0000
31
0.0
0
LINE
8
HACHURA
10
-240.8372
20
150.0000
30
0.0
11
-270.8372
21
180.0000
31
0.0
0
LINE
8
HACHURA
10
-249.3225
20
150.0000
30
0.0
11
-279.3225
21
180.0000
31
0.0
0
LINE
8
HACHURA
10
-257.8078
20
150.0000
30
0.0
11
-287.8078
21
180.0000
31
0.0
0
LINE
8
HACHURA
10
-266.2931
20
150.0000
30
0.0
11
-296.2931
21
180.0000
31
0.0
0
LINE
8
HACHURA
10
-274.7784
20
150.0000
30
0.0
11
-304.7784
21
180.0000
31
0.0
0
LINE
8
HACHURA
10
-283.2636
20
150.0000
30
0.0
11
-313.2636
21
180.0000
31
0.0
0
LINE
8
HACHURA
10
-291.7489
20
150.0000
30
0.0
11
-321.7489
21
180.0000
31
0.0
0
LINE
8
HACHURA
10
-300.2342
20
150.0000
30
0.0
11
-330.2342
21
180.0000
31
0.0
0
LINE
8
HACHURA
10
-308.7195
20
150.0000
30
0.0
11
-338.7195
21
180.0000
31
0.0
0
LINE
8
HACHURA
10
-317.2048
20
150.0000
30
0.0
11
-347.2048
21
180.0000
31
0.0
0
LINE
8
HACHURA
10
-325.6900
20
150.0000
30
0.0
11
-355.6900
21
180.0000
31
0.0
0
LINE
8
HACHURA
10
-334.1753
20
150.0000
30
0.0
11
-364.1753
21
180.0000
31
0.0
0
LINE
8
HACHURA
10
-342.6606
20
150.0000
30
0.0
11
-372.6606
21
180.0000
31
0.0
0
LINE
8
HACHURA
10
-351.1459
20
150.0000
30
0.0
11
-381.1459
21
180.0000
31
0.0
0
LINE
8
HACHURA
10
-359.6312
20
150.0000
30
0.0
11
-389.6312
21
180.0000
31
0.0
0
LINE
8
HACHURA
10
-368.1164
20
150.0000
30
0.0
11
-398.1164
21
180.0000
31
0.0
0
LINE
8
HACHURA
10
-376.6017
20
150.0000
30
0.0
11
-399.5000
21
172.8983
31
0.0
0
LINE
8
HACHURA
10
-385.0870
20
150.0000
30
0.0
11
-399.5000
21
164.4130
31
0.0
0
LINE
8
HACHURA
10
-393.5723
20
150.0000
30
0.0
11
-399.5000
21
155.9277
31
0.0
0
POLYLINE
8
ACO
66
1
10
0.0
20
0.0
30
0.0
70
1
0
VERTEX
8
ACO
10
-399.5000
20
180.0000
30
0.0
0
VERTEX
8
ACO
10
399.5000
20
180.0000
30
0.0
0
VERTEX
8
ACO
10
399.5000
20
192.7000
30
0.0
0
VERTEX
8
ACO
10
-399.5000
20
192.7000
30
0.0
0
SEQEND
8
ACO
0
LINE
8
HACHURA
10
389.6005
20
180.0000
30
0.0
11
399.5000
21
189.8995
31
0.0
0
LINE
8
HACHURA
10
379.7010
20
180.0000
30
0.0
11
392.4010
21
192.7000
31
0.0
0
LINE
8
HACHURA
10
369.8015
20
180.0000
30
0.0
11
382.5015
21
192.7000
31
0.0
0
LINE
8
HACHURA
10
359.9020
20
180.0000
30
0.0
11
372.6020
21
192.7000
31
0.0
0
LINE
8
HACHURA
10
350.0025
20
180.0000
30
0.0
11
362.7025
21
192.7000
31
0.0
0
LINE
8
HACHURA
10
340.1030
20
180.0000
30
0.0
11
352.8030
21
192.7000
31
0.0
0
LINE
8
HACHURA
10
330.2035
20
180.0000
30
0.0
11
342.9035
21
192.7000
31
0.0
0
LINE
8
HACHURA
10
320.3040
20
180.0000
30
0.0
11
333.0040
21
192.7000
31
0.0
0
LINE
8
HACHURA
10
310.4045
20
180.0000
30
0.0
11
323.1045
21
192.7000
31
0.0
0
LINE
8
HACHURA
10
300.5051
20
180.0000
30
0.0
11
313.2051
21
192.7000
31
0.0
0
LINE
8
HACHURA
10
290.6056
20
180.0000
30
0.0
11
303.3056
21
192.7000
31
0.0
0
LINE
8
HACHURA
10
280.7061
20
180.0000
30
0.0
11
293.4061
21
192.7000
31
0.0
0
LINE
8
HACHURA
10
270.8066
20
180.0000
30
0.0
11
283.5066
21
192.7000
31
0.0
0
LINE
8
HACHURA
10
260.9071
20
180.0000
30
0.0
11
273.6071
21
192.7000
31
0.0
0
LINE
8
HACHURA
10
251.0076
20
180.0000
30
0.0
11
263.7076
21
192.7000
31
0.0
0
LINE
8
HACHURA
10
241.1081
20
180.0000
30
0.0
11
253.8081
21
192.7000
31
0.0
0
LINE
8
HACHURA
10
231.2086
20
180.0000
30
0.0
11
243.9086
21
192.7000
31
0.0
0
LINE
8
HACHURA
10
221.3091
20
180.0000
30
0.0
11
234.0091
21
192.7000
31
0.0
0
LINE
8
HACHURA
10
211.4096
20
180.0000
30
0.0
11
224.1096
21
192.7000
31
0.0
0
LINE
8
HACHURA
10
201.5101
20
180.0000
30
0.0
11
214.2101
21
192.7000
31
0.0
0
LINE
8
HACHURA
10
191.6106
20
180.0000
30
0.0
11
204.3106
21
192.7000
31
0.0
0
LINE
8
HACHURA
10
181.7111
20
180.0000
30
0.0
11
194.4111
21
192.7000
31
0.0
0
LINE
8
HACHURA
10
171.8116
20
180.0000
30
0.0
11
184.5116
21
192.7000
31
0.0
0
LINE
8
HACHURA
10
161.9121
20
180.0000
30
0.0
11
174.6121
21
192.7000
31
0.0
0
LINE
8
HACHURA
10
152.0126
20
180.0000
30
0.0
11
164.7126
21
192.7000
31
0.0
0
LINE
8
HACHURA
10
142.1131
20
180.0000
30
0.0
11
154.8131
21
192.7000
31
0.0
0
LINE
8
HACHURA
10
132.2136
20
180.0000
30
0.0
11
144.9136
21
192.7000
31
0.0
0
LINE
8
HACHURA
10
122.3141
20
180.0000
30
0.0
11
135.0141
21
192.7000
31
0.0
0
LINE
8
HACHURA
10
112.4146
20
180.0000
30
0.0
11
125.1146
21
192.7000
31
0.0
0
LINE
8
HACHURA
10
102.5152
20
180.0000
30
0.0
11
115.2152
21
192.7000
31
0.0
0
LINE
8
HACHURA
10
92.6157
20
180.0000
30
0.0
11
105.3157
21
192.7000
31
0.0
0
LINE
8
HACHURA
10
82.7162
20
180.0000
30
0.0
11
95.4162
21
192.7000
31
0.0
0
LINE
8
HACHURA
10
72.8167
20
180.0000
30
0.0
11
85.5167
21
192.7000
31
0.0
0
LINE
8
HACHURA
10
62.9172
20
180.0000
30
0.0
11
75.6172
21
192.7000
31
0.0
0
LINE
8
HACHURA
10
53.0177
20
180.0000
30
0.0
11
65.7177
21
192.7000
31
0.0
0
LINE
8
HACHURA
10
43.1182
20
180.0000
30
0.0
11
55.8182
21
192.7000
31
0.0
0
LINE
8
HACHURA
10
33.2187
20
180.0000
30
0.0
11
45.9187
21
192.7000
31
0.0
0
LINE
8
HACHURA
10
23.3192
20
180.0000
30
0.0
11
36.0192
21
192.7000
31
0.0
0
LINE
8
HACHURA
10
13.4197
20
180.0000
30
0.0
11
26.1197
21
192.7000
31
0.0
0
LINE
8
HACHURA
10
3.5202
20
180.0000
30
0.0
11
16.2202
21
192.7000
31
0.0
0
LINE
8
HACHURA
10
-6.3793
20
180.0000
30
0.0
11
6.3207
21
192.7000
31
0.0
0
LINE
8
HACHURA
10
-16.2788
20
180.0000
30
0.0
11
-3.5788
21
192.7000
31
0.0
0
LINE
8
HACHURA
10
-26.1783
20
180.0000
30
0.0
11
-13.4783
21
192.7000
31
0.0
0
LINE
8
HACHURA
10
-36.0778
20
180.0000
30
0.0
11
-23.3778
21
192.7000
31
0.0
0
LINE
8
HACHURA
10
-45.9773
20
180.0000
30
0.0
11
-33.2773
21
192.7000
31
0.0
0
LINE
8
HACHURA
10
-55.8768
20
180.0000
30
0.0
11
-43.1768
21
192.7000
31
0.0
0
LINE
8
HACHURA
10
-65.7763
20
180.0000
30
0.0
11
-53.0763
21
192.7000
31
0.0
0
LINE
8
HACHURA
10
-75.6758
20
180.0000
30
0.0
11
-62.9758
21
192.7000
31
0.0
0
LINE
8
HACHURA
10
-85.5753
20
180.0000
30
0.0
11
-72.8753
21
192.7000
31
0.0
0
LINE
8
HACHURA
10
-95.4747
20
180.0000
30
0.0
11
-82.7747
21
192.7000
31
0.0
0
LINE
8
HACHURA
10
-105.3742
20
180.0000
30
0.0
11
-92.6742
21
192.7000
31
0.0
0
LINE
8
HACHURA
10
-115.2737
20
180.0000
30
0.0
11
-102.5737
21
192.7000
31
0.0
0
LINE
8
HACHURA
10
-125.1732
20
180.0000
30
0.0
11
-112.4732
21
192.7000
31
0.0
0
LINE
8
HACHURA
10
-135.0727
20
180.0000
30
0.0
11
-122.3727
21
192.7000
31
0.0
0
LINE
8
HACHURA
10
-144.9722
20
180.0000
30
0.0
11
-132.2722
21
192.7000
31
0.0
0
LINE
8
HACHURA
10
-154.8717
20
180.0000
30
0.0
11
-142.1717
21
192.7000
31
0.0
0
LINE
8
HACHURA
10
-164.7712
20
180.0000
30
0.0
11
-152.0712
21
192.7000
31
0.0
0
LINE
8
HACHURA
10
-174.6707
20
180.0000
30
0.0
11
-161.9707
21
192.7000
31
0.0
0
LINE
8
HACHURA
10
-184.5702
20
180.0000
30
0.0
11
-171.8702
21
192.7000
31
0.0
0
LINE
8
HACHURA
10
-194.4697
20
180.0000
30
0.0
11
-181.7697
21
192.7000
31
0.0
0
LINE
8
HACHURA
10
-204.3692
20
180.0000
30
0.0
11
-191.6692
21
192.7000
31
0.0
0
LINE
8
HACHURA
10
-214.2687
20
180.0000
30
0.0
11
-201.5687
21
192.7000
31
0.0
0
LINE
8
HACHURA
10
-224.1682
20
180.0000
30
0.0
11
-211.4682
21
192.7000
31
0.0
0
LINE
8
HACHURA
10
-234.0677
20
180.0000
30
0.0
11
-221.3677
21
192.7000
31
0.0
0
LINE
8
HACHURA
10
-243.9672
20
180.0000
30
0.0
11
-231.2672
21
192.7000
31
0.0
0
LINE
8
HACHURA
10
-253.8667
20
180.0000
30
0.0
11
-241.1667
21
192.7000
31
0.0
0
LINE
8
HACHURA
10
-263.7662
20
180.0000
30
0.0
11
-251.0662
21
192.7000
31
0.0
0
LINE
8
HACHURA
10
-273.6657
20
180.0000
30
0.0
11
-260.9657
21
192.7000
31
0.0
0
LINE
8
HACHURA
10
-283.5652
20
180.0000
30
0.0
11
-270.8652
21
192.7000
31
0.0
0
LINE
8
HACHURA
10
-293.4646
20
180.0000
30
0.0
11
-280.7646
21
192.7000
31
0.0
0
LINE
8
HACHURA
10
-303.3641
20
180.0000
30
0.0
11
-290.6641
21
192.7000
31
0.0
0
LINE
8
HACHURA
10
-313.2636
20
180.0000
30
0.0
11
-300.5636
21
192.7000
31
0.0
0
LINE
8
HACHURA
10
-323.1631
20
180.0000
30
0.0
11
-310.4631
21
192.7000
31
0.0
0
LINE
8
HACHURA
10
-333.0626
20
180.0000
30
0.0
11
-320.3626
21
192.7000
31
0.0
0
LINE
8
HACHURA
10
-342.9621
20
180.0000
30
0.0
11
-330.2621
21
192.7000
31
0.0
0
LINE
8
HACHURA
10
-352.8616
20
180.0000
30
0.0
11
-340.1616
21
192.7000
31
0.0
0
LINE
8
HACHURA
10
-362.7611
20
180.0000
30
0.0
11
-350.0611
21
192.7000
31
0.0
0
LINE
8
HACHURA
10
-372.6606
20
180.0000
30
0.0
11
-359.9606
21
192.7000
31
0.0
0
LINE
8
HACHURA
10
-382.5601
20
180.0000
30
0.0
11
-369.8601
21
192.7000
31
0.0
0
LINE
8
HACHURA
10
-392.4596
20
180.0000
30
0.0
11
-379.7596
21
192.7000
31
0.0
0
LINE
8
HACHURA
10
-399.5000
20
182.8591
30
0.0
11
-389.6591
21
192.7000
31
0.0
0
POLYLINE
8
ACO
66
1
10
0.0
20
0.0
30
0.0
70
1
0
VERTEX
8
ACO
10
-70.0000
20
192.7000
30
0.0
0
VERTEX
8
ACO
10
70.0000
20
192.7000
30
0.0
0
VERTEX
8
ACO
10
70.0000
20
622.7000
30
0.0
0
VERTEX
8
ACO
10
-70.0000
20
622.7000
30
0.0
0
SEQEND
8
ACO
0
LINE
8
OCULTA
10
-3.2000
20
192.7000
30
0.0
11
-3.2000
21
622.7000
31
0.0
0
LINE
8
OCULTA
10
3.2000
20
192.7000
30
0.0
11
3.2000
21
622.7000
31
0.0
0
LINE
8
ACO-FINO
10
-70.0000
20
622.7000
30
0.0
11
70.0000
21
622.7000
31
0.0
0
LINE
8
EIXO
10
0.0000
20
-500.0000
30
0.0
11
0.0000
21
722.7000
31
0.0
0
SOLID
8
SOLDA
10
-70.0000
20
192.7000
30
0.0
11
-62.0000
21
192.7000
31
0.0
12
-70.0000
22
200.7000
32
0.0
13
-70.0000
23
200.7000
33
0.0
0
SOLID
8
SOLDA
10
70.0000
20
192.7000
30
0.0
11
62.0000
21
192.7000
31
0.0
12
70.0000
22
200.7000
32
0.0
13
70.0000
23
200.7000
33
0.0
0
LINE
8
SOLDA
10
64.0000
20
198.7000
30
0.0
11
270.0000
21
492.7000
31
0.0
0
SOLID
8
SOLDA
10
64.0000
20
198.7000
30
0.0
11
84.4882
21
214.8705
31
0.0
12
72.2036
22
223.4780
32
0.0
13
72.2036
23
223.4780
33
0.0
0
LINE
8
SOLDA
10
270.0000
20
492.7000
30
0.0
11
490.0000
21
492.7000
31
0.0
0
SOLID
8
SOLDA
10
362.4000
20
492.7000
30
0.0
11
410.8000
21
492.7000
31
0.0
12
362.4000
22
524.7000
32
0.0
13
362.4000
23
524.7000
33
0.0
0
TEXT
8
SOLDA
10
354.4000
20
498.7000
30
0.0
40
20.0000
1
8
50
0.0000
72
2
73
0
11
354.4000
21
498.7000
31
0.0
0
TEXT
8
SOLDA
10
498.0000
20
497.7000
30
0.0
40
20.0000
1
todo o perimetro
50
0.0000
0
CIRCLE
8
SOLDA
10
270.0000
20
492.7000
30
0.0
40
16.0000
0
LINE
8
PARAFUSO
10
-74.5250
20
252.7000
30
0.0
11
-74.5250
21
-150.0000
31
0.0
0
LINE
8
PARAFUSO
10
-55.4750
20
252.7000
30
0.0
11
-55.4750
21
-150.0000
31
0.0
0
LINE
8
PARAFUSO
10
-74.5250
20
-150.0000
30
0.0
11
-165.0000
21
-150.0000
31
0.0
0
LINE
8
PARAFUSO
10
-55.4750
20
-130.9500
30
0.0
11
-165.0000
21
-130.9500
31
0.0
0
ARC
8
PARAFUSO
10
-165.0000
20
-140.4750
30
0.0
40
9.5250
50
0.0000
51
360.0000
0
POLYLINE
8
ACO
66
1
10
0.0
20
0.0
30
0.0
70
1
0
VERTEX
8
ACO
10
-90.0000
20
192.7000
30
0.0
0
VERTEX
8
ACO
10
-40.0000
20
192.7000
30
0.0
0
VERTEX
8
ACO
10
-40.0000
20
200.7000
30
0.0
0
VERTEX
8
ACO
10
-90.0000
20
200.7000
30
0.0
0
SEQEND
8
ACO
0
POLYLINE
8
PARAFUSO
66
1
10
0.0
20
0.0
30
0.0
70
1
0
VERTEX
8
PARAFUSO
10
-81.1925
20
200.7000
30
0.0
0
VERTEX
8
PARAFUSO
10
-48.8075
20
200.7000
30
0.0
0
VERTEX
8
PARAFUSO
10
-48.8075
20
215.9400
30
0.0
0
VERTEX
8
PARAFUSO
10
-81.1925
20
215.9400
30
0.0
0
SEQEND
8
PARAFUSO
0
POLYLINE
8
PARAFUSO
66
1
10
0.0
20
0.0
30
0.0
70
1
0
VERTEX
8
PARAFUSO
10
-81.1925
20
215.9400
30
0.0
0
VERTEX
8
PARAFUSO
10
-48.8075
20
215.9400
30
0.0
0
VERTEX
8
PARAFUSO
10
-48.8075
20
231.1800
30
0.0
0
VERTEX
8
PARAFUSO
10
-81.1925
20
231.1800
30
0.0
0
SEQEND
8
PARAFUSO
0
LINE
8
EIXO
10
-65.0000
20
282.7000
30
0.0
11
-65.0000
21
-190.0000
31
0.0
0
LINE
8
PARAFUSO
10
55.4750
20
252.7000
30
0.0
11
55.4750
21
-150.0000
31
0.0
0
LINE
8
PARAFUSO
10
74.5250
20
252.7000
30
0.0
11
74.5250
21
-150.0000
31
0.0
0
LINE
8
PARAFUSO
10
55.4750
20
-150.0000
30
0.0
11
165.0000
21
-150.0000
31
0.0
0
LINE
8
PARAFUSO
10
74.5250
20
-130.9500
30
0.0
11
165.0000
21
-130.9500
31
0.0
0
ARC
8
PARAFUSO
10
165.0000
20
-140.4750
30
0.0
40
9.5250
50
0.0000
51
360.0000
0
POLYLINE
8
ACO
66
1
10
0.0
20
0.0
30
0.0
70
1
0
VERTEX
8
ACO
10
40.0000
20
192.7000
30
0.0
0
VERTEX
8
ACO
10
90.0000
20
192.7000
30
0.0
0
VERTEX
8
ACO
10
90.0000
20
200.7000
30
0.0
0
VERTEX
8
ACO
10
40.0000
20
200.7000
30
0.0
0
SEQEND
8
ACO
0
POLYLINE
8
PARAFUSO
66
1
10
0.0
20
0.0
30
0.0
70
1
0
VERTEX
8
PARAFUSO
10
48.8075
20
200.7000
30
0.0
0
VERTEX
8
PARAFUSO
10
81.1925
20
200.7000
30
0.0
0
VERTEX
8
PARAFUSO
10
81.1925
20
215.9400
30
0.0
0
VERTEX
8
PARAFUSO
10
48.8075
20
215.9400
30
0.0
0
SEQEND
8
PARAFUSO
0
POLYLINE
8
PARAFUSO
66
1
10
0.0
20
0.0
30
0.0
70
1
0
VERTEX
8
PARAFUSO
10
48.8075
20
215.9400
30
0.0
0
VERTEX
8
PARAFUSO
10
81.1925
20
215.9400
30
0.0
0
VERTEX
8
PARAFUSO
10
81.1925
20
231.1800
30
0.0
0
VERTEX
8
PARAFUSO
10
48.8075
20
231.1800
30
0.0
0
SEQEND
8
PARAFUSO
0
LINE
8
EIXO
10
65.0000
20
282.7000
30
0.0
11
65.0000
21
-190.0000
31
0.0
0
LINE
8
COTA
10
-399.5000
20
-415.0000
30
0.0
11
-399.5000
21
-520.0000
31
0.0
0
LINE
8
COTA
10
399.5000
20
-415.0000
30
0.0
11
399.5000
21
-520.0000
31
0.0
0
LINE
8
COTA
10
-399.5000
20
-500.0000
30
0.0
11
399.5000
21
-500.0000
31
0.0
0
SOLID
8
COTA
10
-399.5000
20
-500.0000
30
0.0
11
-374.5000
21
-507.5000
31
0.0
12
-374.5000
22
-492.5000
32
0.0
13
-374.5000
23
-492.5000
33
0.0
0
SOLID
8
COTA
10
399.5000
20
-500.0000
30
0.0
11
374.5000
21
-492.5000
31
0.0
12
374.5000
22
-507.5000
32
0.0
13
374.5000
23
-507.5000
33
0.0
0
TEXT
8
COTA
10
0.0000
20
-486.2500
30
0.0
40
25.0000
1
799
50
0.0000
72
1
73
0
11
0.0000
21
-486.2500
31
0.0
0
LINE
8
COTA
10
-599.5000
20
-415.0000
30
0.0
11
-599.5000
21
-720.0000
31
0.0
0
LINE
8
COTA
10
599.5000
20
-415.0000
30
0.0
11
599.5000
21
-720.0000
31
0.0
0
LINE
8
COTA
10
-599.5000
20
-700.0000
30
0.0
11
599.5000
21
-700.0000
31
0.0
0
SOLID
8
COTA
10
-599.5000
20
-700.0000
30
0.0
11
-574.5000
21
-707.5000
31
0.0
12
-574.5000
22
-692.5000
32
0.0
13
-574.5000
23
-692.5000
33
0.0
0
SOLID
8
COTA
10
599.5000
20
-700.0000
30
0.0
11
574.5000
21
-692.5000
31
0.0
12
574.5000
22
-707.5000
32
0.0
13
574.5000
23
-707.5000
33
0.0
0
TEXT
8
COTA
10
0.0000
20
-689.0000
30
0.0
40
20.0000
1
1199
50
0.0000
72
1
73
0
11
0.0000
21
-689.0000
31
0.0
0
LINE
8
COTA
10
-65.0000
20
637.7000
30
0.0
11
-65.0000
21
742.7000
31
0.0
0
LINE
8
COTA
10
65.0000
20
637.7000
30
0.0
11
65.0000
21
742.7000
31
0.0
0
LINE
8
COTA
10
-65.0000
20
722.7000
30
0.0
11
65.0000
21
722.7000
31
0.0
0
SOLID
8
COTA
10
-65.0000
20
722.7000
30
0.0
11
-40.0000
21
715.2000
31
0.0
12
-40.0000
22
730.2000
32
0.0
13
-40.0000
23
730.2000
33
0.0
0
SOLID
8
COTA
10
65.0000
20
722.7000
30
0.0
11
40.0000
21
730.2000
31
0.0
12
40.0000
22
715.2000
32
0.0
13
40.0000
23
715.2000
33
0.0
0
TEXT
8
COTA
10
0.0000
20
736.4500
30
0.0
40
25.0000
1
gabarito 130
50
0.0000
72
1
73
0
11
0.0000
21
736.4500
31
0.0
0
LINE
8
COTA
10
454.5000
20
0.0000
30
0.0
11
559.5000
21
0.0000
31
0.0
0
LINE
8
COTA
10
454.5000
20
150.0000
30
0.0
11
559.5000
21
150.0000
31
0.0
0
LINE
8
COTA
10
539.5000
20
0.0000
30
0.0
11
539.5000
21
150.0000
31
0.0
0
SOLID
8
COTA
10
539.5000
20
0.0000
30
0.0
11
547.0000
21
25.0000
31
0.0
12
532.0000
22
25.0000
32
0.0
13
532.0000
23
25.0000
33
0.0
0
SOLID
8
COTA
10
539.5000
20
150.0000
30
0.0
11
532.0000
21
125.0000
31
0.0
12
547.0000
22
125.0000
32
0.0
13
547.0000
23
125.0000
33
0.0
0
TEXT
8
COTA
10
528.5000
20
75.0000
30
0.0
40
20.0000
1
150
50
90.0000
72
1
73
0
11
528.5000
21
75.0000
31
0.0
0
LINE
8
COTA
10
454.5000
20
150.0000
30
0.0
11
559.5000
21
150.0000
31
0.0
0
LINE
8
COTA
10
454.5000
20
180.0000
30
0.0
11
559.5000
21
180.0000
31
0.0
0
LINE
8
COTA
10
539.5000
20
150.0000
30
0.0
11
539.5000
21
180.0000
31
0.0
0
SOLID
8
COTA
10
539.5000
20
150.0000
30
0.0
11
542.5000
21
160.0000
31
0.0
12
536.5000
22
160.0000
32
0.0
13
536.5000
23
160.0000
33
0.0
0
SOLID
8
COTA
10
539.5000
20
180.0000
30
0.0
11
536.5000
21
170.0000
31
0.0
12
542.5000
22
170.0000
32
0.0
13
542.5000
23
170.0000
33
0.0
0
TEXT
8
COTA
10
528.5000
20
165.0000
30
0.0
40
20.0000
1
30
50
90.0000
72
1
73
0
11
528.5000
21
165.0000
31
0.0
0
LINE
8
COTA
10
454.5000
20
180.0000
30
0.0
11
559.5000
21
180.0000
31
0.0
0
LINE
8
COTA
10
454.5000
20
192.7000
30
0.0
11
559.5000
21
192.7000
31
0.0
0
LINE
8
COTA
10
539.5000
20
180.0000
30
0.0
11
539.5000
21
192.7000
31
0.0
0
SOLID
8
COTA
10
539.5000
20
180.0000
30
0.0
11
536.5000
21
170.0000
31
0.0
12
542.5000
22
170.0000
32
0.0
13
542.5000
23
170.0000
33
0.0
0
SOLID
8
COTA
10
539.5000
20
192.7000
30
0.0
11
542.5000
21
202.7000
31
0.0
12
536.5000
22
202.7000
32
0.0
13
536.5000
23
202.7000
33
0.0
0
LINE
8
COTA
10
539.5000
20
160.0000
30
0.0
11
539.5000
21
180.0000
31
0.0
0
LINE
8
COTA
10
539.5000
20
212.7000
30
0.0
11
539.5000
21
192.7000
31
0.0
0
TEXT
8
COTA
10
528.5000
20
242.3500
30
0.0
40
20.0000
1
12,7
50
90.0000
72
1
73
0
11
528.5000
21
242.3500
31
0.0
0
LINE
8
COTA
10
-454.5000
20
-150.0000
30
0.0
11
-659.5000
21
-150.0000
31
0.0
0
LINE
8
COTA
10
-454.5000
20
150.0000
30
0.0
11
-659.5000
21
150.0000
31
0.0
0
LINE
8
COTA
10
-639.5000
20
-150.0000
30
0.0
11
-639.5000
21
150.0000
31
0.0
0
SOLID
8
COTA
10
-639.5000
20
-150.0000
30
0.0
11
-632.0000
21
-125.0000
31
0.0
12
-647.0000
22
-125.0000
32
0.0
13
-647.0000
23
-125.0000
33
0.0
0
SOLID
8
COTA
10
-639.5000
20
150.0000
30
0.0
11
-647.0000
21
125.0000
31
0.0
12
-632.0000
22
125.0000
32
0.0
13
-632.0000
23
125.0000
33
0.0
0
TEXT
8
COTA
10
-653.2500
20
0.0000
30
0.0
40
25.0000
1
Lanc >= 300
50
90.0000
72
1
73
0
11
-653.2500
21
0.0000
31
0.0
0
LINE
8
TEXTO
10
-379.5000
20
186.3500
30
0.0
11
-929.5000
21
612.7000
31
0.0
0
SOLID
8
TEXTO
10
-379.5000
20
186.3500
30
0.0
11
-394.6637
21
207.5941
31
0.0
12
-403.8536
22
195.7389
32
0.0
13
-403.8536
23
195.7389
33
0.0
0
LINE
8
TEXTO
10
-929.5000
20
612.7000
30
0.0
11
-969.5000
21
612.7000
31
0.0
0
TEXT
8
TEXTO
10
-975.5000
20
621.7000
30
0.0
40
20.0000
1
PLACA DE BASE 799 x 799 x 12,7
50
0.0000
72
2
73
0
11
-975.5000
21
621.7000
31
0.0
0
TEXT
8
TEXTO
10
-975.5000
20
594.7000
30
0.0
40
20.0000
1
aco A36
50
0.0000
72
2
73
0
11
-975.5000
21
594.7000
31
0.0
0
LINE
8
TEXTO
10
-339.5000
20
165.0000
30
0.0
11
-929.5000
21
372.7000
31
0.0
0
SOLID
8
TEXTO
10
-339.5000
20
165.0000
30
0.0
11
-360.5910
21
180.3759
31
0.0
12
-365.5719
22
166.2270
32
0.0
13
-365.5719
23
166.2270
33
0.0
0
LINE
8
TEXTO
10
-929.5000
20
372.7000
30
0.0
11
-969.5000
21
372.7000
31
0.0
0
TEXT
8
TEXTO
10
-975.5000
20
381.7000
30
0.0
40
20.0000
1
GROUT 30 mm
50
0.0000
72
2
73
0
11
-975.5000
21
381.7000
31
0.0
0
TEXT
8
TEXTO
10
-975.5000
20
354.7000
30
0.0
40
20.0000
1
argamassa de alta resistencia
50
0.0000
72
2
73
0
11
-975.5000
21
354.7000
31
0.0
0
LINE
8
TEXTO
10
559.5000
20
-127.5000
30
0.0
11
799.5000
21
-157.5000
31
0.0
0
SOLID
8
TEXTO
10
559.5000
20
-127.5000
30
0.0
11
583.3767
21
-138.0430
31
0.0
12
585.2372
22
-123.1588
32
0.0
13
585.2372
23
-123.1588
33
0.0
0
LINE
8
TEXTO
10
799.5000
20
-157.5000
30
0.0
11
839.5000
21
-157.5000
31
0.0
0
TEXT
8
TEXTO
10
845.5000
20
-148.5000
30
0.0
40
20.0000
1
PEDESTAL C25
50
0.0000
0
TEXT
8
TEXTO
10
845.5000
20
-175.5000
30
0.0
40
20.0000
1
150 mm acima do piso
50
0.0000
0
TEXT
8
TEXTO
10
845.5000
20
-202.5000
30
0.0
40
20.0000
1
armar com estribos
50
0.0000
0
LINE
8
TEXTO
10
74.5250
20
-67.5000
30
0.0
11
799.5000
21
-45.0000
31
0.0
0
SOLID
8
TEXTO
10
74.5250
20
-67.5000
30
0.0
11
99.7456
21
-74.2209
31
0.0
12
99.2803
22
-59.2281
32
0.0
13
99.2803
23
-59.2281
33
0.0
0
LINE
8
TEXTO
10
799.5000
20
-45.0000
30
0.0
11
839.5000
21
-45.0000
31
0.0
0
TEXT
8
TEXTO
10
845.5000
20
-36.0000
30
0.0
40
20.0000
1
2 CHUMBADORES %%c19,1
50
0.0000
0
TEXT
8
TEXTO
10
845.5000
20
-63.0000
30
0.0
40
20.0000
1
gancho 100 mm
50
0.0000
0
LINE
8
TEXTO
10
-65.0000
20
204.7000
30
0.0
11
-929.5000
21
232.7000
31
0.0
0
SOLID
8
TEXTO
10
-65.0000
20
204.7000
30
0.0
11
-89.7441
21
213.0054
31
0.0
12
-90.2297
22
198.0132
32
0.0
13
-90.2297
23
198.0132
33
0.0
0
LINE
8
TEXTO
10
-929.5000
20
232.7000
30
0.0
11
-969.5000
21
232.7000
31
0.0
0
TEXT
8
TEXTO
10
-975.5000
20
241.7000
30
0.0
40
20.0000
1
ARRUELA 50x50x8 SOLDADA
50
0.0000
72
2
73
0
11
-975.5000
21
241.7000
31
0.0
0
TEXT
8
TEXTO
10
-975.5000
20
214.7000
30
0.0
40
20.0000
1
porca + contraporca
50
0.0000
72
2
73
0
11
-975.5000
21
214.7000
31
0.0
0
TEXT
8
TEXTO
10
0.0000
20
-790.0000
30
0.0
40
40.0000
1
ELEVACAO  (vista perpendicular ao portico)
50
0.0000
72
1
73
0
11
0.0000
21
-790.0000
31
0.0
0
LINE
8
TEXTO
10
-520.8000
20
-808.0000
30
0.0
11
520.8000
21
-808.0000
31
0.0
0
TEXT
8
TEXTO
10
0.0000
20
-850.0000
30
0.0
40
20.0000
1
ESCALA 1:10
50
0.0000
72
1
73
0
11
0.0000
21
-850.0000
31
0.0
0
POLYLINE
8
ACO
66
1
10
0.0
20
0.0
30
0.0
70
1
0
VERTEX
8
ACO
10
1559.5000
20
-56.3000
30
0.0
0
VERTEX
8
ACO
10
2358.5000
20
-56.3000
30
0.0
0
VERTEX
8
ACO
10
2358.5000
20
742.7000
30
0.0
0
VERTEX
8
ACO
10
1559.5000
20
742.7000
30
0.0
0
SEQEND
8
ACO
0
POLYLINE
8
ACO-FINO
66
1
10
0.0
20
0.0
30
0.0
70
1
0
VERTEX
8
ACO-FINO
10
1889.0000
20
143.7000
30
0.0
0
VERTEX
8
ACO-FINO
10
2029.0000
20
143.7000
30
0.0
0
VERTEX
8
ACO-FINO
10
2029.0000
20
152.5000
30
0.0
0
VERTEX
8
ACO-FINO
10
1962.2000
20
152.5000
30
0.0
0
VERTEX
8
ACO-FINO
10
1962.2000
20
533.9000
30
0.0
0
VERTEX
8
ACO-FINO
10
2029.0000
20
533.9000
30
0.0
0
VERTEX
8
ACO-FINO
10
2029.0000
20
542.7000
30
0.0
0
VERTEX
8
ACO-FINO
10
1889.0000
20
542.7000
30
0.0
0
VERTEX
8
ACO-FINO
10
1889.0000
20
533.9000
30
0.0
0
VERTEX
8
ACO-FINO
10
1955.8000
20
533.9000
30
0.0
0
VERTEX
8
ACO-FINO
10
1955.8000
20
152.5000
30
0.0
0
VERTEX
8
ACO-FINO
10
1889.0000
20
152.5000
30
0.0
0
SEQEND
8
ACO-FINO
0
LINE
8
EIXO
10
1459.5000
20
343.2000
30
0.0
11
2458.5000
21
343.2000
31
0.0
0
LINE
8
EIXO
10
1959.0000
20
-156.3000
30
0.0
11
1959.0000
21
842.7000
31
0.0
0
CIRCLE
8
FURO
10
1894.0000
20
343.2000
30
0.0
40
16.5000
0
LINE
8
EIXO
10
1861.5000
20
343.2000
30
0.0
11
1926.5000
21
343.2000
31
0.0
0
LINE
8
EIXO
10
1894.0000
20
310.7000
30
0.0
11
1894.0000
21
375.7000
31
0.0
0
POLYLINE
8
ACO-FINO
66
1
10
0.0
20
0.0
30
0.0
70
1
0
VERTEX
8
ACO-FINO
10
1869.0000
20
318.2000
30
0.0
0
VERTEX
8
ACO-FINO
10
1919.0000
20
318.2000
30
0.0
0
VERTEX
8
ACO-FINO
10
1919.0000
20
368.2000
30
0.0
0
VERTEX
8
ACO-FINO
10
1869.0000
20
368.2000
30
0.0
0
SEQEND
8
ACO-FINO
0
CIRCLE
8
FURO
10
2024.0000
20
343.2000
30
0.0
40
16.5000
0
LINE
8
EIXO
10
1991.5000
20
343.2000
30
0.0
11
2056.5000
21
343.2000
31
0.0
0
LINE
8
EIXO
10
2024.0000
20
310.7000
30
0.0
11
2024.0000
21
375.7000
31
0.0
0
POLYLINE
8
ACO-FINO
66
1
10
0.0
20
0.0
30
0.0
70
1
0
VERTEX
8
ACO-FINO
10
1999.0000
20
318.2000
30
0.0
0
VERTEX
8
ACO-FINO
10
2049.0000
20
318.2000
30
0.0
0
VERTEX
8
ACO-FINO
10
2049.0000
20
368.2000
30
0.0
0
VERTEX
8
ACO-FINO
10
1999.0000
20
368.2000
30
0.0
0
SEQEND
8
ACO-FINO
0
LINE
8
COTA
10
1559.5000
20
757.7000
30
0.0
11
1559.5000
21
962.7000
31
0.0
0
LINE
8
COTA
10
2358.5000
20
757.7000
30
0.0
11
2358.5000
21
962.7000
31
0.0
0
LINE
8
COTA
10
1559.5000
20
942.7000
30
0.0
11
2358.5000
21
942.7000
31
0.0
0
SOLID
8
COTA
10
1559.5000
20
942.7000
30
0.0
11
1584.5000
21
935.2000
31
0.0
12
1584.5000
22
950.2000
32
0.0
13
1584.5000
23
950.2000
33
0.0
0
SOLID
8
COTA
10
2358.5000
20
942.7000
30
0.0
11
2333.5000
21
950.2000
31
0.0
12
2333.5000
22
935.2000
32
0.0
13
2333.5000
23
935.2000
33
0.0
0
TEXT
8
COTA
10
1959.0000
20
956.4500
30
0.0
40
25.0000
1
B = 799
50
0.0000
72
1
73
0
11
1959.0000
21
956.4500
31
0.0
0
LINE
8
COTA
10
1894.0000
20
757.7000
30
0.0
11
1894.0000
21
862.7000
31
0.0
0
LINE
8
COTA
10
2024.0000
20
757.7000
30
0.0
11
2024.0000
21
862.7000
31
0.0
0
LINE
8
COTA
10
1894.0000
20
842.7000
30
0.0
11
2024.0000
21
842.7000
31
0.0
0
SOLID
8
COTA
10
1894.0000
20
842.7000
30
0.0
11
1919.0000
21
835.2000
31
0.0
12
1919.0000
22
850.2000
32
0.0
13
1919.0000
23
850.2000
33
0.0
0
SOLID
8
COTA
10
2024.0000
20
842.7000
30
0.0
11
1999.0000
21
850.2000
31
0.0
12
1999.0000
22
835.2000
32
0.0
13
1999.0000
23
835.2000
33
0.0
0
TEXT
8
COTA
10
1959.0000
20
856.4500
30
0.0
40
25.0000
1
130
50
0.0000
72
1
73
0
11
1959.0000
21
856.4500
31
0.0
0
LINE
8
COTA
10
2373.5000
20
-56.3000
30
0.0
11
2578.5000
21
-56.3000
31
0.0
0
LINE
8
COTA
10
2373.5000
20
742.7000
30
0.0
11
2578.5000
21
742.7000
31
0.0
0
LINE
8
COTA
10
2558.5000
20
-56.3000
30
0.0
11
2558.5000
21
742.7000
31
0.0
0
SOLID
8
COTA
10
2558.5000
20
-56.3000
30
0.0
11
2566.0000
21
-31.3000
31
0.0
12
2551.0000
22
-31.3000
32
0.0
13
2551.0000
23
-31.3000
33
0.0
0
SOLID
8
COTA
10
2558.5000
20
742.7000
30
0.0
11
2551.0000
21
717.7000
31
0.0
12
2566.0000
22
717.7000
32
0.0
13
2566.0000
23
717.7000
33
0.0
0
TEXT
8
COTA
10
2544.7500
20
343.2000
30
0.0
40
25.0000
1
L = 799
50
90.0000
72
1
73
0
11
2544.7500
21
343.2000
31
0.0
0
LINE
8
COTA
10
2373.5000
20
-56.3000
30
0.0
11
2478.5000
21
-56.3000
31
0.0
0
LINE
8
COTA
10
2373.5000
20
343.2000
30
0.0
11
2478.5000
21
343.2000
31
0.0
0
LINE
8
COTA
10
2458.5000
20
-56.3000
30
0.0
11
2458.5000
21
343.2000
31
0.0
0
SOLID
8
COTA
10
2458.5000
20
-56.3000
30
0.0
11
2466.0000
21
-31.3000
31
0.0
12
2451.0000
22
-31.3000
32
0.0
13
2451.0000
23
-31.3000
33
0.0
0
SOLID
8
COTA
10
2458.5000
20
343.2000
30
0.0
11
2451.0000
21
318.2000
31
0.0
12
2466.0000
22
318.2000
32
0.0
13
2466.0000
23
318.2000
33
0.0
0
TEXT
8
COTA
10
2447.5000
20
143.4500
30
0.0
40
20.0000
1
400
50
90.0000
72
1
73
0
11
2447.5000
21
143.4500
31
0.0
0
LINE
8
COTA
10
1559.5000
20
-71.3000
30
0.0
11
1559.5000
21
-176.3000
31
0.0
0
LINE
8
COTA
10
1894.0000
20
-71.3000
30
0.0
11
1894.0000
21
-176.3000
31
0.0
0
LINE
8
COTA
10
1559.5000
20
-156.3000
30
0.0
11
1894.0000
21
-156.3000
31
0.0
0
SOLID
8
COTA
10
1559.5000
20
-156.3000
30
0.0
11
1584.5000
21
-163.8000
31
0.0
12
1584.5000
22
-148.8000
32
0.0
13
1584.5000
23
-148.8000
33
0.0
0
SOLID
8
COTA
10
1894.0000
20
-156.3000
30
0.0
11
1869.0000
21
-148.8000
31
0.0
12
1869.0000
22
-163.8000
32
0.0
13
1869.0000
23
-163.8000
33
0.0
0
TEXT
8
COTA
10
1726.7500
20
-145.3000
30
0.0
40
20.0000
1
334
50
0.0000
72
1
73
0
11
1726.7500
21
-145.3000
31
0.0
0
LINE
8
TEXTO
10
2024.0000
20
359.7000
30
0.0
11
2658.5000
21
678.7800
31
0.0
0
SOLID
8
TEXTO
10
2024.0000
20
359.7000
30
0.0
11
2049.7044
21
364.2314
31
0.0
12
2042.9653
22
377.6323
32
0.0
13
2042.9653
23
377.6323
33
0.0
0
LINE
8
TEXTO
10
2658.5000
20
678.7800
30
0.0
11
2698.5000
21
678.7800
31
0.0
0
TEXT
8
TEXTO
10
2704.5000
20
687.7800
30
0.0
40
20.0000
1
2 FUROS %%c33
50
0.0000
0
TEXT
8
TEXTO
10
2704.5000
20
660.7800
30
0.0
40
20.0000
1
para chumbador %%c19,1
50
0.0000
0
TEXT
8
TEXTO
10
2704.5000
20
633.7800
30
0.0
40
20.0000
1
folga de montagem
50
0.0000
0
LINE
8
TEXTO
10
2001.0000
20
534.7000
30
0.0
11
1259.5000
21
678.7800
31
0.0
0
SOLID
8
TEXTO
10
2001.0000
20
534.7000
30
0.0
11
1977.8896
21
546.8308
31
0.0
12
1975.0284
22
532.1062
32
0.0
13
1975.0284
23
532.1062
33
0.0
0
LINE
8
TEXTO
10
1259.5000
20
678.7800
30
0.0
11
1219.5000
21
678.7800
31
0.0
0
TEXT
8
TEXTO
10
1213.5000
20
687.7800
30
0.0
40
20.0000
1
PILAR W 410x38,8
50
0.0000
72
2
73
0
11
1213.5000
21
687.7800
31
0.0
0
TEXT
8
TEXTO
10
1959.0000
20
-476.3000
30
0.0
40
40.0000
1
PLANTA DA PLACA
50
0.0000
72
1
73
0
11
1959.0000
21
-476.3000
31
0.0
0
LINE
8
TEXTO
10
1773.0000
20
-494.3000
30
0.0
11
2145.0000
21
-494.3000
31
0.0
0
TEXT
8
TEXTO
10
1959.0000
20
-536.3000
30
0.0
40
20.0000
1
ESCALA 1:10
50
0.0000
72
1
73
0
11
1959.0000
21
-536.3000
31
0.0
0
TEXT
8
TEXTO
10
-599.5000
20
-1060.0000
30
0.0
40
25.0000
1
NOTAS
50
0.0000
0
TEXT
8
TEXTO
10
-599.5000
20
-1094.0000
30
0.0
40
20.0000
1
1. Cotas em milimetros.
50
0.0000
0
TEXT
8
TEXTO
10
-599.5000
20
-1128.0000
30
0.0
40
20.0000
1
2. Base rotulada: chumbadores no eixo do pilar, sem braco de alavanca.
50
0.0000
0
TEXT
8
TEXTO
10
-599.5000
20
-1162.0000
30
0.0
40
20.0000
1
3. Placa 799 x 799 x 12,7 mm em A36; grout de 30 mm.
50
0.0000
0
TEXT
8
TEXTO
10
-599.5000
20
-1196.0000
30
0.0
40
20.0000
1
4. Chumbadores %%c19,1, ancoragem >= 300 mm mais gancho de 100 mm.
50
0.0000
0
TEXT
8
TEXTO
10
-599.5000
20
-1230.0000
30
0.0
40
20.0000
1
5. Furos %%c33 mm na placa (folga de montagem) com arruela 50x50x8 soldada apos o prumo.
50
0.0000
0
TEXT
8
TEXTO
10
-599.5000
20
-1264.0000
30
0.0
40
20.0000
1
6. Nivelar a placa com porcas antes do grout; conferir prumo e cota de topo.
50
0.0000
0
ENDSEC
0
EOF
