0
SECTION
2
HEADER
9
$ACADVER
1
AC1009
9
$INSUNITS
70
4
9
$EXTMIN
10
-252.5000
20
-486.1000
30
0.0
9
$EXTMAX
10
2020.7000
20
384.5000
30
0.0
9
$LTSCALE
40
1.0
9
$TEXTSTYLE
7
STANDARD
0
ENDSEC
0
SECTION
2
TABLES
0
TABLE
2
LTYPE
70
4
0
LTYPE
2
CONTINUOUS
70
0
3
Solida
72
65
73
0
40
0.0
0
LTYPE
2
CENTER
70
0
3
Linha de centro ____ _ ____ _ ____
72
65
73
4
40
31.7500
49
0.5000
49
-6.3500
49
3.1750
49
-6.3500
0
LTYPE
2
HIDDEN
70
0
3
Tracejada __ __ __ __ __ __
72
65
73
3
40
9.5250
49
0.5000
49
-6.3500
49
3.1750
0
LTYPE
2
DASHED
70
0
3
Tracejada longa ___ ___ ___
72
65
73
3
40
12.7000
49
0.5000
49
-6.3500
49
6.3500
0
ENDTAB
0
TABLE
2
LAYER
70
14
0
LAYER
2
0
70
0
62
7
6
CONTINUOUS
0
LAYER
2
ACO
70
0
62
7
6
CONTINUOUS
0
LAYER
2
ACO-FINO
70
0
62
8
6
CONTINUOUS
0
LAYER
2
EIXO
70
0
62
1
6
CENTER
0
LAYER
2
OCULTA
70
0
62
8
6
HIDDEN
0
LAYER
2
COTA
70
0
62
3
6
CONTINUOUS
0
LAYER
2
TEXTO
70
0
62
7
6
CONTINUOUS
0
LAYER
2
FURO
70
0
62
5
6
CONTINUOUS
0
LAYER
2
SOLDA
70
0
62
2
6
CONTINUOUS
0
LAYER
2
PARAFUSO
70
0
62
5
6
CONTINUOUS
0
LAYER
2
CONCRETO
70
0
62
9
6
CONTINUOUS
0
LAYER
2
HACHURA
70
0
62
8
6
CONTINUOUS
0
LAYER
2
CARIMBO
70
0
62
7
6
CONTINUOUS
0
LAYER
2
AUXILIAR
70
0
62
8
6
DASHED
0
ENDTAB
0
TABLE
2
STYLE
70
1
0
STYLE
2
STANDARD
70
0
40
0.0
41
0.85
50
0.0
71
0
42
2.5
3
txt
4

0
ENDTAB
0
ENDSEC
0
SECTION
2
ENTITIES
0
LINE
8
ACO
10
-175.2000
20
0.0000
30
0.0
11
175.2000
21
0.0000
31
0.0
0
LINE
8
ACO
10
-175.2000
20
-9.1000
30
0.0
11
175.2000
21
-9.1000
31
0.0
0
LINE
8
ACO
10
-175.2000
20
-9.1000
30
0.0
11
-175.2000
21
0.0000
31
0.0
0
LINE
8
ACO
10
175.2000
20
-9.1000
30
0.0
11
175.2000
21
0.0000
31
0.0
0
LINE
8
ACO
10
-3.0500
20
-9.1000
30
0.0
11
-3.0500
21
-116.1000
31
0.0
0
LINE
8
ACO
10
3.0500
20
-9.1000
30
0.0
11
3.0500
21
-116.1000
31
0.0
0
POLYLINE
8
ACO-FINO
66
1
10
0.0
20
0.0
30
0.0
70
0
0
VERTEX
8
ACO-FINO
10
-6.1000
20
-110.1000
30
0.0
0
VERTEX
8
ACO-FINO
10
-1.8300
20
-122.1000
30
0.0
0
VERTEX
8
ACO-FINO
10
1.8300
20
-110.1000
30
0.0
0
VERTEX
8
ACO-FINO
10
6.1000
20
-122.1000
30
0.0
0
SEQEND
8
ACO-FINO
0
POLYLINE
8
ACO
66
1
10
0.0
20
0.0
30
0.0
70
1
0
VERTEX
8
ACO
10
-109.5000
20
0.0000
30
0.0
0
VERTEX
8
ACO
10
2.3750
20
0.0000
30
0.0
0
VERTEX
8
ACO
10
2.3750
20
150.0000
30
0.0
0
VERTEX
8
ACO
10
-2.3750
20
150.0000
30
0.0
0
VERTEX
8
ACO
10
-2.3750
20
4.7500
30
0.0
0
VERTEX
8
ACO
10
-109.5000
20
4.7500
30
0.0
0
SEQEND
8
ACO
0
LINE
8
HACHURA
10
-1.8676
20
0.0000
30
0.0
11
2.3750
21
4.2426
31
0.0
0
LINE
8
HACHURA
10
-6.1103
20
0.0000
30
0.0
11
2.3750
21
8.4853
31
0.0
0
LINE
8
HACHURA
10
-10.3529
20
0.0000
30
0.0
11
-5.6029
21
4.7500
31
0.0
0
LINE
8
HACHURA
10
-2.3750
20
7.9779
30
0.0
11
2.3750
21
12.7279
31
0.0
0
LINE
8
HACHURA
10
-14.5956
20
0.0000
30
0.0
11
-9.8456
21
4.7500
31
0.0
0
LINE
8
HACHURA
10
-2.3750
20
12.2206
30
0.0
11
2.3750
21
16.9706
31
0.0
0
LINE
8
HACHURA
10
-18.8382
20
0.0000
30
0.0
11
-14.0882
21
4.7500
31
0.0
0
LINE
8
HACHURA
10
-2.3750
20
16.4632
30
0.0
11
2.3750
21
21.2132
31
0.0
0
LINE
8
HACHURA
10
-23.0808
20
0.0000
30
0.0
11
-18.3308
21
4.7500
31
0.0
0
LINE
8
HACHURA
10
-2.3750
20
20.7058
30
0.0
11
2.3750
21
25.4558
31
0.0
0
LINE
8
HACHURA
10
-27.3235
20
0.0000
30
0.0
11
-22.5735
21
4.7500
31
0.0
0
LINE
8
HACHURA
10
-2.3750
20
24.9485
30
0.0
11
2.3750
21
29.6985
31
0.0
0
LINE
8
HACHURA
10
-31.5661
20
0.0000
30
0.0
11
-26.8161
21
4.7500
31
0.0
0
LINE
8
HACHURA
10
-2.3750
20
29.1911
30
0.0
11
2.3750
21
33.9411
31
0.0
0
LINE
8
HACHURA
10
-35.8088
20
0.0000
30
0.0
11
-31.0588
21
4.7500
31
0.0
0
LINE
8
HACHURA
10
-2.3750
20
33.4338
30
0.0
11
2.3750
21
38.1838
31
0.0
0
LINE
8
HACHURA
10
-40.0514
20
0.0000
30
0.0
11
-35.3014
21
4.7500
31
0.0
0
LINE
8
HACHURA
10
-2.3750
20
37.6764
30
0.0
11
2.3750
21
42.4264
31
0.0
0
LINE
8
HACHURA
10
-44.2940
20
0.0000
30
0.0
11
-39.5440
21
4.7500
31
0.0
0
LINE
8
HACHURA
10
-2.3750
20
41.9190
30
0.0
11
2.3750
21
46.6690
31
0.0
0
LINE
8
HACHURA
10
-48.5367
20
0.0000
30
0.0
11
-43.7867
21
4.7500
31
0.0
0
LINE
8
HACHURA
10
-2.3750
20
46.1617
30
0.0
11
2.3750
21
50.9117
31
0.0
0
LINE
8
HACHURA
10
-52.7793
20
0.0000
30
0.0
11
-48.0293
21
4.7500
31
0.0
0
LINE
8
HACHURA
10
-2.3750
20
50.4043
30
0.0
11
2.3750
21
55.1543
31
0.0
0
LINE
8
HACHURA
10
-57.0220
20
0.0000
30
0.0
11
-52.2720
21
4.7500
31
0.0
0
LINE
8
HACHURA
10
-2.3750
20
54.6470
30
0.0
11
2.3750
21
59.3970
31
0.0
0
LINE
8
HACHURA
10
-61.2646
20
0.0000
30
0.0
11
-56.5146
21
4.7500
31
0.0
0
LINE
8
HACHURA
10
-2.3750
20
58.8896
30
0.0
11
2.3750
21
63.6396
31
0.0
0
LINE
8
HACHURA
10
-65.5073
20
0.0000
30
0.0
11
-60.7573
21
4.7500
31
0.0
0
LINE
8
HACHURA
10
-2.3750
20
63.1323
30
0.0
11
2.3750
21
67.8823
31
0.0
0
LINE
8
HACHURA
10
-69.7499
20
0.0000
30
0.0
11
-64.9999
21
4.7500
31
0.0
0
LINE
8
HACHURA
10
-2.3750
20
67.3749
30
0.0
11
2.3750
21
72.1249
31
0.0
0
LINE
8
HACHURA
10
-73.9925
20
0.0000
30
0.0
11
-69.2425
21
4.7500
31
0.0
0
LINE
8
HACHURA
10
-2.3750
20
71.6175
30
0.0
11
2.3750
21
76.3675
31
0.0
0
LINE
8
HACHURA
10
-78.2352
20
0.0000
30
0.0
11
-73.4852
21
4.7500
31
0.0
0
LINE
8
HACHURA
10
-2.3750
20
75.8602
30
0.0
11
2.3750
21
80.6102
31
0.0
0
LINE
8
HACHURA
10
-82.4778
20
0.0000
30
0.0
11
-77.7278
21
4.7500
31
0.0
0
LINE
8
HACHURA
10
-2.3750
20
80.1028
30
0.0
11
2.3750
21
84.8528
31
0.0
0
LINE
8
HACHURA
10
-86.7205
20
0.0000
30
0.0
11
-81.9705
21
4.7500
31
0.0
0
LINE
8
HACHURA
10
-2.3750
20
84.3455
30
0.0
11
2.3750
21
89.0955
31
0.0
0
LINE
8
HACHURA
10
-90.9631
20
0.0000
30
0.0
11
-86.2131
21
4.7500
31
0.0
0
LINE
8
HACHURA
10
-2.3750
20
88.5881
30
0.0
11
2.3750
21
93.3381
31
0.0
0
LINE
8
HACHURA
10
-95.2057
20
0.0000
30
0.0
11
-90.4557
21
4.7500
31
0.0
0
LINE
8
HACHURA
10
-2.3750
20
92.8307
30
0.0
11
2.3750
21
97.5807
31
0.0
0
LINE
8
HACHURA
10
-99.4484
20
0.0000
30
0.0
11
-94.6984
21
4.7500
31
0.0
0
LINE
8
HACHURA
10
-2.3750
20
97.0734
30
0.0
11
2.3750
21
101.8234
31
0.0
0
LINE
8
HACHURA
10
-103.6910
20
0.0000
30
0.0
11
-98.9410
21
4.7500
31
0.0
0
LINE
8
HACHURA
10
-2.3750
20
101.3160
30
0.0
11
2.3750
21
106.0660
31
0.0
0
LINE
8
HACHURA
10
-107.9337
20
0.0000
30
0.0
11
-103.1837
21
4.7500
31
0.0
0
LINE
8
HACHURA
10
-2.3750
20
105.5587
30
0.0
11
2.3750
21
110.3087
31
0.0
0
LINE
8
HACHURA
10
-109.5000
20
2.6763
30
0.0
11
-107.4263
21
4.7500
31
0.0
0
LINE
8
HACHURA
10
-2.3750
20
109.8013
30
0.0
11
2.3750
21
114.5513
31
0.0
0
LINE
8
HACHURA
10
-2.3750
20
114.0439
30
0.0
11
2.3750
21
118.7939
31
0.0
0
LINE
8
HACHURA
10
-2.3750
20
118.2866
30
0.0
11
2.3750
21
123.0366
31
0.0
0
LINE
8
HACHURA
10
-2.3750
20
122.5292
30
0.0
11
2.3750
21
127.2792
31
0.0
0
LINE
8
HACHURA
10
-2.3750
20
126.7719
30
0.0
11
2.3750
21
131.5219
31
0.0
0
LINE
8
HACHURA
10
-2.3750
20
131.0145
30
0.0
11
2.3750
21
135.7645
31
0.0
0
LINE
8
HACHURA
10
-2.3750
20
135.2571
30
0.0
11
2.3750
21
140.0071
31
0.0
0
LINE
8
HACHURA
10
-2.3750
20
139.4998
30
0.0
11
2.3750
21
144.2498
31
0.0
0
LINE
8
HACHURA
10
-2.3750
20
143.7424
30
0.0
11
2.3750
21
148.4924
31
0.0
0
LINE
8
HACHURA
10
-2.3750
20
147.9851
30
0.0
11
-0.3601
21
150.0000
31
0.0
0
POLYLINE
8
ACO
66
1
10
0.0
20
0.0
30
0.0
70
1
0
VERTEX
8
ACO
10
2.3750
20
0.0000
30
0.0
0
VERTEX
8
ACO
10
77.3750
20
0.0000
30
0.0
0
VERTEX
8
ACO
10
77.3750
20
20.0000
30
0.0
0
VERTEX
8
ACO
10
75.3750
20
20.0000
30
0.0
0
VERTEX
8
ACO
10
75.3750
20
2.0000
30
0.0
0
VERTEX
8
ACO
10
4.3750
20
2.0000
30
0.0
0
VERTEX
8
ACO
10
4.3750
20
198.0000
30
0.0
0
VERTEX
8
ACO
10
75.3750
20
198.0000
30
0.0
0
VERTEX
8
ACO
10
75.3750
20
180.0000
30
0.0
0
VERTEX
8
ACO
10
77.3750
20
180.0000
30
0.0
0
VERTEX
8
ACO
10
77.3750
20
200.0000
30
0.0
0
VERTEX
8
ACO
10
2.3750
20
200.0000
30
0.0
0
SEQEND
8
ACO
0
LINE
8
HACHURA
10
75.1123
20
0.0000
30
0.0
11
77.3750
21
2.2627
31
0.0
0
LINE
8
HACHURA
10
72.8495
20
0.0000
30
0.0
11
74.8495
21
2.0000
31
0.0
0
LINE
8
HACHURA
10
75.3750
20
2.5255
30
0.0
11
77.3750
21
4.5255
31
0.0
0
LINE
8
HACHURA
10
70.5868
20
0.0000
30
0.0
11
72.5868
21
2.0000
31
0.0
0
LINE
8
HACHURA
10
75.3750
20
4.7882
30
0.0
11
77.3750
21
6.7882
31
0.0
0
LINE
8
HACHURA
10
68.3240
20
0.0000
30
0.0
11
70.3240
21
2.0000
31
0.0
0
LINE
8
HACHURA
10
75.3750
20
7.0510
30
0.0
11
77.3750
21
9.0510
31
0.0
0
LINE
8
HACHURA
10
66.0613
20
0.0000
30
0.0
11
68.0613
21
2.0000
31
0.0
0
LINE
8
HACHURA
10
75.3750
20
9.3137
30
0.0
11
77.3750
21
11.3137
31
0.0
0
LINE
8
HACHURA
10
63.7985
20
0.0000
30
0.0
11
65.7985
21
2.0000
31
0.0
0
LINE
8
HACHURA
10
75.3750
20
11.5765
30
0.0
11
77.3750
21
13.5765
31
0.0
0
LINE
8
HACHURA
10
61.5358
20
0.0000
30
0.0
11
63.5358
21
2.0000
31
0.0
0
LINE
8
HACHURA
10
75.3750
20
13.8392
30
0.0
11
77.3750
21
15.8392
31
0.0
0
LINE
8
HACHURA
10
59.2731
20
0.0000
30
0.0
11
61.2731
21
2.0000
31
0.0
0
LINE
8
HACHURA
10
75.3750
20
16.1019
30
0.0
11
77.3750
21
18.1019
31
0.0
0
LINE
8
HACHURA
10
57.0103
20
0.0000
30
0.0
11
59.0103
21
2.0000
31
0.0
0
LINE
8
HACHURA
10
75.3750
20
18.3647
30
0.0
11
77.0103
21
20.0000
31
0.0
0
LINE
8
HACHURA
10
54.7476
20
0.0000
30
0.0
11
56.7476
21
2.0000
31
0.0
0
LINE
8
HACHURA
10
52.4848
20
0.0000
30
0.0
11
54.4848
21
2.0000
31
0.0
0
LINE
8
HACHURA
10
50.2221
20
0.0000
30
0.0
11
52.2221
21
2.0000
31
0.0
0
LINE
8
HACHURA
10
47.9594
20
0.0000
30
0.0
11
49.9594
21
2.0000
31
0.0
0
LINE
8
HACHURA
10
45.6966
20
0.0000
30
0.0
11
47.6966
21
2.0000
31
0.0
0
LINE
8
HACHURA
10
43.4339
20
0.0000
30
0.0
11
45.4339
21
2.0000
31
0.0
0
LINE
8
HACHURA
10
41.1711
20
0.0000
30
0.0
11
43.1711
21
2.0000
31
0.0
0
LINE
8
HACHURA
10
38.9084
20
0.0000
30
0.0
11
40.9084
21
2.0000
31
0.0
0
LINE
8
HACHURA
10
36.6456
20
0.0000
30
0.0
11
38.6456
21
2.0000
31
0.0
0
LINE
8
HACHURA
10
34.3829
20
0.0000
30
0.0
11
36.3829
21
2.0000
31
0.0
0
LINE
8
HACHURA
10
32.1202
20
0.0000
30
0.0
11
34.1202
21
2.0000
31
0.0
0
LINE
8
HACHURA
10
29.8574
20
0.0000
30
0.0
11
31.8574
21
2.0000
31
0.0
0
LINE
8
HACHURA
10
27.5947
20
0.0000
30
0.0
11
29.5947
21
2.0000
31
0.0
0
LINE
8
HACHURA
10
25.3319
20
0.0000
30
0.0
11
27.3319
21
2.0000
31
0.0
0
LINE
8
HACHURA
10
23.0692
20
0.0000
30
0.0
11
25.0692
21
2.0000
31
0.0
0
LINE
8
HACHURA
10
20.8065
20
0.0000
30
0.0
11
22.8065
21
2.0000
31
0.0
0
LINE
8
HACHURA
10
18.5437
20
0.0000
30
0.0
11
20.5437
21
2.0000
31
0.0
0
LINE
8
HACHURA
10
16.2810
20
0.0000
30
0.0
11
18.2810
21
2.0000
31
0.0
0
LINE
8
HACHURA
10
14.0182
20
0.0000
30
0.0
11
16.0182
21
2.0000
31
0.0
0
LINE
8
HACHURA
10
11.7555
20
0.0000
30
0.0
11
13.7555
21
2.0000
31
0.0
0
LINE
8
HACHURA
10
9.4927
20
0.0000
30
0.0
11
11.4927
21
2.0000
31
0.0
0
LINE
8
HACHURA
10
7.2300
20
0.0000
30
0.0
11
9.2300
21
2.0000
31
0.0
0
LINE
8
HACHURA
10
4.9673
20
0.0000
30
0.0
11
6.9673
21
2.0000
31
0.0
0
LINE
8
HACHURA
10
2.7045
20
0.0000
30
0.0
11
4.7045
21
2.0000
31
0.0
0
LINE
8
HACHURA
10
2.3750
20
1.9332
30
0.0
11
4.3750
21
3.9332
31
0.0
0
LINE
8
HACHURA
10
2.3750
20
4.1960
30
0.0
11
4.3750
21
6.1960
31
0.0
0
LINE
8
HACHURA
10
2.3750
20
6.4587
30
0.0
11
4.3750
21
8.4587
31
0.0
0
LINE
8
HACHURA
10
2.3750
20
8.7214
30
0.0
11
4.3750
21
10.7214
31
0.0
0
LINE
8
HACHURA
10
2.3750
20
10.9842
30
0.0
11
4.3750
21
12.9842
31
0.0
0
LINE
8
HACHURA
10
2.3750
20
13.2469
30
0.0
11
4.3750
21
15.2469
31
0.0
0
LINE
8
HACHURA
10
2.3750
20
15.5097
30
0.0
11
4.3750
21
17.5097
31
0.0
0
LINE
8
HACHURA
10
2.3750
20
17.7724
30
0.0
11
4.3750
21
19.7724
31
0.0
0
LINE
8
HACHURA
10
2.3750
20
20.0352
30
0.0
11
4.3750
21
22.0352
31
0.0
0
LINE
8
HACHURA
10
2.3750
20
22.2979
30
0.0
11
4.3750
21
24.2979
31
0.0
0
LINE
8
HACHURA
10
2.3750
20
24.5606
30
0.0
11
4.3750
21
26.5606
31
0.0
0
LINE
8
HACHURA
10
2.3750
20
26.8234
30
0.0
11
4.3750
21
28.8234
31
0.0
0
LINE
8
HACHURA
10
2.3750
20
29.0861
30
0.0
11
4.3750
21
31.0861
31
0.0
0
LINE
8
HACHURA
10
2.3750
20
31.3489
30
0.0
11
4.3750
21
33.3489
31
0.0
0
LINE
8
HACHURA
10
2.3750
20
33.6116
30
0.0
11
4.3750
21
35.6116
31
0.0
0
LINE
8
HACHURA
10
2.3750
20
35.8743
30
0.0
11
4.3750
21
37.8743
31
0.0
0
LINE
8
HACHURA
10
2.3750
20
38.1371
30
0.0
11
4.3750
21
40.1371
31
0.0
0
LINE
8
HACHURA
10
2.3750
20
40.3998
30
0.0
11
4.3750
21
42.3998
31
0.0
0
LINE
8
HACHURA
10
2.3750
20
42.6626
30
0.0
11
4.3750
21
44.6626
31
0.0
0
LINE
8
HACHURA
10
2.3750
20
44.9253
30
0.0
11
4.3750
21
46.9253
31
0.0
0
LINE
8
HACHURA
10
2.3750
20
47.1881
30
0.0
11
4.3750
21
49.1881
31
0.0
0
LINE
8
HACHURA
10
2.3750
20
49.4508
30
0.0
11
4.3750
21
51.4508
31
0.0
0
LINE
8
HACHURA
10
2.3750
20
51.7135
30
0.0
11
4.3750
21
53.7135
31
0.0
0
LINE
8
HACHURA
10
2.3750
20
53.9763
30
0.0
11
4.3750
21
55.9763
31
0.0
0
LINE
8
HACHURA
10
2.3750
20
56.2390
30
0.0
11
4.3750
21
58.2390
31
0.0
0
LINE
8
HACHURA
10
2.3750
20
58.5018
30
0.0
11
4.3750
21
60.5018
31
0.0
0
LINE
8
HACHURA
10
2.3750
20
60.7645
30
0.0
11
4.3750
21
62.7645
31
0.0
0
LINE
8
HACHURA
10
2.3750
20
63.0272
30
0.0
11
4.3750
21
65.0272
31
0.0
0
LINE
8
HACHURA
10
2.3750
20
65.2900
30
0.0
11
4.3750
21
67.2900
31
0.0
0
LINE
8
HACHURA
10
2.3750
20
67.5527
30
0.0
11
4.3750
21
69.5527
31
0.0
0
LINE
8
HACHURA
10
2.3750
20
69.8155
30
0.0
11
4.3750
21
71.8155
31
0.0
0
LINE
8
HACHURA
10
2.3750
20
72.0782
30
0.0
11
4.3750
21
74.0782
31
0.0
0
LINE
8
HACHURA
10
2.3750
20
74.3410
30
0.0
11
4.3750
21
76.3410
31
0.0
0
LINE
8
HACHURA
10
2.3750
20
76.6037
30
0.0
11
4.3750
21
78.6037
31
0.0
0
LINE
8
HACHURA
10
2.3750
20
78.8664
30
0.0
11
4.3750
21
80.8664
31
0.0
0
LINE
8
HACHURA
10
2.3750
20
81.1292
30
0.0
11
4.3750
21
83.1292
31
0.0
0
LINE
8
HACHURA
10
2.3750
20
83.3919
30
0.0
11
4.3750
21
85.3919
31
0.0
0
LINE
8
HACHURA
10
2.3750
20
85.6547
30
0.0
11
4.3750
21
87.6547
31
0.0
0
LINE
8
HACHURA
10
2.3750
20
87.9174
30
0.0
11
4.3750
21
89.9174
31
0.0
0
LINE
8
HACHURA
10
2.3750
20
90.1801
30
0.0
11
4.3750
21
92.1801
31
0.0
0
LINE
8
HACHURA
10
2.3750
20
92.4429
30
0.0
11
4.3750
21
94.4429
31
0.0
0
LINE
8
HACHURA
10
2.3750
20
94.7056
30
0.0
11
4.3750
21
96.7056
31
0.0
0
LINE
8
HACHURA
10
2.3750
20
96.9684
30
0.0
11
4.3750
21
98.9684
31
0.0
0
LINE
8
HACHURA
10
2.3750
20
99.2311
30
0.0
11
4.3750
21
101.2311
31
0.0
0
LINE
8
HACHURA
10
2.3750
20
101.4939
30
0.0
11
4.3750
21
103.4939
31
0.0
0
LINE
8
HACHURA
10
2.3750
20
103.7566
30
0.0
11
4.3750
21
105.7566
31
0.0
0
LINE
8
HACHURA
10
2.3750
20
106.0193
30
0.0
11
4.3750
21
108.0193
31
0.0
0
LINE
8
HACHURA
10
76.3557
20
180.0000
30
0.0
11
77.3750
21
181.0193
31
0.0
0
LINE
8
HACHURA
10
2.3750
20
108.2821
30
0.0
11
4.3750
21
110.2821
31
0.0
0
LINE
8
HACHURA
10
75.3750
20
181.2821
30
0.0
11
77.3750
21
183.2821
31
0.0
0
LINE
8
HACHURA
10
2.3750
20
110.5448
30
0.0
11
4.3750
21
112.5448
31
0.0
0
LINE
8
HACHURA
10
75.3750
20
183.5448
30
0.0
11
77.3750
21
185.5448
31
0.0
0
LINE
8
HACHURA
10
2.3750
20
112.8076
30
0.0
11
4.3750
21
114.8076
31
0.0
0
LINE
8
HACHURA
10
75.3750
20
185.8076
30
0.0
11
77.3750
21
187.8076
31
0.0
0
LINE
8
HACHURA
10
2.3750
20
115.0703
30
0.0
11
4.3750
21
117.0703
31
0.0
0
LINE
8
HACHURA
10
75.3750
20
188.0703
30
0.0
11
77.3750
21
190.0703
31
0.0
0
LINE
8
HACHURA
10
2.3750
20
117.3330
30
0.0
11
4.3750
21
119.3330
31
0.0
0
LINE
8
HACHURA
10
75.3750
20
190.3330
30
0.0
11
77.3750
21
192.3330
31
0.0
0
LINE
8
HACHURA
10
2.3750
20
119.5958
30
0.0
11
4.3750
21
121.5958
31
0.0
0
LINE
8
HACHURA
10
75.3750
20
192.5958
30
0.0
11
77.3750
21
194.5958
31
0.0
0
LINE
8
HACHURA
10
2.3750
20
121.8585
30
0.0
11
4.3750
21
123.8585
31
0.0
0
LINE
8
HACHURA
10
75.3750
20
194.8585
30
0.0
11
77.3750
21
196.8585
31
0.0
0
LINE
8
HACHURA
10
2.3750
20
124.1213
30
0.0
11
4.3750
21
126.1213
31
0.0
0
LINE
8
HACHURA
10
75.3750
20
197.1213
30
0.0
11
77.3750
21
199.1213
31
0.0
0
LINE
8
HACHURA
10
2.3750
20
126.3840
30
0.0
11
4.3750
21
128.3840
31
0.0
0
LINE
8
HACHURA
10
73.9910
20
198.0000
30
0.0
11
75.9910
21
200.0000
31
0.0
0
LINE
8
HACHURA
10
2.3750
20
128.6468
30
0.0
11
4.3750
21
130.6468
31
0.0
0
LINE
8
HACHURA
10
71.7282
20
198.0000
30
0.0
11
73.7282
21
200.0000
31
0.0
0
LINE
8
HACHURA
10
2.3750
20
130.9095
30
0.0
11
4.3750
21
132.9095
31
0.0
0
LINE
8
HACHURA
10
69.4655
20
198.0000
30
0.0
11
71.4655
21
200.0000
31
0.0
0
LINE
8
HACHURA
10
2.3750
20
133.1722
30
0.0
11
4.3750
21
135.1722
31
0.0
0
LINE
8
HACHURA
10
67.2028
20
198.0000
30
0.0
11
69.2028
21
200.0000
31
0.0
0
LINE
8
HACHURA
10
2.3750
20
135.4350
30
0.0
11
4.3750
21
137.4350
31
0.0
0
LINE
8
HACHURA
10
64.9400
20
198.0000
30
0.0
11
66.9400
21
200.0000
31
0.0
0
LINE
8
HACHURA
10
2.3750
20
137.6977
30
0.0
11
4.3750
21
139.6977
31
0.0
0
LINE
8
HACHURA
10
62.6773
20
198.0000
30
0.0
11
64.6773
21
200.0000
31
0.0
0
LINE
8
HACHURA
10
2.3750
20
139.9605
30
0.0
11
4.3750
21
141.9605
31
0.0
0
LINE
8
HACHURA
10
60.4145
20
198.0000
30
0.0
11
62.4145
21
200.0000
31
0.0
0
LINE
8
HACHURA
10
2.3750
20
142.2232
30
0.0
11
4.3750
21
144.2232
31
0.0
0
LINE
8
HACHURA
10
58.1518
20
198.0000
30
0.0
11
60.1518
21
200.0000
31
0.0
0
LINE
8
HACHURA
10
2.3750
20
144.4859
30
0.0
11
4.3750
21
146.4859
31
0.0
0
LINE
8
HACHURA
10
55.8891
20
198.0000
30
0.0
11
57.8891
21
200.0000
31
0.0
0
LINE
8
HACHURA
10
2.3750
20
146.7487
30
0.0
11
4.3750
21
148.7487
31
0.0
0
LINE
8
HACHURA
10
53.6263
20
198.0000
30
0.0
11
55.6263
21
200.0000
31
0.0
0
LINE
8
HACHURA
10
2.3750
20
149.0114
30
0.0
11
4.3750
21
151.0114
31
0.0
0
LINE
8
HACHURA
10
51.3636
20
198.0000
30
0.0
11
53.3636
21
200.0000
31
0.0
0
LINE
8
HACHURA
10
2.3750
20
151.2742
30
0.0
11
4.3750
21
153.2742
31
0.0
0
LINE
8
HACHURA
10
49.1008
20
198.0000
30
0.0
11
51.1008
21
200.0000
31
0.0
0
LINE
8
HACHURA
10
2.3750
20
153.5369
30
0.0
11
4.3750
21
155.5369
31
0.0
0
LINE
8
HACHURA
10
46.8381
20
198.0000
30
0.0
11
48.8381
21
200.0000
31
0.0
0
LINE
8
HACHURA
10
2.3750
20
155.7997
30
0.0
11
4.3750
21
157.7997
31
0.0
0
LINE
8
HACHURA
10
44.5753
20
198.0000
30
0.0
11
46.5753
21
200.0000
31
0.0
0
LINE
8
HACHURA
10
2.3750
20
158.0624
30
0.0
11
4.3750
21
160.0624
31
0.0
0
LINE
8
HACHURA
10
42.3126
20
198.0000
30
0.0
11
44.3126
21
200.0000
31
0.0
0
LINE
8
HACHURA
10
2.3750
20
160.3251
30
0.0
11
4.3750
21
162.3251
31
0.0
0
LINE
8
HACHURA
10
40.0499
20
198.0000
30
0.0
11
42.0499
21
200.0000
31
0.0
0
LINE
8
HACHURA
10
2.3750
20
162.5879
30
0.0
11
4.3750
21
164.5879
31
0.0
0
LINE
8
HACHURA
10
37.7871
20
198.0000
30
0.0
11
39.7871
21
200.0000
31
0.0
0
LINE
8
HACHURA
10
2.3750
20
164.8506
30
0.0
11
4.3750
21
166.8506
31
0.0
0
LINE
8
HACHURA
10
35.5244
20
198.0000
30
0.0
11
37.5244
21
200.0000
31
0.0
0
LINE
8
HACHURA
10
2.3750
20
167.1134
30
0.0
11
4.3750
21
169.1134
31
0.0
0
LINE
8
HACHURA
10
33.2616
20
198.0000
30
0.0
11
35.2616
21
200.0000
31
0.0
0
LINE
8
HACHURA
10
2.3750
20
169.3761
30
0.0
11
4.3750
21
171.3761
31
0.0
0
LINE
8
HACHURA
10
30.9989
20
198.0000
30
0.0
11
32.9989
21
200.0000
31
0.0
0
LINE
8
HACHURA
10
2.3750
20
171.6388
30
0.0
11
4.3750
21
173.6388
31
0.0
0
LINE
8
HACHURA
10
28.7362
20
198.0000
30
0.0
11
30.7362
21
200.0000
31
0.0
0
LINE
8
HACHURA
10
2.3750
20
173.9016
30
0.0
11
4.3750
21
175.9016
31
0.0
0
LINE
8
HACHURA
10
26.4734
20
198.0000
30
0.0
11
28.4734
21
200.0000
31
0.0
0
LINE
8
HACHURA
10
2.3750
20
176.1643
30
0.0
11
4.3750
21
178.1643
31
0.0
0
LINE
8
HACHURA
10
24.2107
20
198.0000
30
0.0
11
26.2107
21
200.0000
31
0.0
0
LINE
8
HACHURA
10
2.3750
20
178.4271
30
0.0
11
4.3750
21
180.4271
31
0.0
0
LINE
8
HACHURA
10
21.9479
20
198.0000
30
0.0
11
23.9479
21
200.0000
31
0.0
0
LINE
8
HACHURA
10
2.3750
20
180.6898
30
0.0
11
4.3750
21
182.6898
31
0.0
0
LINE
8
HACHURA
10
19.6852
20
198.0000
30
0.0
11
21.6852
21
200.0000
31
0.0
0
LINE
8
HACHURA
10
2.3750
20
182.9526
30
0.0
11
4.3750
21
184.9526
31
0.0
0
LINE
8
HACHURA
10
17.4224
20
198.0000
30
0.0
11
19.4224
21
200.0000
31
0.0
0
LINE
8
HACHURA
10
2.3750
20
185.2153
30
0.0
11
4.3750
21
187.2153
31
0.0
0
LINE
8
HACHURA
10
15.1597
20
198.0000
30
0.0
11
17.1597
21
200.0000
31
0.0
0
LINE
8
HACHURA
10
2.3750
20
187.4780
30
0.0
11
4.3750
21
189.4780
31
0.0
0
LINE
8
HACHURA
10
12.8970
20
198.0000
30
0.0
11
14.8970
21
200.0000
31
0.0
0
LINE
8
HACHURA
10
2.3750
20
189.7408
30
0.0
11
4.3750
21
191.7408
31
0.0
0
LINE
8
HACHURA
10
10.6342
20
198.0000
30
0.0
11
12.6342
21
200.0000
31
0.0
0
LINE
8
HACHURA
10
2.3750
20
192.0035
30
0.0
11
4.3750
21
194.0035
31
0.0
0
LINE
8
HACHURA
10
8.3715
20
198.0000
30
0.0
11
10.3715
21
200.0000
31
0.0
0
LINE
8
HACHURA
10
2.3750
20
194.2663
30
0.0
11
4.3750
21
196.2663
31
0.0
0
LINE
8
HACHURA
10
6.1087
20
198.0000
30
0.0
11
8.1087
21
200.0000
31
0.0
0
LINE
8
HACHURA
10
2.3750
20
196.5290
30
0.0
11
5.8460
21
200.0000
31
0.0
0
LINE
8
HACHURA
10
2.3750
20
198.7917
30
0.0
11
3.5833
21
200.0000
31
0.0
0
CIRCLE
8
PARAFUSO
10
0.0000
20
48.0000
30
0.0
40
6.3500
0
LINE
8
PARAFUSO
10
-6.0325
20
41.9675
30
0.0
11
6.0325
21
54.0325
31
0.0
0
LINE
8
PARAFUSO
10
-6.0325
20
54.0325
30
0.0
11
6.0325
21
41.9675
31
0.0
0
LINE
8
EIXO
10
-35.3950
20
48.0000
30
0.0
11
35.3950
21
48.0000
31
0.0
0
CIRCLE
8
PARAFUSO
10
0.0000
20
114.0000
30
0.0
40
6.3500
0
LINE
8
PARAFUSO
10
-6.0325
20
107.9675
30
0.0
11
6.0325
21
120.0325
31
0.0
0
LINE
8
PARAFUSO
10
-6.0325
20
120.0325
30
0.0
11
6.0325
21
107.9675
31
0.0
0
LINE
8
EIXO
10
-35.3950
20
114.0000
30
0.0
11
35.3950
21
114.0000
31
0.0
0
LINE
8
SOLDA
10
-60.2250
20
2.3750
30
0.0
11
198.5500
21
-90.0000
31
0.0
0
SOLID
8
SOLDA
10
-60.2250
20
2.3750
30
0.0
11
-49.7133
21
-5.3591
31
0.0
12
-47.1919
22
1.7043
32
0.0
13
-47.1919
23
1.7043
33
0.0
0
LINE
8
SOLDA
10
198.5500
20
-90.0000
30
0.0
11
308.5500
21
-90.0000
31
0.0
0
SOLID
8
SOLDA
10
244.7500
20
-90.0000
30
0.0
11
268.9500
21
-90.0000
31
0.0
12
244.7500
22
-74.0000
32
0.0
13
244.7500
23
-74.0000
33
0.0
0
TEXT
8
SOLDA
10
240.7500
20
-87.0000
30
0.0
40
10.0000
1
5
50
0.0000
72
2
73
0
11
240.7500
21
-87.0000
31
0.0
0
TEXT
8
SOLDA
10
312.5500
20
-87.5000
30
0.0
40
10.0000
1
2 lados, na mesa
50
0.0000
0
LINE
8
COTA
10
-117.0000
20
0.0000
30
0.0
11
-169.5000
21
0.0000
31
0.0
0
LINE
8
COTA
10
-117.0000
20
150.0000
30
0.0
11
-169.5000
21
150.0000
31
0.0
0
LINE
8
COTA
10
-159.5000
20
0.0000
30
0.0
11
-159.5000
21
150.0000
31
0.0
0
SOLID
8
COTA
10
-159.5000
20
0.0000
30
0.0
11
-155.7500
21
12.5000
31
0.0
12
-163.2500
22
12.5000
32
0.0
13
-163.2500
23
12.5000
33
0.0
0
SOLID
8
COTA
10
-159.5000
20
150.0000
30
0.0
11
-163.2500
21
137.5000
31
0.0
12
-155.7500
22
137.5000
32
0.0
13
-155.7500
23
137.5000
33
0.0
0
TEXT
8
COTA
10
-166.3750
20
75.0000
30
0.0
40
12.5000
1
hch = 150
50
90.0000
72
1
73
0
11
-166.3750
21
75.0000
31
0.0
0
LINE
8
COTA
10
84.8750
20
0.0000
30
0.0
11
137.3750
21
0.0000
31
0.0
0
LINE
8
COTA
10
84.8750
20
200.0000
30
0.0
11
137.3750
21
200.0000
31
0.0
0
LINE
8
COTA
10
127.3750
20
0.0000
30
0.0
11
127.3750
21
200.0000
31
0.0
0
SOLID
8
COTA
10
127.3750
20
0.0000
30
0.0
11
131.1250
21
12.5000
31
0.0
12
123.6250
22
12.5000
32
0.0
13
123.6250
23
12.5000
33
0.0
0
SOLID
8
COTA
10
127.3750
20
200.0000
30
0.0
11
123.6250
21
187.5000
31
0.0
12
131.1250
22
187.5000
32
0.0
13
131.1250
23
187.5000
33
0.0
0
TEXT
8
COTA
10
120.5000
20
100.0000
30
0.0
40
12.5000
1
200
50
90.0000
72
1
73
0
11
120.5000
21
100.0000
31
0.0
0
LINE
8
COTA
10
-109.5000
20
-16.6000
30
0.0
11
-109.5000
21
-69.1000
31
0.0
0
LINE
8
COTA
10
2.3750
20
-16.6000
30
0.0
11
2.3750
21
-69.1000
31
0.0
0
LINE
8
COTA
10
-109.5000
20
-59.1000
30
0.0
11
2.3750
21
-59.1000
31
0.0
0
SOLID
8
COTA
10
-109.5000
20
-59.1000
30
0.0
11
-97.0000
21
-62.8500
31
0.0
12
-97.0000
22
-55.3500
32
0.0
13
-97.0000
23
-55.3500
33
0.0
0
SOLID
8
COTA
10
2.3750
20
-59.1000
30
0.0
11
-10.1250
21
-55.3500
31
0.0
12
-10.1250
22
-62.8500
32
0.0
13
-10.1250
23
-62.8500
33
0.0
0
TEXT
8
COTA
10
-53.5625
20
-52.2250
30
0.0
40
12.5000
1
112
50
0.0000
72
1
73
0
11
-53.5625
21
-52.2250
31
0.0
0
LINE
8
COTA
10
9.8750
20
0.0000
30
0.0
11
112.3750
21
0.0000
31
0.0
0
LINE
8
COTA
10
9.8750
20
48.0000
30
0.0
11
112.3750
21
48.0000
31
0.0
0
LINE
8
COTA
10
102.3750
20
0.0000
30
0.0
11
102.3750
21
48.0000
31
0.0
0
SOLID
8
COTA
10
102.3750
20
0.0000
30
0.0
11
105.9750
21
12.0000
31
0.0
12
98.7750
22
12.0000
32
0.0
13
98.7750
23
12.0000
33
0.0
0
SOLID
8
COTA
10
102.3750
20
48.0000
30
0.0
11
98.7750
21
36.0000
31
0.0
12
105.9750
22
36.0000
32
0.0
13
105.9750
23
36.0000
33
0.0
0
TEXT
8
COTA
10
96.8750
20
24.0000
30
0.0
40
10.0000
1
48
50
90.0000
72
1
73
0
11
96.8750
21
24.0000
31
0.0
0
LINE
8
COTA
10
9.8750
20
48.0000
30
0.0
11
112.3750
21
48.0000
31
0.0
0
LINE
8
COTA
10
9.8750
20
114.0000
30
0.0
11
112.3750
21
114.0000
31
0.0
0
LINE
8
COTA
10
102.3750
20
48.0000
30
0.0
11
102.3750
21
114.0000
31
0.0
0
SOLID
8
COTA
10
102.3750
20
48.0000
30
0.0
11
106.1250
21
60.5000
31
0.0
12
98.6250
22
60.5000
32
0.0
13
98.6250
23
60.5000
33
0.0
0
SOLID
8
COTA
10
102.3750
20
114.0000
30
0.0
11
98.6250
21
101.5000
31
0.0
12
106.1250
22
101.5000
32
0.0
13
106.1250
23
101.5000
33
0.0
0
TEXT
8
COTA
10
96.8750
20
81.0000
30
0.0
40
10.0000
1
66
50
90.0000
72
1
73
0
11
96.8750
21
81.0000
31
0.0
0
LINE
8
TEXTO
10
0.0000
20
114.0000
30
0.0
11
-209.5000
21
310.0000
31
0.0
0
SOLID
8
TEXTO
10
0.0000
20
114.0000
30
0.0
11
-6.5661
21
125.2783
31
0.0
12
-11.6900
22
119.8014
32
0.0
13
-11.6900
23
119.8014
33
0.0
0
LINE
8
TEXTO
10
-209.5000
20
310.0000
30
0.0
11
-229.5000
21
310.0000
31
0.0
0
TEXT
8
TEXTO
10
-232.5000
20
314.5000
30
0.0
40
10.0000
1
2 PARAFUSOS %%c12,7
50
0.0000
72
2
73
0
11
-232.5000
21
314.5000
31
0.0
0
TEXT
8
TEXTO
10
-232.5000
20
301.0000
30
0.0
40
10.0000
1
A307 ou A325
50
0.0000
72
2
73
0
11
-232.5000
21
301.0000
31
0.0
0
LINE
8
TEXTO
10
-2.3750
20
78.0000
30
0.0
11
-209.5000
21
230.0000
31
0.0
0
SOLID
8
TEXTO
10
-2.3750
20
78.0000
30
0.0
11
-10.2339
21
88.4187
31
0.0
12
-14.6712
22
82.3722
32
0.0
13
-14.6712
23
82.3722
33
0.0
0
LINE
8
TEXTO
10
-209.5000
20
230.0000
30
0.0
11
-229.5000
21
230.0000
31
0.0
0
TEXT
8
TEXTO
10
-232.5000
20
234.5000
30
0.0
40
10.0000
1
CHAPA DOBRADA t = 4,75
50
0.0000
72
2
73
0
11
-232.5000
21
234.5000
31
0.0
0
LINE
8
TEXTO
10
66.1250
20
160.0000
30
0.0
11
127.3750
21
350.0000
31
0.0
0
SOLID
8
TEXTO
10
66.1250
20
160.0000
30
0.0
11
73.5294
21
170.7465
31
0.0
12
66.3911
22
173.0477
32
0.0
13
66.3911
23
173.0477
33
0.0
0
LINE
8
TEXTO
10
127.3750
20
350.0000
30
0.0
11
147.3750
21
350.0000
31
0.0
0
TEXT
8
TEXTO
10
150.3750
20
354.5000
30
0.0
40
10.0000
1
TERCA  Ue 200x75x20x2,00
50
0.0000
0
LINE
8
TEXTO
10
-140.1600
20
-4.5500
30
0.0
11
-209.5000
21
-30.0000
31
0.0
0
SOLID
8
TEXTO
10
-140.1600
20
-4.5500
30
0.0
11
-153.1867
21
-5.3366
31
0.0
12
-150.6025
22
-12.3773
32
0.0
13
-150.6025
23
-12.3773
33
0.0
0
LINE
8
TEXTO
10
-209.5000
20
-30.0000
30
0.0
11
-229.5000
21
-30.0000
31
0.0
0
TEXT
8
TEXTO
10
-232.5000
20
-25.5000
30
0.0
40
10.0000
1
VIGA DO PORTICO
50
0.0000
72
2
73
0
11
-232.5000
21
-25.5000
31
0.0
0
TEXT
8
TEXTO
10
-232.5000
20
-39.0000
30
0.0
40
10.0000
1
W 250x32,7
50
0.0000
72
2
73
0
11
-232.5000
21
-39.0000
31
0.0
0
TEXT
8
TEXTO
10
0.0000
20
-296.1000
30
0.0
40
20.0000
1
VISTA A - CORTE PERPENDICULAR A TERCA
50
0.0000
72
1
73
0
11
0.0000
21
-296.1000
31
0.0
0
LINE
8
TEXTO
10
-229.4000
20
-305.1000
30
0.0
11
229.4000
21
-305.1000
31
0.0
0
TEXT
8
TEXTO
10
0.0000
20
-326.1000
30
0.0
40
10.0000
1
ESCALA 1:5
50
0.0000
72
1
73
0
11
0.0000
21
-326.1000
31
0.0
0
LINE
8
ACO
10
430.2000
20
0.0000
30
0.0
11
940.2000
21
0.0000
31
0.0
0
LINE
8
ACO
10
430.2000
20
-9.1000
30
0.0
11
940.2000
21
-9.1000
31
0.0
0
POLYLINE
8
ACO
66
1
10
0.0
20
0.0
30
0.0
70
1
0
VERTEX
8
ACO
10
595.2000
20
0.0000
30
0.0
0
VERTEX
8
ACO
10
775.2000
20
0.0000
30
0.0
0
VERTEX
8
ACO
10
775.2000
20
150.0000
30
0.0
0
VERTEX
8
ACO
10
595.2000
20
150.0000
30
0.0
0
SEQEND
8
ACO
0
LINE
8
ACO
10
677.7000
20
0.0000
30
0.0
11
437.7000
21
0.0000
31
0.0
0
LINE
8
ACO
10
677.7000
20
200.0000
30
0.0
11
437.7000
21
200.0000
31
0.0
0
LINE
8
ACO
10
677.7000
20
0.0000
30
0.0
11
677.7000
21
200.0000
31
0.0
0
LINE
8
ACO-FINO
10
677.7000
20
2.0000
30
0.0
11
437.7000
21
2.0000
31
0.0
0
LINE
8
ACO-FINO
10
677.7000
20
198.0000
30
0.0
11
437.7000
21
198.0000
31
0.0
0
LINE
8
ACO
10
692.7000
20
0.0000
30
0.0
11
932.7000
21
0.0000
31
0.0
0
LINE
8
ACO
10
692.7000
20
200.0000
30
0.0
11
932.7000
21
200.0000
31
0.0
0
LINE
8
ACO
10
692.7000
20
0.0000
30
0.0
11
692.7000
21
200.0000
31
0.0
0
LINE
8
ACO-FINO
10
692.7000
20
2.0000
30
0.0
11
932.7000
21
2.0000
31
0.0
0
LINE
8
ACO-FINO
10
692.7000
20
198.0000
30
0.0
11
932.7000
21
198.0000
31
0.0
0
ARC
8
FURO
10
631.2000
20
81.0000
30
0.0
40
7.3500
50
90.0000
51
270.0000
0
ARC
8
FURO
10
639.2000
20
81.0000
30
0.0
40
7.3500
50
270.0000
51
90.0000
0
LINE
8
FURO
10
631.2000
20
88.3500
30
0.0
11
639.2000
21
88.3500
31
0.0
0
LINE
8
FURO
10
631.2000
20
73.6500
30
0.0
11
639.2000
21
73.6500
31
0.0
0
CIRCLE
8
PARAFUSO
10
635.2000
20
81.0000
30
0.0
40
6.3500
0
LINE
8
PARAFUSO
10
629.1675
20
74.9675
30
0.0
11
641.2325
21
87.0325
31
0.0
0
LINE
8
PARAFUSO
10
629.1675
20
87.0325
30
0.0
11
641.2325
21
74.9675
31
0.0
0
ARC
8
FURO
10
731.2000
20
81.0000
30
0.0
40
7.3500
50
90.0000
51
270.0000
0
ARC
8
FURO
10
739.2000
20
81.0000
30
0.0
40
7.3500
50
270.0000
51
90.0000
0
LINE
8
FURO
10
731.2000
20
88.3500
30
0.0
11
739.2000
21
88.3500
31
0.0
0
LINE
8
FURO
10
731.2000
20
73.6500
30
0.0
11
739.2000
21
73.6500
31
0.0
0
CIRCLE
8
PARAFUSO
10
735.2000
20
81.0000
30
0.0
40
6.3500
0
LINE
8
PARAFUSO
10
729.1675
20
74.9675
30
0.0
11
741.2325
21
87.0325
31
0.0
0
LINE
8
PARAFUSO
10
729.1675
20
87.0325
30
0.0
11
741.2325
21
74.9675
31
0.0
0
LINE
8
COTA
10
635.2000
20
157.5000
30
0.0
11
635.2000
21
210.0000
31
0.0
0
LINE
8
COTA
10
735.2000
20
157.5000
30
0.0
11
735.2000
21
210.0000
31
0.0
0
LINE
8
COTA
10
635.2000
20
200.0000
30
0.0
11
735.2000
21
200.0000
31
0.0
0
SOLID
8
COTA
10
635.2000
20
200.0000
30
0.0
11
647.7000
21
196.2500
31
0.0
12
647.7000
22
203.7500
32
0.0
13
647.7000
23
203.7500
33
0.0
0
SOLID
8
COTA
10
735.2000
20
200.0000
30
0.0
11
722.7000
21
203.7500
31
0.0
12
722.7000
22
196.2500
32
0.0
13
722.7000
23
196.2500
33
0.0
0
TEXT
8
COTA
10
685.2000
20
206.8750
30
0.0
40
12.5000
1
100
50
0.0000
72
1
73
0
11
685.2000
21
206.8750
31
0.0
0
LINE
8
COTA
10
677.7000
20
207.5000
30
0.0
11
677.7000
21
310.0000
31
0.0
0
LINE
8
COTA
10
692.7000
20
207.5000
30
0.0
11
692.7000
21
310.0000
31
0.0
0
LINE
8
COTA
10
677.7000
20
300.0000
30
0.0
11
692.7000
21
300.0000
31
0.0
0
SOLID
8
COTA
10
677.7000
20
300.0000
30
0.0
11
682.7000
21
298.5000
31
0.0
12
682.7000
22
301.5000
32
0.0
13
682.7000
23
301.5000
33
0.0
0
SOLID
8
COTA
10
692.7000
20
300.0000
30
0.0
11
687.7000
21
301.5000
31
0.0
12
687.7000
22
298.5000
32
0.0
13
687.7000
23
298.5000
33
0.0
0
TEXT
8
COTA
10
685.2000
20
306.8750
30
0.0
40
12.5000
1
folga 15
50
0.0000
72
1
73
0
11
685.2000
21
306.8750
31
0.0
0
LINE
8
COTA
10
595.2000
20
-16.6000
30
0.0
11
595.2000
21
-69.1000
31
0.0
0
LINE
8
COTA
10
775.2000
20
-16.6000
30
0.0
11
775.2000
21
-69.1000
31
0.0
0
LINE
8
COTA
10
595.2000
20
-59.1000
30
0.0
11
775.2000
21
-59.1000
31
0.0
0
SOLID
8
COTA
10
595.2000
20
-59.1000
30
0.0
11
607.7000
21
-62.8500
31
0.0
12
607.7000
22
-55.3500
32
0.0
13
607.7000
23
-55.3500
33
0.0
0
SOLID
8
COTA
10
775.2000
20
-59.1000
30
0.0
11
762.7000
21
-55.3500
31
0.0
12
762.7000
22
-62.8500
32
0.0
13
762.7000
23
-62.8500
33
0.0
0
TEXT
8
COTA
10
685.2000
20
-52.2250
30
0.0
40
12.5000
1
180
50
0.0000
72
1
73
0
11
685.2000
21
-52.2250
31
0.0
0
LINE
8
TEXTO
10
735.2000
20
88.3500
30
0.0
11
925.2000
21
230.0000
31
0.0
0
SOLID
8
TEXTO
10
735.2000
20
88.3500
30
0.0
11
747.4629
21
92.8148
31
0.0
12
742.9801
22
98.8277
32
0.0
13
742.9801
23
98.8277
33
0.0
0
LINE
8
TEXTO
10
925.2000
20
230.0000
30
0.0
11
945.2000
21
230.0000
31
0.0
0
TEXT
8
TEXTO
10
948.2000
20
234.5000
30
0.0
40
10.0000
1
FURO OBLONGO 23 x 15
50
0.0000
0
TEXT
8
TEXTO
10
948.2000
20
221.0000
30
0.0
40
10.0000
1
na chapa, nunca na terca
50
0.0000
0
LINE
8
TEXTO
10
517.2000
20
100.0000
30
0.0
11
387.6000
21
-30.0000
31
0.0
0
SOLID
8
TEXTO
10
517.2000
20
100.0000
30
0.0
11
505.7191
21
93.7951
31
0.0
12
511.0305
22
88.5000
32
0.0
13
511.0305
23
88.5000
33
0.0
0
LINE
8
TEXTO
10
387.6000
20
-30.0000
30
0.0
11
367.6000
21
-30.0000
31
0.0
0
TEXT
8
TEXTO
10
364.6000
20
-25.5000
30
0.0
40
10.0000
1
TERCAS SIMPLESMENTE APOIADAS
50
0.0000
72
2
73
0
11
364.6000
21
-25.5000
31
0.0
0
TEXT
8
TEXTO
10
685.2000
20
-296.1000
30
0.0
40
20.0000
1
VISTA B - AO LONGO DA TERCA
50
0.0000
72
1
73
0
11
685.2000
21
-296.1000
31
0.0
0
LINE
8
TEXTO
10
517.8000
20
-305.1000
30
0.0
11
852.6000
21
-305.1000
31
0.0
0
TEXT
8
TEXTO
10
685.2000
20
-326.1000
30
0.0
40
10.0000
1
ESCALA 1:5
50
0.0000
72
1
73
0
11
685.2000
21
-326.1000
31
0.0
0
POLYLINE
8
ACO
66
1
10
0.0
20
0.0
30
0.0
70
1
0
VERTEX
8
ACO
10
1195.2000
20
0.0000
30
0.0
0
VERTEX
8
ACO
10
1270.2000
20
0.0000
30
0.0
0
VERTEX
8
ACO
10
1270.2000
20
20.0000
30
0.0
0
VERTEX
8
ACO
10
1268.2000
20
20.0000
30
0.0
0
VERTEX
8
ACO
10
1268.2000
20
2.0000
30
0.0
0
VERTEX
8
ACO
10
1197.2000
20
2.0000
30
0.0
0
VERTEX
8
ACO
10
1197.2000
20
198.0000
30
0.0
0
VERTEX
8
ACO
10
1268.2000
20
198.0000
30
0.0
0
VERTEX
8
ACO
10
1268.2000
20
180.0000
30
0.0
0
VERTEX
8
ACO
10
1270.2000
20
180.0000
30
0.0
0
VERTEX
8
ACO
10
1270.2000
20
200.0000
30
0.0
0
VERTEX
8
ACO
10
1195.2000
20
200.0000
30
0.0
0
SEQEND
8
ACO
0
LINE
8
HACHURA
10
1267.9373
20
0.0000
30
0.0
11
1270.2000
21
2.2627
31
0.0
0
LINE
8
HACHURA
10
1265.6745
20
0.0000
30
0.0
11
1267.6745
21
2.0000
31
0.0
0
LINE
8
HACHURA
10
1268.2000
20
2.5255
30
0.0
11
1270.2000
21
4.5255
31
0.0
0
LINE
8
HACHURA
10
1263.4118
20
0.0000
30
0.0
11
1265.4118
21
2.0000
31
0.0
0
LINE
8
HACHURA
10
1268.2000
20
4.7882
30
0.0
11
1270.2000
21
6.7882
31
0.0
0
LINE
8
HACHURA
10
1261.1490
20
0.0000
30
0.0
11
1263.1490
21
2.0000
31
0.0
0
LINE
8
HACHURA
10
1268.2000
20
7.0510
30
0.0
11
1270.2000
21
9.0510
31
0.0
0
LINE
8
HACHURA
10
1258.8863
20
0.0000
30
0.0
11
1260.8863
21
2.0000
31
0.0
0
LINE
8
HACHURA
10
1268.2000
20
9.3137
30
0.0
11
1270.2000
21
11.3137
31
0.0
0
LINE
8
HACHURA
10
1256.6235
20
0.0000
30
0.0
11
1258.6235
21
2.0000
31
0.0
0
LINE
8
HACHURA
10
1268.2000
20
11.5765
30
0.0
11
1270.2000
21
13.5765
31
0.0
0
LINE
8
HACHURA
10
1254.3608
20
0.0000
30
0.0
11
1256.3608
21
2.0000
31
0.0
0
LINE
8
HACHURA
10
1268.2000
20
13.8392
30
0.0
11
1270.2000
21
15.8392
31
0.0
0
LINE
8
HACHURA
10
1252.0981
20
0.0000
30
0.0
11
1254.0981
21
2.0000
31
0.0
0
LINE
8
HACHURA
10
1268.2000
20
16.1019
30
0.0
11
1270.2000
21
18.1019
31
0.0
0
LINE
8
HACHURA
10
1249.8353
20
0.0000
30
0.0
11
1251.8353
21
2.0000
31
0.0
0
LINE
8
HACHURA
10
1268.2000
20
18.3647
30
0.0
11
1269.8353
21
20.0000
31
0.0
0
LINE
8
HACHURA
10
1247.5726
20
0.0000
30
0.0
11
1249.5726
21
2.0000
31
0.0
0
LINE
8
HACHURA
10
1245.3098
20
0.0000
30
0.0
11
1247.3098
21
2.0000
31
0.0
0
LINE
8
HACHURA
10
1243.0471
20
0.0000
30
0.0
11
1245.0471
21
2.0000
31
0.0
0
LINE
8
HACHURA
10
1240.7844
20
0.0000
30
0.0
11
1242.7844
21
2.0000
31
0.0
0
LINE
8
HACHURA
10
1238.5216
20
0.0000
30
0.0
11
1240.5216
21
2.0000
31
0.0
0
LINE
8
HACHURA
10
1236.2589
20
0.0000
30
0.0
11
1238.2589
21
2.0000
31
0.0
0
LINE
8
HACHURA
10
1233.9961
20
0.0000
30
0.0
11
1235.9961
21
2.0000
31
0.0
0
LINE
8
HACHURA
10
1231.7334
20
0.0000
30
0.0
11
1233.7334
21
2.0000
31
0.0
0
LINE
8
HACHURA
10
1229.4706
20
0.0000
30
0.0
11
1231.4706
21
2.0000
31
0.0
0
LINE
8
HACHURA
10
1227.2079
20
0.0000
30
0.0
11
1229.2079
21
2.0000
31
0.0
0
LINE
8
HACHURA
10
1224.9452
20
0.0000
30
0.0
11
1226.9452
21
2.0000
31
0.0
0
LINE
8
HACHURA
10
1222.6824
20
0.0000
30
0.0
11
1224.6824
21
2.0000
31
0.0
0
LINE
8
HACHURA
10
1220.4197
20
0.0000
30
0.0
11
1222.4197
21
2.0000
31
0.0
0
LINE
8
HACHURA
10
1218.1569
20
0.0000
30
0.0
11
1220.1569
21
2.0000
31
0.0
0
LINE
8
HACHURA
10
1215.8942
20
0.0000
30
0.0
11
1217.8942
21
2.0000
31
0.0
0
LINE
8
HACHURA
10
1213.6315
20
0.0000
30
0.0
11
1215.6315
21
2.0000
31
0.0
0
LINE
8
HACHURA
10
1211.3687
20
0.0000
30
0.0
11
1213.3687
21
2.0000
31
0.0
0
LINE
8
HACHURA
10
1209.1060
20
0.0000
30
0.0
11
1211.1060
21
2.0000
31
0.0
0
LINE
8
HACHURA
10
1206.8432
20
0.0000
30
0.0
11
1208.8432
21
2.0000
31
0.0
0
LINE
8
HACHURA
10
1204.5805
20
0.0000
30
0.0
11
1206.5805
21
2.0000
31
0.0
0
LINE
8
HACHURA
10
1202.3177
20
0.0000
30
0.0
11
1204.3177
21
2.0000
31
0.0
0
LINE
8
HACHURA
10
1200.0550
20
0.0000
30
0.0
11
1202.0550
21
2.0000
31
0.0
0
LINE
8
HACHURA
10
1197.7923
20
0.0000
30
0.0
11
1199.7923
21
2.0000
31
0.0
0
LINE
8
HACHURA
10
1195.5295
20
0.0000
30
0.0
11
1197.5295
21
2.0000
31
0.0
0
LINE
8
HACHURA
10
1195.2000
20
1.9332
30
0.0
11
1197.2000
21
3.9332
31
0.0
0
LINE
8
HACHURA
10
1195.2000
20
4.1960
30
0.0
11
1197.2000
21
6.1960
31
0.0
0
LINE
8
HACHURA
10
1195.2000
20
6.4587
30
0.0
11
1197.2000
21
8.4587
31
0.0
0
LINE
8
HACHURA
10
1195.2000
20
8.7214
30
0.0
11
1197.2000
21
10.7214
31
0.0
0
LINE
8
HACHURA
10
1195.2000
20
10.9842
30
0.0
11
1197.2000
21
12.9842
31
0.0
0
LINE
8
HACHURA
10
1195.2000
20
13.2469
30
0.0
11
1197.2000
21
15.2469
31
0.0
0
LINE
8
HACHURA
10
1195.2000
20
15.5097
30
0.0
11
1197.2000
21
17.5097
31
0.0
0
LINE
8
HACHURA
10
1195.2000
20
17.7724
30
0.0
11
1197.2000
21
19.7724
31
0.0
0
LINE
8
HACHURA
10
1195.2000
20
20.0352
30
0.0
11
1197.2000
21
22.0352
31
0.0
0
LINE
8
HACHURA
10
1195.2000
20
22.2979
30
0.0
11
1197.2000
21
24.2979
31
0.0
0
LINE
8
HACHURA
10
1195.2000
20
24.5606
30
0.0
11
1197.2000
21
26.5606
31
0.0
0
LINE
8
HACHURA
10
1195.2000
20
26.8234
30
0.0
11
1197.2000
21
28.8234
31
0.0
0
LINE
8
HACHURA
10
1195.2000
20
29.0861
30
0.0
11
1197.2000
21
31.0861
31
0.0
0
LINE
8
HACHURA
10
1195.2000
20
31.3489
30
0.0
11
1197.2000
21
33.3489
31
0.0
0
LINE
8
HACHURA
10
1195.2000
20
33.6116
30
0.0
11
1197.2000
21
35.6116
31
0.0
0
LINE
8
HACHURA
10
1195.2000
20
35.8743
30
0.0
11
1197.2000
21
37.8743
31
0.0
0
LINE
8
HACHURA
10
1195.2000
20
38.1371
30
0.0
11
1197.2000
21
40.1371
31
0.0
0
LINE
8
HACHURA
10
1195.2000
20
40.3998
30
0.0
11
1197.2000
21
42.3998
31
0.0
0
LINE
8
HACHURA
10
1195.2000
20
42.6626
30
0.0
11
1197.2000
21
44.6626
31
0.0
0
LINE
8
HACHURA
10
1195.2000
20
44.9253
30
0.0
11
1197.2000
21
46.9253
31
0.0
0
LINE
8
HACHURA
10
1195.2000
20
47.1881
30
0.0
11
1197.2000
21
49.1881
31
0.0
0
LINE
8
HACHURA
10
1195.2000
20
49.4508
30
0.0
11
1197.2000
21
51.4508
31
0.0
0
LINE
8
HACHURA
10
1195.2000
20
51.7135
30
0.0
11
1197.2000
21
53.7135
31
0.0
0
LINE
8
HACHURA
10
1195.2000
20
53.9763
30
0.0
11
1197.2000
21
55.9763
31
0.0
0
LINE
8
HACHURA
10
1195.2000
20
56.2390
30
0.0
11
1197.2000
21
58.2390
31
0.0
0
LINE
8
HACHURA
10
1195.2000
20
58.5018
30
0.0
11
1197.2000
21
60.5018
31
0.0
0
LINE
8
HACHURA
10
1195.2000
20
60.7645
30
0.0
11
1197.2000
21
62.7645
31
0.0
0
LINE
8
HACHURA
10
1195.2000
20
63.0272
30
0.0
11
1197.2000
21
65.0272
31
0.0
0
LINE
8
HACHURA
10
1195.2000
20
65.2900
30
0.0
11
1197.2000
21
67.2900
31
0.0
0
LINE
8
HACHURA
10
1195.2000
20
67.5527
30
0.0
11
1197.2000
21
69.5527
31
0.0
0
LINE
8
HACHURA
10
1195.2000
20
69.8155
30
0.0
11
1197.2000
21
71.8155
31
0.0
0
LINE
8
HACHURA
10
1195.2000
20
72.0782
30
0.0
11
1197.2000
21
74.0782
31
0.0
0
LINE
8
HACHURA
10
1195.2000
20
74.3410
30
0.0
11
1197.2000
21
76.3410
31
0.0
0
LINE
8
HACHURA
10
1195.2000
20
76.6037
30
0.0
11
1197.2000
21
78.6037
31
0.0
0
LINE
8
HACHURA
10
1195.2000
20
78.8664
30
0.0
11
1197.2000
21
80.8664
31
0.0
0
LINE
8
HACHURA
10
1195.2000
20
81.1292
30
0.0
11
1197.2000
21
83.1292
31
0.0
0
LINE
8
HACHURA
10
1195.2000
20
83.3919
30
0.0
11
1197.2000
21
85.3919
31
0.0
0
LINE
8
HACHURA
10
1195.2000
20
85.6547
30
0.0
11
1197.2000
21
87.6547
31
0.0
0
LINE
8
HACHURA
10
1195.2000
20
87.9174
30
0.0
11
1197.2000
21
89.9174
31
0.0
0
LINE
8
HACHURA
10
1195.2000
20
90.1801
30
0.0
11
1197.2000
21
92.1801
31
0.0
0
LINE
8
HACHURA
10
1195.2000
20
92.4429
30
0.0
11
1197.2000
21
94.4429
31
0.0
0
LINE
8
HACHURA
10
1195.2000
20
94.7056
30
0.0
11
1197.2000
21
96.7056
31
0.0
0
LINE
8
HACHURA
10
1195.2000
20
96.9684
30
0.0
11
1197.2000
21
98.9684
31
0.0
0
LINE
8
HACHURA
10
1195.2000
20
99.2311
30
0.0
11
1197.2000
21
101.2311
31
0.0
0
LINE
8
HACHURA
10
1195.2000
20
101.4939
30
0.0
11
1197.2000
21
103.4939
31
0.0
0
LINE
8
HACHURA
10
1195.2000
20
103.7566
30
0.0
11
1197.2000
21
105.7566
31
0.0
0
LINE
8
HACHURA
10
1195.2000
20
106.0193
30
0.0
11
1197.2000
21
108.0193
31
0.0
0
LINE
8
HACHURA
10
1269.1807
20
180.0000
30
0.0
11
1270.2000
21
181.0193
31
0.0
0
LINE
8
HACHURA
10
1195.2000
20
108.2821
30
0.0
11
1197.2000
21
110.2821
31
0.0
0
LINE
8
HACHURA
10
1268.2000
20
181.2821
30
0.0
11
1270.2000
21
183.2821
31
0.0
0
LINE
8
HACHURA
10
1195.2000
20
110.5448
30
0.0
11
1197.2000
21
112.5448
31
0.0
0
LINE
8
HACHURA
10
1268.2000
20
183.5448
30
0.0
11
1270.2000
21
185.5448
31
0.0
0
LINE
8
HACHURA
10
1195.2000
20
112.8076
30
0.0
11
1197.2000
21
114.8076
31
0.0
0
LINE
8
HACHURA
10
1268.2000
20
185.8076
30
0.0
11
1270.2000
21
187.8076
31
0.0
0
LINE
8
HACHURA
10
1195.2000
20
115.0703
30
0.0
11
1197.2000
21
117.0703
31
0.0
0
LINE
8
HACHURA
10
1268.2000
20
188.0703
30
0.0
11
1270.2000
21
190.0703
31
0.0
0
LINE
8
HACHURA
10
1195.2000
20
117.3330
30
0.0
11
1197.2000
21
119.3330
31
0.0
0
LINE
8
HACHURA
10
1268.2000
20
190.3330
30
0.0
11
1270.2000
21
192.3330
31
0.0
0
LINE
8
HACHURA
10
1195.2000
20
119.5958
30
0.0
11
1197.2000
21
121.5958
31
0.0
0
LINE
8
HACHURA
10
1268.2000
20
192.5958
30
0.0
11
1270.2000
21
194.5958
31
0.0
0
LINE
8
HACHURA
10
1195.2000
20
121.8585
30
0.0
11
1197.2000
21
123.8585
31
0.0
0
LINE
8
HACHURA
10
1268.2000
20
194.8585
30
0.0
11
1270.2000
21
196.8585
31
0.0
0
LINE
8
HACHURA
10
1195.2000
20
124.1213
30
0.0
11
1197.2000
21
126.1213
31
0.0
0
LINE
8
HACHURA
10
1268.2000
20
197.1213
30
0.0
11
1270.2000
21
199.1213
31
0.0
0
LINE
8
HACHURA
10
1195.2000
20
126.3840
30
0.0
11
1197.2000
21
128.3840
31
0.0
0
LINE
8
HACHURA
10
1266.8160
20
198.0000
30
0.0
11
1268.8160
21
200.0000
31
0.0
0
LINE
8
HACHURA
10
1195.2000
20
128.6468
30
0.0
11
1197.2000
21
130.6468
31
0.0
0
LINE
8
HACHURA
10
1264.5532
20
198.0000
30
0.0
11
1266.5532
21
200.0000
31
0.0
0
LINE
8
HACHURA
10
1195.2000
20
130.9095
30
0.0
11
1197.2000
21
132.9095
31
0.0
0
LINE
8
HACHURA
10
1262.2905
20
198.0000
30
0.0
11
1264.2905
21
200.0000
31
0.0
0
LINE
8
HACHURA
10
1195.2000
20
133.1722
30
0.0
11
1197.2000
21
135.1722
31
0.0
0
LINE
8
HACHURA
10
1260.0278
20
198.0000
30
0.0
11
1262.0278
21
200.0000
31
0.0
0
LINE
8
HACHURA
10
1195.2000
20
135.4350
30
0.0
11
1197.2000
21
137.4350
31
0.0
0
LINE
8
HACHURA
10
1257.7650
20
198.0000
30
0.0
11
1259.7650
21
200.0000
31
0.0
0
LINE
8
HACHURA
10
1195.2000
20
137.6977
30
0.0
11
1197.2000
21
139.6977
31
0.0
0
LINE
8
HACHURA
10
1255.5023
20
198.0000
30
0.0
11
1257.5023
21
200.0000
31
0.0
0
LINE
8
HACHURA
10
1195.2000
20
139.9605
30
0.0
11
1197.2000
21
141.9605
31
0.0
0
LINE
8
HACHURA
10
1253.2395
20
198.0000
30
0.0
11
1255.2395
21
200.0000
31
0.0
0
LINE
8
HACHURA
10
1195.2000
20
142.2232
30
0.0
11
1197.2000
21
144.2232
31
0.0
0
LINE
8
HACHURA
10
1250.9768
20
198.0000
30
0.0
11
1252.9768
21
200.0000
31
0.0
0
LINE
8
HACHURA
10
1195.2000
20
144.4859
30
0.0
11
1197.2000
21
146.4859
31
0.0
0
LINE
8
HACHURA
10
1248.7141
20
198.0000
30
0.0
11
1250.7141
21
200.0000
31
0.0
0
LINE
8
HACHURA
10
1195.2000
20
146.7487
30
0.0
11
1197.2000
21
148.7487
31
0.0
0
LINE
8
HACHURA
10
1246.4513
20
198.0000
30
0.0
11
1248.4513
21
200.0000
31
0.0
0
LINE
8
HACHURA
10
1195.2000
20
149.0114
30
0.0
11
1197.2000
21
151.0114
31
0.0
0
LINE
8
HACHURA
10
1244.1886
20
198.0000
30
0.0
11
1246.1886
21
200.0000
31
0.0
0
LINE
8
HACHURA
10
1195.2000
20
151.2742
30
0.0
11
1197.2000
21
153.2742
31
0.0
0
LINE
8
HACHURA
10
1241.9258
20
198.0000
30
0.0
11
1243.9258
21
200.0000
31
0.0
0
LINE
8
HACHURA
10
1195.2000
20
153.5369
30
0.0
11
1197.2000
21
155.5369
31
0.0
0
LINE
8
HACHURA
10
1239.6631
20
198.0000
30
0.0
11
1241.6631
21
200.0000
31
0.0
0
LINE
8
HACHURA
10
1195.2000
20
155.7997
30
0.0
11
1197.2000
21
157.7997
31
0.0
0
LINE
8
HACHURA
10
1237.4003
20
198.0000
30
0.0
11
1239.4003
21
200.0000
31
0.0
0
LINE
8
HACHURA
10
1195.2000
20
158.0624
30
0.0
11
1197.2000
21
160.0624
31
0.0
0
LINE
8
HACHURA
10
1235.1376
20
198.0000
30
0.0
11
1237.1376
21
200.0000
31
0.0
0
LINE
8
HACHURA
10
1195.2000
20
160.3251
30
0.0
11
1197.2000
21
162.3251
31
0.0
0
LINE
8
HACHURA
10
1232.8749
20
198.0000
30
0.0
11
1234.8749
21
200.0000
31
0.0
0
LINE
8
HACHURA
10
1195.2000
20
162.5879
30
0.0
11
1197.2000
21
164.5879
31
0.0
0
LINE
8
HACHURA
10
1230.6121
20
198.0000
30
0.0
11
1232.6121
21
200.0000
31
0.0
0
LINE
8
HACHURA
10
1195.2000
20
164.8506
30
0.0
11
1197.2000
21
166.8506
31
0.0
0
LINE
8
HACHURA
10
1228.3494
20
198.0000
30
0.0
11
1230.3494
21
200.0000
31
0.0
0
LINE
8
HACHURA
10
1195.2000
20
167.1134
30
0.0
11
1197.2000
21
169.1134
31
0.0
0
LINE
8
HACHURA
10
1226.0866
20
198.0000
30
0.0
11
1228.0866
21
200.0000
31
0.0
0
LINE
8
HACHURA
10
1195.2000
20
169.3761
30
0.0
11
1197.2000
21
171.3761
31
0.0
0
LINE
8
HACHURA
10
1223.8239
20
198.0000
30
0.0
11
1225.8239
21
200.0000
31
0.0
0
LINE
8
HACHURA
10
1195.2000
20
171.6388
30
0.0
11
1197.2000
21
173.6388
31
0.0
0
LINE
8
HACHURA
10
1221.5612
20
198.0000
30
0.0
11
1223.5612
21
200.0000
31
0.0
0
LINE
8
HACHURA
10
1195.2000
20
173.9016
30
0.0
11
1197.2000
21
175.9016
31
0.0
0
LINE
8
HACHURA
10
1219.2984
20
198.0000
30
0.0
11
1221.2984
21
200.0000
31
0.0
0
LINE
8
HACHURA
10
1195.2000
20
176.1643
30
0.0
11
1197.2000
21
178.1643
31
0.0
0
LINE
8
HACHURA
10
1217.0357
20
198.0000
30
0.0
11
1219.0357
21
200.0000
31
0.0
0
LINE
8
HACHURA
10
1195.2000
20
178.4271
30
0.0
11
1197.2000
21
180.4271
31
0.0
0
LINE
8
HACHURA
10
1214.7729
20
198.0000
30
0.0
11
1216.7729
21
200.0000
31
0.0
0
LINE
8
HACHURA
10
1195.2000
20
180.6898
30
0.0
11
1197.2000
21
182.6898
31
0.0
0
LINE
8
HACHURA
10
1212.5102
20
198.0000
30
0.0
11
1214.5102
21
200.0000
31
0.0
0
LINE
8
HACHURA
10
1195.2000
20
182.9526
30
0.0
11
1197.2000
21
184.9526
31
0.0
0
LINE
8
HACHURA
10
1210.2474
20
198.0000
30
0.0
11
1212.2474
21
200.0000
31
0.0
0
LINE
8
HACHURA
10
1195.2000
20
185.2153
30
0.0
11
1197.2000
21
187.2153
31
0.0
0
LINE
8
HACHURA
10
1207.9847
20
198.0000
30
0.0
11
1209.9847
21
200.0000
31
0.0
0
LINE
8
HACHURA
10
1195.2000
20
187.4780
30
0.0
11
1197.2000
21
189.4780
31
0.0
0
LINE
8
HACHURA
10
1205.7220
20
198.0000
30
0.0
11
1207.7220
21
200.0000
31
0.0
0
LINE
8
HACHURA
10
1195.2000
20
189.7408
30
0.0
11
1197.2000
21
191.7408
31
0.0
0
LINE
8
HACHURA
10
1203.4592
20
198.0000
30
0.0
11
1205.4592
21
200.0000
31
0.0
0
LINE
8
HACHURA
10
1195.2000
20
192.0035
30
0.0
11
1197.2000
21
194.0035
31
0.0
0
LINE
8
HACHURA
10
1201.1965
20
198.0000
30
0.0
11
1203.1965
21
200.0000
31
0.0
0
LINE
8
HACHURA
10
1195.2000
20
194.2663
30
0.0
11
1197.2000
21
196.2663
31
0.0
0
LINE
8
HACHURA
10
1198.9337
20
198.0000
30
0.0
11
1200.9337
21
200.0000
31
0.0
0
LINE
8
HACHURA
10
1195.2000
20
196.5290
30
0.0
11
1198.6710
21
200.0000
31
0.0
0
LINE
8
HACHURA
10
1195.2000
20
198.7917
30
0.0
11
1196.4083
21
200.0000
31
0.0
0
CIRCLE
8
FURO
10
1196.2000
20
133.3333
30
0.0
40
9.0000
0
POLYLINE
8
ACO
66
1
10
0.0
20
0.0
30
0.0
70
1
0
VERTEX
8
ACO
10
1835.2000
20
0.0000
30
0.0
0
VERTEX
8
ACO
10
1910.2000
20
0.0000
30
0.0
0
VERTEX
8
ACO
10
1910.2000
20
20.0000
30
0.0
0
VERTEX
8
ACO
10
1908.2000
20
20.0000
30
0.0
0
VERTEX
8
ACO
10
1908.2000
20
2.0000
30
0.0
0
VERTEX
8
ACO
10
1837.2000
20
2.0000
30
0.0
0
VERTEX
8
ACO
10
1837.2000
20
198.0000
30
0.0
0
VERTEX
8
ACO
10
1908.2000
20
198.0000
30
0.0
0
VERTEX
8
ACO
10
1908.2000
20
180.0000
30
0.0
0
VERTEX
8
ACO
10
1910.2000
20
180.0000
30
0.0
0
VERTEX
8
ACO
10
1910.2000
20
200.0000
30
0.0
0
VERTEX
8
ACO
10
1835.2000
20
200.0000
30
0.0
0
SEQEND
8
ACO
0
LINE
8
HACHURA
10
1907.9373
20
0.0000
30
0.0
11
1910.2000
21
2.2627
31
0.0
0
LINE
8
HACHURA
10
1905.6745
20
0.0000
30
0.0
11
1907.6745
21
2.0000
31
0.0
0
LINE
8
HACHURA
10
1908.2000
20
2.5255
30
0.0
11
1910.2000
21
4.5255
31
0.0
0
LINE
8
HACHURA
10
1903.4118
20
0.0000
30
0.0
11
1905.4118
21
2.0000
31
0.0
0
LINE
8
HACHURA
10
1908.2000
20
4.7882
30
0.0
11
1910.2000
21
6.7882
31
0.0
0
LINE
8
HACHURA
10
1901.1490
20
0.0000
30
0.0
11
1903.1490
21
2.0000
31
0.0
0
LINE
8
HACHURA
10
1908.2000
20
7.0510
30
0.0
11
1910.2000
21
9.0510
31
0.0
0
LINE
8
HACHURA
10
1898.8863
20
0.0000
30
0.0
11
1900.8863
21
2.0000
31
0.0
0
LINE
8
HACHURA
10
1908.2000
20
9.3137
30
0.0
11
1910.2000
21
11.3137
31
0.0
0
LINE
8
HACHURA
10
1896.6235
20
0.0000
30
0.0
11
1898.6235
21
2.0000
31
0.0
0
LINE
8
HACHURA
10
1908.2000
20
11.5765
30
0.0
11
1910.2000
21
13.5765
31
0.0
0
LINE
8
HACHURA
10
1894.3608
20
0.0000
30
0.0
11
1896.3608
21
2.0000
31
0.0
0
LINE
8
HACHURA
10
1908.2000
20
13.8392
30
0.0
11
1910.2000
21
15.8392
31
0.0
0
LINE
8
HACHURA
10
1892.0981
20
0.0000
30
0.0
11
1894.0981
21
2.0000
31
0.0
0
LINE
8
HACHURA
10
1908.2000
20
16.1019
30
0.0
11
1910.2000
21
18.1019
31
0.0
0
LINE
8
HACHURA
10
1889.8353
20
0.0000
30
0.0
11
1891.8353
21
2.0000
31
0.0
0
LINE
8
HACHURA
10
1908.2000
20
18.3647
30
0.0
11
1909.8353
21
20.0000
31
0.0
0
LINE
8
HACHURA
10
1887.5726
20
0.0000
30
0.0
11
1889.5726
21
2.0000
31
0.0
0
LINE
8
HACHURA
10
1885.3098
20
0.0000
30
0.0
11
1887.3098
21
2.0000
31
0.0
0
LINE
8
HACHURA
10
1883.0471
20
0.0000
30
0.0
11
1885.0471
21
2.0000
31
0.0
0
LINE
8
HACHURA
10
1880.7844
20
0.0000
30
0.0
11
1882.7844
21
2.0000
31
0.0
0
LINE
8
HACHURA
10
1878.5216
20
0.0000
30
0.0
11
1880.5216
21
2.0000
31
0.0
0
LINE
8
HACHURA
10
1876.2589
20
0.0000
30
0.0
11
1878.2589
21
2.0000
31
0.0
0
LINE
8
HACHURA
10
1873.9961
20
0.0000
30
0.0
11
1875.9961
21
2.0000
31
0.0
0
LINE
8
HACHURA
10
1871.7334
20
0.0000
30
0.0
11
1873.7334
21
2.0000
31
0.0
0
LINE
8
HACHURA
10
1869.4706
20
0.0000
30
0.0
11
1871.4706
21
2.0000
31
0.0
0
LINE
8
HACHURA
10
1867.2079
20
0.0000
30
0.0
11
1869.2079
21
2.0000
31
0.0
0
LINE
8
HACHURA
10
1864.9452
20
0.0000
30
0.0
11
1866.9452
21
2.0000
31
0.0
0
LINE
8
HACHURA
10
1862.6824
20
0.0000
30
0.0
11
1864.6824
21
2.0000
31
0.0
0
LINE
8
HACHURA
10
1860.4197
20
0.0000
30
0.0
11
1862.4197
21
2.0000
31
0.0
0
LINE
8
HACHURA
10
1858.1569
20
0.0000
30
0.0
11
1860.1569
21
2.0000
31
0.0
0
LINE
8
HACHURA
10
1855.8942
20
0.0000
30
0.0
11
1857.8942
21
2.0000
31
0.0
0
LINE
8
HACHURA
10
1853.6315
20
0.0000
30
0.0
11
1855.6315
21
2.0000
31
0.0
0
LINE
8
HACHURA
10
1851.3687
20
0.0000
30
0.0
11
1853.3687
21
2.0000
31
0.0
0
LINE
8
HACHURA
10
1849.1060
20
0.0000
30
0.0
11
1851.1060
21
2.0000
31
0.0
0
LINE
8
HACHURA
10
1846.8432
20
0.0000
30
0.0
11
1848.8432
21
2.0000
31
0.0
0
LINE
8
HACHURA
10
1844.5805
20
0.0000
30
0.0
11
1846.5805
21
2.0000
31
0.0
0
LINE
8
HACHURA
10
1842.3177
20
0.0000
30
0.0
11
1844.3177
21
2.0000
31
0.0
0
LINE
8
HACHURA
10
1840.0550
20
0.0000
30
0.0
11
1842.0550
21
2.0000
31
0.0
0
LINE
8
HACHURA
10
1837.7923
20
0.0000
30
0.0
11
1839.7923
21
2.0000
31
0.0
0
LINE
8
HACHURA
10
1835.5295
20
0.0000
30
0.0
11
1837.5295
21
2.0000
31
0.0
0
LINE
8
HACHURA
10
1835.2000
20
1.9332
30
0.0
11
1837.2000
21
3.9332
31
0.0
0
LINE
8
HACHURA
10
1835.2000
20
4.1960
30
0.0
11
1837.2000
21
6.1960
31
0.0
0
LINE
8
HACHURA
10
1835.2000
20
6.4587
30
0.0
11
1837.2000
21
8.4587
31
0.0
0
LINE
8
HACHURA
10
1835.2000
20
8.7214
30
0.0
11
1837.2000
21
10.7214
31
0.0
0
LINE
8
HACHURA
10
1835.2000
20
10.9842
30
0.0
11
1837.2000
21
12.9842
31
0.0
0
LINE
8
HACHURA
10
1835.2000
20
13.2469
30
0.0
11
1837.2000
21
15.2469
31
0.0
0
LINE
8
HACHURA
10
1835.2000
20
15.5097
30
0.0
11
1837.2000
21
17.5097
31
0.0
0
LINE
8
HACHURA
10
1835.2000
20
17.7724
30
0.0
11
1837.2000
21
19.7724
31
0.0
0
LINE
8
HACHURA
10
1835.2000
20
20.0352
30
0.0
11
1837.2000
21
22.0352
31
0.0
0
LINE
8
HACHURA
10
1835.2000
20
22.2979
30
0.0
11
1837.2000
21
24.2979
31
0.0
0
LINE
8
HACHURA
10
1835.2000
20
24.5606
30
0.0
11
1837.2000
21
26.5606
31
0.0
0
LINE
8
HACHURA
10
1835.2000
20
26.8234
30
0.0
11
1837.2000
21
28.8234
31
0.0
0
LINE
8
HACHURA
10
1835.2000
20
29.0861
30
0.0
11
1837.2000
21
31.0861
31
0.0
0
LINE
8
HACHURA
10
1835.2000
20
31.3489
30
0.0
11
1837.2000
21
33.3489
31
0.0
0
LINE
8
HACHURA
10
1835.2000
20
33.6116
30
0.0
11
1837.2000
21
35.6116
31
0.0
0
LINE
8
HACHURA
10
1835.2000
20
35.8743
30
0.0
11
1837.2000
21
37.8743
31
0.0
0
LINE
8
HACHURA
10
1835.2000
20
38.1371
30
0.0
11
1837.2000
21
40.1371
31
0.0
0
LINE
8
HACHURA
10
1835.2000
20
40.3998
30
0.0
11
1837.2000
21
42.3998
31
0.0
0
LINE
8
HACHURA
10
1835.2000
20
42.6626
30
0.0
11
1837.2000
21
44.6626
31
0.0
0
LINE
8
HACHURA
10
1835.2000
20
44.9253
30
0.0
11
1837.2000
21
46.9253
31
0.0
0
LINE
8
HACHURA
10
1835.2000
20
47.1881
30
0.0
11
1837.2000
21
49.1881
31
0.0
0
LINE
8
HACHURA
10
1835.2000
20
49.4508
30
0.0
11
1837.2000
21
51.4508
31
0.0
0
LINE
8
HACHURA
10
1835.2000
20
51.7135
30
0.0
11
1837.2000
21
53.7135
31
0.0
0
LINE
8
HACHURA
10
1835.2000
20
53.9763
30
0.0
11
1837.2000
21
55.9763
31
0.0
0
LINE
8
HACHURA
10
1835.2000
20
56.2390
30
0.0
11
1837.2000
21
58.2390
31
0.0
0
LINE
8
HACHURA
10
1835.2000
20
58.5018
30
0.0
11
1837.2000
21
60.5018
31
0.0
0
LINE
8
HACHURA
10
1835.2000
20
60.7645
30
0.0
11
1837.2000
21
62.7645
31
0.0
0
LINE
8
HACHURA
10
1835.2000
20
63.0272
30
0.0
11
1837.2000
21
65.0272
31
0.0
0
LINE
8
HACHURA
10
1835.2000
20
65.2900
30
0.0
11
1837.2000
21
67.2900
31
0.0
0
LINE
8
HACHURA
10
1835.2000
20
67.5527
30
0.0
11
1837.2000
21
69.5527
31
0.0
0
LINE
8
HACHURA
10
1835.2000
20
69.8155
30
0.0
11
1837.2000
21
71.8155
31
0.0
0
LINE
8
HACHURA
10
1835.2000
20
72.0782
30
0.0
11
1837.2000
21
74.0782
31
0.0
0
LINE
8
HACHURA
10
1835.2000
20
74.3410
30
0.0
11
1837.2000
21
76.3410
31
0.0
0
LINE
8
HACHURA
10
1835.2000
20
76.6037
30
0.0
11
1837.2000
21
78.6037
31
0.0
0
LINE
8
HACHURA
10
1835.2000
20
78.8664
30
0.0
11
1837.2000
21
80.8664
31
0.0
0
LINE
8
HACHURA
10
1835.2000
20
81.1292
30
0.0
11
1837.2000
21
83.1292
31
0.0
0
LINE
8
HACHURA
10
1835.2000
20
83.3919
30
0.0
11
1837.2000
21
85.3919
31
0.0
0
LINE
8
HACHURA
10
1835.2000
20
85.6547
30
0.0
11
1837.2000
21
87.6547
31
0.0
0
LINE
8
HACHURA
10
1835.2000
20
87.9174
30
0.0
11
1837.2000
21
89.9174
31
0.0
0
LINE
8
HACHURA
10
1835.2000
20
90.1801
30
0.0
11
1837.2000
21
92.1801
31
0.0
0
LINE
8
HACHURA
10
1835.2000
20
92.4429
30
0.0
11
1837.2000
21
94.4429
31
0.0
0
LINE
8
HACHURA
10
1835.2000
20
94.7056
30
0.0
11
1837.2000
21
96.7056
31
0.0
0
LINE
8
HACHURA
10
1835.2000
20
96.9684
30
0.0
11
1837.2000
21
98.9684
31
0.0
0
LINE
8
HACHURA
10
1835.2000
20
99.2311
30
0.0
11
1837.2000
21
101.2311
31
0.0
0
LINE
8
HACHURA
10
1835.2000
20
101.4939
30
0.0
11
1837.2000
21
103.4939
31
0.0
0
LINE
8
HACHURA
10
1835.2000
20
103.7566
30
0.0
11
1837.2000
21
105.7566
31
0.0
0
LINE
8
HACHURA
10
1835.2000
20
106.0193
30
0.0
11
1837.2000
21
108.0193
31
0.0
0
LINE
8
HACHURA
10
1909.1807
20
180.0000
30
0.0
11
1910.2000
21
181.0193
31
0.0
0
LINE
8
HACHURA
10
1835.2000
20
108.2821
30
0.0
11
1837.2000
21
110.2821
31
0.0
0
LINE
8
HACHURA
10
1908.2000
20
181.2821
30
0.0
11
1910.2000
21
183.2821
31
0.0
0
LINE
8
HACHURA
10
1835.2000
20
110.5448
30
0.0
11
1837.2000
21
112.5448
31
0.0
0
LINE
8
HACHURA
10
1908.2000
20
183.5448
30
0.0
11
1910.2000
21
185.5448
31
0.0
0
LINE
8
HACHURA
10
1835.2000
20
112.8076
30
0.0
11
1837.2000
21
114.8076
31
0.0
0
LINE
8
HACHURA
10
1908.2000
20
185.8076
30
0.0
11
1910.2000
21
187.8076
31
0.0
0
LINE
8
HACHURA
10
1835.2000
20
115.0703
30
0.0
11
1837.2000
21
117.0703
31
0.0
0
LINE
8
HACHURA
10
1908.2000
20
188.0703
30
0.0
11
1910.2000
21
190.0703
31
0.0
0
LINE
8
HACHURA
10
1835.2000
20
117.3330
30
0.0
11
1837.2000
21
119.3330
31
0.0
0
LINE
8
HACHURA
10
1908.2000
20
190.3330
30
0.0
11
1910.2000
21
192.3330
31
0.0
0
LINE
8
HACHURA
10
1835.2000
20
119.5958
30
0.0
11
1837.2000
21
121.5958
31
0.0
0
LINE
8
HACHURA
10
1908.2000
20
192.5958
30
0.0
11
1910.2000
21
194.5958
31
0.0
0
LINE
8
HACHURA
10
1835.2000
20
121.8585
30
0.0
11
1837.2000
21
123.8585
31
0.0
0
LINE
8
HACHURA
10
1908.2000
20
194.8585
30
0.0
11
1910.2000
21
196.8585
31
0.0
0
LINE
8
HACHURA
10
1835.2000
20
124.1213
30
0.0
11
1837.2000
21
126.1213
31
0.0
0
LINE
8
HACHURA
10
1908.2000
20
197.1213
30
0.0
11
1910.2000
21
199.1213
31
0.0
0
LINE
8
HACHURA
10
1835.2000
20
126.3840
30
0.0
11
1837.2000
21
128.3840
31
0.0
0
LINE
8
HACHURA
10
1906.8160
20
198.0000
30
0.0
11
1908.8160
21
200.0000
31
0.0
0
LINE
8
HACHURA
10
1835.2000
20
128.6468
30
0.0
11
1837.2000
21
130.6468
31
0.0
0
LINE
8
HACHURA
10
1904.5532
20
198.0000
30
0.0
11
1906.5532
21
200.0000
31
0.0
0
LINE
8
HACHURA
10
1835.2000
20
130.9095
30
0.0
11
1837.2000
21
132.9095
31
0.0
0
LINE
8
HACHURA
10
1902.2905
20
198.0000
30
0.0
11
1904.2905
21
200.0000
31
0.0
0
LINE
8
HACHURA
10
1835.2000
20
133.1722
30
0.0
11
1837.2000
21
135.1722
31
0.0
0
LINE
8
HACHURA
10
1900.0278
20
198.0000
30
0.0
11
1902.0278
21
200.0000
31
0.0
0
LINE
8
HACHURA
10
1835.2000
20
135.4350
30
0.0
11
1837.2000
21
137.4350
31
0.0
0
LINE
8
HACHURA
10
1897.7650
20
198.0000
30
0.0
11
1899.7650
21
200.0000
31
0.0
0
LINE
8
HACHURA
10
1835.2000
20
137.6977
30
0.0
11
1837.2000
21
139.6977
31
0.0
0
LINE
8
HACHURA
10
1895.5023
20
198.0000
30
0.0
11
1897.5023
21
200.0000
31
0.0
0
LINE
8
HACHURA
10
1835.2000
20
139.9605
30
0.0
11
1837.2000
21
141.9605
31
0.0
0
LINE
8
HACHURA
10
1893.2395
20
198.0000
30
0.0
11
1895.2395
21
200.0000
31
0.0
0
LINE
8
HACHURA
10
1835.2000
20
142.2232
30
0.0
11
1837.2000
21
144.2232
31
0.0
0
LINE
8
HACHURA
10
1890.9768
20
198.0000
30
0.0
11
1892.9768
21
200.0000
31
0.0
0
LINE
8
HACHURA
10
1835.2000
20
144.4859
30
0.0
11
1837.2000
21
146.4859
31
0.0
0
LINE
8
HACHURA
10
1888.7141
20
198.0000
30
0.0
11
1890.7141
21
200.0000
31
0.0
0
LINE
8
HACHURA
10
1835.2000
20
146.7487
30
0.0
11
1837.2000
21
148.7487
31
0.0
0
LINE
8
HACHURA
10
1886.4513
20
198.0000
30
0.0
11
1888.4513
21
200.0000
31
0.0
0
LINE
8
HACHURA
10
1835.2000
20
149.0114
30
0.0
11
1837.2000
21
151.0114
31
0.0
0
LINE
8
HACHURA
10
1884.1886
20
198.0000
30
0.0
11
1886.1886
21
200.0000
31
0.0
0
LINE
8
HACHURA
10
1835.2000
20
151.2742
30
0.0
11
1837.2000
21
153.2742
31
0.0
0
LINE
8
HACHURA
10
1881.9258
20
198.0000
30
0.0
11
1883.9258
21
200.0000
31
0.0
0
LINE
8
HACHURA
10
1835.2000
20
153.5369
30
0.0
11
1837.2000
21
155.5369
31
0.0
0
LINE
8
HACHURA
10
1879.6631
20
198.0000
30
0.0
11
1881.6631
21
200.0000
31
0.0
0
LINE
8
HACHURA
10
1835.2000
20
155.7997
30
0.0
11
1837.2000
21
157.7997
31
0.0
0
LINE
8
HACHURA
10
1877.4003
20
198.0000
30
0.0
11
1879.4003
21
200.0000
31
0.0
0
LINE
8
HACHURA
10
1835.2000
20
158.0624
30
0.0
11
1837.2000
21
160.0624
31
0.0
0
LINE
8
HACHURA
10
1875.1376
20
198.0000
30
0.0
11
1877.1376
21
200.0000
31
0.0
0
LINE
8
HACHURA
10
1835.2000
20
160.3251
30
0.0
11
1837.2000
21
162.3251
31
0.0
0
LINE
8
HACHURA
10
1872.8749
20
198.0000
30
0.0
11
1874.8749
21
200.0000
31
0.0
0
LINE
8
HACHURA
10
1835.2000
20
162.5879
30
0.0
11
1837.2000
21
164.5879
31
0.0
0
LINE
8
HACHURA
10
1870.6121
20
198.0000
30
0.0
11
1872.6121
21
200.0000
31
0.0
0
LINE
8
HACHURA
10
1835.2000
20
164.8506
30
0.0
11
1837.2000
21
166.8506
31
0.0
0
LINE
8
HACHURA
10
1868.3494
20
198.0000
30
0.0
11
1870.3494
21
200.0000
31
0.0
0
LINE
8
HACHURA
10
1835.2000
20
167.1134
30
0.0
11
1837.2000
21
169.1134
31
0.0
0
LINE
8
HACHURA
10
1866.0866
20
198.0000
30
0.0
11
1868.0866
21
200.0000
31
0.0
0
LINE
8
HACHURA
10
1835.2000
20
169.3761
30
0.0
11
1837.2000
21
171.3761
31
0.0
0
LINE
8
HACHURA
10
1863.8239
20
198.0000
30
0.0
11
1865.8239
21
200.0000
31
0.0
0
LINE
8
HACHURA
10
1835.2000
20
171.6388
30
0.0
11
1837.2000
21
173.6388
31
0.0
0
LINE
8
HACHURA
10
1861.5612
20
198.0000
30
0.0
11
1863.5612
21
200.0000
31
0.0
0
LINE
8
HACHURA
10
1835.2000
20
173.9016
30
0.0
11
1837.2000
21
175.9016
31
0.0
0
LINE
8
HACHURA
10
1859.2984
20
198.0000
30
0.0
11
1861.2984
21
200.0000
31
0.0
0
LINE
8
HACHURA
10
1835.2000
20
176.1643
30
0.0
11
1837.2000
21
178.1643
31
0.0
0
LINE
8
HACHURA
10
1857.0357
20
198.0000
30
0.0
11
1859.0357
21
200.0000
31
0.0
0
LINE
8
HACHURA
10
1835.2000
20
178.4271
30
0.0
11
1837.2000
21
180.4271
31
0.0
0
LINE
8
HACHURA
10
1854.7729
20
198.0000
30
0.0
11
1856.7729
21
200.0000
31
0.0
0
LINE
8
HACHURA
10
1835.2000
20
180.6898
30
0.0
11
1837.2000
21
182.6898
31
0.0
0
LINE
8
HACHURA
10
1852.5102
20
198.0000
30
0.0
11
1854.5102
21
200.0000
31
0.0
0
LINE
8
HACHURA
10
1835.2000
20
182.9526
30
0.0
11
1837.2000
21
184.9526
31
0.0
0
LINE
8
HACHURA
10
1850.2474
20
198.0000
30
0.0
11
1852.2474
21
200.0000
31
0.0
0
LINE
8
HACHURA
10
1835.2000
20
185.2153
30
0.0
11
1837.2000
21
187.2153
31
0.0
0
LINE
8
HACHURA
10
1847.9847
20
198.0000
30
0.0
11
1849.9847
21
200.0000
31
0.0
0
LINE
8
HACHURA
10
1835.2000
20
187.4780
30
0.0
11
1837.2000
21
189.4780
31
0.0
0
LINE
8
HACHURA
10
1845.7220
20
198.0000
30
0.0
11
1847.7220
21
200.0000
31
0.0
0
LINE
8
HACHURA
10
1835.2000
20
189.7408
30
0.0
11
1837.2000
21
191.7408
31
0.0
0
LINE
8
HACHURA
10
1843.4592
20
198.0000
30
0.0
11
1845.4592
21
200.0000
31
0.0
0
LINE
8
HACHURA
10
1835.2000
20
192.0035
30
0.0
11
1837.2000
21
194.0035
31
0.0
0
LINE
8
HACHURA
10
1841.1965
20
198.0000
30
0.0
11
1843.1965
21
200.0000
31
0.0
0
LINE
8
HACHURA
10
1835.2000
20
194.2663
30
0.0
11
1837.2000
21
196.2663
31
0.0
0
LINE
8
HACHURA
10
1838.9337
20
198.0000
30
0.0
11
1840.9337
21
200.0000
31
0.0
0
LINE
8
HACHURA
10
1835.2000
20
196.5290
30
0.0
11
1838.6710
21
200.0000
31
0.0
0
LINE
8
HACHURA
10
1835.2000
20
198.7917
30
0.0
11
1836.4083
21
200.0000
31
0.0
0
CIRCLE
8
FURO
10
1836.2000
20
133.3333
30
0.0
40
9.0000
0
LINE
8
ACO
10
1232.7000
20
125.3333
30
0.0
11
1872.7000
21
125.3333
31
0.0
0
LINE
8
ACO
10
1232.7000
20
141.3333
30
0.0
11
1872.7000
21
141.3333
31
0.0
0
POLYLINE
8
ACO
66
1
10
0.0
20
0.0
30
0.0
70
1
0
VERTEX
8
ACO
10
1475.9000
20
110.9333
30
0.0
0
VERTEX
8
ACO
10
1491.9000
20
102.9333
30
0.0
0
VERTEX
8
ACO
10
1613.5000
20
102.9333
30
0.0
0
VERTEX
8
ACO
10
1629.5000
20
110.9333
30
0.0
0
VERTEX
8
ACO
10
1629.5000
20
155.7333
30
0.0
0
VERTEX
8
ACO
10
1613.5000
20
163.7333
30
0.0
0
VERTEX
8
ACO
10
1491.9000
20
163.7333
30
0.0
0
VERTEX
8
ACO
10
1475.9000
20
155.7333
30
0.0
0
SEQEND
8
ACO
0
LINE
8
OCULTA
10
1475.9000
20
141.3333
30
0.0
11
1629.5000
21
141.3333
31
0.0
0
LINE
8
OCULTA
10
1475.9000
20
125.3333
30
0.0
11
1629.5000
21
125.3333
31
0.0
0
POLYLINE
8
PARAFUSO
66
1
10
0.0
20
0.0
30
0.0
70
1
0
VERTEX
8
PARAFUSO
10
1205.0000
20
119.7333
30
0.0
0
VERTEX
8
PARAFUSO
10
1217.8000
20
119.7333
30
0.0
0
VERTEX
8
PARAFUSO
10
1217.8000
20
146.9333
30
0.0
0
VERTEX
8
PARAFUSO
10
1205.0000
20
146.9333
30
0.0
0
SEQEND
8
PARAFUSO
0
POLYLINE
8
PARAFUSO
66
1
10
0.0
20
0.0
30
0.0
70
1
0
VERTEX
8
PARAFUSO
10
1220.2000
20
119.7333
30
0.0
0
VERTEX
8
PARAFUSO
10
1233.0000
20
119.7333
30
0.0
0
VERTEX
8
PARAFUSO
10
1233.0000
20
146.9333
30
0.0
0
VERTEX
8
PARAFUSO
10
1220.2000
20
146.9333
30
0.0
0
SEQEND
8
PARAFUSO
0
POLYLINE
8
PARAFUSO
66
1
10
0.0
20
0.0
30
0.0
70
1
0
VERTEX
8
PARAFUSO
10
1814.6000
20
119.7333
30
0.0
0
VERTEX
8
PARAFUSO
10
1827.4000
20
119.7333
30
0.0
0
VERTEX
8
PARAFUSO
10
1827.4000
20
146.9333
30
0.0
0
VERTEX
8
PARAFUSO
10
1814.6000
20
146.9333
30
0.0
0
SEQEND
8
PARAFUSO
0
POLYLINE
8
PARAFUSO
66
1
10
0.0
20
0.0
30
0.0
70
1
0
VERTEX
8
PARAFUSO
10
1799.4000
20
119.7333
30
0.0
0
VERTEX
8
PARAFUSO
10
1812.2000
20
119.7333
30
0.0
0
VERTEX
8
PARAFUSO
10
1812.2000
20
146.9333
30
0.0
0
VERTEX
8
PARAFUSO
10
1799.4000
20
146.9333
30
0.0
0
SEQEND
8
PARAFUSO
0
LINE
8
COTA
10
1277.7000
20
133.3333
30
0.0
11
1330.2000
21
133.3333
31
0.0
0
LINE
8
COTA
10
1277.7000
20
200.0000
30
0.0
11
1330.2000
21
200.0000
31
0.0
0
LINE
8
COTA
10
1320.2000
20
133.3333
30
0.0
11
1320.2000
21
200.0000
31
0.0
0
SOLID
8
COTA
10
1320.2000
20
133.3333
30
0.0
11
1323.9500
21
145.8333
31
0.0
12
1316.4500
22
145.8333
32
0.0
13
1316.4500
23
145.8333
33
0.0
0
SOLID
8
COTA
10
1320.2000
20
200.0000
30
0.0
11
1316.4500
21
187.5000
31
0.0
12
1323.9500
22
187.5000
32
0.0
13
1323.9500
23
187.5000
33
0.0
0
TEXT
8
COTA
10
1314.7000
20
166.6667
30
0.0
40
10.0000
1
h/3 = 67
50
90.0000
72
1
73
0
11
1314.7000
21
166.6667
31
0.0
0
LINE
8
COTA
10
1232.7000
20
-7.5000
30
0.0
11
1232.7000
21
-110.0000
31
0.0
0
LINE
8
COTA
10
1872.7000
20
-7.5000
30
0.0
11
1872.7000
21
-110.0000
31
0.0
0
LINE
8
COTA
10
1232.7000
20
-100.0000
30
0.0
11
1872.7000
21
-100.0000
31
0.0
0
SOLID
8
COTA
10
1232.7000
20
-100.0000
30
0.0
11
1245.2000
21
-103.7500
31
0.0
12
1245.2000
22
-96.2500
32
0.0
13
1245.2000
23
-96.2500
33
0.0
0
SOLID
8
COTA
10
1872.7000
20
-100.0000
30
0.0
11
1860.2000
21
-96.2500
31
0.0
12
1860.2000
22
-103.7500
32
0.0
13
1860.2000
23
-103.7500
33
0.0
0
TEXT
8
COTA
10
1552.7000
20
-93.1250
30
0.0
40
12.5000
1
VAO ENTRE TERCAS
50
0.0000
72
1
73
0
11
1552.7000
21
-93.1250
31
0.0
0
LINE
8
TEXTO
10
1552.7000
20
163.7333
30
0.0
11
1488.7000
21
230.0000
31
0.0
0
SOLID
8
TEXTO
10
1552.7000
20
163.7333
30
0.0
11
1546.7137
21
175.3297
31
0.0
12
1541.3189
22
170.1195
32
0.0
13
1541.3189
23
170.1195
33
0.0
0
LINE
8
TEXTO
10
1488.7000
20
230.0000
30
0.0
11
1468.7000
21
230.0000
31
0.0
0
TEXT
8
TEXTO
10
1465.7000
20
234.5000
30
0.0
40
10.0000
1
ESTICADOR (TENSOR) %%c16
50
0.0000
72
2
73
0
11
1465.7000
21
234.5000
31
0.0
0
TEXT
8
TEXTO
10
1465.7000
20
221.0000
30
0.0
40
10.0000
1
classe >= a da barra
50
0.0000
72
2
73
0
11
1465.7000
21
221.0000
31
0.0
0
LINE
8
TEXTO
10
1251.9000
20
119.7333
30
0.0
11
1132.7000
21
-30.0000
31
0.0
0
SOLID
8
TEXTO
10
1251.9000
20
119.7333
30
0.0
11
1241.1808
21
112.2894
31
0.0
12
1247.0486
22
107.6182
32
0.0
13
1247.0486
23
107.6182
33
0.0
0
LINE
8
TEXTO
10
1132.7000
20
-30.0000
30
0.0
11
1112.7000
21
-30.0000
31
0.0
0
TEXT
8
TEXTO
10
1109.7000
20
-25.5000
30
0.0
40
10.0000
1
PORCA + CONTRAPORCA
50
0.0000
72
2
73
0
11
1109.7000
21
-25.5000
31
0.0
0
LINE
8
TEXTO
10
1335.1000
20
141.3333
30
0.0
11
1182.7000
21
350.0000
31
0.0
0
SOLID
8
TEXTO
10
1335.1000
20
141.3333
30
0.0
11
1330.7559
21
153.6395
31
0.0
12
1324.6992
22
149.2160
32
0.0
13
1324.6992
23
149.2160
33
0.0
0
LINE
8
TEXTO
10
1182.7000
20
350.0000
30
0.0
11
1162.7000
21
350.0000
31
0.0
0
TEXT
8
TEXTO
10
1159.7000
20
354.5000
30
0.0
40
10.0000
1
CORRENTE %%c16
50
0.0000
72
2
73
0
11
1159.7000
21
354.5000
31
0.0
0
TEXT
8
TEXTO
10
1159.7000
20
341.0000
30
0.0
40
10.0000
1
furo %%c18 na alma
50
0.0000
72
2
73
0
11
1159.7000
21
341.0000
31
0.0
0
TEXT
8
TEXTO
10
1552.7000
20
-296.1000
30
0.0
40
20.0000
1
VISTA C - CORRENTE COM ESTICADOR
50
0.0000
72
1
73
0
11
1552.7000
21
-296.1000
31
0.0
0
LINE
8
TEXTO
10
1354.3000
20
-305.1000
30
0.0
11
1751.1000
21
-305.1000
31
0.0
0
TEXT
8
TEXTO
10
1552.7000
20
-326.1000
30
0.0
40
10.0000
1
ESCALA 1:5
50
0.0000
72
1
73
0
11
1552.7000
21
-326.1000
31
0.0
0
TEXT
8
TEXTO
10
-175.2000
20
-364.1000
30
0.0
40
12.5000
1
NOTAS
50
0.0000
0
TEXT
8
TEXTO
10
-175.2000
20
-381.1000
30
0.0
40
10.0000
1
1. Cotas em milimetros.
50
0.0000
0
TEXT
8
TEXTO
10
-175.2000
20
-398.1000
30
0.0
40
10.0000
1
2. Chapa de terca t = 4,75 mm, altura 150 mm (0,7 a 0,8 da altura da terca).
50
0.0000
0
TEXT
8
TEXTO
10
-175.2000
20
-415.1000
30
0.0
40
10.0000
1
3. Solda de filete 5 mm nos dois lados, na mesa da viga.
50
0.0000
0
TEXT
8
TEXTO
10
-175.2000
20
-432.1000
30
0.0
40
10.0000
1
4. Furos oblongos apenas na chapa; na terca, furo redondo %%c15 mm.
50
0.0000
0
TEXT
8
TEXTO
10
-175.2000
20
-449.1000
30
0.0
40
10.0000
1
5. Nunca soldar a terca na viga em campo (queima a galvanizacao).
50
0.0000
0
TEXT
8
TEXTO
10
-175.2000
20
-466.1000
30
0.0
40
10.0000
1
6. Corrente %%c16 no terco superior da alma, sempre com esticador.
50
0.0000
0
ENDSEC
0
EOF
