0
SECTION
2
HEADER
9
$ACADVER
1
AC1009
9
$INSUNITS
70
4
9
$EXTMIN
10
-473.3014
20
-1093.5000
30
0.0
9
$EXTMAX
10
1360.0514
20
379.8000
30
0.0
9
$LTSCALE
40
1.0
9
$TEXTSTYLE
7
STANDARD
0
ENDSEC
0
SECTION
2
TABLES
0
TABLE
2
LTYPE
70
4
0
LTYPE
2
CONTINUOUS
70
0
3
Solida
72
65
73
0
40
0.0
0
LTYPE
2
CENTER
70
0
3
Linha de centro ____ _ ____ _ ____
72
65
73
4
40
31.7500
49
0.5000
49
-6.3500
49
3.1750
49
-6.3500
0
LTYPE
2
HIDDEN
70
0
3
Tracejada __ __ __ __ __ __
72
65
73
3
40
9.5250
49
0.5000
49
-6.3500
49
3.1750
0
LTYPE
2
DASHED
70
0
3
Tracejada longa ___ ___ ___
72
65
73
3
40
12.7000
49
0.5000
49
-6.3500
49
6.3500
0
ENDTAB
0
TABLE
2
LAYER
70
14
0
LAYER
2
0
70
0
62
7
6
CONTINUOUS
0
LAYER
2
ACO
70
0
62
7
6
CONTINUOUS
0
LAYER
2
ACO-FINO
70
0
62
8
6
CONTINUOUS
0
LAYER
2
EIXO
70
0
62
1
6
CENTER
0
LAYER
2
OCULTA
70
0
62
8
6
HIDDEN
0
LAYER
2
COTA
70
0
62
3
6
CONTINUOUS
0
LAYER
2
TEXTO
70
0
62
7
6
CONTINUOUS
0
LAYER
2
FURO
70
0
62
5
6
CONTINUOUS
0
LAYER
2
SOLDA
70
0
62
2
6
CONTINUOUS
0
LAYER
2
PARAFUSO
70
0
62
5
6
CONTINUOUS
0
LAYER
2
CONCRETO
70
0
62
9
6
CONTINUOUS
0
LAYER
2
HACHURA
70
0
62
8
6
CONTINUOUS
0
LAYER
2
CARIMBO
70
0
62
7
6
CONTINUOUS
0
LAYER
2
AUXILIAR
70
0
62
8
6
DASHED
0
ENDTAB
0
TABLE
2
STYLE
70
1
0
STYLE
2
STANDARD
70
0
40
0.0
41
0.85
50
0.0
71
0
42
2.5
3
txt
4

0
ENDTAB
0
ENDSEC
0
SECTION
2
ENTITIES
0
LINE
8
ACO
10
-303.3014
20
-73.0000
30
0.0
11
303.3014
21
-73.0000
31
0.0
0
LINE
8
ACO
10
-303.3014
20
73.0000
30
0.0
11
303.3014
21
73.0000
31
0.0
0
LINE
8
OCULTA
10
-303.3014
20
-3.0500
30
0.0
11
303.3014
21
-3.0500
31
0.0
0
LINE
8
OCULTA
10
-303.3014
20
3.0500
30
0.0
11
303.3014
21
3.0500
31
0.0
0
LINE
8
EIXO
10
-328.3014
20
0.0000
30
0.0
11
328.3014
21
0.0000
31
0.0
0
POLYLINE
8
ACO
66
1
10
0.0
20
0.0
30
0.0
70
1
0
VERTEX
8
ACO
10
-171.9014
20
-73.0000
30
0.0
0
VERTEX
8
ACO
10
171.9014
20
-73.0000
30
0.0
0
VERTEX
8
ACO
10
171.9014
20
-141.9014
30
0.0
0
VERTEX
8
ACO
10
141.9014
20
-171.9014
30
0.0
0
VERTEX
8
ACO
10
-141.9014
20
-171.9014
30
0.0
0
VERTEX
8
ACO
10
-171.9014
20
-141.9014
30
0.0
0
SEQEND
8
ACO
0
LINE
8
EIXO
10
14.1421
20
14.1421
30
0.0
11
-361.4730
21
-361.4730
31
0.0
0
POLYLINE
8
ACO
66
1
10
0.0
20
0.0
30
0.0
70
1
0
VERTEX
8
ACO
10
-140.1839
20
-93.5149
30
0.0
0
VERTEX
8
ACO
10
-146.9014
20
-100.2324
30
0.0
0
VERTEX
8
ACO
10
-100.2324
20
-146.9014
30
0.0
0
VERTEX
8
ACO
10
-93.5149
20
-140.1839
30
0.0
0
SEQEND
8
ACO
0
LINE
8
OCULTA
10
-124.6276
20
-109.0712
30
0.0
11
-131.3451
21
-115.7887
31
0.0
0
LINE
8
OCULTA
10
-109.0712
20
-124.6276
30
0.0
11
-115.7887
21
-131.3451
31
0.0
0
LINE
8
ACO
10
-130.6380
20
-116.4958
30
0.0
11
-354.4019
21
-340.2598
31
0.0
0
LINE
8
ACO
10
-116.4958
20
-130.6380
30
0.0
11
-340.2598
21
-354.4019
31
0.0
0
POLYLINE
8
ACO-FINO
66
1
10
0.0
20
0.0
30
0.0
70
0
0
VERTEX
8
ACO-FINO
10
-361.4730
20
-333.1887
30
0.0
0
VERTEX
8
ACO-FINO
10
-347.3309
20
-337.9028
30
0.0
0
VERTEX
8
ACO-FINO
10
-347.3309
20
-356.7589
30
0.0
0
VERTEX
8
ACO-FINO
10
-333.1887
20
-361.4730
30
0.0
0
SEQEND
8
ACO-FINO
0
LINE
8
ACO-FINO
10
-129.5066
20
-117.6272
30
0.0
11
-159.5586
21
-147.6793
31
0.0
0
LINE
8
ACO-FINO
10
-117.6272
20
-129.5066
30
0.0
11
-147.6793
21
-159.5586
31
0.0
0
POLYLINE
8
PARAFUSO
66
1
10
0.0
20
0.0
30
0.0
70
1
0
VERTEX
8
PARAFUSO
10
-127.8096
20
-101.6466
30
0.0
0
VERTEX
8
PARAFUSO
10
-129.9309
20
-103.7679
30
0.0
0
VERTEX
8
PARAFUSO
10
-103.7679
20
-129.9309
30
0.0
0
VERTEX
8
PARAFUSO
10
-101.6466
20
-127.8096
30
0.0
0
SEQEND
8
PARAFUSO
0
POLYLINE
8
PARAFUSO
66
1
10
0.0
20
0.0
30
0.0
70
1
0
VERTEX
8
PARAFUSO
10
-113.3139
20
-92.1007
30
0.0
0
VERTEX
8
PARAFUSO
10
-125.3347
20
-104.1215
30
0.0
0
VERTEX
8
PARAFUSO
10
-104.1215
20
-125.3347
30
0.0
0
VERTEX
8
PARAFUSO
10
-92.1007
20
-113.3139
30
0.0
0
SEQEND
8
PARAFUSO
0
LINE
8
PARAFUSO
10
-108.0106
20
-97.4040
30
0.0
11
-120.0314
21
-109.4248
31
0.0
0
LINE
8
PARAFUSO
10
-97.4040
20
-108.0106
30
0.0
11
-109.4248
21
-120.0314
31
0.0
0
POLYLINE
8
PARAFUSO
66
1
10
0.0
20
0.0
30
0.0
70
1
0
VERTEX
8
PARAFUSO
10
-101.2930
20
-80.0798
30
0.0
0
VERTEX
8
PARAFUSO
10
-113.3139
20
-92.1007
30
0.0
0
VERTEX
8
PARAFUSO
10
-92.1007
20
-113.3139
30
0.0
0
VERTEX
8
PARAFUSO
10
-80.0798
20
-101.2930
30
0.0
0
SEQEND
8
PARAFUSO
0
LINE
8
PARAFUSO
10
-95.9897
20
-85.3831
30
0.0
11
-108.0106
21
-97.4040
31
0.0
0
LINE
8
PARAFUSO
10
-85.3831
20
-95.9897
30
0.0
11
-97.4040
21
-108.0106
31
0.0
0
POLYLINE
8
ACO
66
1
10
0.0
20
0.0
30
0.0
70
1
0
VERTEX
8
ACO
10
-93.5149
20
-79.3727
30
0.0
0
VERTEX
8
ACO
10
-97.7575
20
-83.6154
30
0.0
0
VERTEX
8
ACO
10
-83.6154
20
-97.7575
30
0.0
0
VERTEX
8
ACO
10
-79.3727
20
-93.5149
30
0.0
0
SEQEND
8
ACO
0
LINE
8
EIXO
10
-14.1421
20
14.1421
30
0.0
11
361.4730
21
-361.4730
31
0.0
0
POLYLINE
8
ACO
66
1
10
0.0
20
0.0
30
0.0
70
1
0
VERTEX
8
ACO
10
93.5149
20
-140.1839
30
0.0
0
VERTEX
8
ACO
10
100.2324
20
-146.9014
30
0.0
0
VERTEX
8
ACO
10
146.9014
20
-100.2324
30
0.0
0
VERTEX
8
ACO
10
140.1839
20
-93.5149
30
0.0
0
SEQEND
8
ACO
0
LINE
8
OCULTA
10
109.0712
20
-124.6276
30
0.0
11
115.7887
21
-131.3451
31
0.0
0
LINE
8
OCULTA
10
124.6276
20
-109.0712
30
0.0
11
131.3451
21
-115.7887
31
0.0
0
LINE
8
ACO
10
116.4958
20
-130.6380
30
0.0
11
340.2598
21
-354.4019
31
0.0
0
LINE
8
ACO
10
130.6380
20
-116.4958
30
0.0
11
354.4019
21
-340.2598
31
0.0
0
POLYLINE
8
ACO-FINO
66
1
10
0.0
20
0.0
30
0.0
70
0
0
VERTEX
8
ACO-FINO
10
333.1887
20
-361.4730
30
0.0
0
VERTEX
8
ACO-FINO
10
337.9028
20
-347.3309
30
0.0
0
VERTEX
8
ACO-FINO
10
356.7589
20
-347.3309
30
0.0
0
VERTEX
8
ACO-FINO
10
361.4730
20
-333.1887
30
0.0
0
SEQEND
8
ACO-FINO
0
LINE
8
ACO-FINO
10
117.6272
20
-129.5066
30
0.0
11
147.6793
21
-159.5586
31
0.0
0
LINE
8
ACO-FINO
10
129.5066
20
-117.6272
30
0.0
11
159.5586
21
-147.6793
31
0.0
0
POLYLINE
8
PARAFUSO
66
1
10
0.0
20
0.0
30
0.0
70
1
0
VERTEX
8
PARAFUSO
10
101.6466
20
-127.8096
30
0.0
0
VERTEX
8
PARAFUSO
10
103.7679
20
-129.9309
30
0.0
0
VERTEX
8
PARAFUSO
10
129.9309
20
-103.7679
30
0.0
0
VERTEX
8
PARAFUSO
10
127.8096
20
-101.6466
30
0.0
0
SEQEND
8
PARAFUSO
0
POLYLINE
8
PARAFUSO
66
1
10
0.0
20
0.0
30
0.0
70
1
0
VERTEX
8
PARAFUSO
10
92.1007
20
-113.3139
30
0.0
0
VERTEX
8
PARAFUSO
10
104.1215
20
-125.3347
30
0.0
0
VERTEX
8
PARAFUSO
10
125.3347
20
-104.1215
30
0.0
0
VERTEX
8
PARAFUSO
10
113.3139
20
-92.1007
30
0.0
0
SEQEND
8
PARAFUSO
0
LINE
8
PARAFUSO
10
97.4040
20
-108.0106
30
0.0
11
109.4248
21
-120.0314
31
0.0
0
LINE
8
PARAFUSO
10
108.0106
20
-97.4040
30
0.0
11
120.0314
21
-109.4248
31
0.0
0
POLYLINE
8
PARAFUSO
66
1
10
0.0
20
0.0
30
0.0
70
1
0
VERTEX
8
PARAFUSO
10
80.0798
20
-101.2930
30
0.0
0
VERTEX
8
PARAFUSO
10
92.1007
20
-113.3139
30
0.0
0
VERTEX
8
PARAFUSO
10
113.3139
20
-92.1007
30
0.0
0
VERTEX
8
PARAFUSO
10
101.2930
20
-80.0798
30
0.0
0
SEQEND
8
PARAFUSO
0
LINE
8
PARAFUSO
10
85.3831
20
-95.9897
30
0.0
11
97.4040
21
-108.0106
31
0.0
0
LINE
8
PARAFUSO
10
95.9897
20
-85.3831
30
0.0
11
108.0106
21
-97.4040
31
0.0
0
POLYLINE
8
ACO
66
1
10
0.0
20
0.0
30
0.0
70
1
0
VERTEX
8
ACO
10
79.3727
20
-93.5149
30
0.0
0
VERTEX
8
ACO
10
83.6154
20
-97.7575
30
0.0
0
VERTEX
8
ACO
10
97.7575
20
-83.6154
30
0.0
0
VERTEX
8
ACO
10
93.5149
20
-79.3727
30
0.0
0
SEQEND
8
ACO
0
CIRCLE
8
EIXO
10
0.0000
20
0.0000
30
0.0
40
13.1400
0
CIRCLE
8
EIXO
10
0.0000
20
0.0000
30
0.0
40
5.1100
0
LINE
8
ACO
10
-44.4500
20
-171.9014
30
0.0
11
-44.4500
21
-405.5014
31
0.0
0
LINE
8
ACO
10
44.4500
20
-171.9014
30
0.0
11
44.4500
21
-405.5014
31
0.0
0
POLYLINE
8
ACO-FINO
66
1
10
0.0
20
0.0
30
0.0
70
0
0
VERTEX
8
ACO-FINO
10
-44.4500
20
-405.5014
30
0.0
0
VERTEX
8
ACO-FINO
10
-14.8167
20
-390.6848
30
0.0
0
VERTEX
8
ACO-FINO
10
14.8167
20
-420.3181
30
0.0
0
VERTEX
8
ACO-FINO
10
44.4500
20
-405.5014
30
0.0
0
SEQEND
8
ACO-FINO
0
LINE
8
EIXO
10
0.0000
20
-151.9014
30
0.0
11
0.0000
21
-425.5014
31
0.0
0
LINE
8
ACO
10
52.8562
20
-77.6050
30
0.0
11
77.6050
21
-52.8562
31
0.0
0
TEXT
8
TEXTO
10
82.6050
20
-52.8562
30
0.0
40
12.5000
1
B
50
0.0000
72
0
73
2
11
82.6050
21
-52.8562
31
0.0
0
LINE
8
ACO
10
356.1697
20
-380.9184
30
0.0
11
380.9184
21
-356.1697
31
0.0
0
TEXT
8
TEXTO
10
385.9184
20
-356.1697
30
0.0
40
12.5000
1
B
50
0.0000
72
0
73
2
11
385.9184
21
-356.1697
31
0.0
0
LINE
8
SOLDA
10
-94.5458
20
-73.0000
30
0.0
11
-271.9014
21
189.8000
31
0.0
0
SOLID
8
SOLDA
10
-94.5458
20
-73.0000
30
0.0
11
-98.4299
21
-60.5410
31
0.0
12
-104.6466
22
-64.7365
32
0.0
13
-104.6466
23
-64.7365
33
0.0
0
LINE
8
SOLDA
10
-271.9014
20
189.8000
30
0.0
11
-381.9014
21
189.8000
31
0.0
0
SOLID
8
SOLDA
10
-318.1014
20
189.8000
30
0.0
11
-293.9014
21
189.8000
31
0.0
12
-318.1014
22
205.8000
32
0.0
13
-318.1014
23
205.8000
33
0.0
0
TEXT
8
SOLDA
10
-322.1014
20
192.8000
30
0.0
40
10.0000
1
6
50
0.0000
72
2
73
0
11
-322.1014
21
192.8000
31
0.0
0
TEXT
8
SOLDA
10
-385.9014
20
192.3000
30
0.0
40
10.0000
1
gusset-mesa, 2 lados
50
0.0000
72
2
73
0
11
-385.9014
21
192.3000
31
0.0
0
LINE
8
COTA
10
-5.3033
20
-5.3033
30
0.0
11
-58.6899
21
-58.6899
31
0.0
0
LINE
8
COTA
10
114.9049
20
-125.5115
30
0.0
11
61.5183
21
-178.8980
31
0.0
0
LINE
8
COTA
10
-51.6188
20
-51.6188
30
0.0
11
68.5894
21
-171.8269
31
0.0
0
SOLID
8
COTA
10
-51.6188
20
-51.6188
30
0.0
11
-45.4316
21
-63.1093
31
0.0
12
-40.1283
22
-57.8060
32
0.0
13
-40.1283
23
-57.8060
33
0.0
0
SOLID
8
COTA
10
68.5894
20
-171.8269
30
0.0
11
62.4022
21
-160.3365
31
0.0
12
57.0989
22
-165.6398
32
0.0
13
57.0989
23
-165.6398
33
0.0
0
TEXT
8
COTA
10
13.3466
20
-106.8615
30
0.0
40
12.5000
1
a = 170
50
-45.0000
72
1
73
0
11
13.3466
21
-106.8615
31
0.0
0
LINE
8
COTA
10
-171.9014
20
-179.4014
30
0.0
11
-171.9014
21
-231.9014
31
0.0
0
LINE
8
COTA
10
171.9014
20
-179.4014
30
0.0
11
171.9014
21
-231.9014
31
0.0
0
LINE
8
COTA
10
-171.9014
20
-221.9014
30
0.0
11
171.9014
21
-221.9014
31
0.0
0
SOLID
8
COTA
10
-171.9014
20
-221.9014
30
0.0
11
-159.4014
21
-225.6514
31
0.0
12
-159.4014
22
-218.1514
32
0.0
13
-159.4014
23
-218.1514
33
0.0
0
SOLID
8
COTA
10
171.9014
20
-221.9014
30
0.0
11
159.4014
21
-218.1514
31
0.0
12
159.4014
22
-225.6514
32
0.0
13
159.4014
23
-225.6514
33
0.0
0
TEXT
8
COTA
10
0.0000
20
-215.0264
30
0.0
40
12.5000
1
344
50
0.0000
72
1
73
0
11
0.0000
21
-215.0264
31
0.0
0
LINE
8
COTA
10
-179.4014
20
-171.9014
30
0.0
11
-231.9014
21
-171.9014
31
0.0
0
LINE
8
COTA
10
-179.4014
20
-73.0000
30
0.0
11
-231.9014
21
-73.0000
31
0.0
0
LINE
8
COTA
10
-221.9014
20
-171.9014
30
0.0
11
-221.9014
21
-73.0000
31
0.0
0
SOLID
8
COTA
10
-221.9014
20
-171.9014
30
0.0
11
-218.1514
21
-159.4014
31
0.0
12
-225.6514
22
-159.4014
32
0.0
13
-225.6514
23
-159.4014
33
0.0
0
SOLID
8
COTA
10
-221.9014
20
-73.0000
30
0.0
11
-225.6514
21
-85.5000
31
0.0
12
-218.1514
22
-85.5000
32
0.0
13
-218.1514
23
-85.5000
33
0.0
0
TEXT
8
COTA
10
-228.7764
20
-122.4507
30
0.0
40
12.5000
1
99
50
90.0000
72
1
73
0
11
-228.7764
21
-122.4507
31
0.0
0
LINE
8
COTA
10
310.8014
20
-73.0000
30
0.0
11
363.3014
21
-73.0000
31
0.0
0
LINE
8
COTA
10
310.8014
20
73.0000
30
0.0
11
363.3014
21
73.0000
31
0.0
0
LINE
8
COTA
10
353.3014
20
-73.0000
30
0.0
11
353.3014
21
73.0000
31
0.0
0
SOLID
8
COTA
10
353.3014
20
-73.0000
30
0.0
11
357.0514
21
-60.5000
31
0.0
12
349.5514
22
-60.5000
32
0.0
13
349.5514
23
-60.5000
33
0.0
0
SOLID
8
COTA
10
353.3014
20
73.0000
30
0.0
11
349.5514
21
60.5000
31
0.0
12
357.0514
22
60.5000
32
0.0
13
357.0514
23
60.5000
33
0.0
0
TEXT
8
COTA
10
346.4264
20
0.0000
30
0.0
40
12.5000
1
bf = 146
50
90.0000
72
1
73
0
11
346.4264
21
0.0000
31
0.0
0
ARC
8
COTA
10
0.0000
20
0.0000
30
0.0
40
359.8000
50
180.0000
51
225.0000
0
TEXT
8
COTA
10
-352.3566
20
-145.9509
30
0.0
40
10.0000
1
45%%d
50
0.0000
72
2
73
2
11
-352.3566
21
-145.9509
31
0.0
0
LINE
8
TEXTO
10
0.0000
20
0.0000
30
0.0
11
-136.4856
21
321.2000
31
0.0
0
SOLID
8
TEXTO
10
0.0000
20
0.0000
30
0.0
11
-1.4372
21
12.9710
31
0.0
12
-8.3399
22
10.0379
32
0.0
13
-8.3399
23
10.0379
33
0.0
0
LINE
8
TEXTO
10
-136.4856
20
321.2000
30
0.0
11
-156.4856
21
321.2000
31
0.0
0
TEXT
8
TEXTO
10
-159.4856
20
325.7000
30
0.0
40
10.0000
1
PT - PONTO DE TRABALHO
50
0.0000
72
2
73
0
11
-159.4856
21
325.7000
31
0.0
0
TEXT
8
TEXTO
10
-159.4856
20
312.2000
30
0.0
40
10.0000
1
eixos dos tirantes e da escora
50
0.0000
72
2
73
0
11
-159.4856
21
312.2000
31
0.0
0
TEXT
8
TEXTO
10
-159.4856
20
298.7000
30
0.0
40
10.0000
1
concorrem no eixo da mesa
50
0.0000
72
2
73
0
11
-159.4856
21
298.7000
31
0.0
0
LINE
8
TEXTO
10
227.4761
20
36.5000
30
0.0
11
106.1555
21
321.2000
31
0.0
0
SOLID
8
TEXTO
10
227.4761
20
36.5000
30
0.0
11
226.0256
21
49.4695
31
0.0
12
219.1259
22
46.5293
32
0.0
13
219.1259
23
46.5293
33
0.0
0
LINE
8
TEXTO
10
106.1555
20
321.2000
30
0.0
11
86.1555
21
321.2000
31
0.0
0
TEXT
8
TEXTO
10
83.1555
20
325.7000
30
0.0
40
10.0000
1
MESA DA VIGA  W 250x32,7
50
0.0000
72
2
73
0
11
83.1555
21
325.7000
31
0.0
0
LINE
8
TEXTO
10
-96.8736
20
-143.5427
30
0.0
11
-328.3014
21
-68.7606
31
0.0
0
SOLID
8
TEXTO
10
-96.8736
20
-143.5427
30
0.0
11
-107.6150
21
-136.1309
31
0.0
12
-109.9211
22
-143.2675
32
0.0
13
-109.9211
23
-143.2675
33
0.0
0
LINE
8
TEXTO
10
-328.3014
20
-68.7606
30
0.0
11
-348.3014
21
-68.7606
31
0.0
0
TEXT
8
TEXTO
10
-351.3014
20
-64.2606
30
0.0
40
10.0000
1
ORELHA t = 9,5
50
0.0000
72
2
73
0
11
-351.3014
21
-64.2606
31
0.0
0
TEXT
8
TEXTO
10
-351.3014
20
-77.7606
30
0.0
40
10.0000
1
uma por tirante
50
0.0000
72
2
73
0
11
-351.3014
21
-77.7606
31
0.0
0
LINE
8
TEXTO
10
-98.1111
20
-119.3243
30
0.0
11
-328.3014
21
-146.1162
31
0.0
0
SOLID
8
TEXTO
10
-98.1111
20
-119.3243
30
0.0
11
-110.9608
21
-117.0445
31
0.0
12
-110.0937
22
-124.4942
32
0.0
13
-110.0937
23
-124.4942
33
0.0
0
LINE
8
TEXTO
10
-328.3014
20
-146.1162
30
0.0
11
-348.3014
21
-146.1162
31
0.0
0
TEXT
8
TEXTO
10
-351.3014
20
-141.6162
30
0.0
40
10.0000
1
ARRUELA + PORCA + CONTRAPORCA
50
0.0000
72
2
73
0
11
-351.3014
21
-141.6162
31
0.0
0
LINE
8
TEXTO
10
-103.1409
20
-161.9014
30
0.0
11
-328.3014
21
-252.2014
31
0.0
0
SOLID
8
TEXTO
10
-103.1409
20
-161.9014
30
0.0
11
-116.1385
21
-163.0738
31
0.0
12
-113.3468
22
-170.0348
32
0.0
13
-113.3468
23
-170.0348
33
0.0
0
LINE
8
TEXTO
10
-328.3014
20
-252.2014
30
0.0
11
-348.3014
21
-252.2014
31
0.0
0
TEXT
8
TEXTO
10
-351.3014
20
-247.7014
30
0.0
40
10.0000
1
CHAPA GUSSET t = 9,5
50
0.0000
72
2
73
0
11
-351.3014
21
-247.7014
31
0.0
0
LINE
8
TEXTO
10
-44.4500
20
-361.7014
30
0.0
11
-242.6411
21
-390.9014
31
0.0
0
SOLID
8
TEXTO
10
-44.4500
20
-361.7014
30
0.0
11
-57.3631
21
-359.8135
31
0.0
12
-56.2699
22
-367.2334
32
0.0
13
-56.2699
23
-367.2334
33
0.0
0
LINE
8
TEXTO
10
-242.6411
20
-390.9014
30
0.0
11
-262.6411
21
-390.9014
31
0.0
0
TEXT
8
TEXTO
10
-265.6411
20
-386.4014
30
0.0
40
10.0000
1
ESCORA  TC 88,9x3,2 (3")
50
0.0000
72
2
73
0
11
-265.6411
21
-386.4014
31
0.0
0
LINE
8
TEXTO
10
298.9647
20
-313.1069
30
0.0
11
227.4761
21
-442.0014
31
0.0
0
SOLID
8
TEXTO
10
298.9647
20
-313.1069
30
0.0
11
289.6226
21
-322.2193
31
0.0
12
296.1813
22
-325.8570
32
0.0
13
296.1813
23
-325.8570
33
0.0
0
LINE
8
TEXTO
10
227.4761
20
-442.0014
30
0.0
11
207.4761
21
-442.0014
31
0.0
0
TEXT
8
TEXTO
10
204.4761
20
-437.5014
30
0.0
40
10.0000
1
DIAGONAIS - TIRANTE %%c20 mm
50
0.0000
72
2
73
0
11
204.4761
21
-437.5014
31
0.0
0
TEXT
8
TEXTO
10
204.4761
20
-451.0014
30
0.0
40
10.0000
1
rosca M20 nas pontas
50
0.0000
72
2
73
0
11
204.4761
21
-451.0014
31
0.0
0
TEXT
8
TEXTO
10
204.4761
20
-464.5014
30
0.0
40
10.0000
1
esticador no meio (vista C)
50
0.0000
72
2
73
0
11
204.4761
21
-464.5014
31
0.0
0
TEXT
8
TEXTO
10
0.0000
20
-602.0014
30
0.0
40
20.0000
1
PLANTA DO NO - TIRANTES
50
0.0000
72
1
73
0
11
0.0000
21
-602.0014
31
0.0
0
LINE
8
TEXTO
10
-142.6000
20
-611.0014
30
0.0
11
142.6000
21
-611.0014
31
0.0
0
TEXT
8
TEXTO
10
0.0000
20
-632.0014
30
0.0
40
10.0000
1
ESCALA 1:5
50
0.0000
72
1
73
0
11
0.0000
21
-632.0014
31
0.0
0
POLYLINE
8
ACO
66
1
10
0.0
20
0.0
30
0.0
70
1
0
VERTEX
8
ACO
10
643.3014
20
-122.5000
30
0.0
0
VERTEX
8
ACO
10
805.8014
20
-122.5000
30
0.0
0
VERTEX
8
ACO
10
805.8014
20
-113.0000
30
0.0
0
VERTEX
8
ACO
10
643.3014
20
-113.0000
30
0.0
0
SEQEND
8
ACO
0
LINE
8
HACHURA
10
801.5588
20
-122.5000
30
0.0
11
805.8014
21
-118.2574
31
0.0
0
LINE
8
HACHURA
10
797.3162
20
-122.5000
30
0.0
11
805.8014
21
-114.0147
31
0.0
0
LINE
8
HACHURA
10
793.0735
20
-122.5000
30
0.0
11
802.5735
21
-113.0000
31
0.0
0
LINE
8
HACHURA
10
788.8309
20
-122.5000
30
0.0
11
798.3309
21
-113.0000
31
0.0
0
LINE
8
HACHURA
10
784.5882
20
-122.5000
30
0.0
11
794.0882
21
-113.0000
31
0.0
0
LINE
8
HACHURA
10
780.3456
20
-122.5000
30
0.0
11
789.8456
21
-113.0000
31
0.0
0
LINE
8
HACHURA
10
776.1029
20
-122.5000
30
0.0
11
785.6029
21
-113.0000
31
0.0
0
LINE
8
HACHURA
10
771.8603
20
-122.5000
30
0.0
11
781.3603
21
-113.0000
31
0.0
0
LINE
8
HACHURA
10
767.6177
20
-122.5000
30
0.0
11
777.1177
21
-113.0000
31
0.0
0
LINE
8
HACHURA
10
763.3750
20
-122.5000
30
0.0
11
772.8750
21
-113.0000
31
0.0
0
LINE
8
HACHURA
10
759.1324
20
-122.5000
30
0.0
11
768.6324
21
-113.0000
31
0.0
0
LINE
8
HACHURA
10
754.8897
20
-122.5000
30
0.0
11
764.3897
21
-113.0000
31
0.0
0
LINE
8
HACHURA
10
750.6471
20
-122.5000
30
0.0
11
760.1471
21
-113.0000
31
0.0
0
LINE
8
HACHURA
10
746.4045
20
-122.5000
30
0.0
11
755.9045
21
-113.0000
31
0.0
0
LINE
8
HACHURA
10
742.1618
20
-122.5000
30
0.0
11
751.6618
21
-113.0000
31
0.0
0
LINE
8
HACHURA
10
737.9192
20
-122.5000
30
0.0
11
747.4192
21
-113.0000
31
0.0
0
LINE
8
HACHURA
10
733.6765
20
-122.5000
30
0.0
11
743.1765
21
-113.0000
31
0.0
0
LINE
8
HACHURA
10
729.4339
20
-122.5000
30
0.0
11
738.9339
21
-113.0000
31
0.0
0
LINE
8
HACHURA
10
725.1913
20
-122.5000
30
0.0
11
734.6913
21
-113.0000
31
0.0
0
LINE
8
HACHURA
10
720.9486
20
-122.5000
30
0.0
11
730.4486
21
-113.0000
31
0.0
0
LINE
8
HACHURA
10
716.7060
20
-122.5000
30
0.0
11
726.2060
21
-113.0000
31
0.0
0
LINE
8
HACHURA
10
712.4633
20
-122.5000
30
0.0
11
721.9633
21
-113.0000
31
0.0
0
LINE
8
HACHURA
10
708.2207
20
-122.5000
30
0.0
11
717.7207
21
-113.0000
31
0.0
0
LINE
8
HACHURA
10
703.9781
20
-122.5000
30
0.0
11
713.4781
21
-113.0000
31
0.0
0
LINE
8
HACHURA
10
699.7354
20
-122.5000
30
0.0
11
709.2354
21
-113.0000
31
0.0
0
LINE
8
HACHURA
10
695.4928
20
-122.5000
30
0.0
11
704.9928
21
-113.0000
31
0.0
0
LINE
8
HACHURA
10
691.2501
20
-122.5000
30
0.0
11
700.7501
21
-113.0000
31
0.0
0
LINE
8
HACHURA
10
687.0075
20
-122.5000
30
0.0
11
696.5075
21
-113.0000
31
0.0
0
LINE
8
HACHURA
10
682.7649
20
-122.5000
30
0.0
11
692.2649
21
-113.0000
31
0.0
0
LINE
8
HACHURA
10
678.5222
20
-122.5000
30
0.0
11
688.0222
21
-113.0000
31
0.0
0
LINE
8
HACHURA
10
674.2796
20
-122.5000
30
0.0
11
683.7796
21
-113.0000
31
0.0
0
LINE
8
HACHURA
10
670.0369
20
-122.5000
30
0.0
11
679.5369
21
-113.0000
31
0.0
0
LINE
8
HACHURA
10
665.7943
20
-122.5000
30
0.0
11
675.2943
21
-113.0000
31
0.0
0
LINE
8
HACHURA
10
661.5517
20
-122.5000
30
0.0
11
671.0517
21
-113.0000
31
0.0
0
LINE
8
HACHURA
10
657.3090
20
-122.5000
30
0.0
11
666.8090
21
-113.0000
31
0.0
0
LINE
8
HACHURA
10
653.0664
20
-122.5000
30
0.0
11
662.5664
21
-113.0000
31
0.0
0
LINE
8
HACHURA
10
648.8237
20
-122.5000
30
0.0
11
658.3237
21
-113.0000
31
0.0
0
LINE
8
HACHURA
10
644.5811
20
-122.5000
30
0.0
11
654.0811
21
-113.0000
31
0.0
0
LINE
8
HACHURA
10
643.3014
20
-119.5370
30
0.0
11
649.8384
21
-113.0000
31
0.0
0
LINE
8
HACHURA
10
643.3014
20
-115.2944
30
0.0
11
645.5958
21
-113.0000
31
0.0
0
POLYLINE
8
ACO
66
1
10
0.0
20
0.0
30
0.0
70
1
0
VERTEX
8
ACO
10
726.3014
20
-113.0000
30
0.0
0
VERTEX
8
ACO
10
735.8014
20
-113.0000
30
0.0
0
VERTEX
8
ACO
10
735.8014
20
-91.0000
30
0.0
0
VERTEX
8
ACO
10
726.3014
20
-91.0000
30
0.0
0
SEQEND
8
ACO
0
LINE
8
HACHURA
10
732.2659
20
-113.0000
30
0.0
11
735.8014
21
-109.4645
31
0.0
0
LINE
8
HACHURA
10
728.7304
20
-113.0000
30
0.0
11
735.8014
21
-105.9289
31
0.0
0
LINE
8
HACHURA
10
726.3014
20
-111.8934
30
0.0
11
735.8014
21
-102.3934
31
0.0
0
LINE
8
HACHURA
10
726.3014
20
-108.3579
30
0.0
11
735.8014
21
-98.8579
31
0.0
0
LINE
8
HACHURA
10
726.3014
20
-104.8223
30
0.0
11
735.8014
21
-95.3223
31
0.0
0
LINE
8
HACHURA
10
726.3014
20
-101.2868
30
0.0
11
735.8014
21
-91.7868
31
0.0
0
LINE
8
HACHURA
10
726.3014
20
-97.7513
30
0.0
11
733.0527
21
-91.0000
31
0.0
0
LINE
8
HACHURA
10
726.3014
20
-94.2157
30
0.0
11
729.5172
21
-91.0000
31
0.0
0
POLYLINE
8
ACO
66
1
10
0.0
20
0.0
30
0.0
70
1
0
VERTEX
8
ACO
10
726.3014
20
-69.0000
30
0.0
0
VERTEX
8
ACO
10
735.8014
20
-69.0000
30
0.0
0
VERTEX
8
ACO
10
735.8014
20
-47.0000
30
0.0
0
VERTEX
8
ACO
10
726.3014
20
-47.0000
30
0.0
0
SEQEND
8
ACO
0
LINE
8
HACHURA
10
732.2659
20
-69.0000
30
0.0
11
735.8014
21
-65.4645
31
0.0
0
LINE
8
HACHURA
10
728.7304
20
-69.0000
30
0.0
11
735.8014
21
-61.9289
31
0.0
0
LINE
8
HACHURA
10
726.3014
20
-67.8934
30
0.0
11
735.8014
21
-58.3934
31
0.0
0
LINE
8
HACHURA
10
726.3014
20
-64.3579
30
0.0
11
735.8014
21
-54.8579
31
0.0
0
LINE
8
HACHURA
10
726.3014
20
-60.8223
30
0.0
11
735.8014
21
-51.3223
31
0.0
0
LINE
8
HACHURA
10
726.3014
20
-57.2868
30
0.0
11
735.8014
21
-47.7868
31
0.0
0
LINE
8
HACHURA
10
726.3014
20
-53.7513
30
0.0
11
733.0527
21
-47.0000
31
0.0
0
LINE
8
HACHURA
10
726.3014
20
-50.2157
30
0.0
11
729.5172
21
-47.0000
31
0.0
0
LINE
8
ACO
10
683.3014
20
-90.0000
30
0.0
11
954.8014
21
-90.0000
31
0.0
0
LINE
8
ACO
10
683.3014
20
-70.0000
30
0.0
11
954.8014
21
-70.0000
31
0.0
0
LINE
8
ACO
10
683.3014
20
-90.0000
30
0.0
11
683.3014
21
-70.0000
31
0.0
0
POLYLINE
8
ACO-FINO
66
1
10
0.0
20
0.0
30
0.0
70
0
0
VERTEX
8
ACO-FINO
10
954.8014
20
-100.0000
30
0.0
0
VERTEX
8
ACO-FINO
10
948.1348
20
-86.6667
30
0.0
0
VERTEX
8
ACO-FINO
10
961.4681
20
-73.3333
30
0.0
0
VERTEX
8
ACO-FINO
10
954.8014
20
-60.0000
30
0.0
0
SEQEND
8
ACO-FINO
0
LINE
8
EIXO
10
618.3014
20
-80.0000
30
0.0
11
969.8014
21
-80.0000
31
0.0
0
LINE
8
ACO-FINO
10
683.3014
20
-88.4000
30
0.0
11
778.3014
21
-88.4000
31
0.0
0
LINE
8
ACO-FINO
10
683.3014
20
-71.6000
30
0.0
11
778.3014
21
-71.6000
31
0.0
0
POLYLINE
8
PARAFUSO
66
1
10
0.0
20
0.0
30
0.0
70
1
0
VERTEX
8
PARAFUSO
10
723.3014
20
-98.5000
30
0.0
0
VERTEX
8
PARAFUSO
10
726.3014
20
-98.5000
30
0.0
0
VERTEX
8
PARAFUSO
10
726.3014
20
-61.5000
30
0.0
0
VERTEX
8
PARAFUSO
10
723.3014
20
-61.5000
30
0.0
0
SEQEND
8
PARAFUSO
0
POLYLINE
8
PARAFUSO
66
1
10
0.0
20
0.0
30
0.0
70
1
0
VERTEX
8
PARAFUSO
10
706.3014
20
-97.4000
30
0.0
0
VERTEX
8
PARAFUSO
10
723.3014
20
-97.4000
30
0.0
0
VERTEX
8
PARAFUSO
10
723.3014
20
-62.6000
30
0.0
0
VERTEX
8
PARAFUSO
10
706.3014
20
-62.6000
30
0.0
0
SEQEND
8
PARAFUSO
0
LINE
8
PARAFUSO
10
706.3014
20
-88.7000
30
0.0
11
723.3014
21
-88.7000
31
0.0
0
LINE
8
PARAFUSO
10
706.3014
20
-71.3000
30
0.0
11
723.3014
21
-71.3000
31
0.0
0
POLYLINE
8
PARAFUSO
66
1
10
0.0
20
0.0
30
0.0
70
1
0
VERTEX
8
PARAFUSO
10
689.3014
20
-97.4000
30
0.0
0
VERTEX
8
PARAFUSO
10
706.3014
20
-97.4000
30
0.0
0
VERTEX
8
PARAFUSO
10
706.3014
20
-62.6000
30
0.0
0
VERTEX
8
PARAFUSO
10
689.3014
20
-62.6000
30
0.0
0
SEQEND
8
PARAFUSO
0
LINE
8
PARAFUSO
10
689.3014
20
-88.7000
30
0.0
11
706.3014
21
-88.7000
31
0.0
0
LINE
8
PARAFUSO
10
689.3014
20
-71.3000
30
0.0
11
706.3014
21
-71.3000
31
0.0
0
SOLID
8
SOLDA
10
726.3014
20
-113.0000
30
0.0
11
720.3014
21
-113.0000
31
0.0
12
726.3014
22
-107.0000
32
0.0
13
726.3014
23
-107.0000
33
0.0
0
SOLID
8
SOLDA
10
735.8014
20
-113.0000
30
0.0
11
741.8014
21
-113.0000
31
0.0
12
735.8014
22
-107.0000
32
0.0
13
735.8014
23
-107.0000
33
0.0
0
LINE
8
SOLDA
10
737.9014
20
-110.9000
30
0.0
11
875.8014
21
-7.0000
31
0.0
0
SOLID
8
SOLDA
10
737.9014
20
-110.9000
30
0.0
11
750.1415
21
-106.3731
31
0.0
12
745.6283
22
-100.3830
32
0.0
13
745.6283
23
-100.3830
33
0.0
0
LINE
8
SOLDA
10
875.8014
20
-7.0000
30
0.0
11
985.8014
21
-7.0000
31
0.0
0
SOLID
8
SOLDA
10
922.0014
20
-7.0000
30
0.0
11
946.2014
21
-7.0000
31
0.0
12
922.0014
22
9.0000
32
0.0
13
922.0014
23
9.0000
33
0.0
0
TEXT
8
SOLDA
10
918.0014
20
-4.0000
30
0.0
40
10.0000
1
6
50
0.0000
72
2
73
0
11
918.0014
21
-4.0000
31
0.0
0
TEXT
8
SOLDA
10
989.8014
20
-4.5000
30
0.0
40
10.0000
1
orelha-gusset, 2 lados
50
0.0000
0
LINE
8
COTA
10
718.8014
20
-113.0000
30
0.0
11
583.3014
21
-113.0000
31
0.0
0
LINE
8
COTA
10
718.8014
20
-80.0000
30
0.0
11
583.3014
21
-80.0000
31
0.0
0
LINE
8
COTA
10
593.3014
20
-113.0000
30
0.0
11
593.3014
21
-80.0000
31
0.0
0
SOLID
8
COTA
10
593.3014
20
-113.0000
30
0.0
11
595.7764
21
-104.7500
31
0.0
12
590.8264
22
-104.7500
32
0.0
13
590.8264
23
-104.7500
33
0.0
0
SOLID
8
COTA
10
593.3014
20
-80.0000
30
0.0
11
590.8264
21
-88.2500
31
0.0
12
595.7764
22
-88.2500
32
0.0
13
595.7764
23
-88.2500
33
0.0
0
TEXT
8
COTA
10
586.4264
20
-96.5000
30
0.0
40
12.5000
1
e = 33
50
90.0000
72
1
73
0
11
586.4264
21
-96.5000
31
0.0
0
LINE
8
COTA
10
718.8014
20
-113.0000
30
0.0
11
533.3014
21
-113.0000
31
0.0
0
LINE
8
COTA
10
718.8014
20
-47.0000
30
0.0
11
533.3014
21
-47.0000
31
0.0
0
LINE
8
COTA
10
543.3014
20
-113.0000
30
0.0
11
543.3014
21
-47.0000
31
0.0
0
SOLID
8
COTA
10
543.3014
20
-113.0000
30
0.0
11
547.0514
21
-100.5000
31
0.0
12
539.5514
22
-100.5000
32
0.0
13
539.5514
23
-100.5000
33
0.0
0
SOLID
8
COTA
10
543.3014
20
-47.0000
30
0.0
11
539.5514
21
-59.5000
31
0.0
12
547.0514
22
-59.5000
32
0.0
13
547.0514
23
-59.5000
33
0.0
0
TEXT
8
COTA
10
536.4264
20
-80.0000
30
0.0
40
12.5000
1
66
50
90.0000
72
1
73
0
11
536.4264
21
-80.0000
31
0.0
0
LINE
8
COTA
10
726.3014
20
-39.5000
30
0.0
11
726.3014
21
13.0000
31
0.0
0
LINE
8
COTA
10
735.8014
20
-39.5000
30
0.0
11
735.8014
21
13.0000
31
0.0
0
LINE
8
COTA
10
726.3014
20
3.0000
30
0.0
11
735.8014
21
3.0000
31
0.0
0
SOLID
8
COTA
10
726.3014
20
3.0000
30
0.0
11
721.3014
21
4.5000
31
0.0
12
721.3014
22
1.5000
32
0.0
13
721.3014
23
1.5000
33
0.0
0
SOLID
8
COTA
10
735.8014
20
3.0000
30
0.0
11
740.8014
21
1.5000
31
0.0
12
740.8014
22
4.5000
32
0.0
13
740.8014
23
4.5000
33
0.0
0
LINE
8
COTA
10
716.3014
20
3.0000
30
0.0
11
726.3014
21
3.0000
31
0.0
0
LINE
8
COTA
10
745.8014
20
3.0000
30
0.0
11
735.8014
21
3.0000
31
0.0
0
TEXT
8
COTA
10
758.0514
20
9.8750
30
0.0
40
12.5000
1
9,5
50
0.0000
72
1
73
0
11
758.0514
21
9.8750
31
0.0
0
LINE
8
COTA
10
932.3014
20
-90.0000
30
0.0
11
974.8014
21
-90.0000
31
0.0
0
LINE
8
COTA
10
932.3014
20
-70.0000
30
0.0
11
974.8014
21
-70.0000
31
0.0
0
LINE
8
COTA
10
964.8014
20
-90.0000
30
0.0
11
964.8014
21
-70.0000
31
0.0
0
SOLID
8
COTA
10
964.8014
20
-90.0000
30
0.0
11
966.3014
21
-85.0000
31
0.0
12
963.3014
22
-85.0000
32
0.0
13
963.3014
23
-85.0000
33
0.0
0
SOLID
8
COTA
10
964.8014
20
-70.0000
30
0.0
11
963.3014
21
-75.0000
31
0.0
12
966.3014
22
-75.0000
32
0.0
13
966.3014
23
-75.0000
33
0.0
0
TEXT
8
COTA
10
959.3014
20
-80.0000
30
0.0
40
10.0000
1
%%c20
50
90.0000
72
1
73
0
11
959.3014
21
-80.0000
31
0.0
0
LINE
8
COTA
10
683.3014
20
-130.0000
30
0.0
11
683.3014
21
-182.5000
31
0.0
0
LINE
8
COTA
10
778.3014
20
-130.0000
30
0.0
11
778.3014
21
-182.5000
31
0.0
0
LINE
8
COTA
10
683.3014
20
-172.5000
30
0.0
11
778.3014
21
-172.5000
31
0.0
0
SOLID
8
COTA
10
683.3014
20
-172.5000
30
0.0
11
695.8014
21
-176.2500
31
0.0
12
695.8014
22
-168.7500
32
0.0
13
695.8014
23
-168.7500
33
0.0
0
SOLID
8
COTA
10
778.3014
20
-172.5000
30
0.0
11
765.8014
21
-168.7500
31
0.0
12
765.8014
22
-176.2500
32
0.0
13
765.8014
23
-176.2500
33
0.0
0
TEXT
8
COTA
10
730.8014
20
-165.6250
30
0.0
40
12.5000
1
ROSCA M20 - 95
50
0.0000
72
1
73
0
11
730.8014
21
-165.6250
31
0.0
0
LINE
8
TEXTO
10
731.0514
20
-69.0000
30
0.0
11
795.8014
21
83.0000
31
0.0
0
SOLID
8
TEXTO
10
731.0514
20
-69.0000
30
0.0
11
739.4003
21
-58.9696
31
0.0
12
732.5003
22
-56.0303
32
0.0
13
732.5003
23
-56.0303
33
0.0
0
LINE
8
TEXTO
10
795.8014
20
83.0000
30
0.0
11
815.8014
21
83.0000
31
0.0
0
TEXT
8
TEXTO
10
818.8014
20
87.5000
30
0.0
40
10.0000
1
FURO %%c22 (d + 2)
50
0.0000
0
LINE
8
TEXTO
10
785.8014
20
-117.7500
30
0.0
11
855.8014
21
-212.5000
31
0.0
0
SOLID
8
TEXTO
10
785.8014
20
-117.7500
30
0.0
11
790.2129
21
-130.0322
31
0.0
12
796.2452
22
-125.5756
32
0.0
13
796.2452
23
-125.5756
33
0.0
0
LINE
8
TEXTO
10
855.8014
20
-212.5000
30
0.0
11
875.8014
21
-212.5000
31
0.0
0
TEXT
8
TEXTO
10
878.8014
20
-208.0000
30
0.0
40
10.0000
1
CHAPA GUSSET t = 9,5
50
0.0000
0
LINE
8
TEXTO
10
706.3014
20
-62.6000
30
0.0
11
593.3014
21
83.0000
31
0.0
0
SOLID
8
TEXTO
10
706.3014
20
-62.6000
30
0.0
11
701.6000
21
-50.4259
31
0.0
12
695.6750
22
-55.0242
32
0.0
13
695.6750
23
-55.0242
33
0.0
0
LINE
8
TEXTO
10
593.3014
20
83.0000
30
0.0
11
573.3014
21
83.0000
31
0.0
0
TEXT
8
TEXTO
10
570.3014
20
87.5000
30
0.0
40
10.0000
1
ARRUELA + PORCA + CONTRAPORCA
50
0.0000
72
2
73
0
11
570.3014
21
87.5000
31
0.0
0
TEXT
8
TEXTO
10
794.0514
20
-312.5000
30
0.0
40
20.0000
1
CORTE B-B - PONTA DO TIRANTE
50
0.0000
72
1
73
0
11
794.0514
21
-312.5000
31
0.0
0
LINE
8
TEXTO
10
620.4514
20
-321.5000
30
0.0
11
967.6514
21
-321.5000
31
0.0
0
TEXT
8
TEXTO
10
794.0514
20
-342.5000
30
0.0
40
10.0000
1
ESCALA 1:5
50
0.0000
72
1
73
0
11
794.0514
21
-342.5000
31
0.0
0
LINE
8
ACO
10
565.6514
20
-572.5000
30
0.0
11
697.0514
21
-572.5000
31
0.0
0
LINE
8
ACO
10
738.0514
20
-572.5000
30
0.0
11
774.8514
21
-572.5000
31
0.0
0
LINE
8
OCULTA
10
714.0514
20
-572.5000
30
0.0
11
738.0514
21
-572.5000
31
0.0
0
LINE
8
ACO
10
565.6514
20
-552.5000
30
0.0
11
697.0514
21
-552.5000
31
0.0
0
LINE
8
ACO
10
738.0514
20
-552.5000
30
0.0
11
774.8514
21
-552.5000
31
0.0
0
LINE
8
OCULTA
10
714.0514
20
-552.5000
30
0.0
11
738.0514
21
-552.5000
31
0.0
0
LINE
8
ACO
10
774.8514
20
-572.5000
30
0.0
11
774.8514
21
-552.5000
31
0.0
0
POLYLINE
8
ACO-FINO
66
1
10
0.0
20
0.0
30
0.0
70
0
0
VERTEX
8
ACO-FINO
10
565.6514
20
-582.5000
30
0.0
0
VERTEX
8
ACO-FINO
10
558.9848
20
-569.1667
30
0.0
0
VERTEX
8
ACO-FINO
10
572.3181
20
-555.8333
30
0.0
0
VERTEX
8
ACO-FINO
10
565.6514
20
-542.5000
30
0.0
0
SEQEND
8
ACO-FINO
0
LINE
8
ACO-FINO
10
774.8514
20
-570.9000
30
0.0
11
657.0514
21
-570.9000
31
0.0
0
LINE
8
ACO-FINO
10
774.8514
20
-554.1000
30
0.0
11
657.0514
21
-554.1000
31
0.0
0
POLYLINE
8
ACO
66
1
10
0.0
20
0.0
30
0.0
70
1
0
VERTEX
8
ACO
10
714.0514
20
-580.5000
30
0.0
0
VERTEX
8
ACO
10
738.0514
20
-580.5000
30
0.0
0
VERTEX
8
ACO
10
738.0514
20
-544.5000
30
0.0
0
VERTEX
8
ACO
10
714.0514
20
-544.5000
30
0.0
0
SEQEND
8
ACO
0
POLYLINE
8
PARAFUSO
66
1
10
0.0
20
0.0
30
0.0
70
1
0
VERTEX
8
PARAFUSO
10
697.0514
20
-579.9000
30
0.0
0
VERTEX
8
PARAFUSO
10
714.0514
20
-579.9000
30
0.0
0
VERTEX
8
PARAFUSO
10
714.0514
20
-545.1000
30
0.0
0
VERTEX
8
PARAFUSO
10
697.0514
20
-545.1000
30
0.0
0
SEQEND
8
PARAFUSO
0
LINE
8
ACO
10
1022.4514
20
-572.5000
30
0.0
11
891.0514
21
-572.5000
31
0.0
0
LINE
8
ACO
10
850.0514
20
-572.5000
30
0.0
11
813.2514
21
-572.5000
31
0.0
0
LINE
8
OCULTA
10
874.0514
20
-572.5000
30
0.0
11
850.0514
21
-572.5000
31
0.0
0
LINE
8
ACO
10
1022.4514
20
-552.5000
30
0.0
11
891.0514
21
-552.5000
31
0.0
0
LINE
8
ACO
10
850.0514
20
-552.5000
30
0.0
11
813.2514
21
-552.5000
31
0.0
0
LINE
8
OCULTA
10
874.0514
20
-552.5000
30
0.0
11
850.0514
21
-552.5000
31
0.0
0
LINE
8
ACO
10
813.2514
20
-572.5000
30
0.0
11
813.2514
21
-552.5000
31
0.0
0
POLYLINE
8
ACO-FINO
66
1
10
0.0
20
0.0
30
0.0
70
0
0
VERTEX
8
ACO-FINO
10
1022.4514
20
-582.5000
30
0.0
0
VERTEX
8
ACO-FINO
10
1015.7848
20
-569.1667
30
0.0
0
VERTEX
8
ACO-FINO
10
1029.1181
20
-555.8333
30
0.0
0
VERTEX
8
ACO-FINO
10
1022.4514
20
-542.5000
30
0.0
0
SEQEND
8
ACO-FINO
0
LINE
8
ACO-FINO
10
813.2514
20
-570.9000
30
0.0
11
931.0514
21
-570.9000
31
0.0
0
LINE
8
ACO-FINO
10
813.2514
20
-554.1000
30
0.0
11
931.0514
21
-554.1000
31
0.0
0
POLYLINE
8
ACO
66
1
10
0.0
20
0.0
30
0.0
70
1
0
VERTEX
8
ACO
10
850.0514
20
-580.5000
30
0.0
0
VERTEX
8
ACO
10
874.0514
20
-580.5000
30
0.0
0
VERTEX
8
ACO
10
874.0514
20
-544.5000
30
0.0
0
VERTEX
8
ACO
10
850.0514
20
-544.5000
30
0.0
0
SEQEND
8
ACO
0
POLYLINE
8
PARAFUSO
66
1
10
0.0
20
0.0
30
0.0
70
1
0
VERTEX
8
PARAFUSO
10
874.0514
20
-579.9000
30
0.0
0
VERTEX
8
PARAFUSO
10
891.0514
20
-579.9000
30
0.0
0
VERTEX
8
PARAFUSO
10
891.0514
20
-545.1000
30
0.0
0
VERTEX
8
PARAFUSO
10
874.0514
20
-545.1000
30
0.0
0
SEQEND
8
PARAFUSO
0
POLYLINE
8
ACO
66
1
10
0.0
20
0.0
30
0.0
70
1
0
VERTEX
8
ACO
10
738.0514
20
-551.5000
30
0.0
0
VERTEX
8
ACO
10
850.0514
20
-551.5000
30
0.0
0
VERTEX
8
ACO
10
850.0514
20
-545.5000
30
0.0
0
VERTEX
8
ACO
10
738.0514
20
-545.5000
30
0.0
0
SEQEND
8
ACO
0
POLYLINE
8
ACO
66
1
10
0.0
20
0.0
30
0.0
70
1
0
VERTEX
8
ACO
10
738.0514
20
-579.5000
30
0.0
0
VERTEX
8
ACO
10
850.0514
20
-579.5000
30
0.0
0
VERTEX
8
ACO
10
850.0514
20
-573.5000
30
0.0
0
VERTEX
8
ACO
10
738.0514
20
-573.5000
30
0.0
0
SEQEND
8
ACO
0
LINE
8
EIXO
10
550.6514
20
-562.5000
30
0.0
11
1037.4514
21
-562.5000
31
0.0
0
LINE
8
COTA
10
714.0514
20
-537.0000
30
0.0
11
714.0514
21
-484.5000
31
0.0
0
LINE
8
COTA
10
874.0514
20
-537.0000
30
0.0
11
874.0514
21
-484.5000
31
0.0
0
LINE
8
COTA
10
714.0514
20
-494.5000
30
0.0
11
874.0514
21
-494.5000
31
0.0
0
SOLID
8
COTA
10
714.0514
20
-494.5000
30
0.0
11
726.5514
21
-498.2500
31
0.0
12
726.5514
22
-490.7500
32
0.0
13
726.5514
23
-490.7500
33
0.0
0
SOLID
8
COTA
10
874.0514
20
-494.5000
30
0.0
11
861.5514
21
-490.7500
31
0.0
12
861.5514
22
-498.2500
32
0.0
13
861.5514
23
-498.2500
33
0.0
0
TEXT
8
COTA
10
794.0514
20
-487.6250
30
0.0
40
12.5000
1
160
50
0.0000
72
1
73
0
11
794.0514
21
-487.6250
31
0.0
0
LINE
8
COTA
10
657.0514
20
-588.0000
30
0.0
11
657.0514
21
-640.5000
31
0.0
0
LINE
8
COTA
10
774.8514
20
-588.0000
30
0.0
11
774.8514
21
-640.5000
31
0.0
0
LINE
8
COTA
10
657.0514
20
-630.5000
30
0.0
11
774.8514
21
-630.5000
31
0.0
0
SOLID
8
COTA
10
657.0514
20
-630.5000
30
0.0
11
669.5514
21
-634.2500
31
0.0
12
669.5514
22
-626.7500
32
0.0
13
669.5514
23
-626.7500
33
0.0
0
SOLID
8
COTA
10
774.8514
20
-630.5000
30
0.0
11
762.3514
21
-626.7500
31
0.0
12
762.3514
22
-634.2500
32
0.0
13
762.3514
23
-634.2500
33
0.0
0
TEXT
8
COTA
10
715.9514
20
-625.0000
30
0.0
40
10.0000
1
ROSCA DIR. M20 = 118
50
0.0000
72
1
73
0
11
715.9514
21
-625.0000
31
0.0
0
LINE
8
COTA
10
813.2514
20
-588.0000
30
0.0
11
813.2514
21
-640.5000
31
0.0
0
LINE
8
COTA
10
931.0514
20
-588.0000
30
0.0
11
931.0514
21
-640.5000
31
0.0
0
LINE
8
COTA
10
813.2514
20
-630.5000
30
0.0
11
931.0514
21
-630.5000
31
0.0
0
SOLID
8
COTA
10
813.2514
20
-630.5000
30
0.0
11
825.7514
21
-634.2500
31
0.0
12
825.7514
22
-626.7500
32
0.0
13
825.7514
23
-626.7500
33
0.0
0
SOLID
8
COTA
10
931.0514
20
-630.5000
30
0.0
11
918.5514
21
-626.7500
31
0.0
12
918.5514
22
-634.2500
32
0.0
13
918.5514
23
-634.2500
33
0.0
0
TEXT
8
COTA
10
872.1514
20
-625.0000
30
0.0
40
10.0000
1
ROSCA ESQ. M20 = 118
50
0.0000
72
1
73
0
11
872.1514
21
-625.0000
31
0.0
0
LINE
8
TEXTO
10
826.0514
20
-545.5000
30
0.0
11
924.0514
21
-424.5000
31
0.0
0
SOLID
8
TEXTO
10
826.0514
20
-545.5000
30
0.0
11
836.8328
21
-538.1465
31
0.0
12
831.0046
22
-533.4261
32
0.0
13
831.0046
23
-533.4261
33
0.0
0
LINE
8
TEXTO
10
924.0514
20
-424.5000
30
0.0
11
944.0514
21
-424.5000
31
0.0
0
TEXT
8
TEXTO
10
947.0514
20
-420.0000
30
0.0
40
10.0000
1
ESTICADOR FORJADO M20
50
0.0000
0
TEXT
8
TEXTO
10
947.0514
20
-433.5000
30
0.0
40
10.0000
1
classe >= a da barra
50
0.0000
0
LINE
8
TEXTO
10
705.5514
20
-545.1000
30
0.0
11
614.0514
21
-424.5000
31
0.0
0
SOLID
8
TEXTO
10
705.5514
20
-545.1000
30
0.0
11
700.9835
21
-532.8752
31
0.0
12
695.0086
22
-537.4084
32
0.0
13
695.0086
23
-537.4084
33
0.0
0
LINE
8
TEXTO
10
614.0514
20
-424.5000
30
0.0
11
594.0514
21
-424.5000
31
0.0
0
TEXT
8
TEXTO
10
591.0514
20
-420.0000
30
0.0
40
10.0000
1
CONTRAPORCA
50
0.0000
72
2
73
0
11
591.0514
21
-420.0000
31
0.0
0
TEXT
8
TEXTO
10
794.0514
20
-770.5000
30
0.0
40
20.0000
1
VISTA C - ESTICADOR NO MEIO DA DIAGONAL
50
0.0000
72
1
73
0
11
794.0514
21
-770.5000
31
0.0
0
LINE
8
TEXTO
10
552.2514
20
-779.5000
30
0.0
11
1035.8514
21
-779.5000
31
0.0
0
TEXT
8
TEXTO
10
794.0514
20
-800.5000
30
0.0
40
10.0000
1
ESCALA 1:5
50
0.0000
72
1
73
0
11
794.0514
21
-800.5000
31
0.0
0
TEXT
8
TEXTO
10
-453.3014
20
-920.5000
30
0.0
40
12.5000
1
NOTAS
50
0.0000
0
TEXT
8
TEXTO
10
-453.3014
20
-937.5000
30
0.0
40
10.0000
1
1. Cotas em milimetros.
50
0.0000
0
TEXT
8
TEXTO
10
-453.3014
20
-954.5000
30
0.0
40
10.0000
1
2. Tirantes %%c20 mm com rosca M20 nas pontas (Ae = 0,75 Ag, NBR 8800 item 5.2.8).
50
0.0000
0
TEXT
8
TEXTO
10
-453.3014
20
-971.5000
30
0.0
40
10.0000
1
3. Orelha t = 9,5 mm soldada a chapa gusset t = 9,5 mm; gusset soldado a mesa, filete 6 mm.
50
0.0000
0
TEXT
8
TEXTO
10
-453.3014
20
-988.5000
30
0.0
40
10.0000
1
4. Furo %%c22 na orelha; arruela, porca e contraporca do lado do PT.
50
0.0000
0
TEXT
8
TEXTO
10
-453.3014
20
-1005.5000
30
0.0
40
10.0000
1
5. Esticador no meio da diagonal; pre-tracionar apos o prumo.
50
0.0000
0
TEXT
8
TEXTO
10
-453.3014
20
-1022.5000
30
0.0
40
10.0000
1
6. Tirantes so trabalham a tracao e nao se ligam no cruzamento.
50
0.0000
0
TEXT
8
TEXTO
10
-453.3014
20
-1039.5000
30
0.0
40
10.0000
1
7. Esticador de 160 mm adotado para o desenho; confirmar no catalogo.
50
0.0000
0
TEXT
8
TEXTO
10
-453.3014
20
-1056.5000
30
0.0
40
10.0000
1
8. Contraventamento vertical: tirante %%c20 mm, mesmas pontas e esticador.
50
0.0000
0
TEXT
8
TEXTO
10
-453.3014
20
-1073.5000
30
0.0
40
10.0000
1
9. Escora TC 88,9x3,2 (3") adotada no detalhamento; nao consta do calculo.
50
0.0000
0
ENDSEC
0
EOF
