0
SECTION
2
HEADER
9
$ACADVER
1
AC1009
9
$INSUNITS
70
4
9
$EXTMIN
10
-20.0000
20
-803.5000
30
0.0
9
$EXTMAX
10
2306.4500
20
288.8750
30
0.0
9
$LTSCALE
40
1.0
9
$TEXTSTYLE
7
STANDARD
0
ENDSEC
0
SECTION
2
TABLES
0
TABLE
2
LTYPE
70
4
0
LTYPE
2
CONTINUOUS
70
0
3
Solida
72
65
73
0
40
0.0
0
LTYPE
2
CENTER
70
0
3
Linha de centro ____ _ ____ _ ____
72
65
73
4
40
31.7500
49
0.5000
49
-6.3500
49
3.1750
49
-6.3500
0
LTYPE
2
HIDDEN
70
0
3
Tracejada __ __ __ __ __ __
72
65
73
3
40
9.5250
49
0.5000
49
-6.3500
49
3.1750
0
LTYPE
2
DASHED
70
0
3
Tracejada longa ___ ___ ___
72
65
73
3
40
12.7000
49
0.5000
49
-6.3500
49
6.3500
0
ENDTAB
0
TABLE
2
LAYER
70
14
0
LAYER
2
0
70
0
62
7
6
CONTINUOUS
0
LAYER
2
ACO
70
0
62
7
6
CONTINUOUS
0
LAYER
2
ACO-FINO
70
0
62
8
6
CONTINUOUS
0
LAYER
2
EIXO
70
0
62
1
6
CENTER
0
LAYER
2
OCULTA
70
0
62
8
6
HIDDEN
0
LAYER
2
COTA
70
0
62
3
6
CONTINUOUS
0
LAYER
2
TEXTO
70
0
62
7
6
CONTINUOUS
0
LAYER
2
FURO
70
0
62
5
6
CONTINUOUS
0
LAYER
2
SOLDA
70
0
62
2
6
CONTINUOUS
0
LAYER
2
PARAFUSO
70
0
62
5
6
CONTINUOUS
0
LAYER
2
CONCRETO
70
0
62
9
6
CONTINUOUS
0
LAYER
2
HACHURA
70
0
62
8
6
CONTINUOUS
0
LAYER
2
CARIMBO
70
0
62
7
6
CONTINUOUS
0
LAYER
2
AUXILIAR
70
0
62
8
6
DASHED
0
ENDTAB
0
TABLE
2
STYLE
70
1
0
STYLE
2
STANDARD
70
0
40
0.0
41
0.85
50
0.0
71
0
42
2.5
3
txt
4

0
ENDTAB
0
ENDSEC
0
SECTION
2
ENTITIES
0
POLYLINE
8
ACO
66
1
10
0.0
20
0.0
30
0.0
70
1
0
VERTEX
8
ACO
10
160.0000
20
-199.5000
30
0.0
0
VERTEX
8
ACO
10
300.0000
20
-199.5000
30
0.0
0
VERTEX
8
ACO
10
300.0000
20
-190.7000
30
0.0
0
VERTEX
8
ACO
10
233.2000
20
-190.7000
30
0.0
0
VERTEX
8
ACO
10
233.2000
20
190.7000
30
0.0
0
VERTEX
8
ACO
10
300.0000
20
190.7000
30
0.0
0
VERTEX
8
ACO
10
300.0000
20
199.5000
30
0.0
0
VERTEX
8
ACO
10
160.0000
20
199.5000
30
0.0
0
VERTEX
8
ACO
10
160.0000
20
190.7000
30
0.0
0
VERTEX
8
ACO
10
226.8000
20
190.7000
30
0.0
0
VERTEX
8
ACO
10
226.8000
20
-190.7000
30
0.0
0
VERTEX
8
ACO
10
160.0000
20
-190.7000
30
0.0
0
SEQEND
8
ACO
0
LINE
8
HACHURA
10
292.7592
20
-199.5000
30
0.0
11
300.0000
21
-192.2592
31
0.0
0
LINE
8
HACHURA
10
285.5185
20
-199.5000
30
0.0
11
294.3185
21
-190.7000
31
0.0
0
LINE
8
HACHURA
10
278.2777
20
-199.5000
30
0.0
11
287.0777
21
-190.7000
31
0.0
0
LINE
8
HACHURA
10
271.0369
20
-199.5000
30
0.0
11
279.8369
21
-190.7000
31
0.0
0
LINE
8
HACHURA
10
263.7961
20
-199.5000
30
0.0
11
272.5961
21
-190.7000
31
0.0
0
LINE
8
HACHURA
10
256.5554
20
-199.5000
30
0.0
11
265.3554
21
-190.7000
31
0.0
0
LINE
8
HACHURA
10
249.3146
20
-199.5000
30
0.0
11
258.1146
21
-190.7000
31
0.0
0
LINE
8
HACHURA
10
242.0738
20
-199.5000
30
0.0
11
250.8738
21
-190.7000
31
0.0
0
LINE
8
HACHURA
10
234.8330
20
-199.5000
30
0.0
11
243.6330
21
-190.7000
31
0.0
0
LINE
8
HACHURA
10
227.5923
20
-199.5000
30
0.0
11
236.3923
21
-190.7000
31
0.0
0
LINE
8
HACHURA
10
220.3515
20
-199.5000
30
0.0
11
233.2000
21
-186.6515
31
0.0
0
LINE
8
HACHURA
10
213.1107
20
-199.5000
30
0.0
11
221.9107
21
-190.7000
31
0.0
0
LINE
8
HACHURA
10
226.8000
20
-185.8107
30
0.0
11
233.2000
21
-179.4107
31
0.0
0
LINE
8
HACHURA
10
205.8699
20
-199.5000
30
0.0
11
214.6699
21
-190.7000
31
0.0
0
LINE
8
HACHURA
10
226.8000
20
-178.5699
30
0.0
11
233.2000
21
-172.1699
31
0.0
0
LINE
8
HACHURA
10
198.6292
20
-199.5000
30
0.0
11
207.4292
21
-190.7000
31
0.0
0
LINE
8
HACHURA
10
226.8000
20
-171.3292
30
0.0
11
233.2000
21
-164.9292
31
0.0
0
LINE
8
HACHURA
10
191.3884
20
-199.5000
30
0.0
11
200.1884
21
-190.7000
31
0.0
0
LINE
8
HACHURA
10
226.8000
20
-164.0884
30
0.0
11
233.2000
21
-157.6884
31
0.0
0
LINE
8
HACHURA
10
184.1476
20
-199.5000
30
0.0
11
192.9476
21
-190.7000
31
0.0
0
LINE
8
HACHURA
10
226.8000
20
-156.8476
30
0.0
11
233.2000
21
-150.4476
31
0.0
0
LINE
8
HACHURA
10
176.9069
20
-199.5000
30
0.0
11
185.7069
21
-190.7000
31
0.0
0
LINE
8
HACHURA
10
226.8000
20
-149.6069
30
0.0
11
233.2000
21
-143.2069
31
0.0
0
LINE
8
HACHURA
10
169.6661
20
-199.5000
30
0.0
11
178.4661
21
-190.7000
31
0.0
0
LINE
8
HACHURA
10
226.8000
20
-142.3661
30
0.0
11
233.2000
21
-135.9661
31
0.0
0
LINE
8
HACHURA
10
162.4253
20
-199.5000
30
0.0
11
171.2253
21
-190.7000
31
0.0
0
LINE
8
HACHURA
10
226.8000
20
-135.1253
30
0.0
11
233.2000
21
-128.7253
31
0.0
0
LINE
8
HACHURA
10
160.0000
20
-194.6845
30
0.0
11
163.9845
21
-190.7000
31
0.0
0
LINE
8
HACHURA
10
226.8000
20
-127.8845
30
0.0
11
233.2000
21
-121.4845
31
0.0
0
LINE
8
HACHURA
10
226.8000
20
-120.6438
30
0.0
11
233.2000
21
-114.2438
31
0.0
0
LINE
8
HACHURA
10
226.8000
20
-113.4030
30
0.0
11
233.2000
21
-107.0030
31
0.0
0
LINE
8
HACHURA
10
226.8000
20
-106.1622
30
0.0
11
233.2000
21
-99.7622
31
0.0
0
LINE
8
HACHURA
10
226.8000
20
-98.9214
30
0.0
11
233.2000
21
-92.5214
31
0.0
0
LINE
8
HACHURA
10
226.8000
20
-91.6807
30
0.0
11
233.2000
21
-85.2807
31
0.0
0
LINE
8
HACHURA
10
226.8000
20
-84.4399
30
0.0
11
233.2000
21
-78.0399
31
0.0
0
LINE
8
HACHURA
10
226.8000
20
-77.1991
30
0.0
11
233.2000
21
-70.7991
31
0.0
0
LINE
8
HACHURA
10
226.8000
20
-69.9583
30
0.0
11
233.2000
21
-63.5583
31
0.0
0
LINE
8
HACHURA
10
226.8000
20
-62.7176
30
0.0
11
233.2000
21
-56.3176
31
0.0
0
LINE
8
HACHURA
10
226.8000
20
-55.4768
30
0.0
11
233.2000
21
-49.0768
31
0.0
0
LINE
8
HACHURA
10
226.8000
20
-48.2360
30
0.0
11
233.2000
21
-41.8360
31
0.0
0
LINE
8
HACHURA
10
226.8000
20
-40.9952
30
0.0
11
233.2000
21
-34.5952
31
0.0
0
LINE
8
HACHURA
10
226.8000
20
-33.7545
30
0.0
11
233.2000
21
-27.3545
31
0.0
0
LINE
8
HACHURA
10
226.8000
20
-26.5137
30
0.0
11
233.2000
21
-20.1137
31
0.0
0
LINE
8
HACHURA
10
226.8000
20
-19.2729
30
0.0
11
233.2000
21
-12.8729
31
0.0
0
LINE
8
HACHURA
10
226.8000
20
-12.0322
30
0.0
11
233.2000
21
-5.6322
31
0.0
0
LINE
8
HACHURA
10
226.8000
20
-4.7914
30
0.0
11
233.2000
21
1.6086
31
0.0
0
LINE
8
HACHURA
10
226.8000
20
2.4494
30
0.0
11
233.2000
21
8.8494
31
0.0
0
LINE
8
HACHURA
10
226.8000
20
9.6902
30
0.0
11
233.2000
21
16.0902
31
0.0
0
LINE
8
HACHURA
10
226.8000
20
16.9309
30
0.0
11
233.2000
21
23.3309
31
0.0
0
LINE
8
HACHURA
10
226.8000
20
24.1717
30
0.0
11
233.2000
21
30.5717
31
0.0
0
LINE
8
HACHURA
10
226.8000
20
31.4125
30
0.0
11
233.2000
21
37.8125
31
0.0
0
LINE
8
HACHURA
10
226.8000
20
38.6533
30
0.0
11
233.2000
21
45.0533
31
0.0
0
LINE
8
HACHURA
10
226.8000
20
45.8940
30
0.0
11
233.2000
21
52.2940
31
0.0
0
LINE
8
HACHURA
10
226.8000
20
53.1348
30
0.0
11
233.2000
21
59.5348
31
0.0
0
LINE
8
HACHURA
10
226.8000
20
60.3756
30
0.0
11
233.2000
21
66.7756
31
0.0
0
LINE
8
HACHURA
10
226.8000
20
67.6164
30
0.0
11
233.2000
21
74.0164
31
0.0
0
LINE
8
HACHURA
10
226.8000
20
74.8571
30
0.0
11
233.2000
21
81.2571
31
0.0
0
LINE
8
HACHURA
10
226.8000
20
82.0979
30
0.0
11
233.2000
21
88.4979
31
0.0
0
LINE
8
HACHURA
10
226.8000
20
89.3387
30
0.0
11
233.2000
21
95.7387
31
0.0
0
LINE
8
HACHURA
10
226.8000
20
96.5794
30
0.0
11
233.2000
21
102.9794
31
0.0
0
LINE
8
HACHURA
10
226.8000
20
103.8202
30
0.0
11
233.2000
21
110.2202
31
0.0
0
LINE
8
HACHURA
10
226.8000
20
111.0610
30
0.0
11
233.2000
21
117.4610
31
0.0
0
LINE
8
HACHURA
10
226.8000
20
118.3018
30
0.0
11
233.2000
21
124.7018
31
0.0
0
LINE
8
HACHURA
10
299.1982
20
190.7000
30
0.0
11
300.0000
21
191.5018
31
0.0
0
LINE
8
HACHURA
10
226.8000
20
125.5425
30
0.0
11
233.2000
21
131.9425
31
0.0
0
LINE
8
HACHURA
10
291.9575
20
190.7000
30
0.0
11
300.0000
21
198.7425
31
0.0
0
LINE
8
HACHURA
10
226.8000
20
132.7833
30
0.0
11
233.2000
21
139.1833
31
0.0
0
LINE
8
HACHURA
10
284.7167
20
190.7000
30
0.0
11
293.5167
21
199.5000
31
0.0
0
LINE
8
HACHURA
10
226.8000
20
140.0241
30
0.0
11
233.2000
21
146.4241
31
0.0
0
LINE
8
HACHURA
10
277.4759
20
190.7000
30
0.0
11
286.2759
21
199.5000
31
0.0
0
LINE
8
HACHURA
10
226.8000
20
147.2649
30
0.0
11
233.2000
21
153.6649
31
0.0
0
LINE
8
HACHURA
10
270.2351
20
190.7000
30
0.0
11
279.0351
21
199.5000
31
0.0
0
LINE
8
HACHURA
10
226.8000
20
154.5056
30
0.0
11
233.2000
21
160.9056
31
0.0
0
LINE
8
HACHURA
10
262.9944
20
190.7000
30
0.0
11
271.7944
21
199.5000
31
0.0
0
LINE
8
HACHURA
10
226.8000
20
161.7464
30
0.0
11
233.2000
21
168.1464
31
0.0
0
LINE
8
HACHURA
10
255.7536
20
190.7000
30
0.0
11
264.5536
21
199.5000
31
0.0
0
LINE
8
HACHURA
10
226.8000
20
168.9872
30
0.0
11
233.2000
21
175.3872
31
0.0
0
LINE
8
HACHURA
10
248.5128
20
190.7000
30
0.0
11
257.3128
21
199.5000
31
0.0
0
LINE
8
HACHURA
10
226.8000
20
176.2280
30
0.0
11
233.2000
21
182.6280
31
0.0
0
LINE
8
HACHURA
10
241.2720
20
190.7000
30
0.0
11
250.0720
21
199.5000
31
0.0
0
LINE
8
HACHURA
10
226.8000
20
183.4687
30
0.0
11
233.2000
21
189.8687
31
0.0
0
LINE
8
HACHURA
10
234.0313
20
190.7000
30
0.0
11
242.8313
21
199.5000
31
0.0
0
LINE
8
HACHURA
10
226.7905
20
190.7000
30
0.0
11
235.5905
21
199.5000
31
0.0
0
LINE
8
HACHURA
10
219.5497
20
190.7000
30
0.0
11
228.3497
21
199.5000
31
0.0
0
LINE
8
HACHURA
10
212.3090
20
190.7000
30
0.0
11
221.1090
21
199.5000
31
0.0
0
LINE
8
HACHURA
10
205.0682
20
190.7000
30
0.0
11
213.8682
21
199.5000
31
0.0
0
LINE
8
HACHURA
10
197.8274
20
190.7000
30
0.0
11
206.6274
21
199.5000
31
0.0
0
LINE
8
HACHURA
10
190.5866
20
190.7000
30
0.0
11
199.3866
21
199.5000
31
0.0
0
LINE
8
HACHURA
10
183.3459
20
190.7000
30
0.0
11
192.1459
21
199.5000
31
0.0
0
LINE
8
HACHURA
10
176.1051
20
190.7000
30
0.0
11
184.9051
21
199.5000
31
0.0
0
LINE
8
HACHURA
10
168.8643
20
190.7000
30
0.0
11
177.6643
21
199.5000
31
0.0
0
LINE
8
HACHURA
10
161.6235
20
190.7000
30
0.0
11
170.4235
21
199.5000
31
0.0
0
LINE
8
HACHURA
10
160.0000
20
196.3172
30
0.0
11
163.1828
21
199.5000
31
0.0
0
LINE
8
EIXO
10
142.5000
20
0.0000
30
0.0
11
317.5000
21
0.0000
31
0.0
0
LINE
8
EIXO
10
230.0000
20
-217.0000
30
0.0
11
230.0000
21
217.0000
31
0.0
0
LINE
8
COTA
10
307.5000
20
-199.5000
30
0.0
11
360.0000
21
-199.5000
31
0.0
0
LINE
8
COTA
10
307.5000
20
199.5000
30
0.0
11
360.0000
21
199.5000
31
0.0
0
LINE
8
COTA
10
350.0000
20
-199.5000
30
0.0
11
350.0000
21
199.5000
31
0.0
0
SOLID
8
COTA
10
350.0000
20
-199.5000
30
0.0
11
353.7500
21
-187.0000
31
0.0
12
346.2500
22
-187.0000
32
0.0
13
346.2500
23
-187.0000
33
0.0
0
SOLID
8
COTA
10
350.0000
20
199.5000
30
0.0
11
346.2500
21
187.0000
31
0.0
12
353.7500
22
187.0000
32
0.0
13
353.7500
23
187.0000
33
0.0
0
TEXT
8
COTA
10
343.1250
20
0.0000
30
0.0
40
12.5000
1
399
50
90.0000
72
1
73
0
11
343.1250
21
0.0000
31
0.0
0
LINE
8
COTA
10
160.0000
20
207.0000
30
0.0
11
160.0000
21
259.5000
31
0.0
0
LINE
8
COTA
10
300.0000
20
207.0000
30
0.0
11
300.0000
21
259.5000
31
0.0
0
LINE
8
COTA
10
160.0000
20
249.5000
30
0.0
11
300.0000
21
249.5000
31
0.0
0
SOLID
8
COTA
10
160.0000
20
249.5000
30
0.0
11
172.5000
21
245.7500
31
0.0
12
172.5000
22
253.2500
32
0.0
13
172.5000
23
253.2500
33
0.0
0
SOLID
8
COTA
10
300.0000
20
249.5000
30
0.0
11
287.5000
21
253.2500
31
0.0
12
287.5000
22
245.7500
32
0.0
13
287.5000
23
245.7500
33
0.0
0
TEXT
8
COTA
10
230.0000
20
256.3750
30
0.0
40
12.5000
1
140
50
0.0000
72
1
73
0
11
230.0000
21
256.3750
31
0.0
0
LINE
8
TEXTO
10
230.0000
20
71.8200
30
0.0
11
60.0000
21
135.6600
31
0.0
0
SOLID
8
TEXTO
10
230.0000
20
71.8200
30
0.0
11
219.6163
21
79.7251
31
0.0
12
216.9796
22
72.7039
32
0.0
13
216.9796
23
72.7039
33
0.0
0
LINE
8
TEXTO
10
60.0000
20
135.6600
30
0.0
11
40.0000
21
135.6600
31
0.0
0
TEXT
8
TEXTO
10
37.0000
20
140.1600
30
0.0
40
10.0000
1
alma 6,4
50
0.0000
72
2
73
0
11
37.0000
21
140.1600
31
0.0
0
LINE
8
TEXTO
10
272.0000
20
-195.1000
30
0.0
11
400.0000
21
-249.5000
31
0.0
0
SOLID
8
TEXTO
10
272.0000
20
-195.1000
30
0.0
11
282.0374
21
-203.4405
31
0.0
12
284.9709
22
-196.5380
32
0.0
13
284.9709
23
-196.5380
33
0.0
0
LINE
8
TEXTO
10
400.0000
20
-249.5000
30
0.0
11
420.0000
21
-249.5000
31
0.0
0
TEXT
8
TEXTO
10
423.0000
20
-245.0000
30
0.0
40
10.0000
1
mesa 8,8
50
0.0000
0
TEXT
8
TEXTO
10
230.0000
20
-315.5000
30
0.0
40
16.0000
1
W 410x38,8
50
0.0000
72
1
73
0
11
230.0000
21
-315.5000
31
0.0
0
TEXT
8
TEXTO
10
230.0000
20
-337.9000
30
0.0
40
10.0000
1
38,8 kg/m
50
0.0000
72
1
73
0
11
230.0000
21
-337.9000
31
0.0
0
POLYLINE
8
ACO
66
1
10
0.0
20
0.0
30
0.0
70
1
0
VERTEX
8
ACO
10
617.0000
20
-129.0000
30
0.0
0
VERTEX
8
ACO
10
763.0000
20
-129.0000
30
0.0
0
VERTEX
8
ACO
10
763.0000
20
-119.9000
30
0.0
0
VERTEX
8
ACO
10
693.0500
20
-119.9000
30
0.0
0
VERTEX
8
ACO
10
693.0500
20
119.9000
30
0.0
0
VERTEX
8
ACO
10
763.0000
20
119.9000
30
0.0
0
VERTEX
8
ACO
10
763.0000
20
129.0000
30
0.0
0
VERTEX
8
ACO
10
617.0000
20
129.0000
30
0.0
0
VERTEX
8
ACO
10
617.0000
20
119.9000
30
0.0
0
VERTEX
8
ACO
10
686.9500
20
119.9000
30
0.0
0
VERTEX
8
ACO
10
686.9500
20
-119.9000
30
0.0
0
VERTEX
8
ACO
10
617.0000
20
-119.9000
30
0.0
0
SEQEND
8
ACO
0
LINE
8
HACHURA
10
756.0986
20
-129.0000
30
0.0
11
763.0000
21
-122.0986
31
0.0
0
LINE
8
HACHURA
10
749.1973
20
-129.0000
30
0.0
11
758.2973
21
-119.9000
31
0.0
0
LINE
8
HACHURA
10
742.2959
20
-129.0000
30
0.0
11
751.3959
21
-119.9000
31
0.0
0
LINE
8
HACHURA
10
735.3946
20
-129.0000
30
0.0
11
744.4946
21
-119.9000
31
0.0
0
LINE
8
HACHURA
10
728.4932
20
-129.0000
30
0.0
11
737.5932
21
-119.9000
31
0.0
0
LINE
8
HACHURA
10
721.5918
20
-129.0000
30
0.0
11
730.6918
21
-119.9000
31
0.0
0
LINE
8
HACHURA
10
714.6905
20
-129.0000
30
0.0
11
723.7905
21
-119.9000
31
0.0
0
LINE
8
HACHURA
10
707.7891
20
-129.0000
30
0.0
11
716.8891
21
-119.9000
31
0.0
0
LINE
8
HACHURA
10
700.8877
20
-129.0000
30
0.0
11
709.9877
21
-119.9000
31
0.0
0
LINE
8
HACHURA
10
693.9864
20
-129.0000
30
0.0
11
703.0864
21
-119.9000
31
0.0
0
LINE
8
HACHURA
10
687.0850
20
-129.0000
30
0.0
11
696.1850
21
-119.9000
31
0.0
0
LINE
8
HACHURA
10
680.1837
20
-129.0000
30
0.0
11
693.0500
21
-116.1337
31
0.0
0
LINE
8
HACHURA
10
673.2823
20
-129.0000
30
0.0
11
682.3823
21
-119.9000
31
0.0
0
LINE
8
HACHURA
10
686.9500
20
-115.3323
30
0.0
11
693.0500
21
-109.2323
31
0.0
0
LINE
8
HACHURA
10
666.3809
20
-129.0000
30
0.0
11
675.4809
21
-119.9000
31
0.0
0
LINE
8
HACHURA
10
686.9500
20
-108.4309
30
0.0
11
693.0500
21
-102.3309
31
0.0
0
LINE
8
HACHURA
10
659.4796
20
-129.0000
30
0.0
11
668.5796
21
-119.9000
31
0.0
0
LINE
8
HACHURA
10
686.9500
20
-101.5296
30
0.0
11
693.0500
21
-95.4296
31
0.0
0
LINE
8
HACHURA
10
652.5782
20
-129.0000
30
0.0
11
661.6782
21
-119.9000
31
0.0
0
LINE
8
HACHURA
10
686.9500
20
-94.6282
30
0.0
11
693.0500
21
-88.5282
31
0.0
0
LINE
8
HACHURA
10
645.6768
20
-129.0000
30
0.0
11
654.7768
21
-119.9000
31
0.0
0
LINE
8
HACHURA
10
686.9500
20
-87.7268
30
0.0
11
693.0500
21
-81.6268
31
0.0
0
LINE
8
HACHURA
10
638.7755
20
-129.0000
30
0.0
11
647.8755
21
-119.9000
31
0.0
0
LINE
8
HACHURA
10
686.9500
20
-80.8255
30
0.0
11
693.0500
21
-74.7255
31
0.0
0
LINE
8
HACHURA
10
631.8741
20
-129.0000
30
0.0
11
640.9741
21
-119.9000
31
0.0
0
LINE
8
HACHURA
10
686.9500
20
-73.9241
30
0.0
11
693.0500
21
-67.8241
31
0.0
0
LINE
8
HACHURA
10
624.9728
20
-129.0000
30
0.0
11
634.0728
21
-119.9000
31
0.0
0
LINE
8
HACHURA
10
686.9500
20
-67.0228
30
0.0
11
693.0500
21
-60.9228
31
0.0
0
LINE
8
HACHURA
10
618.0714
20
-129.0000
30
0.0
11
627.1714
21
-119.9000
31
0.0
0
LINE
8
HACHURA
10
686.9500
20
-60.1214
30
0.0
11
693.0500
21
-54.0214
31
0.0
0
LINE
8
HACHURA
10
617.0000
20
-123.1700
30
0.0
11
620.2700
21
-119.9000
31
0.0
0
LINE
8
HACHURA
10
686.9500
20
-53.2200
30
0.0
11
693.0500
21
-47.1200
31
0.0
0
LINE
8
HACHURA
10
686.9500
20
-46.3187
30
0.0
11
693.0500
21
-40.2187
31
0.0
0
LINE
8
HACHURA
10
686.9500
20
-39.4173
30
0.0
11
693.0500
21
-33.3173
31
0.0
0
LINE
8
HACHURA
10
686.9500
20
-32.5159
30
0.0
11
693.0500
21
-26.4159
31
0.0
0
LINE
8
HACHURA
10
686.9500
20
-25.6146
30
0.0
11
693.0500
21
-19.5146
31
0.0
0
LINE
8
HACHURA
10
686.9500
20
-18.7132
30
0.0
11
693.0500
21
-12.6132
31
0.0
0
LINE
8
HACHURA
10
686.9500
20
-11.8119
30
0.0
11
693.0500
21
-5.7119
31
0.0
0
LINE
8
HACHURA
10
686.9500
20
-4.9105
30
0.0
11
693.0500
21
1.1895
31
0.0
0
LINE
8
HACHURA
10
686.9500
20
1.9909
30
0.0
11
693.0500
21
8.0909
31
0.0
0
LINE
8
HACHURA
10
686.9500
20
8.8922
30
0.0
11
693.0500
21
14.9922
31
0.0
0
LINE
8
HACHURA
10
686.9500
20
15.7936
30
0.0
11
693.0500
21
21.8936
31
0.0
0
LINE
8
HACHURA
10
686.9500
20
22.6950
30
0.0
11
693.0500
21
28.7950
31
0.0
0
LINE
8
HACHURA
10
686.9500
20
29.5963
30
0.0
11
693.0500
21
35.6963
31
0.0
0
LINE
8
HACHURA
10
686.9500
20
36.4977
30
0.0
11
693.0500
21
42.5977
31
0.0
0
LINE
8
HACHURA
10
686.9500
20
43.3990
30
0.0
11
693.0500
21
49.4990
31
0.0
0
LINE
8
HACHURA
10
686.9500
20
50.3004
30
0.0
11
693.0500
21
56.4004
31
0.0
0
LINE
8
HACHURA
10
756.5496
20
119.9000
30
0.0
11
763.0000
21
126.3504
31
0.0
0
LINE
8
HACHURA
10
686.9500
20
57.2018
30
0.0
11
693.0500
21
63.3018
31
0.0
0
LINE
8
HACHURA
10
749.6482
20
119.9000
30
0.0
11
758.7482
21
129.0000
31
0.0
0
LINE
8
HACHURA
10
686.9500
20
64.1031
30
0.0
11
693.0500
21
70.2031
31
0.0
0
LINE
8
HACHURA
10
742.7469
20
119.9000
30
0.0
11
751.8469
21
129.0000
31
0.0
0
LINE
8
HACHURA
10
686.9500
20
71.0045
30
0.0
11
693.0500
21
77.1045
31
0.0
0
LINE
8
HACHURA
10
735.8455
20
119.9000
30
0.0
11
744.9455
21
129.0000
31
0.0
0
LINE
8
HACHURA
10
686.9500
20
77.9058
30
0.0
11
693.0500
21
84.0058
31
0.0
0
LINE
8
HACHURA
10
728.9442
20
119.9000
30
0.0
11
738.0442
21
129.0000
31
0.0
0
LINE
8
HACHURA
10
686.9500
20
84.8072
30
0.0
11
693.0500
21
90.9072
31
0.0
0
LINE
8
HACHURA
10
722.0428
20
119.9000
30
0.0
11
731.1428
21
129.0000
31
0.0
0
LINE
8
HACHURA
10
686.9500
20
91.7086
30
0.0
11
693.0500
21
97.8086
31
0.0
0
LINE
8
HACHURA
10
715.1414
20
119.9000
30
0.0
11
724.2414
21
129.0000
31
0.0
0
LINE
8
HACHURA
10
686.9500
20
98.6099
30
0.0
11
693.0500
21
104.7099
31
0.0
0
LINE
8
HACHURA
10
708.2401
20
119.9000
30
0.0
11
717.3401
21
129.0000
31
0.0
0
LINE
8
HACHURA
10
686.9500
20
105.5113
30
0.0
11
693.0500
21
111.6113
31
0.0
0
LINE
8
HACHURA
10
701.3387
20
119.9000
30
0.0
11
710.4387
21
129.0000
31
0.0
0
LINE
8
HACHURA
10
686.9500
20
112.4127
30
0.0
11
693.0500
21
118.5127
31
0.0
0
LINE
8
HACHURA
10
694.4373
20
119.9000
30
0.0
11
703.5373
21
129.0000
31
0.0
0
LINE
8
HACHURA
10
686.9500
20
119.3140
30
0.0
11
696.6360
21
129.0000
31
0.0
0
LINE
8
HACHURA
10
680.6346
20
119.9000
30
0.0
11
689.7346
21
129.0000
31
0.0
0
LINE
8
HACHURA
10
673.7333
20
119.9000
30
0.0
11
682.8333
21
129.0000
31
0.0
0
LINE
8
HACHURA
10
666.8319
20
119.9000
30
0.0
11
675.9319
21
129.0000
31
0.0
0
LINE
8
HACHURA
10
659.9305
20
119.9000
30
0.0
11
669.0305
21
129.0000
31
0.0
0
LINE
8
HACHURA
10
653.0292
20
119.9000
30
0.0
11
662.1292
21
129.0000
31
0.0
0
LINE
8
HACHURA
10
646.1278
20
119.9000
30
0.0
11
655.2278
21
129.0000
31
0.0
0
LINE
8
HACHURA
10
639.2264
20
119.9000
30
0.0
11
648.3264
21
129.0000
31
0.0
0
LINE
8
HACHURA
10
632.3251
20
119.9000
30
0.0
11
641.4251
21
129.0000
31
0.0
0
LINE
8
HACHURA
10
625.4237
20
119.9000
30
0.0
11
634.5237
21
129.0000
31
0.0
0
LINE
8
HACHURA
10
618.5224
20
119.9000
30
0.0
11
627.6224
21
129.0000
31
0.0
0
LINE
8
HACHURA
10
617.0000
20
125.2790
30
0.0
11
620.7210
21
129.0000
31
0.0
0
LINE
8
EIXO
10
599.5000
20
0.0000
30
0.0
11
780.5000
21
0.0000
31
0.0
0
LINE
8
EIXO
10
690.0000
20
-146.5000
30
0.0
11
690.0000
21
146.5000
31
0.0
0
LINE
8
COTA
10
770.5000
20
-129.0000
30
0.0
11
823.0000
21
-129.0000
31
0.0
0
LINE
8
COTA
10
770.5000
20
129.0000
30
0.0
11
823.0000
21
129.0000
31
0.0
0
LINE
8
COTA
10
813.0000
20
-129.0000
30
0.0
11
813.0000
21
129.0000
31
0.0
0
SOLID
8
COTA
10
813.0000
20
-129.0000
30
0.0
11
816.7500
21
-116.5000
31
0.0
12
809.2500
22
-116.5000
32
0.0
13
809.2500
23
-116.5000
33
0.0
0
SOLID
8
COTA
10
813.0000
20
129.0000
30
0.0
11
809.2500
21
116.5000
31
0.0
12
816.7500
22
116.5000
32
0.0
13
816.7500
23
116.5000
33
0.0
0
TEXT
8
COTA
10
806.1250
20
0.0000
30
0.0
40
12.5000
1
258
50
90.0000
72
1
73
0
11
806.1250
21
0.0000
31
0.0
0
LINE
8
COTA
10
617.0000
20
136.5000
30
0.0
11
617.0000
21
189.0000
31
0.0
0
LINE
8
COTA
10
763.0000
20
136.5000
30
0.0
11
763.0000
21
189.0000
31
0.0
0
LINE
8
COTA
10
617.0000
20
179.0000
30
0.0
11
763.0000
21
179.0000
31
0.0
0
SOLID
8
COTA
10
617.0000
20
179.0000
30
0.0
11
629.5000
21
175.2500
31
0.0
12
629.5000
22
182.7500
32
0.0
13
629.5000
23
182.7500
33
0.0
0
SOLID
8
COTA
10
763.0000
20
179.0000
30
0.0
11
750.5000
21
182.7500
31
0.0
12
750.5000
22
175.2500
32
0.0
13
750.5000
23
175.2500
33
0.0
0
TEXT
8
COTA
10
690.0000
20
185.8750
30
0.0
40
12.5000
1
146
50
0.0000
72
1
73
0
11
690.0000
21
185.8750
31
0.0
0
LINE
8
TEXTO
10
690.0000
20
46.4400
30
0.0
11
517.0000
21
87.7200
31
0.0
0
SOLID
8
TEXTO
10
690.0000
20
46.4400
30
0.0
11
678.7117
21
52.9888
31
0.0
12
676.9710
22
45.6936
32
0.0
13
676.9710
23
45.6936
33
0.0
0
LINE
8
TEXTO
10
517.0000
20
87.7200
30
0.0
11
497.0000
21
87.7200
31
0.0
0
TEXT
8
TEXTO
10
494.0000
20
92.2200
30
0.0
40
10.0000
1
alma 6,1
50
0.0000
72
2
73
0
11
494.0000
21
92.2200
31
0.0
0
LINE
8
TEXTO
10
733.8000
20
-124.4500
30
0.0
11
863.0000
21
-179.0000
31
0.0
0
SOLID
8
TEXTO
10
733.8000
20
-124.4500
30
0.0
11
743.8570
21
-132.7668
31
0.0
12
746.7743
22
-125.8574
32
0.0
13
746.7743
23
-125.8574
33
0.0
0
LINE
8
TEXTO
10
863.0000
20
-179.0000
30
0.0
11
883.0000
21
-179.0000
31
0.0
0
TEXT
8
TEXTO
10
886.0000
20
-174.5000
30
0.0
40
10.0000
1
mesa 9,1
50
0.0000
0
TEXT
8
TEXTO
10
690.0000
20
-245.0000
30
0.0
40
16.0000
1
W 250x32,7
50
0.0000
72
1
73
0
11
690.0000
21
-245.0000
31
0.0
0
TEXT
8
TEXTO
10
690.0000
20
-267.4000
30
0.0
40
10.0000
1
32,7 kg/m
50
0.0000
72
1
73
0
11
690.0000
21
-267.4000
31
0.0
0
POLYLINE
8
ACO
66
1
10
0.0
20
0.0
30
0.0
70
1
0
VERTEX
8
ACO
10
1112.5000
20
-100.0000
30
0.0
0
VERTEX
8
ACO
10
1187.5000
20
-100.0000
30
0.0
0
VERTEX
8
ACO
10
1187.5000
20
-80.0000
30
0.0
0
VERTEX
8
ACO
10
1185.5000
20
-80.0000
30
0.0
0
VERTEX
8
ACO
10
1185.5000
20
-98.0000
30
0.0
0
VERTEX
8
ACO
10
1114.5000
20
-98.0000
30
0.0
0
VERTEX
8
ACO
10
1114.5000
20
98.0000
30
0.0
0
VERTEX
8
ACO
10
1185.5000
20
98.0000
30
0.0
0
VERTEX
8
ACO
10
1185.5000
20
80.0000
30
0.0
0
VERTEX
8
ACO
10
1187.5000
20
80.0000
30
0.0
0
VERTEX
8
ACO
10
1187.5000
20
100.0000
30
0.0
0
VERTEX
8
ACO
10
1112.5000
20
100.0000
30
0.0
0
SEQEND
8
ACO
0
LINE
8
HACHURA
10
1185.2373
20
-100.0000
30
0.0
11
1187.5000
21
-97.7373
31
0.0
0
LINE
8
HACHURA
10
1182.9745
20
-100.0000
30
0.0
11
1184.9745
21
-98.0000
31
0.0
0
LINE
8
HACHURA
10
1185.5000
20
-97.4745
30
0.0
11
1187.5000
21
-95.4745
31
0.0
0
LINE
8
HACHURA
10
1180.7118
20
-100.0000
30
0.0
11
1182.7118
21
-98.0000
31
0.0
0
LINE
8
HACHURA
10
1185.5000
20
-95.2118
30
0.0
11
1187.5000
21
-93.2118
31
0.0
0
LINE
8
HACHURA
10
1178.4490
20
-100.0000
30
0.0
11
1180.4490
21
-98.0000
31
0.0
0
LINE
8
HACHURA
10
1185.5000
20
-92.9490
30
0.0
11
1187.5000
21
-90.9490
31
0.0
0
LINE
8
HACHURA
10
1176.1863
20
-100.0000
30
0.0
11
1178.1863
21
-98.0000
31
0.0
0
LINE
8
HACHURA
10
1185.5000
20
-90.6863
30
0.0
11
1187.5000
21
-88.6863
31
0.0
0
LINE
8
HACHURA
10
1173.9235
20
-100.0000
30
0.0
11
1175.9235
21
-98.0000
31
0.0
0
LINE
8
HACHURA
10
1185.5000
20
-88.4235
30
0.0
11
1187.5000
21
-86.4235
31
0.0
0
LINE
8
HACHURA
10
1171.6608
20
-100.0000
30
0.0
11
1173.6608
21
-98.0000
31
0.0
0
LINE
8
HACHURA
10
1185.5000
20
-86.1608
30
0.0
11
1187.5000
21
-84.1608
31
0.0
0
LINE
8
HACHURA
10
1169.3981
20
-100.0000
30
0.0
11
1171.3981
21
-98.0000
31
0.0
0
LINE
8
HACHURA
10
1185.5000
20
-83.8981
30
0.0
11
1187.5000
21
-81.8981
31
0.0
0
LINE
8
HACHURA
10
1167.1353
20
-100.0000
30
0.0
11
1169.1353
21
-98.0000
31
0.0
0
LINE
8
HACHURA
10
1185.5000
20
-81.6353
30
0.0
11
1187.1353
21
-80.0000
31
0.0
0
LINE
8
HACHURA
10
1164.8726
20
-100.0000
30
0.0
11
1166.8726
21
-98.0000
31
0.0
0
LINE
8
HACHURA
10
1162.6098
20
-100.0000
30
0.0
11
1164.6098
21
-98.0000
31
0.0
0
LINE
8
HACHURA
10
1160.3471
20
-100.0000
30
0.0
11
1162.3471
21
-98.0000
31
0.0
0
LINE
8
HACHURA
10
1158.0844
20
-100.0000
30
0.0
11
1160.0844
21
-98.0000
31
0.0
0
LINE
8
HACHURA
10
1155.8216
20
-100.0000
30
0.0
11
1157.8216
21
-98.0000
31
0.0
0
LINE
8
HACHURA
10
1153.5589
20
-100.0000
30
0.0
11
1155.5589
21
-98.0000
31
0.0
0
LINE
8
HACHURA
10
1151.2961
20
-100.0000
30
0.0
11
1153.2961
21
-98.0000
31
0.0
0
LINE
8
HACHURA
10
1149.0334
20
-100.0000
30
0.0
11
1151.0334
21
-98.0000
31
0.0
0
LINE
8
HACHURA
10
1146.7706
20
-100.0000
30
0.0
11
1148.7706
21
-98.0000
31
0.0
0
LINE
8
HACHURA
10
1144.5079
20
-100.0000
30
0.0
11
1146.5079
21
-98.0000
31
0.0
0
LINE
8
HACHURA
10
1142.2452
20
-100.0000
30
0.0
11
1144.2452
21
-98.0000
31
0.0
0
LINE
8
HACHURA
10
1139.9824
20
-100.0000
30
0.0
11
1141.9824
21
-98.0000
31
0.0
0
LINE
8
HACHURA
10
1137.7197
20
-100.0000
30
0.0
11
1139.7197
21
-98.0000
31
0.0
0
LINE
8
HACHURA
10
1135.4569
20
-100.0000
30
0.0
11
1137.4569
21
-98.0000
31
0.0
0
LINE
8
HACHURA
10
1133.1942
20
-100.0000
30
0.0
11
1135.1942
21
-98.0000
31
0.0
0
LINE
8
HACHURA
10
1130.9315
20
-100.0000
30
0.0
11
1132.9315
21
-98.0000
31
0.0
0
LINE
8
HACHURA
10
1128.6687
20
-100.0000
30
0.0
11
1130.6687
21
-98.0000
31
0.0
0
LINE
8
HACHURA
10
1126.4060
20
-100.0000
30
0.0
11
1128.4060
21
-98.0000
31
0.0
0
LINE
8
HACHURA
10
1124.1432
20
-100.0000
30
0.0
11
1126.1432
21
-98.0000
31
0.0
0
LINE
8
HACHURA
10
1121.8805
20
-100.0000
30
0.0
11
1123.8805
21
-98.0000
31
0.0
0
LINE
8
HACHURA
10
1119.6177
20
-100.0000
30
0.0
11
1121.6177
21
-98.0000
31
0.0
0
LINE
8
HACHURA
10
1117.3550
20
-100.0000
30
0.0
11
1119.3550
21
-98.0000
31
0.0
0
LINE
8
HACHURA
10
1115.0923
20
-100.0000
30
0.0
11
1117.0923
21
-98.0000
31
0.0
0
LINE
8
HACHURA
10
1112.8295
20
-100.0000
30
0.0
11
1114.8295
21
-98.0000
31
0.0
0
LINE
8
HACHURA
10
1112.5000
20
-98.0668
30
0.0
11
1114.5000
21
-96.0668
31
0.0
0
LINE
8
HACHURA
10
1112.5000
20
-95.8040
30
0.0
11
1114.5000
21
-93.8040
31
0.0
0
LINE
8
HACHURA
10
1112.5000
20
-93.5413
30
0.0
11
1114.5000
21
-91.5413
31
0.0
0
LINE
8
HACHURA
10
1112.5000
20
-91.2786
30
0.0
11
1114.5000
21
-89.2786
31
0.0
0
LINE
8
HACHURA
10
1112.5000
20
-89.0158
30
0.0
11
1114.5000
21
-87.0158
31
0.0
0
LINE
8
HACHURA
10
1112.5000
20
-86.7531
30
0.0
11
1114.5000
21
-84.7531
31
0.0
0
LINE
8
HACHURA
10
1112.5000
20
-84.4903
30
0.0
11
1114.5000
21
-82.4903
31
0.0
0
LINE
8
HACHURA
10
1112.5000
20
-82.2276
30
0.0
11
1114.5000
21
-80.2276
31
0.0
0
LINE
8
HACHURA
10
1112.5000
20
-79.9648
30
0.0
11
1114.5000
21
-77.9648
31
0.0
0
LINE
8
HACHURA
10
1112.5000
20
-77.7021
30
0.0
11
1114.5000
21
-75.7021
31
0.0
0
LINE
8
HACHURA
10
1112.5000
20
-75.4394
30
0.0
11
1114.5000
21
-73.4394
31
0.0
0
LINE
8
HACHURA
10
1112.5000
20
-73.1766
30
0.0
11
1114.5000
21
-71.1766
31
0.0
0
LINE
8
HACHURA
10
1112.5000
20
-70.9139
30
0.0
11
1114.5000
21
-68.9139
31
0.0
0
LINE
8
HACHURA
10
1112.5000
20
-68.6511
30
0.0
11
1114.5000
21
-66.6511
31
0.0
0
LINE
8
HACHURA
10
1112.5000
20
-66.3884
30
0.0
11
1114.5000
21
-64.3884
31
0.0
0
LINE
8
HACHURA
10
1112.5000
20
-64.1257
30
0.0
11
1114.5000
21
-62.1257
31
0.0
0
LINE
8
HACHURA
10
1112.5000
20
-61.8629
30
0.0
11
1114.5000
21
-59.8629
31
0.0
0
LINE
8
HACHURA
10
1112.5000
20
-59.6002
30
0.0
11
1114.5000
21
-57.6002
31
0.0
0
LINE
8
HACHURA
10
1112.5000
20
-57.3374
30
0.0
11
1114.5000
21
-55.3374
31
0.0
0
LINE
8
HACHURA
10
1112.5000
20
-55.0747
30
0.0
11
1114.5000
21
-53.0747
31
0.0
0
LINE
8
HACHURA
10
1112.5000
20
-52.8119
30
0.0
11
1114.5000
21
-50.8119
31
0.0
0
LINE
8
HACHURA
10
1112.5000
20
-50.5492
30
0.0
11
1114.5000
21
-48.5492
31
0.0
0
LINE
8
HACHURA
10
1112.5000
20
-48.2865
30
0.0
11
1114.5000
21
-46.2865
31
0.0
0
LINE
8
HACHURA
10
1112.5000
20
-46.0237
30
0.0
11
1114.5000
21
-44.0237
31
0.0
0
LINE
8
HACHURA
10
1112.5000
20
-43.7610
30
0.0
11
1114.5000
21
-41.7610
31
0.0
0
LINE
8
HACHURA
10
1112.5000
20
-41.4982
30
0.0
11
1114.5000
21
-39.4982
31
0.0
0
LINE
8
HACHURA
10
1112.5000
20
-39.2355
30
0.0
11
1114.5000
21
-37.2355
31
0.0
0
LINE
8
HACHURA
10
1112.5000
20
-36.9728
30
0.0
11
1114.5000
21
-34.9728
31
0.0
0
LINE
8
HACHURA
10
1112.5000
20
-34.7100
30
0.0
11
1114.5000
21
-32.7100
31
0.0
0
LINE
8
HACHURA
10
1112.5000
20
-32.4473
30
0.0
11
1114.5000
21
-30.4473
31
0.0
0
LINE
8
HACHURA
10
1112.5000
20
-30.1845
30
0.0
11
1114.5000
21
-28.1845
31
0.0
0
LINE
8
HACHURA
10
1112.5000
20
-27.9218
30
0.0
11
1114.5000
21
-25.9218
31
0.0
0
LINE
8
HACHURA
10
1112.5000
20
-25.6590
30
0.0
11
1114.5000
21
-23.6590
31
0.0
0
LINE
8
HACHURA
10
1112.5000
20
-23.3963
30
0.0
11
1114.5000
21
-21.3963
31
0.0
0
LINE
8
HACHURA
10
1112.5000
20
-21.1336
30
0.0
11
1114.5000
21
-19.1336
31
0.0
0
LINE
8
HACHURA
10
1112.5000
20
-18.8708
30
0.0
11
1114.5000
21
-16.8708
31
0.0
0
LINE
8
HACHURA
10
1112.5000
20
-16.6081
30
0.0
11
1114.5000
21
-14.6081
31
0.0
0
LINE
8
HACHURA
10
1112.5000
20
-14.3453
30
0.0
11
1114.5000
21
-12.3453
31
0.0
0
LINE
8
HACHURA
10
1112.5000
20
-12.0826
30
0.0
11
1114.5000
21
-10.0826
31
0.0
0
LINE
8
HACHURA
10
1112.5000
20
-9.8199
30
0.0
11
1114.5000
21
-7.8199
31
0.0
0
LINE
8
HACHURA
10
1112.5000
20
-7.5571
30
0.0
11
1114.5000
21
-5.5571
31
0.0
0
LINE
8
HACHURA
10
1112.5000
20
-5.2944
30
0.0
11
1114.5000
21
-3.2944
31
0.0
0
LINE
8
HACHURA
10
1112.5000
20
-3.0316
30
0.0
11
1114.5000
21
-1.0316
31
0.0
0
LINE
8
HACHURA
10
1112.5000
20
-0.7689
30
0.0
11
1114.5000
21
1.2311
31
0.0
0
LINE
8
HACHURA
10
1112.5000
20
1.4939
30
0.0
11
1114.5000
21
3.4939
31
0.0
0
LINE
8
HACHURA
10
1112.5000
20
3.7566
30
0.0
11
1114.5000
21
5.7566
31
0.0
0
LINE
8
HACHURA
10
1112.5000
20
6.0193
30
0.0
11
1114.5000
21
8.0193
31
0.0
0
LINE
8
HACHURA
10
1186.4807
20
80.0000
30
0.0
11
1187.5000
21
81.0193
31
0.0
0
LINE
8
HACHURA
10
1112.5000
20
8.2821
30
0.0
11
1114.5000
21
10.2821
31
0.0
0
LINE
8
HACHURA
10
1185.5000
20
81.2821
30
0.0
11
1187.5000
21
83.2821
31
0.0
0
LINE
8
HACHURA
10
1112.5000
20
10.5448
30
0.0
11
1114.5000
21
12.5448
31
0.0
0
LINE
8
HACHURA
10
1185.5000
20
83.5448
30
0.0
11
1187.5000
21
85.5448
31
0.0
0
LINE
8
HACHURA
10
1112.5000
20
12.8076
30
0.0
11
1114.5000
21
14.8076
31
0.0
0
LINE
8
HACHURA
10
1185.5000
20
85.8076
30
0.0
11
1187.5000
21
87.8076
31
0.0
0
LINE
8
HACHURA
10
1112.5000
20
15.0703
30
0.0
11
1114.5000
21
17.0703
31
0.0
0
LINE
8
HACHURA
10
1185.5000
20
88.0703
30
0.0
11
1187.5000
21
90.0703
31
0.0
0
LINE
8
HACHURA
10
1112.5000
20
17.3330
30
0.0
11
1114.5000
21
19.3330
31
0.0
0
LINE
8
HACHURA
10
1185.5000
20
90.3330
30
0.0
11
1187.5000
21
92.3330
31
0.0
0
LINE
8
HACHURA
10
1112.5000
20
19.5958
30
0.0
11
1114.5000
21
21.5958
31
0.0
0
LINE
8
HACHURA
10
1185.5000
20
92.5958
30
0.0
11
1187.5000
21
94.5958
31
0.0
0
LINE
8
HACHURA
10
1112.5000
20
21.8585
30
0.0
11
1114.5000
21
23.8585
31
0.0
0
LINE
8
HACHURA
10
1185.5000
20
94.8585
30
0.0
11
1187.5000
21
96.8585
31
0.0
0
LINE
8
HACHURA
10
1112.5000
20
24.1213
30
0.0
11
1114.5000
21
26.1213
31
0.0
0
LINE
8
HACHURA
10
1185.5000
20
97.1213
30
0.0
11
1187.5000
21
99.1213
31
0.0
0
LINE
8
HACHURA
10
1112.5000
20
26.3840
30
0.0
11
1114.5000
21
28.3840
31
0.0
0
LINE
8
HACHURA
10
1184.1160
20
98.0000
30
0.0
11
1186.1160
21
100.0000
31
0.0
0
LINE
8
HACHURA
10
1112.5000
20
28.6468
30
0.0
11
1114.5000
21
30.6468
31
0.0
0
LINE
8
HACHURA
10
1181.8532
20
98.0000
30
0.0
11
1183.8532
21
100.0000
31
0.0
0
LINE
8
HACHURA
10
1112.5000
20
30.9095
30
0.0
11
1114.5000
21
32.9095
31
0.0
0
LINE
8
HACHURA
10
1179.5905
20
98.0000
30
0.0
11
1181.5905
21
100.0000
31
0.0
0
LINE
8
HACHURA
10
1112.5000
20
33.1722
30
0.0
11
1114.5000
21
35.1722
31
0.0
0
LINE
8
HACHURA
10
1177.3278
20
98.0000
30
0.0
11
1179.3278
21
100.0000
31
0.0
0
LINE
8
HACHURA
10
1112.5000
20
35.4350
30
0.0
11
1114.5000
21
37.4350
31
0.0
0
LINE
8
HACHURA
10
1175.0650
20
98.0000
30
0.0
11
1177.0650
21
100.0000
31
0.0
0
LINE
8
HACHURA
10
1112.5000
20
37.6977
30
0.0
11
1114.5000
21
39.6977
31
0.0
0
LINE
8
HACHURA
10
1172.8023
20
98.0000
30
0.0
11
1174.8023
21
100.0000
31
0.0
0
LINE
8
HACHURA
10
1112.5000
20
39.9605
30
0.0
11
1114.5000
21
41.9605
31
0.0
0
LINE
8
HACHURA
10
1170.5395
20
98.0000
30
0.0
11
1172.5395
21
100.0000
31
0.0
0
LINE
8
HACHURA
10
1112.5000
20
42.2232
30
0.0
11
1114.5000
21
44.2232
31
0.0
0
LINE
8
HACHURA
10
1168.2768
20
98.0000
30
0.0
11
1170.2768
21
100.0000
31
0.0
0
LINE
8
HACHURA
10
1112.5000
20
44.4859
30
0.0
11
1114.5000
21
46.4859
31
0.0
0
LINE
8
HACHURA
10
1166.0141
20
98.0000
30
0.0
11
1168.0141
21
100.0000
31
0.0
0
LINE
8
HACHURA
10
1112.5000
20
46.7487
30
0.0
11
1114.5000
21
48.7487
31
0.0
0
LINE
8
HACHURA
10
1163.7513
20
98.0000
30
0.0
11
1165.7513
21
100.0000
31
0.0
0
LINE
8
HACHURA
10
1112.5000
20
49.0114
30
0.0
11
1114.5000
21
51.0114
31
0.0
0
LINE
8
HACHURA
10
1161.4886
20
98.0000
30
0.0
11
1163.4886
21
100.0000
31
0.0
0
LINE
8
HACHURA
10
1112.5000
20
51.2742
30
0.0
11
1114.5000
21
53.2742
31
0.0
0
LINE
8
HACHURA
10
1159.2258
20
98.0000
30
0.0
11
1161.2258
21
100.0000
31
0.0
0
LINE
8
HACHURA
10
1112.5000
20
53.5369
30
0.0
11
1114.5000
21
55.5369
31
0.0
0
LINE
8
HACHURA
10
1156.9631
20
98.0000
30
0.0
11
1158.9631
21
100.0000
31
0.0
0
LINE
8
HACHURA
10
1112.5000
20
55.7997
30
0.0
11
1114.5000
21
57.7997
31
0.0
0
LINE
8
HACHURA
10
1154.7003
20
98.0000
30
0.0
11
1156.7003
21
100.0000
31
0.0
0
LINE
8
HACHURA
10
1112.5000
20
58.0624
30
0.0
11
1114.5000
21
60.0624
31
0.0
0
LINE
8
HACHURA
10
1152.4376
20
98.0000
30
0.0
11
1154.4376
21
100.0000
31
0.0
0
LINE
8
HACHURA
10
1112.5000
20
60.3251
30
0.0
11
1114.5000
21
62.3251
31
0.0
0
LINE
8
HACHURA
10
1150.1749
20
98.0000
30
0.0
11
1152.1749
21
100.0000
31
0.0
0
LINE
8
HACHURA
10
1112.5000
20
62.5879
30
0.0
11
1114.5000
21
64.5879
31
0.0
0
LINE
8
HACHURA
10
1147.9121
20
98.0000
30
0.0
11
1149.9121
21
100.0000
31
0.0
0
LINE
8
HACHURA
10
1112.5000
20
64.8506
30
0.0
11
1114.5000
21
66.8506
31
0.0
0
LINE
8
HACHURA
10
1145.6494
20
98.0000
30
0.0
11
1147.6494
21
100.0000
31
0.0
0
LINE
8
HACHURA
10
1112.5000
20
67.1134
30
0.0
11
1114.5000
21
69.1134
31
0.0
0
LINE
8
HACHURA
10
1143.3866
20
98.0000
30
0.0
11
1145.3866
21
100.0000
31
0.0
0
LINE
8
HACHURA
10
1112.5000
20
69.3761
30
0.0
11
1114.5000
21
71.3761
31
0.0
0
LINE
8
HACHURA
10
1141.1239
20
98.0000
30
0.0
11
1143.1239
21
100.0000
31
0.0
0
LINE
8
HACHURA
10
1112.5000
20
71.6388
30
0.0
11
1114.5000
21
73.6388
31
0.0
0
LINE
8
HACHURA
10
1138.8612
20
98.0000
30
0.0
11
1140.8612
21
100.0000
31
0.0
0
LINE
8
HACHURA
10
1112.5000
20
73.9016
30
0.0
11
1114.5000
21
75.9016
31
0.0
0
LINE
8
HACHURA
10
1136.5984
20
98.0000
30
0.0
11
1138.5984
21
100.0000
31
0.0
0
LINE
8
HACHURA
10
1112.5000
20
76.1643
30
0.0
11
1114.5000
21
78.1643
31
0.0
0
LINE
8
HACHURA
10
1134.3357
20
98.0000
30
0.0
11
1136.3357
21
100.0000
31
0.0
0
LINE
8
HACHURA
10
1112.5000
20
78.4271
30
0.0
11
1114.5000
21
80.4271
31
0.0
0
LINE
8
HACHURA
10
1132.0729
20
98.0000
30
0.0
11
1134.0729
21
100.0000
31
0.0
0
LINE
8
HACHURA
10
1112.5000
20
80.6898
30
0.0
11
1114.5000
21
82.6898
31
0.0
0
LINE
8
HACHURA
10
1129.8102
20
98.0000
30
0.0
11
1131.8102
21
100.0000
31
0.0
0
LINE
8
HACHURA
10
1112.5000
20
82.9526
30
0.0
11
1114.5000
21
84.9526
31
0.0
0
LINE
8
HACHURA
10
1127.5474
20
98.0000
30
0.0
11
1129.5474
21
100.0000
31
0.0
0
LINE
8
HACHURA
10
1112.5000
20
85.2153
30
0.0
11
1114.5000
21
87.2153
31
0.0
0
LINE
8
HACHURA
10
1125.2847
20
98.0000
30
0.0
11
1127.2847
21
100.0000
31
0.0
0
LINE
8
HACHURA
10
1112.5000
20
87.4780
30
0.0
11
1114.5000
21
89.4780
31
0.0
0
LINE
8
HACHURA
10
1123.0220
20
98.0000
30
0.0
11
1125.0220
21
100.0000
31
0.0
0
LINE
8
HACHURA
10
1112.5000
20
89.7408
30
0.0
11
1114.5000
21
91.7408
31
0.0
0
LINE
8
HACHURA
10
1120.7592
20
98.0000
30
0.0
11
1122.7592
21
100.0000
31
0.0
0
LINE
8
HACHURA
10
1112.5000
20
92.0035
30
0.0
11
1114.5000
21
94.0035
31
0.0
0
LINE
8
HACHURA
10
1118.4965
20
98.0000
30
0.0
11
1120.4965
21
100.0000
31
0.0
0
LINE
8
HACHURA
10
1112.5000
20
94.2663
30
0.0
11
1114.5000
21
96.2663
31
0.0
0
LINE
8
HACHURA
10
1116.2337
20
98.0000
30
0.0
11
1118.2337
21
100.0000
31
0.0
0
LINE
8
HACHURA
10
1112.5000
20
96.5290
30
0.0
11
1115.9710
21
100.0000
31
0.0
0
LINE
8
HACHURA
10
1112.5000
20
98.7917
30
0.0
11
1113.7083
21
100.0000
31
0.0
0
LINE
8
EIXO
10
1095.0000
20
0.0000
30
0.0
11
1205.0000
21
0.0000
31
0.0
0
LINE
8
EIXO
10
1150.0000
20
-117.5000
30
0.0
11
1150.0000
21
117.5000
31
0.0
0
LINE
8
COTA
10
1195.0000
20
-100.0000
30
0.0
11
1247.5000
21
-100.0000
31
0.0
0
LINE
8
COTA
10
1195.0000
20
100.0000
30
0.0
11
1247.5000
21
100.0000
31
0.0
0
LINE
8
COTA
10
1237.5000
20
-100.0000
30
0.0
11
1237.5000
21
100.0000
31
0.0
0
SOLID
8
COTA
10
1237.5000
20
-100.0000
30
0.0
11
1241.2500
21
-87.5000
31
0.0
12
1233.7500
22
-87.5000
32
0.0
13
1233.7500
23
-87.5000
33
0.0
0
SOLID
8
COTA
10
1237.5000
20
100.0000
30
0.0
11
1233.7500
21
87.5000
31
0.0
12
1241.2500
22
87.5000
32
0.0
13
1241.2500
23
87.5000
33
0.0
0
TEXT
8
COTA
10
1230.6250
20
0.0000
30
0.0
40
12.5000
1
200
50
90.0000
72
1
73
0
11
1230.6250
21
0.0000
31
0.0
0
LINE
8
COTA
10
1112.5000
20
107.5000
30
0.0
11
1112.5000
21
160.0000
31
0.0
0
LINE
8
COTA
10
1187.5000
20
107.5000
30
0.0
11
1187.5000
21
160.0000
31
0.0
0
LINE
8
COTA
10
1112.5000
20
150.0000
30
0.0
11
1187.5000
21
150.0000
31
0.0
0
SOLID
8
COTA
10
1112.5000
20
150.0000
30
0.0
11
1125.0000
21
146.2500
31
0.0
12
1125.0000
22
153.7500
32
0.0
13
1125.0000
23
153.7500
33
0.0
0
SOLID
8
COTA
10
1187.5000
20
150.0000
30
0.0
11
1175.0000
21
153.7500
31
0.0
12
1175.0000
22
146.2500
32
0.0
13
1175.0000
23
146.2500
33
0.0
0
TEXT
8
COTA
10
1150.0000
20
156.8750
30
0.0
40
12.5000
1
75
50
0.0000
72
1
73
0
11
1150.0000
21
156.8750
31
0.0
0
LINE
8
TEXTO
10
1113.5000
20
0.0000
30
0.0
11
1012.5000
21
50.0000
31
0.0
0
SOLID
8
TEXTO
10
1113.5000
20
0.0000
30
0.0
11
1103.9613
21
8.9065
31
0.0
12
1100.6338
22
2.1850
32
0.0
13
1100.6338
23
2.1850
33
0.0
0
LINE
8
TEXTO
10
1012.5000
20
50.0000
30
0.0
11
992.5000
21
50.0000
31
0.0
0
TEXT
8
TEXTO
10
989.5000
20
54.5000
30
0.0
40
10.0000
1
t = 2
50
0.0000
72
2
73
0
11
989.5000
21
54.5000
31
0.0
0
LINE
8
COTA
10
1178.0000
20
80.0000
30
0.0
11
1150.5000
21
80.0000
31
0.0
0
LINE
8
COTA
10
1178.0000
20
100.0000
30
0.0
11
1150.5000
21
100.0000
31
0.0
0
LINE
8
COTA
10
1160.5000
20
80.0000
30
0.0
11
1160.5000
21
100.0000
31
0.0
0
SOLID
8
COTA
10
1160.5000
20
80.0000
30
0.0
11
1162.0000
21
85.0000
31
0.0
12
1159.0000
22
85.0000
32
0.0
13
1159.0000
23
85.0000
33
0.0
0
SOLID
8
COTA
10
1160.5000
20
100.0000
30
0.0
11
1159.0000
21
95.0000
31
0.0
12
1162.0000
22
95.0000
32
0.0
13
1162.0000
23
95.0000
33
0.0
0
TEXT
8
COTA
10
1155.0000
20
90.0000
30
0.0
40
10.0000
1
20
50
90.0000
72
1
73
0
11
1155.0000
21
90.0000
31
0.0
0
TEXT
8
TEXTO
10
1150.0000
20
-216.0000
30
0.0
40
16.0000
1
Ue 200x75x20x2,00
50
0.0000
72
1
73
0
11
1150.0000
21
-216.0000
31
0.0
0
TEXT
8
TEXTO
10
1150.0000
20
-238.4000
30
0.0
40
10.0000
1
6,0 kg/m
50
0.0000
72
1
73
0
11
1150.0000
21
-238.4000
31
0.0
0
CIRCLE
8
ACO
10
1610.0000
20
0.0000
30
0.0
40
10.0000
0
LINE
8
HACHURA
10
1612.8385
20
-9.5528
30
0.0
11
1619.5528
21
-2.8385
31
0.0
0
LINE
8
HACHURA
10
1610.7608
20
-9.9334
30
0.0
11
1619.9334
21
-0.7608
31
0.0
0
LINE
8
HACHURA
10
1609.0778
20
-9.9193
30
0.0
11
1619.9193
21
0.9222
31
0.0
0
LINE
8
HACHURA
10
1607.6235
20
-9.6766
30
0.0
11
1619.6766
21
2.3765
31
0.0
0
LINE
8
HACHURA
10
1606.3250
20
-9.2781
30
0.0
11
1619.2781
21
3.6750
31
0.0
0
LINE
8
HACHURA
10
1605.1676
20
-8.7384
30
0.0
11
1618.7384
21
4.8324
31
0.0
0
LINE
8
HACHURA
10
1604.1464
20
-8.0625
30
0.0
11
1618.0625
21
5.8536
31
0.0
0
LINE
8
HACHURA
10
1603.2118
20
-7.3001
30
0.0
11
1617.3001
21
6.7882
31
0.0
0
LINE
8
HACHURA
10
1602.3632
20
-6.4516
30
0.0
11
1616.4516
21
7.6368
31
0.0
0
LINE
8
HACHURA
10
1601.6602
20
-5.4576
30
0.0
11
1615.4576
21
8.3398
31
0.0
0
LINE
8
HACHURA
10
1601.0475
20
-4.3732
30
0.0
11
1614.3732
21
8.9525
31
0.0
0
LINE
8
HACHURA
10
1600.5398
20
-3.1839
30
0.0
11
1613.1839
21
9.4602
31
0.0
0
LINE
8
HACHURA
10
1600.1811
20
-1.8455
30
0.0
11
1611.8455
21
9.8189
31
0.0
0
LINE
8
HACHURA
10
1600.0265
20
-0.3030
30
0.0
11
1610.3030
21
9.9735
31
0.0
0
LINE
8
HACHURA
10
1600.1311
20
1.4986
30
0.0
11
1608.5014
21
9.8689
31
0.0
0
LINE
8
HACHURA
10
1600.8193
20
3.8839
30
0.0
11
1606.1161
21
9.1807
31
0.0
0
LINE
8
EIXO
10
1582.5000
20
0.0000
30
0.0
11
1637.5000
21
0.0000
31
0.0
0
LINE
8
EIXO
10
1610.0000
20
-27.5000
30
0.0
11
1610.0000
21
27.5000
31
0.0
0
LINE
8
COTA
10
1600.0000
20
17.5000
30
0.0
11
1600.0000
21
70.0000
31
0.0
0
LINE
8
COTA
10
1620.0000
20
17.5000
30
0.0
11
1620.0000
21
70.0000
31
0.0
0
LINE
8
COTA
10
1600.0000
20
60.0000
30
0.0
11
1620.0000
21
60.0000
31
0.0
0
SOLID
8
COTA
10
1600.0000
20
60.0000
30
0.0
11
1605.0000
21
58.5000
31
0.0
12
1605.0000
22
61.5000
32
0.0
13
1605.0000
23
61.5000
33
0.0
0
SOLID
8
COTA
10
1620.0000
20
60.0000
30
0.0
11
1615.0000
21
61.5000
31
0.0
12
1615.0000
22
58.5000
32
0.0
13
1615.0000
23
58.5000
33
0.0
0
TEXT
8
COTA
10
1610.0000
20
66.8750
30
0.0
40
12.5000
1
%%c20
50
0.0000
72
1
73
0
11
1610.0000
21
66.8750
31
0.0
0
TEXT
8
TEXTO
10
1610.0000
20
-126.0000
30
0.0
40
16.0000
1
Barra redonda %%c 20 mm
50
0.0000
72
1
73
0
11
1610.0000
21
-126.0000
31
0.0
0
TEXT
8
TEXTO
10
1610.0000
20
-148.4000
30
0.0
40
10.0000
1
2,47 kg/m
50
0.0000
72
1
73
0
11
1610.0000
21
-148.4000
31
0.0
0
CIRCLE
8
ACO
10
2070.0000
20
0.0000
30
0.0
40
44.4500
0
CIRCLE
8
ACO
10
2070.0000
20
0.0000
30
0.0
40
41.2500
0
LINE
8
HACHURA
10
2111.2241
20
0.3945
30
0.0
11
2114.2273
21
3.3977
31
0.0
0
LINE
8
HACHURA
10
2111.0014
20
3.7922
30
0.0
11
2113.8941
21
6.6849
31
0.0
0
LINE
8
HACHURA
10
2110.5779
20
6.9890
30
0.0
11
2113.2934
21
9.7046
31
0.0
0
LINE
8
HACHURA
10
2109.9772
20
10.0088
30
0.0
11
2112.5648
21
12.5963
31
0.0
0
LINE
8
HACHURA
10
2109.1298
20
12.7817
30
0.0
11
2111.6473
21
15.2992
31
0.0
0
LINE
8
HACHURA
10
2108.2122
20
15.4846
30
0.0
11
2110.6277
21
17.9000
31
0.0
0
LINE
8
HACHURA
10
2107.0475
20
17.9402
30
0.0
11
2109.4320
21
20.3247
31
0.0
0
LINE
8
HACHURA
10
2105.8518
20
20.3649
30
0.0
11
2108.1812
21
22.6943
31
0.0
0
LINE
8
HACHURA
10
2104.4290
20
22.5625
30
0.0
11
2106.7311
21
24.8646
31
0.0
0
LINE
8
HACHURA
10
2102.9789
20
24.7327
30
0.0
11
2105.2810
21
27.0349
31
0.0
0
LINE
8
HACHURA
10
2101.3294
20
26.7037
30
0.0
11
2103.5922
21
28.9664
31
0.0
0
LINE
8
HACHURA
10
2099.6379
20
28.6325
30
0.0
11
2101.9006
21
30.8953
31
0.0
0
LINE
8
HACHURA
10
2097.2393
20
30.8597
30
0.0
11
2099.5021
21
33.1224
31
0.0
0
LINE
8
HACHURA
10
2095.3105
20
32.5512
30
0.0
11
2097.5732
21
34.8140
31
0.0
0
LINE
8
HACHURA
10
2093.1651
20
34.0263
30
0.0
11
2095.4673
21
36.3284
31
0.0
0
LINE
8
HACHURA
10
2090.9949
20
35.4764
30
0.0
11
2093.2970
21
37.7785
31
0.0
0
LINE
8
HACHURA
10
2088.6136
20
36.7155
30
0.0
11
2090.9980
21
39.0999
31
0.0
0
LINE
8
HACHURA
10
2086.1889
20
37.9112
30
0.0
11
2088.5733
21
40.2956
31
0.0
0
LINE
8
HACHURA
10
2083.5323
20
38.8750
30
0.0
11
2086.0498
21
41.3925
31
0.0
0
LINE
8
HACHURA
10
2080.8294
20
39.7925
30
0.0
11
2083.3469
21
42.3100
31
0.0
0
LINE
8
HACHURA
10
2077.8276
20
40.4111
30
0.0
11
2080.5431
21
43.1266
31
0.0
0
LINE
8
HACHURA
10
2074.7357
20
40.9396
30
0.0
11
2077.5234
21
43.7273
31
0.0
0
LINE
8
HACHURA
10
2071.3380
20
41.1623
30
0.0
11
2074.3412
21
44.1655
31
0.0
0
LINE
8
HACHURA
10
2070.0000
20
43.4446
30
0.0
11
2070.9435
21
44.3882
31
0.0
0
LINE
8
HACHURA
10
2066.1257
20
40.9961
30
0.0
11
2069.5501
21
44.4205
31
0.0
0
LINE
8
HACHURA
10
2061.8577
20
40.3485
30
0.0
11
2065.6758
21
44.1666
31
0.0
0
LINE
8
HACHURA
10
2056.9160
20
39.0271
30
0.0
11
2061.4025
21
43.5136
31
0.0
0
LINE
8
HACHURA
10
2050.5923
20
36.3239
30
0.0
11
2056.5401
21
42.2716
31
0.0
0
LINE
8
HACHURA
10
2040.3240
20
29.6760
30
0.0
11
2050.4738
21
39.8257
31
0.0
0
LINE
8
HACHURA
10
2025.5795
20
0.4499
30
0.0
11
2029.0039
21
3.8743
31
0.0
0
LINE
8
HACHURA
10
2025.8334
20
4.3242
30
0.0
11
2029.6515
21
8.1423
31
0.0
0
LINE
8
HACHURA
10
2026.4864
20
8.5975
30
0.0
11
2030.9729
21
13.0840
31
0.0
0
LINE
8
HACHURA
10
2027.7284
20
13.4599
30
0.0
11
2033.6761
21
19.4077
31
0.0
0
LINE
8
HACHURA
10
2030.1743
20
19.5262
30
0.0
11
2040.3240
21
29.6760
31
0.0
0
LINE
8
HACHURA
10
2036.8776
20
-29.5021
30
0.0
11
2039.1403
21
-27.2393
31
0.0
0
LINE
8
HACHURA
10
2035.1860
20
-27.5732
30
0.0
11
2037.4488
21
-25.3105
31
0.0
0
LINE
8
HACHURA
10
2033.6716
20
-25.4673
30
0.0
11
2035.9737
21
-23.1651
31
0.0
0
LINE
8
HACHURA
10
2032.2215
20
-23.2970
30
0.0
11
2034.5236
21
-20.9949
31
0.0
0
LINE
8
HACHURA
10
2030.9001
20
-20.9980
30
0.0
11
2033.2845
21
-18.6136
31
0.0
0
LINE
8
HACHURA
10
2029.7044
20
-18.5733
30
0.0
11
2032.0888
21
-16.1889
31
0.0
0
LINE
8
HACHURA
10
2028.6075
20
-16.0498
30
0.0
11
2031.1250
21
-13.5323
31
0.0
0
LINE
8
HACHURA
10
2027.6900
20
-13.3469
30
0.0
11
2030.2075
21
-10.8294
31
0.0
0
LINE
8
HACHURA
10
2026.8734
20
-10.5431
30
0.0
11
2029.5889
21
-7.8276
31
0.0
0
LINE
8
HACHURA
10
2026.2727
20
-7.5234
30
0.0
11
2029.0604
21
-4.7357
31
0.0
0
LINE
8
HACHURA
10
2025.8345
20
-4.3412
30
0.0
11
2028.8377
21
-1.3380
31
0.0
0
LINE
8
HACHURA
10
2025.6118
20
-0.9435
30
0.0
11
2026.5554
21
0.0000
31
0.0
0
LINE
8
HACHURA
10
2066.6023
20
-44.2273
30
0.0
11
2069.6055
21
-41.2241
31
0.0
0
LINE
8
HACHURA
10
2063.3151
20
-43.8941
30
0.0
11
2066.2078
21
-41.0014
31
0.0
0
LINE
8
HACHURA
10
2060.2954
20
-43.2934
30
0.0
11
2063.0110
21
-40.5779
31
0.0
0
LINE
8
HACHURA
10
2057.4037
20
-42.5648
30
0.0
11
2059.9912
21
-39.9772
31
0.0
0
LINE
8
HACHURA
10
2054.7008
20
-41.6473
30
0.0
11
2057.2183
21
-39.1298
31
0.0
0
LINE
8
HACHURA
10
2052.1000
20
-40.6277
30
0.0
11
2054.5154
21
-38.2122
31
0.0
0
LINE
8
HACHURA
10
2049.6753
20
-39.4320
30
0.0
11
2052.0598
21
-37.0475
31
0.0
0
LINE
8
HACHURA
10
2047.3057
20
-38.1812
30
0.0
11
2049.6351
21
-35.8518
31
0.0
0
LINE
8
HACHURA
10
2045.1354
20
-36.7311
30
0.0
11
2047.4375
21
-34.4290
31
0.0
0
LINE
8
HACHURA
10
2042.9651
20
-35.2810
30
0.0
11
2045.2673
21
-32.9789
31
0.0
0
LINE
8
HACHURA
10
2041.0336
20
-33.5922
30
0.0
11
2043.2963
21
-31.3294
31
0.0
0
LINE
8
HACHURA
10
2039.1047
20
-31.9006
30
0.0
11
2041.3675
21
-29.6379
31
0.0
0
LINE
8
HACHURA
10
2089.3081
20
-39.9333
30
0.0
11
2099.6207
21
-29.6207
31
0.0
0
LINE
8
HACHURA
10
2083.2926
20
-42.3284
30
0.0
11
2089.1896
21
-36.4314
31
0.0
0
LINE
8
HACHURA
10
2078.4596
20
-43.5411
30
0.0
11
2082.9167
21
-39.0839
31
0.0
0
LINE
8
HACHURA
10
2074.2059
20
-44.1743
30
0.0
11
2078.0043
21
-40.3759
31
0.0
0
LINE
8
HACHURA
10
2070.3316
20
-44.4283
30
0.0
11
2073.7560
21
-41.0038
31
0.0
0
LINE
8
HACHURA
10
2099.6207
20
-29.6207
30
0.0
11
2109.9333
21
-19.3081
31
0.0
0
LINE
8
HACHURA
10
2106.4314
20
-19.1896
30
0.0
11
2112.3284
21
-13.2926
31
0.0
0
LINE
8
HACHURA
10
2109.0839
20
-12.9167
30
0.0
11
2113.5411
21
-8.4596
31
0.0
0
LINE
8
HACHURA
10
2110.3759
20
-8.0043
30
0.0
11
2114.1743
21
-4.2059
31
0.0
0
LINE
8
HACHURA
10
2111.0038
20
-3.7560
30
0.0
11
2114.4283
21
-0.3316
31
0.0
0
LINE
8
EIXO
10
2008.0500
20
0.0000
30
0.0
11
2131.9500
21
0.0000
31
0.0
0
LINE
8
EIXO
10
2070.0000
20
-61.9500
30
0.0
11
2070.0000
21
61.9500
31
0.0
0
LINE
8
COTA
10
2121.9500
20
-44.4500
30
0.0
11
2174.4500
21
-44.4500
31
0.0
0
LINE
8
COTA
10
2121.9500
20
44.4500
30
0.0
11
2174.4500
21
44.4500
31
0.0
0
LINE
8
COTA
10
2164.4500
20
-44.4500
30
0.0
11
2164.4500
21
44.4500
31
0.0
0
SOLID
8
COTA
10
2164.4500
20
-44.4500
30
0.0
11
2168.2000
21
-31.9500
31
0.0
12
2160.7000
22
-31.9500
32
0.0
13
2160.7000
23
-31.9500
33
0.0
0
SOLID
8
COTA
10
2164.4500
20
44.4500
30
0.0
11
2160.7000
21
31.9500
31
0.0
12
2168.2000
22
31.9500
32
0.0
13
2168.2000
23
31.9500
33
0.0
0
TEXT
8
COTA
10
2157.5750
20
0.0000
30
0.0
40
12.5000
1
89
50
90.0000
72
1
73
0
11
2157.5750
21
0.0000
31
0.0
0
LINE
8
COTA
10
2025.5500
20
51.9500
30
0.0
11
2025.5500
21
104.4500
31
0.0
0
LINE
8
COTA
10
2114.4500
20
51.9500
30
0.0
11
2114.4500
21
104.4500
31
0.0
0
LINE
8
COTA
10
2025.5500
20
94.4500
30
0.0
11
2114.4500
21
94.4500
31
0.0
0
SOLID
8
COTA
10
2025.5500
20
94.4500
30
0.0
11
2038.0500
21
90.7000
31
0.0
12
2038.0500
22
98.2000
32
0.0
13
2038.0500
23
98.2000
33
0.0
0
SOLID
8
COTA
10
2114.4500
20
94.4500
30
0.0
11
2101.9500
21
98.2000
31
0.0
12
2101.9500
22
90.7000
32
0.0
13
2101.9500
23
90.7000
33
0.0
0
TEXT
8
COTA
10
2070.0000
20
101.3250
30
0.0
40
12.5000
1
89
50
0.0000
72
1
73
0
11
2070.0000
21
101.3250
31
0.0
0
LINE
8
TEXTO
10
2112.8500
20
0.0000
30
0.0
11
2214.4500
21
26.6700
31
0.0
0
SOLID
8
TEXTO
10
2112.8500
20
0.0000
30
0.0
11
2125.8925
21
-0.4534
31
0.0
12
2123.9883
22
6.8008
32
0.0
13
2123.9883
23
6.8008
33
0.0
0
LINE
8
TEXTO
10
2214.4500
20
26.6700
30
0.0
11
2234.4500
21
26.6700
31
0.0
0
TEXT
8
TEXTO
10
2237.4500
20
31.1700
30
0.0
40
10.0000
1
t = 3,2
50
0.0000
0
TEXT
8
TEXTO
10
2070.0000
20
-160.4500
30
0.0
40
16.0000
1
TC 88,9x3,2 (3")
50
0.0000
72
1
73
0
11
2070.0000
21
-160.4500
31
0.0
0
TEXT
8
TEXTO
10
2070.0000
20
-182.8500
30
0.0
40
10.0000
1
6,8 kg/m
50
0.0000
72
1
73
0
11
2070.0000
21
-182.8500
31
0.0
0
TEXT
8
TEXTO
10
1150.0000
20
-649.5000
30
0.0
40
20.0000
1
SECOES DOS PERFIS
50
0.0000
72
1
73
0
11
1150.0000
21
-649.5000
31
0.0
0
LINE
8
TEXTO
10
1044.6000
20
-658.5000
30
0.0
11
1255.4000
21
-658.5000
31
0.0
0
TEXT
8
TEXTO
10
1150.0000
20
-679.5000
30
0.0
40
10.0000
1
ESCALA 1:5
50
0.0000
72
1
73
0
11
1150.0000
21
-679.5000
31
0.0
0
TEXT
8
TEXTO
10
0.0000
20
-749.5000
30
0.0
40
12.5000
1
NOTAS
50
0.0000
0
TEXT
8
TEXTO
10
0.0000
20
-766.5000
30
0.0
40
10.0000
1
1. Cotas em milimetros.
50
0.0000
0
TEXT
8
TEXTO
10
0.0000
20
-783.5000
30
0.0
40
10.0000
1
2. Hachura indica secao cortada.
50
0.0000
0
ENDSEC
0
EOF
