0
SECTION
2
HEADER
9
$ACADVER
1
AC1009
9
$INSUNITS
70
4
9
$EXTMIN
10
-1883.9133
20
-38120.0000
30
0.0
9
$EXTMAX
10
22443.9133
20
7974.1086
30
0.0
9
$LTSCALE
40
1.0
9
$TEXTSTYLE
7
STANDARD
0
ENDSEC
0
SECTION
2
TABLES
0
TABLE
2
LTYPE
70
4
0
LTYPE
2
CONTINUOUS
70
0
3
Solida
72
65
73
0
40
0.0
0
LTYPE
2
CENTER
70
0
3
Linha de centro ____ _ ____ _ ____
72
65
73
4
40
31.7500
49
0.5000
49
-6.3500
49
3.1750
49
-6.3500
0
LTYPE
2
HIDDEN
70
0
3
Tracejada __ __ __ __ __ __
72
65
73
3
40
9.5250
49
0.5000
49
-6.3500
49
3.1750
0
LTYPE
2
DASHED
70
0
3
Tracejada longa ___ ___ ___
72
65
73
3
40
12.7000
49
0.5000
49
-6.3500
49
6.3500
0
ENDTAB
0
TABLE
2
LAYER
70
14
0
LAYER
2
0
70
0
62
7
6
CONTINUOUS
0
LAYER
2
ACO
70
0
62
7
6
CONTINUOUS
0
LAYER
2
ACO-FINO
70
0
62
8
6
CONTINUOUS
0
LAYER
2
EIXO
70
0
62
1
6
CENTER
0
LAYER
2
OCULTA
70
0
62
8
6
HIDDEN
0
LAYER
2
COTA
70
0
62
3
6
CONTINUOUS
0
LAYER
2
TEXTO
70
0
62
7
6
CONTINUOUS
0
LAYER
2
FURO
70
0
62
5
6
CONTINUOUS
0
LAYER
2
SOLDA
70
0
62
2
6
CONTINUOUS
0
LAYER
2
PARAFUSO
70
0
62
5
6
CONTINUOUS
0
LAYER
2
CONCRETO
70
0
62
9
6
CONTINUOUS
0
LAYER
2
HACHURA
70
0
62
8
6
CONTINUOUS
0
LAYER
2
CARIMBO
70
0
62
7
6
CONTINUOUS
0
LAYER
2
AUXILIAR
70
0
62
8
6
DASHED
0
ENDTAB
0
TABLE
2
STYLE
70
1
0
STYLE
2
STANDARD
70
0
40
0.0
41
0.85
50
0.0
71
0
42
2.5
3
txt
4

0
ENDTAB
0
ENDSEC
0
SECTION
2
ENTITIES
0
POLYLINE
8
ACO
66
1
10
0.0
20
0.0
30
0.0
70
0
0
VERTEX
8
ACO
10
0.0000
20
0.0000
30
0.0
0
VERTEX
8
ACO
10
0.0000
20
6000.0000
30
0.0
0
VERTEX
8
ACO
10
10000.0000
20
7000.0000
30
0.0
0
VERTEX
8
ACO
10
20000.0000
20
6000.0000
30
0.0
0
VERTEX
8
ACO
10
20000.0000
20
0.0000
30
0.0
0
SEQEND
8
ACO
0
LINE
8
EIXO
10
-400.0000
20
0.0000
30
0.0
11
400.0000
21
0.0000
31
0.0
0
LINE
8
EIXO
10
19600.0000
20
0.0000
30
0.0
11
20400.0000
21
0.0000
31
0.0
0
POLYLINE
8
COTA
66
1
10
0.0
20
0.0
30
0.0
70
1
0
VERTEX
8
COTA
10
0.0000
20
0.0000
30
0.0
0
VERTEX
8
COTA
10
0.0000
20
0.0000
30
0.0
0
VERTEX
8
COTA
10
189.7086
20
300.0000
30
0.0
0
VERTEX
8
COTA
10
374.7391
20
600.0000
30
0.0
0
VERTEX
8
COTA
10
555.4140
20
900.0000
30
0.0
0
VERTEX
8
COTA
10
731.5720
20
1200.0000
30
0.0
0
VERTEX
8
COTA
10
903.3745
20
1500.0000
30
0.0
0
VERTEX
8
COTA
10
1070.4988
20
1800.0000
30
0.0
0
VERTEX
8
COTA
10
1233.2675
20
2100.0000
30
0.0
0
VERTEX
8
COTA
10
1391.5193
20
2400.0000
30
0.0
0
VERTEX
8
COTA
10
1545.2543
20
2700.0000
30
0.0
0
VERTEX
8
COTA
10
1694.4724
20
3000.0000
30
0.0
0
VERTEX
8
COTA
10
1839.1737
20
3300.0000
30
0.0
0
VERTEX
8
COTA
10
1979.5193
20
3600.0000
30
0.0
0
VERTEX
8
COTA
10
2115.1868
20
3900.0000
30
0.0
0
VERTEX
8
COTA
10
2246.4988
20
4200.0000
30
0.0
0
VERTEX
8
COTA
10
2373.2938
20
4500.0000
30
0.0
0
VERTEX
8
COTA
10
2495.5720
20
4800.0000
30
0.0
0
VERTEX
8
COTA
10
2613.4947
20
5100.0000
30
0.0
0
VERTEX
8
COTA
10
2726.7391
20
5400.0000
30
0.0
0
VERTEX
8
COTA
10
2835.6280
20
5700.0000
30
0.0
0
VERTEX
8
COTA
10
2940.0000
20
6000.0000
30
0.0
0
VERTEX
8
COTA
10
0.0000
20
6000.0000
30
0.0
0
SEQEND
8
COTA
0
POLYLINE
8
COTA
66
1
10
0.0
20
0.0
30
0.0
70
1
0
VERTEX
8
COTA
10
0.0000
20
0.0000
30
0.0
0
VERTEX
8
COTA
10
0.0000
20
0.0000
30
0.0
0
VERTEX
8
COTA
10
-76.4642
20
300.0000
30
0.0
0
VERTEX
8
COTA
10
-152.7671
20
600.0000
30
0.0
0
VERTEX
8
COTA
10
-229.2313
20
900.0000
30
0.0
0
VERTEX
8
COTA
10
-305.6955
20
1200.0000
30
0.0
0
VERTEX
8
COTA
10
-381.9984
20
1500.0000
30
0.0
0
VERTEX
8
COTA
10
-458.4626
20
1800.0000
30
0.0
0
VERTEX
8
COTA
10
-534.7654
20
2100.0000
30
0.0
0
VERTEX
8
COTA
10
-611.2296
20
2400.0000
30
0.0
0
VERTEX
8
COTA
10
-687.6938
20
2700.0000
30
0.0
0
VERTEX
8
COTA
10
-763.9967
20
3000.0000
30
0.0
0
VERTEX
8
COTA
10
-840.4609
20
3300.0000
30
0.0
0
VERTEX
8
COTA
10
-916.9251
20
3600.0000
30
0.0
0
VERTEX
8
COTA
10
-993.2280
20
3900.0000
30
0.0
0
VERTEX
8
COTA
10
-1069.6922
20
4200.0000
30
0.0
0
VERTEX
8
COTA
10
-1146.1564
20
4500.0000
30
0.0
0
VERTEX
8
COTA
10
-1222.4593
20
4800.0000
30
0.0
0
VERTEX
8
COTA
10
-1298.9235
20
5100.0000
30
0.0
0
VERTEX
8
COTA
10
-1375.2263
20
5400.0000
30
0.0
0
VERTEX
8
COTA
10
-1451.6905
20
5700.0000
30
0.0
0
VERTEX
8
COTA
10
-1528.1547
20
6000.0000
30
0.0
0
VERTEX
8
COTA
10
0.0000
20
6000.0000
30
0.0
0
SEQEND
8
COTA
0
POLYLINE
8
COTA
66
1
10
0.0
20
0.0
30
0.0
70
1
0
VERTEX
8
COTA
10
0.0000
20
6000.0000
30
0.0
0
VERTEX
8
COTA
10
292.5241
20
3074.5883
30
0.0
0
VERTEX
8
COTA
10
375.6749
20
3147.5893
30
0.0
0
VERTEX
8
COTA
10
458.8417
20
3220.4299
30
0.0
0
VERTEX
8
COTA
10
541.9925
20
3293.4309
30
0.0
0
VERTEX
8
COTA
10
625.1593
20
3366.2715
30
0.0
0
VERTEX
8
COTA
10
708.3101
20
3439.2725
30
0.0
0
VERTEX
8
COTA
10
791.4769
20
3512.1130
30
0.0
0
VERTEX
8
COTA
10
874.6276
20
3585.1141
30
0.0
0
VERTEX
8
COTA
10
957.7945
20
3657.9546
30
0.0
0
VERTEX
8
COTA
10
1040.9452
20
3730.9557
30
0.0
0
VERTEX
8
COTA
10
1124.1121
20
3803.7962
30
0.0
0
VERTEX
8
COTA
10
1207.2628
20
3876.7973
30
0.0
0
VERTEX
8
COTA
10
1290.4136
20
3949.7983
30
0.0
0
VERTEX
8
COTA
10
1373.5804
20
4022.6388
30
0.0
0
VERTEX
8
COTA
10
1456.7312
20
4095.6399
30
0.0
0
VERTEX
8
COTA
10
1539.8980
20
4168.4804
30
0.0
0
VERTEX
8
COTA
10
1623.0488
20
4241.4815
30
0.0
0
VERTEX
8
COTA
10
1706.2156
20
4314.3220
30
0.0
0
VERTEX
8
COTA
10
1789.3664
20
4387.3231
30
0.0
0
VERTEX
8
COTA
10
1872.5332
20
4460.1636
30
0.0
0
VERTEX
8
COTA
10
1955.6839
20
4533.1646
30
0.0
0
VERTEX
8
COTA
10
1791.1000
20
6179.1000
30
0.0
0
SEQEND
8
COTA
0
POLYLINE
8
COTA
66
1
10
0.0
20
0.0
30
0.0
70
1
0
VERTEX
8
COTA
10
0.0000
20
6000.0000
30
0.0
0
VERTEX
8
COTA
10
-152.0483
20
7520.5720
30
0.0
0
VERTEX
8
COTA
10
-58.8819
20
7493.4108
30
0.0
0
VERTEX
8
COTA
10
34.2845
20
7466.2496
30
0.0
0
VERTEX
8
COTA
10
127.4509
20
7439.0884
30
0.0
0
VERTEX
8
COTA
10
220.6173
20
7411.9273
30
0.0
0
VERTEX
8
COTA
10
313.7837
20
7384.7661
30
0.0
0
VERTEX
8
COTA
10
406.9501
20
7357.6049
30
0.0
0
VERTEX
8
COTA
10
500.1165
20
7330.4437
30
0.0
0
VERTEX
8
COTA
10
593.2669
20
7303.4430
30
0.0
0
VERTEX
8
COTA
10
686.4333
20
7276.2818
30
0.0
0
VERTEX
8
COTA
10
779.5997
20
7249.1206
30
0.0
0
VERTEX
8
COTA
10
872.7661
20
7221.9594
30
0.0
0
VERTEX
8
COTA
10
965.9325
20
7194.7982
30
0.0
0
VERTEX
8
COTA
10
1059.0989
20
7167.6370
30
0.0
0
VERTEX
8
COTA
10
1152.2653
20
7140.4758
30
0.0
0
VERTEX
8
COTA
10
1245.4317
20
7113.3146
30
0.0
0
VERTEX
8
COTA
10
1338.5982
20
7086.1534
30
0.0
0
VERTEX
8
COTA
10
1431.7646
20
7058.9922
30
0.0
0
VERTEX
8
COTA
10
1524.9149
20
7031.9916
30
0.0
0
VERTEX
8
COTA
10
1618.0813
20
7004.8304
30
0.0
0
VERTEX
8
COTA
10
1711.2477
20
6977.6692
30
0.0
0
VERTEX
8
COTA
10
1791.1000
20
6179.1000
30
0.0
0
SEQEND
8
COTA
0
POLYLINE
8
COTA
66
1
10
0.0
20
0.0
30
0.0
70
1
0
VERTEX
8
COTA
10
1791.1000
20
6179.1000
30
0.0
0
VERTEX
8
COTA
10
1955.6955
20
4533.1663
30
0.0
0
VERTEX
8
COTA
10
2337.6325
20
4859.2882
30
0.0
0
VERTEX
8
COTA
10
2721.2067
20
5169.0374
30
0.0
0
VERTEX
8
COTA
10
3106.4182
20
5462.4139
30
0.0
0
VERTEX
8
COTA
10
3493.2510
20
5739.5784
30
0.0
0
VERTEX
8
COTA
10
3881.7210
20
6000.3701
30
0.0
0
VERTEX
8
COTA
10
4275.0708
20
6212.3649
30
0.0
0
VERTEX
8
COTA
10
4679.7371
20
6311.1958
30
0.0
0
VERTEX
8
COTA
10
5099.0267
20
6263.7963
30
0.0
0
VERTEX
8
COTA
10
5518.5570
20
6213.9891
30
0.0
0
VERTEX
8
COTA
10
5937.1885
20
6173.1708
30
0.0
0
VERTEX
8
COTA
10
6354.9370
20
6141.1809
30
0.0
0
VERTEX
8
COTA
10
6771.8188
20
6117.8589
30
0.0
0
VERTEX
8
COTA
10
7187.8178
20
6103.3653
30
0.0
0
VERTEX
8
COTA
10
7602.9499
20
6097.5395
30
0.0
0
VERTEX
8
COTA
10
8017.1831
20
6100.7027
30
0.0
0
VERTEX
8
COTA
10
8430.5496
20
6112.5337
30
0.0
0
VERTEX
8
COTA
10
8843.0332
20
6133.1932
30
0.0
0
VERTEX
8
COTA
10
9254.6339
20
6162.6810
30
0.0
0
VERTEX
8
COTA
10
9665.3518
20
6200.9972
30
0.0
0
VERTEX
8
COTA
10
10075.2028
20
6247.9813
30
0.0
0
VERTEX
8
COTA
10
10000.0000
20
7000.0000
30
0.0
0
SEQEND
8
COTA
0
POLYLINE
8
COTA
66
1
10
0.0
20
0.0
30
0.0
70
1
0
VERTEX
8
COTA
10
1791.1000
20
6179.1000
30
0.0
0
VERTEX
8
COTA
10
1711.2421
20
6977.6684
30
0.0
0
VERTEX
8
COTA
10
2137.8032
20
6857.5551
30
0.0
0
VERTEX
8
COTA
10
2563.4653
20
6746.4306
30
0.0
0
VERTEX
8
COTA
10
2988.2606
20
6643.9741
30
0.0
0
VERTEX
8
COTA
10
3412.1731
20
6550.3460
30
0.0
0
VERTEX
8
COTA
10
3835.2028
20
6465.5462
30
0.0
0
VERTEX
8
COTA
10
4257.3656
20
6389.4144
30
0.0
0
VERTEX
8
COTA
10
4663.5569
20
6472.9962
30
0.0
0
VERTEX
8
COTA
10
5056.9227
20
6684.8305
30
0.0
0
VERTEX
8
COTA
10
5451.9098
20
6880.4526
30
0.0
0
VERTEX
8
COTA
10
5848.5502
20
7059.5416
30
0.0
0
VERTEX
8
COTA
10
6246.7958
20
7222.5790
30
0.0
0
VERTEX
8
COTA
10
6646.6948
20
7369.0831
30
0.0
0
VERTEX
8
COTA
10
7048.2150
20
7499.3752
30
0.0
0
VERTEX
8
COTA
10
7451.3724
20
7613.2946
30
0.0
0
VERTEX
8
COTA
10
7856.1672
20
7710.8413
30
0.0
0
VERTEX
8
COTA
10
8262.5832
20
7792.1759
30
0.0
0
VERTEX
8
COTA
10
8670.6364
20
7857.1378
30
0.0
0
VERTEX
8
COTA
10
9080.3270
20
7905.7270
30
0.0
0
VERTEX
8
COTA
10
9491.6388
20
7938.1042
30
0.0
0
VERTEX
8
COTA
10
9904.5879
20
7954.1086
30
0.0
0
VERTEX
8
COTA
10
10000.0000
20
7000.0000
30
0.0
0
SEQEND
8
COTA
0
POLYLINE
8
COTA
66
1
10
0.0
20
0.0
30
0.0
70
1
0
VERTEX
8
COTA
10
10000.0000
20
7000.0000
30
0.0
0
VERTEX
8
COTA
10
9924.7972
20
6247.9813
30
0.0
0
VERTEX
8
COTA
10
10334.6482
20
6200.9972
30
0.0
0
VERTEX
8
COTA
10
10745.3661
20
6162.6810
30
0.0
0
VERTEX
8
COTA
10
11156.9668
20
6133.1932
30
0.0
0
VERTEX
8
COTA
10
11569.4504
20
6112.5337
30
0.0
0
VERTEX
8
COTA
10
11982.8169
20
6100.7027
30
0.0
0
VERTEX
8
COTA
10
12397.0501
20
6097.5395
30
0.0
0
VERTEX
8
COTA
10
12812.1822
20
6103.3653
30
0.0
0
VERTEX
8
COTA
10
13228.1812
20
6117.8589
30
0.0
0
VERTEX
8
COTA
10
13645.0630
20
6141.1809
30
0.0
0
VERTEX
8
COTA
10
14062.8115
20
6173.1708
30
0.0
0
VERTEX
8
COTA
10
14481.4430
20
6213.9891
30
0.0
0
VERTEX
8
COTA
10
14900.9733
20
6263.7963
30
0.0
0
VERTEX
8
COTA
10
15321.3705
20
6322.2714
30
0.0
0
VERTEX
8
COTA
10
15742.6344
20
6389.4144
30
0.0
0
VERTEX
8
COTA
10
16164.7972
20
6465.5462
30
0.0
0
VERTEX
8
COTA
10
16574.5359
20
6417.4385
30
0.0
0
VERTEX
8
COTA
10
16973.4076
20
6260.6613
30
0.0
0
VERTEX
8
COTA
10
17371.5408
20
6096.5003
30
0.0
0
VERTEX
8
COTA
10
17768.9838
20
5925.4372
30
0.0
0
VERTEX
8
COTA
10
18165.6885
20
5746.9902
30
0.0
0
VERTEX
8
COTA
10
18208.9000
20
6179.1000
30
0.0
0
SEQEND
8
COTA
0
POLYLINE
8
COTA
66
1
10
0.0
20
0.0
30
0.0
70
1
0
VERTEX
8
COTA
10
10000.0000
20
7000.0000
30
0.0
0
VERTEX
8
COTA
10
10095.4121
20
7954.1086
30
0.0
0
VERTEX
8
COTA
10
10505.7287
20
7911.7795
30
0.0
0
VERTEX
8
COTA
10
10915.3229
20
7862.2271
30
0.0
0
VERTEX
8
COTA
10
11324.1949
20
7805.4515
30
0.0
0
VERTEX
8
COTA
10
11732.3605
20
7741.6132
30
0.0
0
VERTEX
8
COTA
10
12139.8199
20
7670.7122
30
0.0
0
VERTEX
8
COTA
10
12546.5569
20
7592.5880
30
0.0
0
VERTEX
8
COTA
10
12952.5716
20
7507.2405
30
0.0
0
VERTEX
8
COTA
10
13357.8639
20
7414.6698
30
0.0
0
VERTEX
8
COTA
10
13762.4661
20
7315.1968
30
0.0
0
VERTEX
8
COTA
10
14166.3298
20
7208.3402
30
0.0
0
VERTEX
8
COTA
10
14569.4873
20
7094.4208
30
0.0
0
VERTEX
8
COTA
10
14971.9224
20
6973.2782
30
0.0
0
VERTEX
8
COTA
10
15373.6513
20
6845.0728
30
0.0
0
VERTEX
8
COTA
10
15774.6578
20
6709.6443
30
0.0
0
VERTEX
8
COTA
10
16182.2295
20
6639.8669
30
0.0
0
VERTEX
8
COTA
10
16594.4723
20
6616.7997
30
0.0
0
VERTEX
8
COTA
10
17012.9111
20
6655.6918
30
0.0
0
VERTEX
8
COTA
10
17436.5347
20
6746.4306
30
0.0
0
VERTEX
8
COTA
10
17862.1968
20
6857.5551
30
0.0
0
VERTEX
8
COTA
10
18288.7579
20
6977.6684
30
0.0
0
VERTEX
8
COTA
10
18208.9000
20
6179.1000
30
0.0
0
SEQEND
8
COTA
0
POLYLINE
8
COTA
66
1
10
0.0
20
0.0
30
0.0
70
1
0
VERTEX
8
COTA
10
18208.9000
20
6179.1000
30
0.0
0
VERTEX
8
COTA
10
18165.6915
20
5746.9898
30
0.0
0
VERTEX
8
COTA
10
18252.1808
20
5707.3762
30
0.0
0
VERTEX
8
COTA
10
18338.6701
20
5667.7625
30
0.0
0
VERTEX
8
COTA
10
18425.1434
20
5627.9884
30
0.0
0
VERTEX
8
COTA
10
18511.6327
20
5588.3747
30
0.0
0
VERTEX
8
COTA
10
18598.1060
20
5548.6006
30
0.0
0
VERTEX
8
COTA
10
18684.5953
20
5508.9870
30
0.0
0
VERTEX
8
COTA
10
18771.0686
20
5469.2128
30
0.0
0
VERTEX
8
COTA
10
18857.5579
20
5429.5992
30
0.0
0
VERTEX
8
COTA
10
18944.0311
20
5389.8250
30
0.0
0
VERTEX
8
COTA
10
19030.5204
20
5350.2114
30
0.0
0
VERTEX
8
COTA
10
19116.9937
20
5310.4372
30
0.0
0
VERTEX
8
COTA
10
19203.4830
20
5270.8236
30
0.0
0
VERTEX
8
COTA
10
19289.9563
20
5231.0494
30
0.0
0
VERTEX
8
COTA
10
19376.4456
20
5191.4358
30
0.0
0
VERTEX
8
COTA
10
19462.9189
20
5151.6616
30
0.0
0
VERTEX
8
COTA
10
19549.4082
20
5112.0480
30
0.0
0
VERTEX
8
COTA
10
19635.8975
20
5072.4344
30
0.0
0
VERTEX
8
COTA
10
19722.3708
20
5032.6602
30
0.0
0
VERTEX
8
COTA
10
19808.8601
20
4993.0466
30
0.0
0
VERTEX
8
COTA
10
19895.3333
20
4953.2724
30
0.0
0
VERTEX
8
COTA
10
20000.0000
20
6000.0000
30
0.0
0
SEQEND
8
COTA
0
POLYLINE
8
COTA
66
1
10
0.0
20
0.0
30
0.0
70
1
0
VERTEX
8
COTA
10
18208.9000
20
6179.1000
30
0.0
0
VERTEX
8
COTA
10
18288.7523
20
6977.6692
30
0.0
0
VERTEX
8
COTA
10
18381.9187
20
7004.8304
30
0.0
0
VERTEX
8
COTA
10
18475.0851
20
7031.9916
30
0.0
0
VERTEX
8
COTA
10
18568.2354
20
7058.9922
30
0.0
0
VERTEX
8
COTA
10
18661.4018
20
7086.1534
30
0.0
0
VERTEX
8
COTA
10
18754.5683
20
7113.3146
30
0.0
0
VERTEX
8
COTA
10
18847.7347
20
7140.4758
30
0.0
0
VERTEX
8
COTA
10
18940.9011
20
7167.6370
30
0.0
0
VERTEX
8
COTA
10
19034.0675
20
7194.7982
30
0.0
0
VERTEX
8
COTA
10
19127.2339
20
7221.9594
30
0.0
0
VERTEX
8
COTA
10
19220.4003
20
7249.1206
30
0.0
0
VERTEX
8
COTA
10
19313.5667
20
7276.2818
30
0.0
0
VERTEX
8
COTA
10
19406.7331
20
7303.4430
30
0.0
0
VERTEX
8
COTA
10
19499.8835
20
7330.4437
30
0.0
0
VERTEX
8
COTA
10
19593.0499
20
7357.6049
30
0.0
0
VERTEX
8
COTA
10
19686.2163
20
7384.7661
30
0.0
0
VERTEX
8
COTA
10
19779.3827
20
7411.9273
30
0.0
0
VERTEX
8
COTA
10
19872.5491
20
7439.0884
30
0.0
0
VERTEX
8
COTA
10
19965.7155
20
7466.2496
30
0.0
0
VERTEX
8
COTA
10
20058.8819
20
7493.4108
30
0.0
0
VERTEX
8
COTA
10
20152.0483
20
7520.5720
30
0.0
0
VERTEX
8
COTA
10
20000.0000
20
6000.0000
30
0.0
0
SEQEND
8
COTA
0
POLYLINE
8
COTA
66
1
10
0.0
20
0.0
30
0.0
70
1
0
VERTEX
8
COTA
10
20000.0000
20
6000.0000
30
0.0
0
VERTEX
8
COTA
10
18948.0527
20
6000.0000
30
0.0
0
VERTEX
8
COTA
10
19060.3292
20
5700.0000
30
0.0
0
VERTEX
8
COTA
10
19166.3144
20
5400.0000
30
0.0
0
VERTEX
8
COTA
10
19266.1695
20
5100.0000
30
0.0
0
VERTEX
8
COTA
10
19359.5720
20
4800.0000
30
0.0
0
VERTEX
8
COTA
10
19446.6831
20
4500.0000
30
0.0
0
VERTEX
8
COTA
10
19527.6642
20
4200.0000
30
0.0
0
VERTEX
8
COTA
10
19602.1926
20
3900.0000
30
0.0
0
VERTEX
8
COTA
10
19670.4296
20
3600.0000
30
0.0
0
VERTEX
8
COTA
10
19732.5366
20
3300.0000
30
0.0
0
VERTEX
8
COTA
10
19788.1909
20
3000.0000
30
0.0
0
VERTEX
8
COTA
10
19837.7152
20
2700.0000
30
0.0
0
VERTEX
8
COTA
10
19880.9481
20
2400.0000
30
0.0
0
VERTEX
8
COTA
10
19917.7284
20
2100.0000
30
0.0
0
VERTEX
8
COTA
10
19948.3786
20
1800.0000
30
0.0
0
VERTEX
8
COTA
10
19972.7374
20
1500.0000
30
0.0
0
VERTEX
8
COTA
10
19990.6436
20
1200.0000
30
0.0
0
VERTEX
8
COTA
10
20002.4198
20
900.0000
30
0.0
0
VERTEX
8
COTA
10
20007.9045
20
600.0000
30
0.0
0
VERTEX
8
COTA
10
20007.0979
20
300.0000
30
0.0
0
VERTEX
8
COTA
10
20000.0000
20
0.0000
30
0.0
0
VERTEX
8
COTA
10
20000.0000
20
0.0000
30
0.0
0
SEQEND
8
COTA
0
POLYLINE
8
COTA
66
1
10
0.0
20
0.0
30
0.0
70
1
0
VERTEX
8
COTA
10
20000.0000
20
6000.0000
30
0.0
0
VERTEX
8
COTA
10
21528.1547
20
6000.0000
30
0.0
0
VERTEX
8
COTA
10
21451.6905
20
5700.0000
30
0.0
0
VERTEX
8
COTA
10
21375.2263
20
5400.0000
30
0.0
0
VERTEX
8
COTA
10
21298.9235
20
5100.0000
30
0.0
0
VERTEX
8
COTA
10
21222.4593
20
4800.0000
30
0.0
0
VERTEX
8
COTA
10
21146.1564
20
4500.0000
30
0.0
0
VERTEX
8
COTA
10
21069.6922
20
4200.0000
30
0.0
0
VERTEX
8
COTA
10
20993.2280
20
3900.0000
30
0.0
0
VERTEX
8
COTA
10
20916.9251
20
3600.0000
30
0.0
0
VERTEX
8
COTA
10
20840.4609
20
3300.0000
30
0.0
0
VERTEX
8
COTA
10
20763.9967
20
3000.0000
30
0.0
0
VERTEX
8
COTA
10
20687.6938
20
2700.0000
30
0.0
0
VERTEX
8
COTA
10
20611.2296
20
2400.0000
30
0.0
0
VERTEX
8
COTA
10
20534.7654
20
2100.0000
30
0.0
0
VERTEX
8
COTA
10
20458.4626
20
1800.0000
30
0.0
0
VERTEX
8
COTA
10
20381.9984
20
1500.0000
30
0.0
0
VERTEX
8
COTA
10
20305.6955
20
1200.0000
30
0.0
0
VERTEX
8
COTA
10
20229.2313
20
900.0000
30
0.0
0
VERTEX
8
COTA
10
20152.7671
20
600.0000
30
0.0
0
VERTEX
8
COTA
10
20076.4642
20
300.0000
30
0.0
0
VERTEX
8
COTA
10
20000.0000
20
0.0000
30
0.0
0
VERTEX
8
COTA
10
20000.0000
20
0.0000
30
0.0
0
SEQEND
8
COTA
0
TEXT
8
TEXTO
10
2940.0000
20
6080.0000
30
0.0
40
200.0000
1
182,2
50
0.0000
72
1
73
0
11
2940.0000
21
6080.0000
31
0.0
0
TEXT
8
TEXTO
10
292.5241
20
3154.5883
30
0.0
40
200.0000
1
182,2
50
0.0000
72
1
73
0
11
292.5241
21
3154.5883
31
0.0
0
TEXT
8
TEXTO
10
1955.6955
20
4613.1663
30
0.0
40
200.0000
1
102,5
50
0.0000
72
1
73
0
11
1955.6955
21
4613.1663
31
0.0
0
TEXT
8
TEXTO
10
-1528.1547
20
5720.0000
30
0.0
40
200.0000
1
94,7
50
0.0000
72
1
73
0
11
-1528.1547
21
5720.0000
31
0.0
0
TEXT
8
TEXTO
10
-152.0483
20
7240.5720
30
0.0
40
200.0000
1
94,7
50
0.0000
72
1
73
0
11
-152.0483
21
7240.5720
31
0.0
0
TEXT
8
TEXTO
10
20152.0483
20
7240.5720
30
0.0
40
200.0000
1
94,7
50
0.0000
72
1
73
0
11
20152.0483
21
7240.5720
31
0.0
0
TEXT
8
TEXTO
10
10000.0000
20
-3940.0000
30
0.0
40
400.0000
1
MOMENTO FLETOR (kN.m)
50
0.0000
72
1
73
0
11
10000.0000
21
-3940.0000
31
0.0
0
LINE
8
TEXTO
10
7396.0000
20
-4120.0000
30
0.0
11
12604.0000
21
-4120.0000
31
0.0
0
TEXT
8
TEXTO
10
10000.0000
20
-4540.0000
30
0.0
40
200.0000
1
ESCALA 1 cm = 18,2 kN.m
50
0.0000
72
1
73
0
11
10000.0000
21
-4540.0000
31
0.0
0
POLYLINE
8
ACO
66
1
10
0.0
20
0.0
30
0.0
70
0
0
VERTEX
8
ACO
10
0.0000
20
-14630.0000
30
0.0
0
VERTEX
8
ACO
10
0.0000
20
-8630.0000
30
0.0
0
VERTEX
8
ACO
10
10000.0000
20
-7630.0000
30
0.0
0
VERTEX
8
ACO
10
20000.0000
20
-8630.0000
30
0.0
0
VERTEX
8
ACO
10
20000.0000
20
-14630.0000
30
0.0
0
SEQEND
8
ACO
0
LINE
8
EIXO
10
-400.0000
20
-14630.0000
30
0.0
11
400.0000
21
-14630.0000
31
0.0
0
LINE
8
EIXO
10
19600.0000
20
-14630.0000
30
0.0
11
20400.0000
21
-14630.0000
31
0.0
0
POLYLINE
8
COTA
66
1
10
0.0
20
0.0
30
0.0
70
1
0
VERTEX
8
COTA
10
0.0000
20
-14630.0000
30
0.0
0
VERTEX
8
COTA
10
2632.5881
20
-14630.0000
30
0.0
0
VERTEX
8
COTA
10
2570.8401
20
-14330.0000
30
0.0
0
VERTEX
8
COTA
10
2509.7561
20
-14030.0000
30
0.0
0
VERTEX
8
COTA
10
2448.0081
20
-13730.0000
30
0.0
0
VERTEX
8
COTA
10
2386.2602
20
-13430.0000
30
0.0
0
VERTEX
8
COTA
10
2324.5122
20
-13130.0000
30
0.0
0
VERTEX
8
COTA
10
2263.4282
20
-12830.0000
30
0.0
0
VERTEX
8
COTA
10
2201.6802
20
-12530.0000
30
0.0
0
VERTEX
8
COTA
10
2139.9322
20
-12230.0000
30
0.0
0
VERTEX
8
COTA
10
2078.1843
20
-11930.0000
30
0.0
0
VERTEX
8
COTA
10
2016.4363
20
-11630.0000
30
0.0
0
VERTEX
8
COTA
10
1955.3523
20
-11330.0000
30
0.0
0
VERTEX
8
COTA
10
1893.6043
20
-11030.0000
30
0.0
0
VERTEX
8
COTA
10
1831.8564
20
-10730.0000
30
0.0
0
VERTEX
8
COTA
10
1770.1084
20
-10430.0000
30
0.0
0
VERTEX
8
COTA
10
1709.0244
20
-10130.0000
30
0.0
0
VERTEX
8
COTA
10
1647.2764
20
-9830.0000
30
0.0
0
VERTEX
8
COTA
10
1585.5285
20
-9530.0000
30
0.0
0
VERTEX
8
COTA
10
1523.7805
20
-9230.0000
30
0.0
0
VERTEX
8
COTA
10
1462.6965
20
-8930.0000
30
0.0
0
VERTEX
8
COTA
10
1400.9485
20
-8630.0000
30
0.0
0
VERTEX
8
COTA
10
0.0000
20
-8630.0000
30
0.0
0
SEQEND
8
COTA
0
POLYLINE
8
COTA
66
1
10
0.0
20
0.0
30
0.0
70
1
0
VERTEX
8
COTA
10
0.0000
20
-14630.0000
30
0.0
0
VERTEX
8
COTA
10
-1048.3875
20
-14630.0000
30
0.0
0
VERTEX
8
COTA
10
-1048.3875
20
-14330.0000
30
0.0
0
VERTEX
8
COTA
10
-1048.3875
20
-14030.0000
30
0.0
0
VERTEX
8
COTA
10
-1048.3875
20
-13730.0000
30
0.0
0
VERTEX
8
COTA
10
-1048.3875
20
-13430.0000
30
0.0
0
VERTEX
8
COTA
10
-1048.3875
20
-13130.0000
30
0.0
0
VERTEX
8
COTA
10
-1048.3875
20
-12830.0000
30
0.0
0
VERTEX
8
COTA
10
-1048.3875
20
-12530.0000
30
0.0
0
VERTEX
8
COTA
10
-1048.3875
20
-12230.0000
30
0.0
0
VERTEX
8
COTA
10
-1048.3875
20
-11930.0000
30
0.0
0
VERTEX
8
COTA
10
-1048.3875
20
-11630.0000
30
0.0
0
VERTEX
8
COTA
10
-1048.3875
20
-11330.0000
30
0.0
0
VERTEX
8
COTA
10
-1048.3875
20
-11030.0000
30
0.0
0
VERTEX
8
COTA
10
-1048.3875
20
-10730.0000
30
0.0
0
VERTEX
8
COTA
10
-1048.3875
20
-10430.0000
30
0.0
0
VERTEX
8
COTA
10
-1048.3875
20
-10130.0000
30
0.0
0
VERTEX
8
COTA
10
-1048.3875
20
-9830.0000
30
0.0
0
VERTEX
8
COTA
10
-1048.3875
20
-9530.0000
30
0.0
0
VERTEX
8
COTA
10
-1048.3875
20
-9230.0000
30
0.0
0
VERTEX
8
COTA
10
-1048.3875
20
-8930.0000
30
0.0
0
VERTEX
8
COTA
10
-1048.3875
20
-8630.0000
30
0.0
0
VERTEX
8
COTA
10
0.0000
20
-8630.0000
30
0.0
0
SEQEND
8
COTA
0
POLYLINE
8
COTA
66
1
10
0.0
20
0.0
30
0.0
70
1
0
VERTEX
8
COTA
10
0.0000
20
-8630.0000
30
0.0
0
VERTEX
8
COTA
10
165.0898
20
-10280.9946
30
0.0
0
VERTEX
8
COTA
10
254.6448
20
-10272.0396
30
0.0
0
VERTEX
8
COTA
10
344.1998
20
-10263.0846
30
0.0
0
VERTEX
8
COTA
10
433.7548
20
-10254.1296
30
0.0
0
VERTEX
8
COTA
10
523.3098
20
-10245.1746
30
0.0
0
VERTEX
8
COTA
10
612.8648
20
-10236.2196
30
0.0
0
VERTEX
8
COTA
10
702.4198
20
-10227.2646
30
0.0
0
VERTEX
8
COTA
10
791.9748
20
-10218.3096
30
0.0
0
VERTEX
8
COTA
10
881.5298
20
-10209.3546
30
0.0
0
VERTEX
8
COTA
10
971.0848
20
-10200.3996
30
0.0
0
VERTEX
8
COTA
10
1060.6398
20
-10191.4446
30
0.0
0
VERTEX
8
COTA
10
1150.1948
20
-10182.4896
30
0.0
0
VERTEX
8
COTA
10
1239.7498
20
-10173.5346
30
0.0
0
VERTEX
8
COTA
10
1329.3048
20
-10164.5796
30
0.0
0
VERTEX
8
COTA
10
1418.8598
20
-10155.6246
30
0.0
0
VERTEX
8
COTA
10
1508.4148
20
-10146.6696
30
0.0
0
VERTEX
8
COTA
10
1597.9698
20
-10137.7146
30
0.0
0
VERTEX
8
COTA
10
1687.5248
20
-10128.7596
30
0.0
0
VERTEX
8
COTA
10
1777.0798
20
-10119.8046
30
0.0
0
VERTEX
8
COTA
10
1866.6348
20
-10110.8496
30
0.0
0
VERTEX
8
COTA
10
1956.1898
20
-10101.8946
30
0.0
0
VERTEX
8
COTA
10
1791.1000
20
-8450.9000
30
0.0
0
SEQEND
8
COTA
0
POLYLINE
8
COTA
66
1
10
0.0
20
0.0
30
0.0
70
1
0
VERTEX
8
COTA
10
0.0000
20
-8630.0000
30
0.0
0
VERTEX
8
COTA
10
-292.5241
20
-5704.5883
30
0.0
0
VERTEX
8
COTA
10
-202.9691
20
-5695.6333
30
0.0
0
VERTEX
8
COTA
10
-113.4141
20
-5686.6783
30
0.0
0
VERTEX
8
COTA
10
-23.8591
20
-5677.7233
30
0.0
0
VERTEX
8
COTA
10
65.6959
20
-5668.7683
30
0.0
0
VERTEX
8
COTA
10
155.2509
20
-5659.8133
30
0.0
0
VERTEX
8
COTA
10
244.8059
20
-5650.8583
30
0.0
0
VERTEX
8
COTA
10
334.3609
20
-5641.9033
30
0.0
0
VERTEX
8
COTA
10
423.9159
20
-5632.9483
30
0.0
0
VERTEX
8
COTA
10
513.4709
20
-5623.9933
30
0.0
0
VERTEX
8
COTA
10
603.0259
20
-5615.0383
30
0.0
0
VERTEX
8
COTA
10
692.5809
20
-5606.0833
30
0.0
0
VERTEX
8
COTA
10
782.1359
20
-5597.1283
30
0.0
0
VERTEX
8
COTA
10
871.6909
20
-5588.1733
30
0.0
0
VERTEX
8
COTA
10
961.2459
20
-5579.2183
30
0.0
0
VERTEX
8
COTA
10
1050.8009
20
-5570.2633
30
0.0
0
VERTEX
8
COTA
10
1140.3559
20
-5561.3083
30
0.0
0
VERTEX
8
COTA
10
1229.9109
20
-5552.3533
30
0.0
0
VERTEX
8
COTA
10
1319.4659
20
-5543.3983
30
0.0
0
VERTEX
8
COTA
10
1409.0209
20
-5534.4433
30
0.0
0
VERTEX
8
COTA
10
1498.5759
20
-5525.4883
30
0.0
0
VERTEX
8
COTA
10
1791.1000
20
-8450.9000
30
0.0
0
SEQEND
8
COTA
0
POLYLINE
8
COTA
66
1
10
0.0
20
0.0
30
0.0
70
1
0
VERTEX
8
COTA
10
1791.1000
20
-8450.9000
30
0.0
0
VERTEX
8
COTA
10
1956.2014
20
-10101.8929
30
0.0
0
VERTEX
8
COTA
10
2357.8595
20
-9972.9799
30
0.0
0
VERTEX
8
COTA
10
2759.5176
20
-9844.0670
30
0.0
0
VERTEX
8
COTA
10
3161.1757
20
-9715.1540
30
0.0
0
VERTEX
8
COTA
10
3562.8999
20
-9586.9017
30
0.0
0
VERTEX
8
COTA
10
3964.5580
20
-9457.9887
30
0.0
0
VERTEX
8
COTA
10
4366.2160
20
-9329.0757
30
0.0
0
VERTEX
8
COTA
10
4767.8741
20
-9200.1628
30
0.0
0
VERTEX
8
COTA
10
5169.5322
20
-9071.2498
30
0.0
0
VERTEX
8
COTA
10
5571.2564
20
-8942.9975
30
0.0
0
VERTEX
8
COTA
10
5972.9145
20
-8814.0845
30
0.0
0
VERTEX
8
COTA
10
6374.5726
20
-8685.1716
30
0.0
0
VERTEX
8
COTA
10
6776.2306
20
-8556.2586
30
0.0
0
VERTEX
8
COTA
10
7177.8887
20
-8427.3456
30
0.0
0
VERTEX
8
COTA
10
7579.6129
20
-8299.0933
30
0.0
0
VERTEX
8
COTA
10
7981.2710
20
-8170.1803
30
0.0
0
VERTEX
8
COTA
10
8382.9291
20
-8041.2674
30
0.0
0
VERTEX
8
COTA
10
8784.5871
20
-7912.3544
30
0.0
0
VERTEX
8
COTA
10
9186.2452
20
-7783.4414
30
0.0
0
VERTEX
8
COTA
10
9606.4021
20
-7839.5137
30
0.0
0
VERTEX
8
COTA
10
10033.0996
20
-7960.9914
30
0.0
0
VERTEX
8
COTA
10
10000.0000
20
-7630.0000
30
0.0
0
SEQEND
8
COTA
0
POLYLINE
8
COTA
66
1
10
0.0
20
0.0
30
0.0
70
1
0
VERTEX
8
COTA
10
1791.1000
20
-8450.9000
30
0.0
0
VERTEX
8
COTA
10
1498.5553
20
-5525.4912
30
0.0
0
VERTEX
8
COTA
10
1925.2528
20
-5646.9689
30
0.0
0
VERTEX
8
COTA
10
2352.0163
20
-5769.1073
30
0.0
0
VERTEX
8
COTA
10
2778.7138
20
-5890.5850
30
0.0
0
VERTEX
8
COTA
10
3205.4774
20
-6012.7234
30
0.0
0
VERTEX
8
COTA
10
3632.1749
20
-6134.2011
30
0.0
0
VERTEX
8
COTA
10
4058.9384
20
-6256.3395
30
0.0
0
VERTEX
8
COTA
10
4485.6359
20
-6377.8172
30
0.0
0
VERTEX
8
COTA
10
4912.3994
20
-6499.9555
30
0.0
0
VERTEX
8
COTA
10
5339.0969
20
-6621.4333
30
0.0
0
VERTEX
8
COTA
10
5765.8605
20
-6743.5716
30
0.0
0
VERTEX
8
COTA
10
6192.5580
20
-6865.0493
30
0.0
0
VERTEX
8
COTA
10
6619.3215
20
-6987.1877
30
0.0
0
VERTEX
8
COTA
10
7046.0190
20
-7108.6654
30
0.0
0
VERTEX
8
COTA
10
7472.7165
20
-7230.1431
30
0.0
0
VERTEX
8
COTA
10
7899.4800
20
-7352.2815
30
0.0
0
VERTEX
8
COTA
10
8326.1775
20
-7473.7592
30
0.0
0
VERTEX
8
COTA
10
8752.9411
20
-7595.8976
30
0.0
0
VERTEX
8
COTA
10
9179.3082
20
-7714.0720
30
0.0
0
VERTEX
8
COTA
10
9587.9694
20
-7655.1891
30
0.0
0
VERTEX
8
COTA
10
9989.6275
20
-7526.2762
30
0.0
0
VERTEX
8
COTA
10
10000.0000
20
-7630.0000
30
0.0
0
SEQEND
8
COTA
0
POLYLINE
8
COTA
66
1
10
0.0
20
0.0
30
0.0
70
1
0
VERTEX
8
COTA
10
10000.0000
20
-7630.0000
30
0.0
0
VERTEX
8
COTA
10
9985.0028
20
-7779.9701
30
0.0
0
VERTEX
8
COTA
10
10396.7691
20
-7807.8019
30
0.0
0
VERTEX
8
COTA
10
10808.4694
20
-7836.2943
30
0.0
0
VERTEX
8
COTA
10
11212.1756
20
-7944.7268
30
0.0
0
VERTEX
8
COTA
10
11615.4853
20
-8057.1232
30
0.0
0
VERTEX
8
COTA
10
12018.7951
20
-8169.5197
30
0.0
0
VERTEX
8
COTA
10
12422.1049
20
-8281.9161
30
0.0
0
VERTEX
8
COTA
10
12825.3486
20
-8394.9732
30
0.0
0
VERTEX
8
COTA
10
13228.6583
20
-8507.3696
30
0.0
0
VERTEX
8
COTA
10
13631.9681
20
-8619.7661
30
0.0
0
VERTEX
8
COTA
10
14035.2778
20
-8732.1625
30
0.0
0
VERTEX
8
COTA
10
14438.5876
20
-8844.5589
30
0.0
0
VERTEX
8
COTA
10
14841.8974
20
-8956.9554
30
0.0
0
VERTEX
8
COTA
10
15245.2071
20
-9069.3518
30
0.0
0
VERTEX
8
COTA
10
15648.5169
20
-9181.7482
30
0.0
0
VERTEX
8
COTA
10
16051.8267
20
-9294.1447
30
0.0
0
VERTEX
8
COTA
10
16455.1364
20
-9406.5411
30
0.0
0
VERTEX
8
COTA
10
16858.4462
20
-9518.9375
30
0.0
0
VERTEX
8
COTA
10
17261.7560
20
-9631.3340
30
0.0
0
VERTEX
8
COTA
10
17665.0657
20
-9743.7304
30
0.0
0
VERTEX
8
COTA
10
18068.3755
20
-9856.1268
30
0.0
0
VERTEX
8
COTA
10
18208.9000
20
-8450.9000
30
0.0
0
SEQEND
8
COTA
0
POLYLINE
8
COTA
66
1
10
0.0
20
0.0
30
0.0
70
1
0
VERTEX
8
COTA
10
10000.0000
20
-7630.0000
30
0.0
0
VERTEX
8
COTA
10
10002.2463
20
-7607.5375
30
0.0
0
VERTEX
8
COTA
10
10408.8594
20
-7686.9009
30
0.0
0
VERTEX
8
COTA
10
10828.0252
20
-7640.7386
30
0.0
0
VERTEX
8
COTA
10
11247.2571
20
-7593.9156
30
0.0
0
VERTEX
8
COTA
10
11666.4891
20
-7547.0926
30
0.0
0
VERTEX
8
COTA
10
12085.7210
20
-7500.2697
30
0.0
0
VERTEX
8
COTA
10
12504.9529
20
-7453.4467
30
0.0
0
VERTEX
8
COTA
10
12924.1187
20
-7407.2844
30
0.0
0
VERTEX
8
COTA
10
13343.3506
20
-7360.4614
30
0.0
0
VERTEX
8
COTA
10
13762.5826
20
-7313.6384
30
0.0
0
VERTEX
8
COTA
10
14181.8145
20
-7266.8155
30
0.0
0
VERTEX
8
COTA
10
14601.0464
20
-7219.9925
30
0.0
0
VERTEX
8
COTA
10
15020.2122
20
-7173.8302
30
0.0
0
VERTEX
8
COTA
10
15439.4441
20
-7127.0072
30
0.0
0
VERTEX
8
COTA
10
15858.6760
20
-7080.1843
30
0.0
0
VERTEX
8
COTA
10
16277.9080
20
-7033.3613
30
0.0
0
VERTEX
8
COTA
10
16697.1399
20
-6986.5383
30
0.0
0
VERTEX
8
COTA
10
17116.3057
20
-6940.3760
30
0.0
0
VERTEX
8
COTA
10
17535.5376
20
-6893.5530
30
0.0
0
VERTEX
8
COTA
10
17954.7695
20
-6846.7301
30
0.0
0
VERTEX
8
COTA
10
18374.0014
20
-6799.9071
30
0.0
0
VERTEX
8
COTA
10
18208.9000
20
-8450.9000
30
0.0
0
SEQEND
8
COTA
0
POLYLINE
8
COTA
66
1
10
0.0
20
0.0
30
0.0
70
1
0
VERTEX
8
COTA
10
18208.9000
20
-8450.9000
30
0.0
0
VERTEX
8
COTA
10
18068.3854
20
-9856.1283
30
0.0
0
VERTEX
8
COTA
10
18157.9404
20
-9865.0833
30
0.0
0
VERTEX
8
COTA
10
18247.4954
20
-9874.0383
30
0.0
0
VERTEX
8
COTA
10
18337.0504
20
-9882.9933
30
0.0
0
VERTEX
8
COTA
10
18426.6054
20
-9891.9483
30
0.0
0
VERTEX
8
COTA
10
18516.1604
20
-9900.9033
30
0.0
0
VERTEX
8
COTA
10
18605.7154
20
-9909.8583
30
0.0
0
VERTEX
8
COTA
10
18695.2704
20
-9918.8133
30
0.0
0
VERTEX
8
COTA
10
18784.8254
20
-9927.7683
30
0.0
0
VERTEX
8
COTA
10
18874.3804
20
-9936.7233
30
0.0
0
VERTEX
8
COTA
10
18963.9354
20
-9945.6783
30
0.0
0
VERTEX
8
COTA
10
19053.4904
20
-9954.6333
30
0.0
0
VERTEX
8
COTA
10
19143.0454
20
-9963.5883
30
0.0
0
VERTEX
8
COTA
10
19232.6004
20
-9972.5433
30
0.0
0
VERTEX
8
COTA
10
19322.1554
20
-9981.4983
30
0.0
0
VERTEX
8
COTA
10
19411.7104
20
-9990.4533
30
0.0
0
VERTEX
8
COTA
10
19501.2654
20
-9999.4083
30
0.0
0
VERTEX
8
COTA
10
19590.8204
20
-10008.3633
30
0.0
0
VERTEX
8
COTA
10
19680.3754
20
-10017.3183
30
0.0
0
VERTEX
8
COTA
10
19769.9304
20
-10026.2733
30
0.0
0
VERTEX
8
COTA
10
19859.4854
20
-10035.2283
30
0.0
0
VERTEX
8
COTA
10
20000.0000
20
-8630.0000
30
0.0
0
SEQEND
8
COTA
0
POLYLINE
8
COTA
66
1
10
0.0
20
0.0
30
0.0
70
1
0
VERTEX
8
COTA
10
18208.9000
20
-8450.9000
30
0.0
0
VERTEX
8
COTA
10
18373.9898
20
-6799.9054
30
0.0
0
VERTEX
8
COTA
10
18463.5448
20
-6808.8604
30
0.0
0
VERTEX
8
COTA
10
18553.0998
20
-6817.8154
30
0.0
0
VERTEX
8
COTA
10
18642.6548
20
-6826.7704
30
0.0
0
VERTEX
8
COTA
10
18732.2098
20
-6835.7254
30
0.0
0
VERTEX
8
COTA
10
18821.7648
20
-6844.6804
30
0.0
0
VERTEX
8
COTA
10
18911.3198
20
-6853.6354
30
0.0
0
VERTEX
8
COTA
10
19000.8748
20
-6862.5904
30
0.0
0
VERTEX
8
COTA
10
19090.4298
20
-6871.5454
30
0.0
0
VERTEX
8
COTA
10
19179.9848
20
-6880.5004
30
0.0
0
VERTEX
8
COTA
10
19269.5398
20
-6889.4554
30
0.0
0
VERTEX
8
COTA
10
19359.0948
20
-6898.4104
30
0.0
0
VERTEX
8
COTA
10
19448.6498
20
-6907.3654
30
0.0
0
VERTEX
8
COTA
10
19538.2048
20
-6916.3204
30
0.0
0
VERTEX
8
COTA
10
19627.7598
20
-6925.2754
30
0.0
0
VERTEX
8
COTA
10
19717.3148
20
-6934.2304
30
0.0
0
VERTEX
8
COTA
10
19806.8698
20
-6943.1854
30
0.0
0
VERTEX
8
COTA
10
19896.4248
20
-6952.1404
30
0.0
0
VERTEX
8
COTA
10
19985.9798
20
-6961.0954
30
0.0
0
VERTEX
8
COTA
10
20075.5348
20
-6970.0504
30
0.0
0
VERTEX
8
COTA
10
20165.0898
20
-6979.0054
30
0.0
0
VERTEX
8
COTA
10
20000.0000
20
-8630.0000
30
0.0
0
SEQEND
8
COTA
0
POLYLINE
8
COTA
66
1
10
0.0
20
0.0
30
0.0
70
1
0
VERTEX
8
COTA
10
20000.0000
20
-8630.0000
30
0.0
0
VERTEX
8
COTA
10
18951.6125
20
-8630.0000
30
0.0
0
VERTEX
8
COTA
10
18951.6125
20
-8930.0000
30
0.0
0
VERTEX
8
COTA
10
18951.6125
20
-9230.0000
30
0.0
0
VERTEX
8
COTA
10
18951.6125
20
-9530.0000
30
0.0
0
VERTEX
8
COTA
10
18951.6125
20
-9830.0000
30
0.0
0
VERTEX
8
COTA
10
18951.6125
20
-10130.0000
30
0.0
0
VERTEX
8
COTA
10
18951.6125
20
-10430.0000
30
0.0
0
VERTEX
8
COTA
10
18951.6125
20
-10730.0000
30
0.0
0
VERTEX
8
COTA
10
18951.6125
20
-11030.0000
30
0.0
0
VERTEX
8
COTA
10
18951.6125
20
-11330.0000
30
0.0
0
VERTEX
8
COTA
10
18951.6125
20
-11630.0000
30
0.0
0
VERTEX
8
COTA
10
18951.6125
20
-11930.0000
30
0.0
0
VERTEX
8
COTA
10
18951.6125
20
-12230.0000
30
0.0
0
VERTEX
8
COTA
10
18951.6125
20
-12530.0000
30
0.0
0
VERTEX
8
COTA
10
18951.6125
20
-12830.0000
30
0.0
0
VERTEX
8
COTA
10
18951.6125
20
-13130.0000
30
0.0
0
VERTEX
8
COTA
10
18951.6125
20
-13430.0000
30
0.0
0
VERTEX
8
COTA
10
18951.6125
20
-13730.0000
30
0.0
0
VERTEX
8
COTA
10
18951.6125
20
-14030.0000
30
0.0
0
VERTEX
8
COTA
10
18951.6125
20
-14330.0000
30
0.0
0
VERTEX
8
COTA
10
18951.6125
20
-14630.0000
30
0.0
0
VERTEX
8
COTA
10
20000.0000
20
-14630.0000
30
0.0
0
SEQEND
8
COTA
0
POLYLINE
8
COTA
66
1
10
0.0
20
0.0
30
0.0
70
1
0
VERTEX
8
COTA
10
20000.0000
20
-8630.0000
30
0.0
0
VERTEX
8
COTA
10
21583.5366
20
-8630.0000
30
0.0
0
VERTEX
8
COTA
10
21497.8862
20
-8930.0000
30
0.0
0
VERTEX
8
COTA
10
21411.5718
20
-9230.0000
30
0.0
0
VERTEX
8
COTA
10
21325.2575
20
-9530.0000
30
0.0
0
VERTEX
8
COTA
10
21238.9431
20
-9830.0000
30
0.0
0
VERTEX
8
COTA
10
21152.6287
20
-10130.0000
30
0.0
0
VERTEX
8
COTA
10
21066.3144
20
-10430.0000
30
0.0
0
VERTEX
8
COTA
10
20980.0000
20
-10730.0000
30
0.0
0
VERTEX
8
COTA
10
20894.3496
20
-11030.0000
30
0.0
0
VERTEX
8
COTA
10
20808.0352
20
-11330.0000
30
0.0
0
VERTEX
8
COTA
10
20721.7209
20
-11630.0000
30
0.0
0
VERTEX
8
COTA
10
20635.4065
20
-11930.0000
30
0.0
0
VERTEX
8
COTA
10
20549.0921
20
-12230.0000
30
0.0
0
VERTEX
8
COTA
10
20462.7778
20
-12530.0000
30
0.0
0
VERTEX
8
COTA
10
20376.4634
20
-12830.0000
30
0.0
0
VERTEX
8
COTA
10
20290.8130
20
-13130.0000
30
0.0
0
VERTEX
8
COTA
10
20204.4986
20
-13430.0000
30
0.0
0
VERTEX
8
COTA
10
20118.1843
20
-13730.0000
30
0.0
0
VERTEX
8
COTA
10
20031.8699
20
-14030.0000
30
0.0
0
VERTEX
8
COTA
10
19945.5556
20
-14330.0000
30
0.0
0
VERTEX
8
COTA
10
19859.2412
20
-14630.0000
30
0.0
0
VERTEX
8
COTA
10
20000.0000
20
-14630.0000
30
0.0
0
SEQEND
8
COTA
0
TEXT
8
TEXTO
10
-292.5241
20
-5984.5883
30
0.0
40
200.0000
1
44,3
50
0.0000
72
1
73
0
11
-292.5241
21
-5984.5883
31
0.0
0
TEXT
8
TEXTO
10
1498.5553
20
-5805.4912
30
0.0
40
200.0000
1
44,3
50
0.0000
72
1
73
0
11
1498.5553
21
-5805.4912
31
0.0
0
TEXT
8
TEXTO
10
2632.5881
20
-14550.0000
30
0.0
40
200.0000
1
39,6
50
0.0000
72
1
73
0
11
2632.5881
21
-14550.0000
31
0.0
0
TEXT
8
TEXTO
10
165.0898
20
-10200.9946
30
0.0
40
200.0000
1
25
50
0.0000
72
1
73
0
11
165.0898
21
-10200.9946
31
0.0
0
TEXT
8
TEXTO
10
1956.2014
20
-10021.8929
30
0.0
40
200.0000
1
25
50
0.0000
72
1
73
0
11
1956.2014
21
-10021.8929
31
0.0
0
TEXT
8
TEXTO
10
18374.0014
20
-7079.9071
30
0.0
40
200.0000
1
25
50
0.0000
72
1
73
0
11
18374.0014
21
-7079.9071
31
0.0
0
TEXT
8
TEXTO
10
10000.0000
20
-18570.0000
30
0.0
40
400.0000
1
ESFORCO CORTANTE (kN)
50
0.0000
72
1
73
0
11
10000.0000
21
-18570.0000
31
0.0
0
LINE
8
TEXTO
10
7396.0000
20
-18750.0000
30
0.0
11
12604.0000
21
-18750.0000
31
0.0
0
TEXT
8
TEXTO
10
10000.0000
20
-19170.0000
30
0.0
40
200.0000
1
ESCALA 1 cm = 4,4 kN
50
0.0000
72
1
73
0
11
10000.0000
21
-19170.0000
31
0.0
0
POLYLINE
8
ACO
66
1
10
0.0
20
0.0
30
0.0
70
0
0
VERTEX
8
ACO
10
0.0000
20
-29260.0000
30
0.0
0
VERTEX
8
ACO
10
0.0000
20
-23260.0000
30
0.0
0
VERTEX
8
ACO
10
10000.0000
20
-22260.0000
30
0.0
0
VERTEX
8
ACO
10
20000.0000
20
-23260.0000
30
0.0
0
VERTEX
8
ACO
10
20000.0000
20
-29260.0000
30
0.0
0
SEQEND
8
ACO
0
LINE
8
EIXO
10
-400.0000
20
-29260.0000
30
0.0
11
400.0000
21
-29260.0000
31
0.0
0
LINE
8
EIXO
10
19600.0000
20
-29260.0000
30
0.0
11
20400.0000
21
-29260.0000
31
0.0
0
POLYLINE
8
COTA
66
1
10
0.0
20
0.0
30
0.0
70
1
0
VERTEX
8
COTA
10
0.0000
20
-29260.0000
30
0.0
0
VERTEX
8
COTA
10
2796.1854
20
-29260.0000
30
0.0
0
VERTEX
8
COTA
10
2803.1238
20
-28960.0000
30
0.0
0
VERTEX
8
COTA
10
2810.6930
20
-28660.0000
30
0.0
0
VERTEX
8
COTA
10
2817.6314
20
-28360.0000
30
0.0
0
VERTEX
8
COTA
10
2825.2006
20
-28060.0000
30
0.0
0
VERTEX
8
COTA
10
2832.1390
20
-27760.0000
30
0.0
0
VERTEX
8
COTA
10
2839.0775
20
-27460.0000
30
0.0
0
VERTEX
8
COTA
10
2846.6466
20
-27160.0000
30
0.0
0
VERTEX
8
COTA
10
2853.5851
20
-26860.0000
30
0.0
0
VERTEX
8
COTA
10
2861.1543
20
-26560.0000
30
0.0
0
VERTEX
8
COTA
10
2868.0927
20
-26260.0000
30
0.0
0
VERTEX
8
COTA
10
2875.6619
20
-25960.0000
30
0.0
0
VERTEX
8
COTA
10
2882.6003
20
-25660.0000
30
0.0
0
VERTEX
8
COTA
10
2889.5387
20
-25360.0000
30
0.0
0
VERTEX
8
COTA
10
2897.1079
20
-25060.0000
30
0.0
0
VERTEX
8
COTA
10
2904.0463
20
-24760.0000
30
0.0
0
VERTEX
8
COTA
10
2911.6155
20
-24460.0000
30
0.0
0
VERTEX
8
COTA
10
2918.5540
20
-24160.0000
30
0.0
0
VERTEX
8
COTA
10
2925.4924
20
-23860.0000
30
0.0
0
VERTEX
8
COTA
10
2933.0616
20
-23560.0000
30
0.0
0
VERTEX
8
COTA
10
2940.0000
20
-23260.0000
30
0.0
0
VERTEX
8
COTA
10
0.0000
20
-23260.0000
30
0.0
0
SEQEND
8
COTA
0
POLYLINE
8
COTA
66
1
10
0.0
20
0.0
30
0.0
70
1
0
VERTEX
8
COTA
10
0.0000
20
-29260.0000
30
0.0
0
VERTEX
8
COTA
10
-1863.9133
20
-29260.0000
30
0.0
0
VERTEX
8
COTA
10
-1854.4518
20
-28960.0000
30
0.0
0
VERTEX
8
COTA
10
-1845.6211
20
-28660.0000
30
0.0
0
VERTEX
8
COTA
10
-1836.7904
20
-28360.0000
30
0.0
0
VERTEX
8
COTA
10
-1827.9597
20
-28060.0000
30
0.0
0
VERTEX
8
COTA
10
-1818.4982
20
-27760.0000
30
0.0
0
VERTEX
8
COTA
10
-1809.6675
20
-27460.0000
30
0.0
0
VERTEX
8
COTA
10
-1800.8367
20
-27160.0000
30
0.0
0
VERTEX
8
COTA
10
-1791.3752
20
-26860.0000
30
0.0
0
VERTEX
8
COTA
10
-1782.5445
20
-26560.0000
30
0.0
0
VERTEX
8
COTA
10
-1773.7138
20
-26260.0000
30
0.0
0
VERTEX
8
COTA
10
-1764.8831
20
-25960.0000
30
0.0
0
VERTEX
8
COTA
10
-1755.4216
20
-25660.0000
30
0.0
0
VERTEX
8
COTA
10
-1746.5909
20
-25360.0000
30
0.0
0
VERTEX
8
COTA
10
-1737.7601
20
-25060.0000
30
0.0
0
VERTEX
8
COTA
10
-1728.9294
20
-24760.0000
30
0.0
0
VERTEX
8
COTA
10
-1719.4679
20
-24460.0000
30
0.0
0
VERTEX
8
COTA
10
-1710.6372
20
-24160.0000
30
0.0
0
VERTEX
8
COTA
10
-1701.8065
20
-23860.0000
30
0.0
0
VERTEX
8
COTA
10
-1692.3450
20
-23560.0000
30
0.0
0
VERTEX
8
COTA
10
-1683.5143
20
-23260.0000
30
0.0
0
VERTEX
8
COTA
10
0.0000
20
-23260.0000
30
0.0
0
SEQEND
8
COTA
0
POLYLINE
8
COTA
66
1
10
0.0
20
0.0
30
0.0
70
1
0
VERTEX
8
COTA
10
0.0000
20
-23260.0000
30
0.0
0
VERTEX
8
COTA
10
160.8537
20
-24868.6312
30
0.0
0
VERTEX
8
COTA
10
250.4087
20
-24859.6762
30
0.0
0
VERTEX
8
COTA
10
339.9637
20
-24850.7212
30
0.0
0
VERTEX
8
COTA
10
429.5187
20
-24841.7662
30
0.0
0
VERTEX
8
COTA
10
519.0737
20
-24832.8112
30
0.0
0
VERTEX
8
COTA
10
608.6287
20
-24823.8562
30
0.0
0
VERTEX
8
COTA
10
698.1837
20
-24814.9012
30
0.0
0
VERTEX
8
COTA
10
787.7387
20
-24805.9462
30
0.0
0
VERTEX
8
COTA
10
877.2937
20
-24796.9912
30
0.0
0
VERTEX
8
COTA
10
966.8487
20
-24788.0362
30
0.0
0
VERTEX
8
COTA
10
1056.4037
20
-24779.0812
30
0.0
0
VERTEX
8
COTA
10
1145.9587
20
-24770.1262
30
0.0
0
VERTEX
8
COTA
10
1235.5137
20
-24761.1712
30
0.0
0
VERTEX
8
COTA
10
1325.0687
20
-24752.2162
30
0.0
0
VERTEX
8
COTA
10
1414.6237
20
-24743.2612
30
0.0
0
VERTEX
8
COTA
10
1504.1787
20
-24734.3062
30
0.0
0
VERTEX
8
COTA
10
1593.7337
20
-24725.3512
30
0.0
0
VERTEX
8
COTA
10
1683.2887
20
-24716.3962
30
0.0
0
VERTEX
8
COTA
10
1772.8437
20
-24707.4412
30
0.0
0
VERTEX
8
COTA
10
1862.3987
20
-24698.4862
30
0.0
0
VERTEX
8
COTA
10
1951.9537
20
-24689.5312
30
0.0
0
VERTEX
8
COTA
10
1791.1000
20
-23080.9000
30
0.0
0
SEQEND
8
COTA
0
POLYLINE
8
COTA
66
1
10
0.0
20
0.0
30
0.0
70
1
0
VERTEX
8
COTA
10
0.0000
20
-23260.0000
30
0.0
0
VERTEX
8
COTA
10
-115.2900
20
-22107.0325
30
0.0
0
VERTEX
8
COTA
10
-25.7350
20
-22098.0775
30
0.0
0
VERTEX
8
COTA
10
63.8200
20
-22089.1225
30
0.0
0
VERTEX
8
COTA
10
153.3750
20
-22080.1675
30
0.0
0
VERTEX
8
COTA
10
242.9300
20
-22071.2125
30
0.0
0
VERTEX
8
COTA
10
332.4850
20
-22062.2575
30
0.0
0
VERTEX
8
COTA
10
422.0400
20
-22053.3025
30
0.0
0
VERTEX
8
COTA
10
511.5950
20
-22044.3475
30
0.0
0
VERTEX
8
COTA
10
601.1500
20
-22035.3925
30
0.0
0
VERTEX
8
COTA
10
690.7050
20
-22026.4375
30
0.0
0
VERTEX
8
COTA
10
780.2600
20
-22017.4825
30
0.0
0
VERTEX
8
COTA
10
869.8150
20
-22008.5275
30
0.0
0
VERTEX
8
COTA
10
959.3700
20
-21999.5725
30
0.0
0
VERTEX
8
COTA
10
1048.9250
20
-21990.6175
30
0.0
0
VERTEX
8
COTA
10
1138.4800
20
-21981.6625
30
0.0
0
VERTEX
8
COTA
10
1228.0350
20
-21972.7075
30
0.0
0
VERTEX
8
COTA
10
1317.5900
20
-21963.7525
30
0.0
0
VERTEX
8
COTA
10
1407.1450
20
-21954.7975
30
0.0
0
VERTEX
8
COTA
10
1496.7000
20
-21945.8425
30
0.0
0
VERTEX
8
COTA
10
1586.2550
20
-21936.8875
30
0.0
0
VERTEX
8
COTA
10
1675.8100
20
-21927.9325
30
0.0
0
VERTEX
8
COTA
10
1791.1000
20
-23080.9000
30
0.0
0
SEQEND
8
COTA
0
POLYLINE
8
COTA
66
1
10
0.0
20
0.0
30
0.0
70
1
0
VERTEX
8
COTA
10
1791.1000
20
-23080.9000
30
0.0
0
VERTEX
8
COTA
10
1951.9651
20
-24689.5296
30
0.0
0
VERTEX
8
COTA
10
2362.7239
20
-24651.6228
30
0.0
0
VERTEX
8
COTA
10
2773.4199
20
-24613.0883
30
0.0
0
VERTEX
8
COTA
10
3184.1788
20
-24575.1815
30
0.0
0
VERTEX
8
COTA
10
3594.8748
20
-24536.6471
30
0.0
0
VERTEX
8
COTA
10
4005.6336
20
-24498.7402
30
0.0
0
VERTEX
8
COTA
10
4416.3297
20
-24460.2058
30
0.0
0
VERTEX
8
COTA
10
4827.0885
20
-24422.2990
30
0.0
0
VERTEX
8
COTA
10
5237.7846
20
-24383.7645
30
0.0
0
VERTEX
8
COTA
10
5648.5434
20
-24345.8577
30
0.0
0
VERTEX
8
COTA
10
6059.2395
20
-24307.3232
30
0.0
0
VERTEX
8
COTA
10
6469.9983
20
-24269.4164
30
0.0
0
VERTEX
8
COTA
10
6880.6943
20
-24230.8819
30
0.0
0
VERTEX
8
COTA
10
7291.4532
20
-24192.9751
30
0.0
0
VERTEX
8
COTA
10
7702.1492
20
-24154.4407
30
0.0
0
VERTEX
8
COTA
10
8112.9080
20
-24116.5338
30
0.0
0
VERTEX
8
COTA
10
8523.6041
20
-24077.9994
30
0.0
0
VERTEX
8
COTA
10
8934.3629
20
-24040.0926
30
0.0
0
VERTEX
8
COTA
10
9345.0590
20
-24001.5581
30
0.0
0
VERTEX
8
COTA
10
9755.8178
20
-23963.6513
30
0.0
0
VERTEX
8
COTA
10
10166.5139
20
-23925.1168
30
0.0
0
VERTEX
8
COTA
10
10000.0000
20
-22260.0000
30
0.0
0
SEQEND
8
COTA
0
POLYLINE
8
COTA
66
1
10
0.0
20
0.0
30
0.0
70
1
0
VERTEX
8
COTA
10
1791.1000
20
-23080.9000
30
0.0
0
VERTEX
8
COTA
10
1675.8019
20
-21927.9337
30
0.0
0
VERTEX
8
COTA
10
2087.1256
20
-21895.6756
30
0.0
0
VERTEX
8
COTA
10
2498.3865
20
-21862.7899
30
0.0
0
VERTEX
8
COTA
10
2909.6474
20
-21829.9041
30
0.0
0
VERTEX
8
COTA
10
3320.9711
20
-21797.6460
30
0.0
0
VERTEX
8
COTA
10
3732.2321
20
-21764.7603
30
0.0
0
VERTEX
8
COTA
10
4143.4930
20
-21731.8745
30
0.0
0
VERTEX
8
COTA
10
4554.7539
20
-21698.9888
30
0.0
0
VERTEX
8
COTA
10
4966.0777
20
-21666.7307
30
0.0
0
VERTEX
8
COTA
10
5377.3386
20
-21633.8450
30
0.0
0
VERTEX
8
COTA
10
5788.5995
20
-21600.9592
30
0.0
0
VERTEX
8
COTA
10
6199.9232
20
-21568.7011
30
0.0
0
VERTEX
8
COTA
10
6611.1842
20
-21535.8154
30
0.0
0
VERTEX
8
COTA
10
7022.4451
20
-21502.9296
30
0.0
0
VERTEX
8
COTA
10
7433.7060
20
-21470.0439
30
0.0
0
VERTEX
8
COTA
10
7845.0297
20
-21437.7858
30
0.0
0
VERTEX
8
COTA
10
8256.2907
20
-21404.9000
30
0.0
0
VERTEX
8
COTA
10
8667.5516
20
-21372.0143
30
0.0
0
VERTEX
8
COTA
10
9078.8125
20
-21339.1286
30
0.0
0
VERTEX
8
COTA
10
9490.1362
20
-21306.8705
30
0.0
0
VERTEX
8
COTA
10
9901.3972
20
-21273.9847
30
0.0
0
VERTEX
8
COTA
10
10000.0000
20
-22260.0000
30
0.0
0
SEQEND
8
COTA
0
POLYLINE
8
COTA
66
1
10
0.0
20
0.0
30
0.0
70
1
0
VERTEX
8
COTA
10
10000.0000
20
-22260.0000
30
0.0
0
VERTEX
8
COTA
10
9830.5362
20
-23954.6157
30
0.0
0
VERTEX
8
COTA
10
10241.2950
20
-23992.5225
30
0.0
0
VERTEX
8
COTA
10
10651.9911
20
-24031.0570
30
0.0
0
VERTEX
8
COTA
10
11062.7499
20
-24068.9638
30
0.0
0
VERTEX
8
COTA
10
11473.4460
20
-24107.4982
30
0.0
0
VERTEX
8
COTA
10
11884.2048
20
-24145.4051
30
0.0
0
VERTEX
8
COTA
10
12294.9009
20
-24183.9395
30
0.0
0
VERTEX
8
COTA
10
12705.6597
20
-24221.8464
30
0.0
0
VERTEX
8
COTA
10
13116.3557
20
-24260.3808
30
0.0
0
VERTEX
8
COTA
10
13527.1146
20
-24298.2876
30
0.0
0
VERTEX
8
COTA
10
13937.8106
20
-24336.8221
30
0.0
0
VERTEX
8
COTA
10
14348.5067
20
-24375.3565
30
0.0
0
VERTEX
8
COTA
10
14759.2655
20
-24413.2634
30
0.0
0
VERTEX
8
COTA
10
15169.9616
20
-24451.7978
30
0.0
0
VERTEX
8
COTA
10
15580.7204
20
-24489.7047
30
0.0
0
VERTEX
8
COTA
10
15991.4164
20
-24528.2391
30
0.0
0
VERTEX
8
COTA
10
16402.1753
20
-24566.1459
30
0.0
0
VERTEX
8
COTA
10
16812.8713
20
-24604.6804
30
0.0
0
VERTEX
8
COTA
10
17223.6301
20
-24642.5872
30
0.0
0
VERTEX
8
COTA
10
17634.3262
20
-24681.1217
30
0.0
0
VERTEX
8
COTA
10
18045.0850
20
-24719.0285
30
0.0
0
VERTEX
8
COTA
10
18208.9000
20
-23080.9000
30
0.0
0
SEQEND
8
COTA
0
POLYLINE
8
COTA
66
1
10
0.0
20
0.0
30
0.0
70
1
0
VERTEX
8
COTA
10
10000.0000
20
-22260.0000
30
0.0
0
VERTEX
8
COTA
10
10098.6028
20
-21273.9847
30
0.0
0
VERTEX
8
COTA
10
10509.8638
20
-21306.8705
30
0.0
0
VERTEX
8
COTA
10
10921.1875
20
-21339.1286
30
0.0
0
VERTEX
8
COTA
10
11332.4484
20
-21372.0143
30
0.0
0
VERTEX
8
COTA
10
11743.7093
20
-21404.9000
30
0.0
0
VERTEX
8
COTA
10
12154.9703
20
-21437.7858
30
0.0
0
VERTEX
8
COTA
10
12566.2940
20
-21470.0439
30
0.0
0
VERTEX
8
COTA
10
12977.5549
20
-21502.9296
30
0.0
0
VERTEX
8
COTA
10
13388.8158
20
-21535.8154
30
0.0
0
VERTEX
8
COTA
10
13800.0768
20
-21568.7011
30
0.0
0
VERTEX
8
COTA
10
14211.4005
20
-21600.9592
30
0.0
0
VERTEX
8
COTA
10
14622.6614
20
-21633.8450
30
0.0
0
VERTEX
8
COTA
10
15033.9223
20
-21666.7307
30
0.0
0
VERTEX
8
COTA
10
15445.2461
20
-21698.9888
30
0.0
0
VERTEX
8
COTA
10
15856.5070
20
-21731.8745
30
0.0
0
VERTEX
8
COTA
10
16267.7679
20
-21764.7603
30
0.0
0
VERTEX
8
COTA
10
16679.0289
20
-21797.6460
30
0.0
0
VERTEX
8
COTA
10
17090.3526
20
-21829.9041
30
0.0
0
VERTEX
8
COTA
10
17501.6135
20
-21862.7899
30
0.0
0
VERTEX
8
COTA
10
17912.8744
20
-21895.6756
30
0.0
0
VERTEX
8
COTA
10
18324.1981
20
-21927.9337
30
0.0
0
VERTEX
8
COTA
10
18208.9000
20
-23080.9000
30
0.0
0
SEQEND
8
COTA
0
POLYLINE
8
COTA
66
1
10
0.0
20
0.0
30
0.0
70
1
0
VERTEX
8
COTA
10
18208.9000
20
-23080.9000
30
0.0
0
VERTEX
8
COTA
10
18045.0965
20
-24719.0301
30
0.0
0
VERTEX
8
COTA
10
18134.6515
20
-24727.9851
30
0.0
0
VERTEX
8
COTA
10
18224.2065
20
-24736.9401
30
0.0
0
VERTEX
8
COTA
10
18313.7615
20
-24745.8951
30
0.0
0
VERTEX
8
COTA
10
18403.3165
20
-24754.8501
30
0.0
0
VERTEX
8
COTA
10
18492.8715
20
-24763.8051
30
0.0
0
VERTEX
8
COTA
10
18582.4265
20
-24772.7601
30
0.0
0
VERTEX
8
COTA
10
18671.9815
20
-24781.7151
30
0.0
0
VERTEX
8
COTA
10
18761.5365
20
-24790.6701
30
0.0
0
VERTEX
8
COTA
10
18851.0915
20
-24799.6251
30
0.0
0
VERTEX
8
COTA
10
18940.6465
20
-24808.5801
30
0.0
0
VERTEX
8
COTA
10
19030.2015
20
-24817.5351
30
0.0
0
VERTEX
8
COTA
10
19119.7565
20
-24826.4901
30
0.0
0
VERTEX
8
COTA
10
19209.3115
20
-24835.4451
30
0.0
0
VERTEX
8
COTA
10
19298.8665
20
-24844.4001
30
0.0
0
VERTEX
8
COTA
10
19388.4215
20
-24853.3551
30
0.0
0
VERTEX
8
COTA
10
19477.9765
20
-24862.3101
30
0.0
0
VERTEX
8
COTA
10
19567.5315
20
-24871.2651
30
0.0
0
VERTEX
8
COTA
10
19657.0865
20
-24880.2201
30
0.0
0
VERTEX
8
COTA
10
19746.6415
20
-24889.1751
30
0.0
0
VERTEX
8
COTA
10
19836.1965
20
-24898.1301
30
0.0
0
VERTEX
8
COTA
10
20000.0000
20
-23260.0000
30
0.0
0
SEQEND
8
COTA
0
POLYLINE
8
COTA
66
1
10
0.0
20
0.0
30
0.0
70
1
0
VERTEX
8
COTA
10
18208.9000
20
-23080.9000
30
0.0
0
VERTEX
8
COTA
10
18324.1900
20
-21927.9325
30
0.0
0
VERTEX
8
COTA
10
18413.7450
20
-21936.8875
30
0.0
0
VERTEX
8
COTA
10
18503.3000
20
-21945.8425
30
0.0
0
VERTEX
8
COTA
10
18592.8550
20
-21954.7975
30
0.0
0
VERTEX
8
COTA
10
18682.4100
20
-21963.7525
30
0.0
0
VERTEX
8
COTA
10
18771.9650
20
-21972.7075
30
0.0
0
VERTEX
8
COTA
10
18861.5200
20
-21981.6625
30
0.0
0
VERTEX
8
COTA
10
18951.0750
20
-21990.6175
30
0.0
0
VERTEX
8
COTA
10
19040.6300
20
-21999.5725
30
0.0
0
VERTEX
8
COTA
10
19130.1850
20
-22008.5275
30
0.0
0
VERTEX
8
COTA
10
19219.7400
20
-22017.4825
30
0.0
0
VERTEX
8
COTA
10
19309.2950
20
-22026.4375
30
0.0
0
VERTEX
8
COTA
10
19398.8500
20
-22035.3925
30
0.0
0
VERTEX
8
COTA
10
19488.4050
20
-22044.3475
30
0.0
0
VERTEX
8
COTA
10
19577.9600
20
-22053.3025
30
0.0
0
VERTEX
8
COTA
10
19667.5150
20
-22062.2575
30
0.0
0
VERTEX
8
COTA
10
19757.0700
20
-22071.2125
30
0.0
0
VERTEX
8
COTA
10
19846.6250
20
-22080.1675
30
0.0
0
VERTEX
8
COTA
10
19936.1800
20
-22089.1225
30
0.0
0
VERTEX
8
COTA
10
20025.7350
20
-22098.0775
30
0.0
0
VERTEX
8
COTA
10
20115.2900
20
-22107.0325
30
0.0
0
VERTEX
8
COTA
10
20000.0000
20
-23260.0000
30
0.0
0
SEQEND
8
COTA
0
POLYLINE
8
COTA
66
1
10
0.0
20
0.0
30
0.0
70
1
0
VERTEX
8
COTA
10
20000.0000
20
-23260.0000
30
0.0
0
VERTEX
8
COTA
10
18500.6694
20
-23260.0000
30
0.0
0
VERTEX
8
COTA
10
18508.2386
20
-23560.0000
30
0.0
0
VERTEX
8
COTA
10
18515.1770
20
-23860.0000
30
0.0
0
VERTEX
8
COTA
10
18522.7462
20
-24160.0000
30
0.0
0
VERTEX
8
COTA
10
18529.6846
20
-24460.0000
30
0.0
0
VERTEX
8
COTA
10
18537.2538
20
-24760.0000
30
0.0
0
VERTEX
8
COTA
10
18544.1922
20
-25060.0000
30
0.0
0
VERTEX
8
COTA
10
18551.1307
20
-25360.0000
30
0.0
0
VERTEX
8
COTA
10
18558.6998
20
-25660.0000
30
0.0
0
VERTEX
8
COTA
10
18565.6383
20
-25960.0000
30
0.0
0
VERTEX
8
COTA
10
18573.2075
20
-26260.0000
30
0.0
0
VERTEX
8
COTA
10
18580.1459
20
-26560.0000
30
0.0
0
VERTEX
8
COTA
10
18587.0843
20
-26860.0000
30
0.0
0
VERTEX
8
COTA
10
18594.6535
20
-27160.0000
30
0.0
0
VERTEX
8
COTA
10
18601.5919
20
-27460.0000
30
0.0
0
VERTEX
8
COTA
10
18609.1611
20
-27760.0000
30
0.0
0
VERTEX
8
COTA
10
18616.0995
20
-28060.0000
30
0.0
0
VERTEX
8
COTA
10
18623.6687
20
-28360.0000
30
0.0
0
VERTEX
8
COTA
10
18630.6072
20
-28660.0000
30
0.0
0
VERTEX
8
COTA
10
18637.5456
20
-28960.0000
30
0.0
0
VERTEX
8
COTA
10
18645.1148
20
-29260.0000
30
0.0
0
VERTEX
8
COTA
10
20000.0000
20
-29260.0000
30
0.0
0
SEQEND
8
COTA
0
POLYLINE
8
COTA
66
1
10
0.0
20
0.0
30
0.0
70
1
0
VERTEX
8
COTA
10
20000.0000
20
-23260.0000
30
0.0
0
VERTEX
8
COTA
10
21683.5143
20
-23260.0000
30
0.0
0
VERTEX
8
COTA
10
21692.3450
20
-23560.0000
30
0.0
0
VERTEX
8
COTA
10
21701.8065
20
-23860.0000
30
0.0
0
VERTEX
8
COTA
10
21710.6372
20
-24160.0000
30
0.0
0
VERTEX
8
COTA
10
21719.4679
20
-24460.0000
30
0.0
0
VERTEX
8
COTA
10
21728.9294
20
-24760.0000
30
0.0
0
VERTEX
8
COTA
10
21737.7601
20
-25060.0000
30
0.0
0
VERTEX
8
COTA
10
21746.5909
20
-25360.0000
30
0.0
0
VERTEX
8
COTA
10
21755.4216
20
-25660.0000
30
0.0
0
VERTEX
8
COTA
10
21764.8831
20
-25960.0000
30
0.0
0
VERTEX
8
COTA
10
21773.7138
20
-26260.0000
30
0.0
0
VERTEX
8
COTA
10
21782.5445
20
-26560.0000
30
0.0
0
VERTEX
8
COTA
10
21791.3752
20
-26860.0000
30
0.0
0
VERTEX
8
COTA
10
21800.8367
20
-27160.0000
30
0.0
0
VERTEX
8
COTA
10
21809.6675
20
-27460.0000
30
0.0
0
VERTEX
8
COTA
10
21818.4982
20
-27760.0000
30
0.0
0
VERTEX
8
COTA
10
21827.9597
20
-28060.0000
30
0.0
0
VERTEX
8
COTA
10
21836.7904
20
-28360.0000
30
0.0
0
VERTEX
8
COTA
10
21845.6211
20
-28660.0000
30
0.0
0
VERTEX
8
COTA
10
21854.4518
20
-28960.0000
30
0.0
0
VERTEX
8
COTA
10
21863.9133
20
-29260.0000
30
0.0
0
VERTEX
8
COTA
10
20000.0000
20
-29260.0000
30
0.0
0
SEQEND
8
COTA
0
TEXT
8
TEXTO
10
2940.0000
20
-23180.0000
30
0.0
40
200.0000
1
46,6
50
0.0000
72
1
73
0
11
2940.0000
21
-23180.0000
31
0.0
0
TEXT
8
TEXTO
10
-1863.9133
20
-29540.0000
30
0.0
40
200.0000
1
29,6
50
0.0000
72
1
73
0
11
-1863.9133
21
-29540.0000
31
0.0
0
TEXT
8
TEXTO
10
21863.9133
20
-29540.0000
30
0.0
40
200.0000
1
29,6
50
0.0000
72
1
73
0
11
21863.9133
21
-29540.0000
31
0.0
0
TEXT
8
TEXTO
10
9830.5362
20
-23874.6157
30
0.0
40
200.0000
1
27
50
0.0000
72
1
73
0
11
9830.5362
21
-23874.6157
31
0.0
0
TEXT
8
TEXTO
10
18045.0965
20
-24639.0301
30
0.0
40
200.0000
1
26,1
50
0.0000
72
1
73
0
11
18045.0965
21
-24639.0301
31
0.0
0
TEXT
8
TEXTO
10
160.8537
20
-24788.6312
30
0.0
40
200.0000
1
25,6
50
0.0000
72
1
73
0
11
160.8537
21
-24788.6312
31
0.0
0
TEXT
8
TEXTO
10
10000.0000
20
-33200.0000
30
0.0
40
400.0000
1
FORCA NORMAL (kN)
50
0.0000
72
1
73
0
11
10000.0000
21
-33200.0000
31
0.0
0
LINE
8
TEXTO
10
7892.0000
20
-33380.0000
30
0.0
11
12108.0000
21
-33380.0000
31
0.0
0
TEXT
8
TEXTO
10
10000.0000
20
-33800.0000
30
0.0
40
200.0000
1
ESCALA 1 cm = 4,7 kN
50
0.0000
72
1
73
0
11
10000.0000
21
-33800.0000
31
0.0
0
TEXT
8
TEXTO
10
0.0000
20
-36400.0000
30
0.0
40
250.0000
1
NOTAS
50
0.0000
0
TEXT
8
TEXTO
10
0.0000
20
-36740.0000
30
0.0
40
200.0000
1
1. Envoltoria das combinacoes ultimas: C1 gravidade; C2 succao (cpi+); C3 vento+SC (cpi+); C2 succao (cpi-); C3 vento+SC (cpi-).
50
0.0000
0
TEXT
8
TEXTO
10
0.0000
20
-37080.0000
30
0.0
40
200.0000
1
2. Ordenadas perpendiculares a barra; o momento positivo fica do lado tracionado.
50
0.0000
0
TEXT
8
TEXTO
10
0.0000
20
-37420.0000
30
0.0
40
200.0000
1
3. Valores em kN e kN.m, por portico, para o espacamento adotado.
50
0.0000
0
TEXT
8
TEXTO
10
0.0000
20
-37760.0000
30
0.0
40
200.0000
1
4. Deslocamento horizontal do topo: 1,92 cm <= 2 cm (H/300).
50
0.0000
0
TEXT
8
TEXTO
10
0.0000
20
-38100.0000
30
0.0
40
200.0000
1
5. Diagramas gerados pela mesma analise que dimensionou as pecas.
50
0.0000
0
ENDSEC
0
EOF
