0
SECTION
2
HEADER
9
$ACADVER
1
AC1009
9
$INSUNITS
70
4
9
$EXTMIN
10
-20.0000
20
-134.5200
30
0.0
9
$EXTMAX
10
400.8000
20
38.2000
30
0.0
9
$LTSCALE
40
1.0
9
$TEXTSTYLE
7
STANDARD
0
ENDSEC
0
SECTION
2
TABLES
0
TABLE
2
LTYPE
70
4
0
LTYPE
2
CONTINUOUS
70
0
3
Solida
72
65
73
0
40
0.0
0
LTYPE
2
CENTER
70
0
3
Linha de centro ____ _ ____ _ ____
72
65
73
4
40
31.7500
49
0.5000
49
-6.3500
49
3.1750
49
-6.3500
0
LTYPE
2
HIDDEN
70
0
3
Tracejada __ __ __ __ __ __
72
65
73
3
40
9.5250
49
0.5000
49
-6.3500
49
3.1750
0
LTYPE
2
DASHED
70
0
3
Tracejada longa ___ ___ ___
72
65
73
3
40
12.7000
49
0.5000
49
-6.3500
49
6.3500
0
ENDTAB
0
TABLE
2
LAYER
70
14
0
LAYER
2
0
70
0
62
7
6
CONTINUOUS
0
LAYER
2
ACO
70
0
62
7
6
CONTINUOUS
0
LAYER
2
ACO-FINO
70
0
62
8
6
CONTINUOUS
0
LAYER
2
EIXO
70
0
62
1
6
CENTER
0
LAYER
2
OCULTA
70
0
62
8
6
HIDDEN
0
LAYER
2
COTA
70
0
62
3
6
CONTINUOUS
0
LAYER
2
TEXTO
70
0
62
7
6
CONTINUOUS
0
LAYER
2
FURO
70
0
62
5
6
CONTINUOUS
0
LAYER
2
SOLDA
70
0
62
2
6
CONTINUOUS
0
LAYER
2
PARAFUSO
70
0
62
5
6
CONTINUOUS
0
LAYER
2
CONCRETO
70
0
62
9
6
CONTINUOUS
0
LAYER
2
HACHURA
70
0
62
8
6
CONTINUOUS
0
LAYER
2
CARIMBO
70
0
62
7
6
CONTINUOUS
0
LAYER
2
AUXILIAR
70
0
62
8
6
DASHED
0
ENDTAB
0
TABLE
2
STYLE
70
1
0
STYLE
2
STANDARD
70
0
40
0.0
41
0.85
50
0.0
71
0
42
2.5
3
txt
4

0
ENDTAB
0
ENDSEC
0
SECTION
2
ENTITIES
0
TEXT
8
TEXTO
10
190.4000
20
12.6000
30
0.0
40
5.6000
1
QUADRO DE VERIFICACOES
50
0.0000
72
1
73
0
11
190.4000
21
12.6000
31
0.0
0
LINE
8
TEXTO
10
152.2080
20
10.0800
30
0.0
11
228.5920
21
10.0800
31
0.0
0
TEXT
8
TEXTO
10
190.4000
20
4.7600
30
0.0
40
2.8000
1
Esforcos da envoltoria das combinacoes ultimas
50
0.0000
72
1
73
0
11
190.4000
21
4.7600
31
0.0
0
LINE
8
ACO
10
0.0000
20
0.0000
30
0.0
11
380.8000
21
0.0000
31
0.0
0
TEXT
8
TEXTO
10
2.2400
20
-6.0760
30
0.0
40
2.8000
1
MARCA
50
0.0000
0
LINE
8
ACO-FINO
10
0.0000
20
0.0000
30
0.0
11
0.0000
21
-8.6800
31
0.0
0
TEXT
8
TEXTO
10
24.6400
20
-6.0760
30
0.0
40
2.8000
1
ELEMENTO
50
0.0000
0
LINE
8
ACO-FINO
10
22.4000
20
0.0000
30
0.0
11
22.4000
21
-8.6800
31
0.0
0
TEXT
8
TEXTO
10
97.4400
20
-6.0760
30
0.0
40
2.8000
1
PERFIL
50
0.0000
0
LINE
8
ACO-FINO
10
95.2000
20
0.0000
30
0.0
11
95.2000
21
-8.6800
31
0.0
0
TEXT
8
TEXTO
10
176.9600
20
-6.0760
30
0.0
40
2.8000
1
M (kN.m)
50
0.0000
72
2
73
0
11
176.9600
21
-6.0760
31
0.0
0
LINE
8
ACO-FINO
10
151.2000
20
0.0000
30
0.0
11
151.2000
21
-8.6800
31
0.0
0
TEXT
8
TEXTO
10
199.3600
20
-6.0760
30
0.0
40
2.8000
1
V (kN)
50
0.0000
72
2
73
0
11
199.3600
21
-6.0760
31
0.0
0
LINE
8
ACO-FINO
10
179.2000
20
0.0000
30
0.0
11
179.2000
21
-8.6800
31
0.0
0
TEXT
8
TEXTO
10
221.7600
20
-6.0760
30
0.0
40
2.8000
1
N (kN)
50
0.0000
72
2
73
0
11
221.7600
21
-6.0760
31
0.0
0
LINE
8
ACO-FINO
10
201.6000
20
0.0000
30
0.0
11
201.6000
21
-8.6800
31
0.0
0
TEXT
8
TEXTO
10
226.2400
20
-6.0760
30
0.0
40
2.8000
1
VERIFICACAO QUE GOVERNA
50
0.0000
0
LINE
8
ACO-FINO
10
224.0000
20
0.0000
30
0.0
11
224.0000
21
-8.6800
31
0.0
0
TEXT
8
TEXTO
10
347.7600
20
-6.0760
30
0.0
40
2.8000
1
Sd/Rd
50
0.0000
72
2
73
0
11
347.7600
21
-6.0760
31
0.0
0
LINE
8
ACO-FINO
10
327.6000
20
0.0000
30
0.0
11
327.6000
21
-8.6800
31
0.0
0
TEXT
8
TEXTO
10
352.2400
20
-6.0760
30
0.0
40
2.8000
1
SITUACAO
50
0.0000
0
LINE
8
ACO-FINO
10
350.0000
20
0.0000
30
0.0
11
350.0000
21
-8.6800
31
0.0
0
LINE
8
ACO-FINO
10
380.8000
20
0.0000
30
0.0
11
380.8000
21
-8.6800
31
0.0
0
LINE
8
ACO
10
0.0000
20
-8.6800
30
0.0
11
380.8000
21
-8.6800
31
0.0
0
TEXT
8
TEXTO
10
2.2400
20
-14.7560
30
0.0
40
2.8000
1
T1
50
0.0000
0
LINE
8
ACO-FINO
10
0.0000
20
-8.6800
30
0.0
11
0.0000
21
-17.3600
31
0.0
0
TEXT
8
TEXTO
10
24.6400
20
-14.7560
30
0.0
40
2.8000
1
Terca
50
0.0000
0
LINE
8
ACO-FINO
10
22.4000
20
-8.6800
30
0.0
11
22.4000
21
-17.3600
31
0.0
0
TEXT
8
TEXTO
10
97.4400
20
-14.7560
30
0.0
40
2.8000
1
Ue 200x75x20x2,00
50
0.0000
0
LINE
8
ACO-FINO
10
95.2000
20
-8.6800
30
0.0
11
95.2000
21
-17.3600
31
0.0
0
TEXT
8
TEXTO
10
176.9600
20
-14.7560
30
0.0
40
2.8000
1
6,3
50
0.0000
72
2
73
0
11
176.9600
21
-14.7560
31
0.0
0
LINE
8
ACO-FINO
10
151.2000
20
-8.6800
30
0.0
11
151.2000
21
-17.3600
31
0.0
0
TEXT
8
TEXTO
10
199.3600
20
-14.7560
30
0.0
40
2.8000
1
5
50
0.0000
72
2
73
0
11
199.3600
21
-14.7560
31
0.0
0
LINE
8
ACO-FINO
10
179.2000
20
-8.6800
30
0.0
11
179.2000
21
-17.3600
31
0.0
0
TEXT
8
TEXTO
10
221.7600
20
-14.7560
30
0.0
40
2.8000
1
-
50
0.0000
72
2
73
0
11
221.7600
21
-14.7560
31
0.0
0
LINE
8
ACO-FINO
10
201.6000
20
-8.6800
30
0.0
11
201.6000
21
-17.3600
31
0.0
0
TEXT
8
TEXTO
10
226.2400
20
-14.7560
30
0.0
40
2.8000
1
Flexao Mx - combinacao de succao (mesa inferior.
50
0.0000
0
LINE
8
ACO-FINO
10
224.0000
20
-8.6800
30
0.0
11
224.0000
21
-17.3600
31
0.0
0
TEXT
8
TEXTO
10
347.7600
20
-14.7560
30
0.0
40
2.8000
1
0,73
50
0.0000
72
2
73
0
11
347.7600
21
-14.7560
31
0.0
0
LINE
8
ACO-FINO
10
327.6000
20
-8.6800
30
0.0
11
327.6000
21
-17.3600
31
0.0
0
TEXT
8
TEXTO
10
352.2400
20
-14.7560
30
0.0
40
2.8000
1
ATENDE
50
0.0000
0
LINE
8
ACO-FINO
10
350.0000
20
-8.6800
30
0.0
11
350.0000
21
-17.3600
31
0.0
0
LINE
8
ACO-FINO
10
380.8000
20
-8.6800
30
0.0
11
380.8000
21
-17.3600
31
0.0
0
LINE
8
ACO-FINO
10
0.0000
20
-17.3600
30
0.0
11
380.8000
21
-17.3600
31
0.0
0
TEXT
8
TEXTO
10
2.2400
20
-23.4360
30
0.0
40
2.8000
1
L1
50
0.0000
0
LINE
8
ACO-FINO
10
0.0000
20
-17.3600
30
0.0
11
0.0000
21
-26.0400
31
0.0
0
TEXT
8
TEXTO
10
24.6400
20
-23.4360
30
0.0
40
2.8000
1
Longarina de fechamento
50
0.0000
0
LINE
8
ACO-FINO
10
22.4000
20
-17.3600
30
0.0
11
22.4000
21
-26.0400
31
0.0
0
TEXT
8
TEXTO
10
97.4400
20
-23.4360
30
0.0
40
2.8000
1
Ue 200x75x20x2,00
50
0.0000
0
LINE
8
ACO-FINO
10
95.2000
20
-17.3600
30
0.0
11
95.2000
21
-26.0400
31
0.0
0
TEXT
8
TEXTO
10
176.9600
20
-23.4360
30
0.0
40
2.8000
1
7,7
50
0.0000
72
2
73
0
11
176.9600
21
-23.4360
31
0.0
0
LINE
8
ACO-FINO
10
151.2000
20
-17.3600
30
0.0
11
151.2000
21
-26.0400
31
0.0
0
TEXT
8
TEXTO
10
199.3600
20
-23.4360
30
0.0
40
2.8000
1
6,2
50
0.0000
72
2
73
0
11
199.3600
21
-23.4360
31
0.0
0
LINE
8
ACO-FINO
10
179.2000
20
-17.3600
30
0.0
11
179.2000
21
-26.0400
31
0.0
0
TEXT
8
TEXTO
10
221.7600
20
-23.4360
30
0.0
40
2.8000
1
-
50
0.0000
72
2
73
0
11
221.7600
21
-23.4360
31
0.0
0
LINE
8
ACO-FINO
10
201.6000
20
-17.3600
30
0.0
11
201.6000
21
-26.0400
31
0.0
0
TEXT
8
TEXTO
10
226.2400
20
-23.4360
30
0.0
40
2.8000
1
Flexao Mx - combinacao de succao (mesa inferior.
50
0.0000
0
LINE
8
ACO-FINO
10
224.0000
20
-17.3600
30
0.0
11
224.0000
21
-26.0400
31
0.0
0
TEXT
8
TEXTO
10
347.7600
20
-23.4360
30
0.0
40
2.8000
1
0,90
50
0.0000
72
2
73
0
11
347.7600
21
-23.4360
31
0.0
0
LINE
8
ACO-FINO
10
327.6000
20
-17.3600
30
0.0
11
327.6000
21
-26.0400
31
0.0
0
TEXT
8
TEXTO
10
352.2400
20
-23.4360
30
0.0
40
2.8000
1
ATENDE
50
0.0000
0
LINE
8
ACO-FINO
10
350.0000
20
-17.3600
30
0.0
11
350.0000
21
-26.0400
31
0.0
0
LINE
8
ACO-FINO
10
380.8000
20
-17.3600
30
0.0
11
380.8000
21
-26.0400
31
0.0
0
LINE
8
ACO-FINO
10
0.0000
20
-26.0400
30
0.0
11
380.8000
21
-26.0400
31
0.0
0
TEXT
8
TEXTO
10
2.2400
20
-32.1160
30
0.0
40
2.8000
1
V1
50
0.0000
0
LINE
8
ACO-FINO
10
0.0000
20
-26.0400
30
0.0
11
0.0000
21
-34.7200
31
0.0
0
TEXT
8
TEXTO
10
24.6400
20
-32.1160
30
0.0
40
2.8000
1
Viga do portico
50
0.0000
0
LINE
8
ACO-FINO
10
22.4000
20
-26.0400
30
0.0
11
22.4000
21
-34.7200
31
0.0
0
TEXT
8
TEXTO
10
97.4400
20
-32.1160
30
0.0
40
2.8000
1
W 250x32,7
50
0.0000
0
LINE
8
ACO-FINO
10
95.2000
20
-26.0400
30
0.0
11
95.2000
21
-34.7200
31
0.0
0
TEXT
8
TEXTO
10
176.9600
20
-32.1160
30
0.0
40
2.8000
1
102,5
50
0.0000
72
2
73
0
11
176.9600
21
-32.1160
31
0.0
0
LINE
8
ACO-FINO
10
151.2000
20
-26.0400
30
0.0
11
151.2000
21
-34.7200
31
0.0
0
TEXT
8
TEXTO
10
199.3600
20
-32.1160
30
0.0
40
2.8000
1
44,3
50
0.0000
72
2
73
0
11
199.3600
21
-32.1160
31
0.0
0
LINE
8
ACO-FINO
10
179.2000
20
-26.0400
30
0.0
11
179.2000
21
-34.7200
31
0.0
0
TEXT
8
TEXTO
10
221.7600
20
-32.1160
30
0.0
40
2.8000
1
-
50
0.0000
72
2
73
0
11
221.7600
21
-32.1160
31
0.0
0
LINE
8
ACO-FINO
10
201.6000
20
-26.0400
30
0.0
11
201.6000
21
-34.7200
31
0.0
0
TEXT
8
TEXTO
10
226.2400
20
-32.1160
30
0.0
40
2.8000
1
Flexao - flambagem lateral com torcao (FLT)
50
0.0000
0
LINE
8
ACO-FINO
10
224.0000
20
-26.0400
30
0.0
11
224.0000
21
-34.7200
31
0.0
0
TEXT
8
TEXTO
10
347.7600
20
-32.1160
30
0.0
40
2.8000
1
0,83
50
0.0000
72
2
73
0
11
347.7600
21
-32.1160
31
0.0
0
LINE
8
ACO-FINO
10
327.6000
20
-26.0400
30
0.0
11
327.6000
21
-34.7200
31
0.0
0
TEXT
8
TEXTO
10
352.2400
20
-32.1160
30
0.0
40
2.8000
1
ATENDE
50
0.0000
0
LINE
8
ACO-FINO
10
350.0000
20
-26.0400
30
0.0
11
350.0000
21
-34.7200
31
0.0
0
LINE
8
ACO-FINO
10
380.8000
20
-26.0400
30
0.0
11
380.8000
21
-34.7200
31
0.0
0
LINE
8
ACO-FINO
10
0.0000
20
-34.7200
30
0.0
11
380.8000
21
-34.7200
31
0.0
0
TEXT
8
TEXTO
10
2.2400
20
-40.7960
30
0.0
40
2.8000
1
P1
50
0.0000
0
LINE
8
ACO-FINO
10
0.0000
20
-34.7200
30
0.0
11
0.0000
21
-43.4000
31
0.0
0
TEXT
8
TEXTO
10
24.6400
20
-40.7960
30
0.0
40
2.8000
1
Pilar
50
0.0000
0
LINE
8
ACO-FINO
10
22.4000
20
-34.7200
30
0.0
11
22.4000
21
-43.4000
31
0.0
0
TEXT
8
TEXTO
10
97.4400
20
-40.7960
30
0.0
40
2.8000
1
W 410x38,8
50
0.0000
0
LINE
8
ACO-FINO
10
95.2000
20
-34.7200
30
0.0
11
95.2000
21
-43.4000
31
0.0
0
TEXT
8
TEXTO
10
176.9600
20
-40.7960
30
0.0
40
2.8000
1
182,2
50
0.0000
72
2
73
0
11
176.9600
21
-40.7960
31
0.0
0
LINE
8
ACO-FINO
10
151.2000
20
-34.7200
30
0.0
11
151.2000
21
-43.4000
31
0.0
0
TEXT
8
TEXTO
10
199.3600
20
-40.7960
30
0.0
40
2.8000
1
39,7
50
0.0000
72
2
73
0
11
199.3600
21
-40.7960
31
0.0
0
LINE
8
ACO-FINO
10
179.2000
20
-34.7200
30
0.0
11
179.2000
21
-43.4000
31
0.0
0
TEXT
8
TEXTO
10
221.7600
20
-40.7960
30
0.0
40
2.8000
1
46,6
50
0.0000
72
2
73
0
11
221.7600
21
-40.7960
31
0.0
0
LINE
8
ACO-FINO
10
201.6000
20
-34.7200
30
0.0
11
201.6000
21
-43.4000
31
0.0
0
TEXT
8
TEXTO
10
226.2400
20
-40.7960
30
0.0
40
2.8000
1
Interacao forca axial (compressao) + momentos
50
0.0000
0
LINE
8
ACO-FINO
10
224.0000
20
-34.7200
30
0.0
11
224.0000
21
-43.4000
31
0.0
0
TEXT
8
TEXTO
10
347.7600
20
-40.7960
30
0.0
40
2.8000
1
0,85
50
0.0000
72
2
73
0
11
347.7600
21
-40.7960
31
0.0
0
LINE
8
ACO-FINO
10
327.6000
20
-34.7200
30
0.0
11
327.6000
21
-43.4000
31
0.0
0
TEXT
8
TEXTO
10
352.2400
20
-40.7960
30
0.0
40
2.8000
1
ATENDE
50
0.0000
0
LINE
8
ACO-FINO
10
350.0000
20
-34.7200
30
0.0
11
350.0000
21
-43.4000
31
0.0
0
LINE
8
ACO-FINO
10
380.8000
20
-34.7200
30
0.0
11
380.8000
21
-43.4000
31
0.0
0
LINE
8
ACO-FINO
10
0.0000
20
-43.4000
30
0.0
11
380.8000
21
-43.4000
31
0.0
0
TEXT
8
TEXTO
10
2.2400
20
-49.4760
30
0.0
40
2.8000
1
CC
50
0.0000
0
LINE
8
ACO-FINO
10
0.0000
20
-43.4000
30
0.0
11
0.0000
21
-52.0800
31
0.0
0
TEXT
8
TEXTO
10
24.6400
20
-49.4760
30
0.0
40
2.8000
1
Contraventamento de cobertura
50
0.0000
0
LINE
8
ACO-FINO
10
22.4000
20
-43.4000
30
0.0
11
22.4000
21
-52.0800
31
0.0
0
TEXT
8
TEXTO
10
97.4400
20
-49.4760
30
0.0
40
2.8000
1
Barra redonda %%c 20 mm
50
0.0000
0
LINE
8
ACO-FINO
10
95.2000
20
-43.4000
30
0.0
11
95.2000
21
-52.0800
31
0.0
0
TEXT
8
TEXTO
10
176.9600
20
-49.4760
30
0.0
40
2.8000
1
-
50
0.0000
72
2
73
0
11
176.9600
21
-49.4760
31
0.0
0
LINE
8
ACO-FINO
10
151.2000
20
-43.4000
30
0.0
11
151.2000
21
-52.0800
31
0.0
0
TEXT
8
TEXTO
10
199.3600
20
-49.4760
30
0.0
40
2.8000
1
-
50
0.0000
72
2
73
0
11
199.3600
21
-49.4760
31
0.0
0
LINE
8
ACO-FINO
10
179.2000
20
-43.4000
30
0.0
11
179.2000
21
-52.0800
31
0.0
0
TEXT
8
TEXTO
10
221.7600
20
-49.4760
30
0.0
40
2.8000
1
56,8
50
0.0000
72
2
73
0
11
221.7600
21
-49.4760
31
0.0
0
LINE
8
ACO-FINO
10
201.6000
20
-43.4000
30
0.0
11
201.6000
21
-52.0800
31
0.0
0
TEXT
8
TEXTO
10
226.2400
20
-49.4760
30
0.0
40
2.8000
1
Tracao - ruptura da secao liquida
50
0.0000
0
LINE
8
ACO-FINO
10
224.0000
20
-43.4000
30
0.0
11
224.0000
21
-52.0800
31
0.0
0
TEXT
8
TEXTO
10
347.7600
20
-49.4760
30
0.0
40
2.8000
1
0,81
50
0.0000
72
2
73
0
11
347.7600
21
-49.4760
31
0.0
0
LINE
8
ACO-FINO
10
327.6000
20
-43.4000
30
0.0
11
327.6000
21
-52.0800
31
0.0
0
TEXT
8
TEXTO
10
352.2400
20
-49.4760
30
0.0
40
2.8000
1
ATENDE
50
0.0000
0
LINE
8
ACO-FINO
10
350.0000
20
-43.4000
30
0.0
11
350.0000
21
-52.0800
31
0.0
0
LINE
8
ACO-FINO
10
380.8000
20
-43.4000
30
0.0
11
380.8000
21
-52.0800
31
0.0
0
LINE
8
ACO-FINO
10
0.0000
20
-52.0800
30
0.0
11
380.8000
21
-52.0800
31
0.0
0
TEXT
8
TEXTO
10
2.2400
20
-58.1560
30
0.0
40
2.8000
1
CV
50
0.0000
0
LINE
8
ACO-FINO
10
0.0000
20
-52.0800
30
0.0
11
0.0000
21
-60.7600
31
0.0
0
TEXT
8
TEXTO
10
24.6400
20
-58.1560
30
0.0
40
2.8000
1
Contraventamento vertical
50
0.0000
0
LINE
8
ACO-FINO
10
22.4000
20
-52.0800
30
0.0
11
22.4000
21
-60.7600
31
0.0
0
TEXT
8
TEXTO
10
97.4400
20
-58.1560
30
0.0
40
2.8000
1
Barra redonda %%c 20 mm
50
0.0000
0
LINE
8
ACO-FINO
10
95.2000
20
-52.0800
30
0.0
11
95.2000
21
-60.7600
31
0.0
0
TEXT
8
TEXTO
10
176.9600
20
-58.1560
30
0.0
40
2.8000
1
-
50
0.0000
72
2
73
0
11
176.9600
21
-58.1560
31
0.0
0
LINE
8
ACO-FINO
10
151.2000
20
-52.0800
30
0.0
11
151.2000
21
-60.7600
31
0.0
0
TEXT
8
TEXTO
10
199.3600
20
-58.1560
30
0.0
40
2.8000
1
-
50
0.0000
72
2
73
0
11
199.3600
21
-58.1560
31
0.0
0
LINE
8
ACO-FINO
10
179.2000
20
-52.0800
30
0.0
11
179.2000
21
-60.7600
31
0.0
0
TEXT
8
TEXTO
10
221.7600
20
-58.1560
30
0.0
40
2.8000
1
62,8
50
0.0000
72
2
73
0
11
221.7600
21
-58.1560
31
0.0
0
LINE
8
ACO-FINO
10
201.6000
20
-52.0800
30
0.0
11
201.6000
21
-60.7600
31
0.0
0
TEXT
8
TEXTO
10
226.2400
20
-58.1560
30
0.0
40
2.8000
1
Tracao - ruptura da secao liquida
50
0.0000
0
LINE
8
ACO-FINO
10
224.0000
20
-52.0800
30
0.0
11
224.0000
21
-60.7600
31
0.0
0
TEXT
8
TEXTO
10
347.7600
20
-58.1560
30
0.0
40
2.8000
1
0,90
50
0.0000
72
2
73
0
11
347.7600
21
-58.1560
31
0.0
0
LINE
8
ACO-FINO
10
327.6000
20
-52.0800
30
0.0
11
327.6000
21
-60.7600
31
0.0
0
TEXT
8
TEXTO
10
352.2400
20
-58.1560
30
0.0
40
2.8000
1
ATENDE
50
0.0000
0
LINE
8
ACO-FINO
10
350.0000
20
-52.0800
30
0.0
11
350.0000
21
-60.7600
31
0.0
0
LINE
8
ACO-FINO
10
380.8000
20
-52.0800
30
0.0
11
380.8000
21
-60.7600
31
0.0
0
LINE
8
ACO-FINO
10
0.0000
20
-60.7600
30
0.0
11
380.8000
21
-60.7600
31
0.0
0
TEXT
8
TEXTO
10
2.2400
20
-66.8360
30
0.0
40
2.8000
1
-
50
0.0000
0
LINE
8
ACO-FINO
10
0.0000
20
-60.7600
30
0.0
11
0.0000
21
-69.4400
31
0.0
0
TEXT
8
TEXTO
10
24.6400
20
-66.8360
30
0.0
40
2.8000
1
Ligacao viga-pilar
50
0.0000
0
LINE
8
ACO-FINO
10
22.4000
20
-60.7600
30
0.0
11
22.4000
21
-69.4400
31
0.0
0
TEXT
8
TEXTO
10
97.4400
20
-66.8360
30
0.0
40
2.8000
1
Misula W 250x32,7 (h=464)
50
0.0000
0
LINE
8
ACO-FINO
10
95.2000
20
-60.7600
30
0.0
11
95.2000
21
-69.4400
31
0.0
0
TEXT
8
TEXTO
10
176.9600
20
-66.8360
30
0.0
40
2.8000
1
-
50
0.0000
72
2
73
0
11
176.9600
21
-66.8360
31
0.0
0
LINE
8
ACO-FINO
10
151.2000
20
-60.7600
30
0.0
11
151.2000
21
-69.4400
31
0.0
0
TEXT
8
TEXTO
10
199.3600
20
-66.8360
30
0.0
40
2.8000
1
-
50
0.0000
72
2
73
0
11
199.3600
21
-66.8360
31
0.0
0
LINE
8
ACO-FINO
10
179.2000
20
-60.7600
30
0.0
11
179.2000
21
-69.4400
31
0.0
0
TEXT
8
TEXTO
10
221.7600
20
-66.8360
30
0.0
40
2.8000
1
-
50
0.0000
72
2
73
0
11
221.7600
21
-66.8360
31
0.0
0
LINE
8
ACO-FINO
10
201.6000
20
-60.7600
30
0.0
11
201.6000
21
-69.4400
31
0.0
0
TEXT
8
TEXTO
10
226.2400
20
-66.8360
30
0.0
40
2.8000
1
Espessura da chapa de topo (flexao - modelo T-st.
50
0.0000
0
LINE
8
ACO-FINO
10
224.0000
20
-60.7600
30
0.0
11
224.0000
21
-69.4400
31
0.0
0
TEXT
8
TEXTO
10
347.7600
20
-66.8360
30
0.0
40
2.8000
1
0,99
50
0.0000
72
2
73
0
11
347.7600
21
-66.8360
31
0.0
0
LINE
8
ACO-FINO
10
327.6000
20
-60.7600
30
0.0
11
327.6000
21
-69.4400
31
0.0
0
TEXT
8
TEXTO
10
352.2400
20
-66.8360
30
0.0
40
2.8000
1
ATENDE
50
0.0000
0
LINE
8
ACO-FINO
10
350.0000
20
-60.7600
30
0.0
11
350.0000
21
-69.4400
31
0.0
0
LINE
8
ACO-FINO
10
380.8000
20
-60.7600
30
0.0
11
380.8000
21
-69.4400
31
0.0
0
LINE
8
ACO-FINO
10
0.0000
20
-69.4400
30
0.0
11
380.8000
21
-69.4400
31
0.0
0
TEXT
8
TEXTO
10
2.2400
20
-75.5160
30
0.0
40
2.8000
1
-
50
0.0000
0
LINE
8
ACO-FINO
10
0.0000
20
-69.4400
30
0.0
11
0.0000
21
-78.1200
31
0.0
0
TEXT
8
TEXTO
10
24.6400
20
-75.5160
30
0.0
40
2.8000
1
Ligacao cumeeira
50
0.0000
0
LINE
8
ACO-FINO
10
22.4000
20
-69.4400
30
0.0
11
22.4000
21
-78.1200
31
0.0
0
TEXT
8
TEXTO
10
97.4400
20
-75.5160
30
0.0
40
2.8000
1
W 250x32,7
50
0.0000
0
LINE
8
ACO-FINO
10
95.2000
20
-69.4400
30
0.0
11
95.2000
21
-78.1200
31
0.0
0
TEXT
8
TEXTO
10
176.9600
20
-75.5160
30
0.0
40
2.8000
1
-
50
0.0000
72
2
73
0
11
176.9600
21
-75.5160
31
0.0
0
LINE
8
ACO-FINO
10
151.2000
20
-69.4400
30
0.0
11
151.2000
21
-78.1200
31
0.0
0
TEXT
8
TEXTO
10
199.3600
20
-75.5160
30
0.0
40
2.8000
1
-
50
0.0000
72
2
73
0
11
199.3600
21
-75.5160
31
0.0
0
LINE
8
ACO-FINO
10
179.2000
20
-69.4400
30
0.0
11
179.2000
21
-78.1200
31
0.0
0
TEXT
8
TEXTO
10
221.7600
20
-75.5160
30
0.0
40
2.8000
1
-
50
0.0000
72
2
73
0
11
221.7600
21
-75.5160
31
0.0
0
LINE
8
ACO-FINO
10
201.6000
20
-69.4400
30
0.0
11
201.6000
21
-78.1200
31
0.0
0
TEXT
8
TEXTO
10
226.2400
20
-75.5160
30
0.0
40
2.8000
1
Espessura da chapa de topo (flexao - modelo T-st.
50
0.0000
0
LINE
8
ACO-FINO
10
224.0000
20
-69.4400
30
0.0
11
224.0000
21
-78.1200
31
0.0
0
TEXT
8
TEXTO
10
347.7600
20
-75.5160
30
0.0
40
2.8000
1
0,92
50
0.0000
72
2
73
0
11
347.7600
21
-75.5160
31
0.0
0
LINE
8
ACO-FINO
10
327.6000
20
-69.4400
30
0.0
11
327.6000
21
-78.1200
31
0.0
0
TEXT
8
TEXTO
10
352.2400
20
-75.5160
30
0.0
40
2.8000
1
ATENDE
50
0.0000
0
LINE
8
ACO-FINO
10
350.0000
20
-69.4400
30
0.0
11
350.0000
21
-78.1200
31
0.0
0
LINE
8
ACO-FINO
10
380.8000
20
-69.4400
30
0.0
11
380.8000
21
-78.1200
31
0.0
0
LINE
8
ACO-FINO
10
0.0000
20
-78.1200
30
0.0
11
380.8000
21
-78.1200
31
0.0
0
TEXT
8
TEXTO
10
2.2400
20
-84.1960
30
0.0
40
2.8000
1
-
50
0.0000
0
LINE
8
ACO-FINO
10
0.0000
20
-78.1200
30
0.0
11
0.0000
21
-86.8000
31
0.0
0
TEXT
8
TEXTO
10
24.6400
20
-84.1960
30
0.0
40
2.8000
1
Base do pilar
50
0.0000
0
LINE
8
ACO-FINO
10
22.4000
20
-78.1200
30
0.0
11
22.4000
21
-86.8000
31
0.0
0
TEXT
8
TEXTO
10
97.4400
20
-84.1960
30
0.0
40
2.8000
1
W 410x38,8
50
0.0000
0
LINE
8
ACO-FINO
10
95.2000
20
-78.1200
30
0.0
11
95.2000
21
-86.8000
31
0.0
0
TEXT
8
TEXTO
10
176.9600
20
-84.1960
30
0.0
40
2.8000
1
-
50
0.0000
72
2
73
0
11
176.9600
21
-84.1960
31
0.0
0
LINE
8
ACO-FINO
10
151.2000
20
-78.1200
30
0.0
11
151.2000
21
-86.8000
31
0.0
0
TEXT
8
TEXTO
10
199.3600
20
-84.1960
30
0.0
40
2.8000
1
-
50
0.0000
72
2
73
0
11
199.3600
21
-84.1960
31
0.0
0
LINE
8
ACO-FINO
10
179.2000
20
-78.1200
30
0.0
11
179.2000
21
-86.8000
31
0.0
0
TEXT
8
TEXTO
10
221.7600
20
-84.1960
30
0.0
40
2.8000
1
-
50
0.0000
72
2
73
0
11
221.7600
21
-84.1960
31
0.0
0
LINE
8
ACO-FINO
10
201.6000
20
-78.1200
30
0.0
11
201.6000
21
-86.8000
31
0.0
0
TEXT
8
TEXTO
10
226.2400
20
-84.1960
30
0.0
40
2.8000
1
Concreto a frente da chave
50
0.0000
0
LINE
8
ACO-FINO
10
224.0000
20
-78.1200
30
0.0
11
224.0000
21
-86.8000
31
0.0
0
TEXT
8
TEXTO
10
347.7600
20
-84.1960
30
0.0
40
2.8000
1
0,60
50
0.0000
72
2
73
0
11
347.7600
21
-84.1960
31
0.0
0
LINE
8
ACO-FINO
10
327.6000
20
-78.1200
30
0.0
11
327.6000
21
-86.8000
31
0.0
0
TEXT
8
TEXTO
10
352.2400
20
-84.1960
30
0.0
40
2.8000
1
ATENDE
50
0.0000
0
LINE
8
ACO-FINO
10
350.0000
20
-78.1200
30
0.0
11
350.0000
21
-86.8000
31
0.0
0
LINE
8
ACO-FINO
10
380.8000
20
-78.1200
30
0.0
11
380.8000
21
-86.8000
31
0.0
0
LINE
8
ACO-FINO
10
0.0000
20
-86.8000
30
0.0
11
380.8000
21
-86.8000
31
0.0
0
TEXT
8
TEXTO
10
0.0000
20
-95.4800
30
0.0
40
3.5000
1
NOTAS
50
0.0000
0
TEXT
8
TEXTO
10
0.0000
20
-100.2400
30
0.0
40
2.8000
1
1. Deslocamento do topo 1,92 cm de 2 cm (H/300).
50
0.0000
0
TEXT
8
TEXTO
10
0.0000
20
-105.0000
30
0.0
40
2.8000
1
2. M, V e N sao os esforcos que dimensionaram a peca, no caso que governa.
50
0.0000
0
TEXT
8
TEXTO
10
0.0000
20
-109.7600
30
0.0
40
2.8000
1
3. Sd/Rd e a razao da verificacao critica: 1,00 e o limite da norma.
50
0.0000
0
TEXT
8
TEXTO
10
0.0000
20
-114.5200
30
0.0
40
2.8000
1
4. Conferir com o memorial de calculo antes da fabricacao.
50
0.0000
0
ENDSEC
0
EOF
